<svg xmlns="http://www.w3.org/2000/svg" width="98.441" height="38.544" viewBox="0 0 98.441 38.544">
  <g id="Grupo_1206024" data-name="Grupo 1206024" transform="translate(21.569 -68.676)">
    <path id="Contenido" d="M8.517-3.85A4.242,4.242,0,0,1,8.2-2.18,3.651,3.651,0,0,1,7.3-.9,4.034,4.034,0,0,1,5.889-.07,5.517,5.517,0,0,1,4.052.22a5.074,5.074,0,0,1-2.61-.527V-1.837a4.8,4.8,0,0,0,2.628.826,3.556,3.556,0,0,0,1.235-.2,2.744,2.744,0,0,0,.936-.562,2.408,2.408,0,0,0,.593-.87A2.945,2.945,0,0,0,7.04-3.762a2.391,2.391,0,0,0-.826-1.929,3.623,3.623,0,0,0-2.4-.7q-.255,0-.536.009t-.562.022q-.281.013-.549.031t-.488.044L2.109-12.6H7.937v1.3H3.357L3.1-7.6q.281-.018.6-.031t.563-.013a5.656,5.656,0,0,1,1.793.264,3.8,3.8,0,0,1,1.34.751,3.151,3.151,0,0,1,.835,1.2A4.2,4.2,0,0,1,8.517-3.85Zm10.153-2.5a12.381,12.381,0,0,1-.286,2.8,6.533,6.533,0,0,1-.826,2.061A3.718,3.718,0,0,1,16.231-.215,3.633,3.633,0,0,1,14.442.22,3.393,3.393,0,0,1,12.75-.2,3.546,3.546,0,0,1,11.5-1.415a6.17,6.17,0,0,1-.773-1.964,12.146,12.146,0,0,1-.264-2.667,13.749,13.749,0,0,1,.277-2.918,6.674,6.674,0,0,1,.813-2.123,3.619,3.619,0,0,1,1.332-1.292,3.739,3.739,0,0,1,1.824-.435Q18.67-12.814,18.67-6.354Zm-1.477.141q0-5.379-2.558-5.379-2.7,0-2.7,5.476,0,5.106,2.646,5.106Q17.193-1.011,17.193-6.214Zm11.181-.141a12.381,12.381,0,0,1-.286,2.8,6.533,6.533,0,0,1-.826,2.061A3.718,3.718,0,0,1,25.936-.215,3.633,3.633,0,0,1,24.147.22,3.393,3.393,0,0,1,22.455-.2,3.546,3.546,0,0,1,21.2-1.415a6.17,6.17,0,0,1-.773-1.964,12.146,12.146,0,0,1-.264-2.667,13.749,13.749,0,0,1,.277-2.918,6.674,6.674,0,0,1,.813-2.123,3.619,3.619,0,0,1,1.332-1.292,3.739,3.739,0,0,1,1.824-.435Q28.375-12.814,28.375-6.354ZM26.9-6.214q0-5.379-2.558-5.379-2.7,0-2.7,5.476,0,5.106,2.646,5.106Q26.9-1.011,26.9-6.214ZM38.044,0H36.023L32.05-4.324h-.035V0H30.574V-13.324h1.441v8.446h.035L35.83-9h1.89L33.544-4.658Zm7.49-.65a11.4,11.4,0,0,1-.58,1.947A5.153,5.153,0,0,1,44,2.843a4.062,4.062,0,0,1-1.463,1.02,5.478,5.478,0,0,1-2.118.365,4.973,4.973,0,0,1-1.5-.2,6.911,6.911,0,0,1-1.165-.483L38.029,2.2a6.8,6.8,0,0,0,1.178.563,3.881,3.881,0,0,0,1.345.229,3.671,3.671,0,0,0,1.358-.229,2.727,2.727,0,0,0,.993-.672A3.713,3.713,0,0,0,43.6,1a8.253,8.253,0,0,0,.461-1.468l.308-1.406H44.33a8.822,8.822,0,0,1-.655.927A3.777,3.777,0,0,1,43-.294a2.625,2.625,0,0,1-.738.387,2.711,2.711,0,0,1-.853.127A2.713,2.713,0,0,1,40.314,0a2.233,2.233,0,0,1-.839-.637,2.981,2.981,0,0,1-.536-1.055,5.109,5.109,0,0,1-.189-1.459,6.934,6.934,0,0,1,.171-1.538,6.734,6.734,0,0,1,.5-1.433,6.031,6.031,0,0,1,.8-1.244,5.29,5.29,0,0,1,1.068-.98,5.034,5.034,0,0,1,1.314-.646,4.931,4.931,0,0,1,1.534-.233,12.762,12.762,0,0,1,1.635.105q.817.105,1.5.237Zm.07-7.163a6.954,6.954,0,0,0-.725-.123,7.42,7.42,0,0,0-.91-.053,3.051,3.051,0,0,0-1.512.382A3.794,3.794,0,0,0,41.276-6.57,5.016,5.016,0,0,0,40.5-5.045a6.022,6.022,0,0,0-.277,1.837,4.347,4.347,0,0,0,.083.879,2.118,2.118,0,0,0,.264.694,1.337,1.337,0,0,0,.466.457,1.363,1.363,0,0,0,.7.167,1.984,1.984,0,0,0,.892-.2,2.944,2.944,0,0,0,.751-.536,4.112,4.112,0,0,0,.611-.76,7.676,7.676,0,0,0,.475-.875,7.972,7.972,0,0,0,.347-.883q.141-.435.22-.787Z" transform="translate(21 82)" fill="#212429"/>
    <path id="Contenido-2" data-name="Contenido" d="M14.528-6.732a2.924,2.924,0,0,1-.031.347q-.031.233-.079.5t-.1.523q-.048.259-.083.435L13.175,0H11.733l1.1-5.273q.035-.149.07-.334t.066-.365q.031-.18.048-.334a2.261,2.261,0,0,0,.018-.242,1.673,1.673,0,0,0-.3-1.068,1.121,1.121,0,0,0-.932-.374,1.735,1.735,0,0,0-.69.154,3.191,3.191,0,0,0-.694.417,4.9,4.9,0,0,0-.65.615,6.263,6.263,0,0,0-.571.751,5.851,5.851,0,0,0-.444.817,4.286,4.286,0,0,0-.272.822L7.541,0H6.082L7.2-5.273q.035-.149.07-.334t.066-.365q.031-.18.048-.334A2.261,2.261,0,0,0,7.4-6.548a1.639,1.639,0,0,0-.308-1.068,1.126,1.126,0,0,0-.923-.374,1.784,1.784,0,0,0-.7.154,3.152,3.152,0,0,0-.7.422,4.83,4.83,0,0,0-.655.624,6.555,6.555,0,0,0-.571.756,5.53,5.53,0,0,0-.439.817,4.474,4.474,0,0,0-.268.822L1.89,0H.431L1.819-6.425q.07-.343.141-.716t.132-.721q.062-.347.105-.646T2.268-9H3.674q-.044.343-.105.716t-.105.69q-.053.369-.114.721h.035a7.6,7.6,0,0,1,.686-.94,5.014,5.014,0,0,1,.782-.743,3.622,3.622,0,0,1,.861-.488,2.53,2.53,0,0,1,.932-.176,2.527,2.527,0,0,1,.967.167,1.8,1.8,0,0,1,.672.47,2.055,2.055,0,0,1,.409.734,3.671,3.671,0,0,1,.167.958,8.5,8.5,0,0,1,.7-.918,4.961,4.961,0,0,1,.8-.738,3.782,3.782,0,0,1,.905-.492,2.859,2.859,0,0,1,1.015-.18,2.1,2.1,0,0,1,1.688.655A2.726,2.726,0,0,1,14.528-6.732Zm5.866-3.973a.828.828,0,0,1-.606-.255.838.838,0,0,1-.255-.615.8.8,0,0,1,.255-.6.851.851,0,0,1,.606-.242.847.847,0,0,1,.611.242.8.8,0,0,1,.25.6.846.846,0,0,1-.25.615A.824.824,0,0,1,20.394-10.705Zm2.25,4.175V-7.708h8.262V-6.53Zm0,3.744V-3.964h8.262v1.178Z" transform="translate(-22 93.5)" fill="#212429"/>
    <path id="Contenido-3" data-name="Contenido" d="M8.982-4a4.669,4.669,0,0,1-.3,1.7A4.078,4.078,0,0,1,7.857-.967,3.691,3.691,0,0,1,6.6-.092,3.98,3.98,0,0,1,5.019.22a3.6,3.6,0,0,1-1.7-.4A3.6,3.6,0,0,1,2.043-1.314a5.459,5.459,0,0,1-.8-1.815A9.833,9.833,0,0,1,.976-5.546,11.358,11.358,0,0,1,1.34-8.53a7.249,7.249,0,0,1,1.037-2.294A4.781,4.781,0,0,1,4-12.3a4.345,4.345,0,0,1,2.118-.519,5.1,5.1,0,0,1,2.092.36v1.362a4.442,4.442,0,0,0-2.057-.5,3.065,3.065,0,0,0-1.521.378,3.492,3.492,0,0,0-1.16,1.068,5.209,5.209,0,0,0-.743,1.666A8.45,8.45,0,0,0,2.47-6.311H2.5A3.027,3.027,0,0,1,5.379-7.884a3.783,3.783,0,0,1,1.49.281A3.216,3.216,0,0,1,8-6.807a3.581,3.581,0,0,1,.725,1.226A4.667,4.667,0,0,1,8.982-4Zm-1.477.185A3.922,3.922,0,0,0,7.339-5a2.574,2.574,0,0,0-.479-.9,2.065,2.065,0,0,0-.769-.567,2.588,2.588,0,0,0-1.037-.2,2.428,2.428,0,0,0-.993.2,2.473,2.473,0,0,0-.791.549,2.545,2.545,0,0,0-.523.809,2.561,2.561,0,0,0-.189.98A3.909,3.909,0,0,0,2.742-2.9a3.144,3.144,0,0,0,.519.989,2.466,2.466,0,0,0,.8.664,2.173,2.173,0,0,0,1.024.242,2.345,2.345,0,0,0,.993-.207,2.216,2.216,0,0,0,.765-.576,2.665,2.665,0,0,0,.492-.883A3.5,3.5,0,0,0,7.506-3.814ZM18.67-6.354a12.381,12.381,0,0,1-.286,2.8,6.533,6.533,0,0,1-.826,2.061A3.718,3.718,0,0,1,16.231-.215,3.633,3.633,0,0,1,14.442.22,3.393,3.393,0,0,1,12.75-.2,3.546,3.546,0,0,1,11.5-1.415a6.17,6.17,0,0,1-.773-1.964,12.146,12.146,0,0,1-.264-2.667,13.749,13.749,0,0,1,.277-2.918,6.674,6.674,0,0,1,.813-2.123,3.619,3.619,0,0,1,1.332-1.292,3.739,3.739,0,0,1,1.824-.435Q18.67-12.814,18.67-6.354Zm-1.477.141q0-5.379-2.558-5.379-2.7,0-2.7,5.476,0,5.106,2.646,5.106Q17.193-1.011,17.193-6.214Zm8.589-1.2a3.746,3.746,0,0,0-.888-.413,3.2,3.2,0,0,0-.984-.158,1.941,1.941,0,0,0-1.279.378,1.24,1.24,0,0,0-.453,1,1.255,1.255,0,0,0,.083.466,1.407,1.407,0,0,0,.246.4,2.234,2.234,0,0,0,.413.365q.25.176.576.378a4.531,4.531,0,0,1,1.419,1.173,2.262,2.262,0,0,1,.435,1.358,2.74,2.74,0,0,1-.189,1,2.247,2.247,0,0,1-.6.861,3.088,3.088,0,0,1-1.068.6A4.873,4.873,0,0,1,21.9.22a5.285,5.285,0,0,1-.58-.035A6.145,6.145,0,0,1,20.68.079a5.559,5.559,0,0,1-.615-.171,2.708,2.708,0,0,1-.514-.233l.29-1.371a3.028,3.028,0,0,0,.435.246,4.5,4.5,0,0,0,.563.22,5.257,5.257,0,0,0,.633.158,3.562,3.562,0,0,0,.655.062,2.063,2.063,0,0,0,1.314-.352,1.185,1.185,0,0,0,.435-.976,1.3,1.3,0,0,0-.066-.422,1.184,1.184,0,0,0-.233-.387,2.585,2.585,0,0,0-.439-.391q-.272-.2-.686-.444A4.44,4.44,0,0,1,21.128-5.12,2.241,2.241,0,0,1,20.7-6.46,2.736,2.736,0,0,1,20.9-7.5a2.52,2.52,0,0,1,.6-.879,2.929,2.929,0,0,1,1.006-.611,4,4,0,0,1,1.415-.229,5.645,5.645,0,0,1,1.2.123,4.26,4.26,0,0,1,.962.316Z" transform="translate(31 107)" fill="#212429"/>
    <path id="Trazado_1045198" data-name="Trazado 1045198" d="M121.811,81.225h61.061" transform="translate(-106 7)" fill="none" stroke="#212429" stroke-width="1"/>
  </g>
</svg>
