<svg xmlns="http://www.w3.org/2000/svg" width="100.684" height="39.814" viewBox="0 0 100.684 39.814">
  <g id="Grupo_1206025" data-name="Grupo 1206025" transform="translate(-727.389 -1930.932)">
    <path id="Trazado_1045514" data-name="Trazado 1045514" d="M-8.874,0h-1.512l2.663-12.6h1.529Zm4.88-6.53V-7.708H4.267V-6.53Zm0,3.744V-3.964H4.267v1.178Z" transform="translate(737.775 1957.747)" fill="#212429"/>
    <path id="Trazado_1045515" data-name="Trazado 1045515" d="M-3.337,0H-4.8l1.793-8.455q.105-.5.272-1.138t.387-1.367h-.035q-.105.211-.264.47t-.33.5q-.171.242-.312.435t-.2.29L-8-3.287h-.721l-1.969-5.959a2.182,2.182,0,0,0-.083-.3q-.066-.2-.127-.439t-.11-.5a2.557,2.557,0,0,1-.048-.475H-11.1q-.053.378-.171,1.02t-.294,1.5L-13.357,0H-14.78l2.672-12.6h1.758l2,5.994a7.193,7.193,0,0,1,.207.738,4.227,4.227,0,0,1,.092.6H-8q.141-.264.343-.615a6.511,6.511,0,0,1,.519-.756L-2.616-12.6H-.665Zm12.9-9.483a3.677,3.677,0,0,1-.286,1.477,3.41,3.41,0,0,1-.787,1.134,3.843,3.843,0,0,1-1.2.76,5.1,5.1,0,0,1-1.512.356v.035a1.459,1.459,0,0,1,.725.554,3.405,3.405,0,0,1,.505,1.134L8.073,0H6.456L5.524-3.762a2.28,2.28,0,0,0-.646-1.213A1.722,1.722,0,0,0,3.7-5.361h-1.1L1.455,0H-.057L2.606-12.6H6.078a4.532,4.532,0,0,1,1.582.246,2.941,2.941,0,0,1,1.081.672,2.67,2.67,0,0,1,.624.993A3.571,3.571,0,0,1,9.567-9.483ZM8.02-9.325a2.223,2.223,0,0,0-.132-.778,1.61,1.61,0,0,0-.4-.615,1.874,1.874,0,0,0-.694-.4,3.091,3.091,0,0,0-1-.145H3.845L2.879-6.7h1.74a4.9,4.9,0,0,0,1.569-.22A3.069,3.069,0,0,0,7.242-7.5a2.131,2.131,0,0,0,.593-.839A2.727,2.727,0,0,0,8.02-9.325Zm6.39-2.4a1,1,0,0,0-.295-.766,1.154,1.154,0,0,0-.818-.274,2.574,2.574,0,0,0-1,.21,3.228,3.228,0,0,0-.938.61l.21-.943a2.723,2.723,0,0,1,.889-.461,3.813,3.813,0,0,1,1.043-.128,1.9,1.9,0,0,1,1.307.433,1.483,1.483,0,0,1,.487,1.166,2.664,2.664,0,0,1-.213,1.1,2.923,2.923,0,0,1-.679.915,9.052,9.052,0,0,1-1.364,1q-.815.508-1.238.836a3.3,3.3,0,0,0-.628.6,1.744,1.744,0,0,0-.292.661h3.63L14.354-6H9.817l.077-.364a3.545,3.545,0,0,1,.4-1.066,3.655,3.655,0,0,1,.741-.866A12.637,12.637,0,0,1,12.5-9.353a8.734,8.734,0,0,0,1.13-.82,2.657,2.657,0,0,0,.592-.713A1.764,1.764,0,0,0,14.411-11.721Z" transform="translate(812.775 1957.747)" fill="#212429"/>
    <path id="Trazado_1045516" data-name="Trazado 1045516" d="M-.809,0,1.538-10.978l-3.111.844.308-1.389,4.623-1.292L.65,0Z" transform="translate(766.799 1943.747)" fill="#212429"/>
    <path id="Trazado_1045517" data-name="Trazado 1045517" d="M3.1-9.809A1.706,1.706,0,0,0,2.6-11.123a1.979,1.979,0,0,0-1.4-.47,4.413,4.413,0,0,0-1.714.36,5.535,5.535,0,0,0-1.608,1.046l.36-1.617a4.669,4.669,0,0,1,1.525-.791,6.537,6.537,0,0,1,1.789-.22,3.249,3.249,0,0,1,2.241.743,2.542,2.542,0,0,1,.835,2,4.566,4.566,0,0,1-.365,1.885A5.012,5.012,0,0,1,3.094-6.618,15.519,15.519,0,0,1,.756-4.9q-1.4.87-2.123,1.433A5.661,5.661,0,0,0-2.443-2.426a2.989,2.989,0,0,0-.5,1.134H3.278L3.006,0H-4.772l.132-.624a6.077,6.077,0,0,1,.681-1.828,6.266,6.266,0,0,1,1.27-1.485A21.664,21.664,0,0,1-.167-5.748,14.974,14.974,0,0,0,1.771-7.154,4.554,4.554,0,0,0,2.786-8.376,3.024,3.024,0,0,0,3.1-9.809Z" transform="translate(766.799 1970.747)" fill="#212429"/>
    <path id="Trazado_1044226" data-name="Trazado 1044226" d="M-224.024,3514.064h39.314" transform="translate(971.799 -1561.318)" fill="none" stroke="#212429" stroke-width="1"/>
  </g>
</svg>
