<svg xmlns="http://www.w3.org/2000/svg" width="99.115" height="40.034" viewBox="0 0 99.115 40.034">
  <g id="Grupo_1206027" data-name="Grupo 1206027" transform="translate(-4642.389 -2462.932)">
    <path id="Trazado_1045522" data-name="Trazado 1045522" d="M-8.874,0h-1.512l2.663-12.6h1.529Zm4.88-6.53V-7.708H4.267V-6.53Zm0,3.744V-3.964H4.267v1.178Z" transform="translate(4652.775 2489.747)" fill="#212429"/>
    <path id="Trazado_1045523" data-name="Trazado 1045523" d="M12.094,0H10.626l1.793-8.455q.105-.5.272-1.138t.387-1.367h-.035q-.105.211-.264.47t-.33.5q-.171.242-.312.435t-.2.29L7.427-3.287H6.706L4.737-9.246a2.182,2.182,0,0,0-.083-.3q-.066-.2-.127-.439t-.11-.5a2.557,2.557,0,0,1-.048-.475H4.333q-.053.378-.171,1.02t-.294,1.5L2.074,0H.65L3.322-12.6H5.08l2,5.994a7.193,7.193,0,0,1,.207.738,4.227,4.227,0,0,1,.092.6h.053q.141-.264.343-.615a6.511,6.511,0,0,1,.519-.756L12.814-12.6h1.951ZM25-9.483a3.677,3.677,0,0,1-.286,1.477,3.41,3.41,0,0,1-.787,1.134,3.843,3.843,0,0,1-1.2.76,5.1,5.1,0,0,1-1.512.356v.035a1.459,1.459,0,0,1,.725.554,3.405,3.405,0,0,1,.505,1.134L23.5,0H21.887l-.932-3.762a2.28,2.28,0,0,0-.646-1.213,1.722,1.722,0,0,0-1.173-.387h-1.1L16.886,0H15.374l2.663-12.6h3.472a4.532,4.532,0,0,1,1.582.246,2.941,2.941,0,0,1,1.081.672,2.67,2.67,0,0,1,.624.993A3.571,3.571,0,0,1,25-9.483Zm-1.547.158a2.223,2.223,0,0,0-.132-.778,1.61,1.61,0,0,0-.4-.615,1.874,1.874,0,0,0-.694-.4,3.091,3.091,0,0,0-1-.145H19.276L18.309-6.7h1.74a4.9,4.9,0,0,0,1.569-.22,3.069,3.069,0,0,0,1.055-.58,2.131,2.131,0,0,0,.593-.839A2.727,2.727,0,0,0,23.451-9.325Zm6.39-2.4a1,1,0,0,0-.295-.766,1.154,1.154,0,0,0-.818-.274,2.574,2.574,0,0,0-1,.21,3.228,3.228,0,0,0-.938.61l.21-.943a2.723,2.723,0,0,1,.889-.461,3.813,3.813,0,0,1,1.043-.128,1.9,1.9,0,0,1,1.307.433,1.483,1.483,0,0,1,.487,1.166,2.664,2.664,0,0,1-.213,1.1,2.923,2.923,0,0,1-.679.915,9.052,9.052,0,0,1-1.364,1q-.815.508-1.238.836a3.3,3.3,0,0,0-.628.6,1.744,1.744,0,0,0-.292.661h3.63L29.785-6H25.248l.077-.364a3.545,3.545,0,0,1,.4-1.066,3.655,3.655,0,0,1,.741-.866,12.637,12.637,0,0,1,1.471-1.056,8.734,8.734,0,0,0,1.13-.82,2.657,2.657,0,0,0,.592-.713A1.764,1.764,0,0,0,29.841-11.721Z" transform="translate(4710.775 2489.747)" fill="#212429"/>
    <path id="Trazado_1045524" data-name="Trazado 1045524" d="M3.1-9.809A1.706,1.706,0,0,0,2.6-11.123a1.979,1.979,0,0,0-1.4-.47,4.413,4.413,0,0,0-1.714.36,5.535,5.535,0,0,0-1.608,1.046l.36-1.617a4.669,4.669,0,0,1,1.525-.791,6.537,6.537,0,0,1,1.789-.22,3.249,3.249,0,0,1,2.241.743,2.542,2.542,0,0,1,.835,2,4.566,4.566,0,0,1-.365,1.885A5.012,5.012,0,0,1,3.094-6.618,15.519,15.519,0,0,1,.756-4.9q-1.4.87-2.123,1.433A5.661,5.661,0,0,0-2.443-2.426a2.989,2.989,0,0,0-.5,1.134H3.278L3.006,0H-4.772l.132-.624a6.077,6.077,0,0,1,.681-1.828,6.266,6.266,0,0,1,1.27-1.485A21.664,21.664,0,0,1-.167-5.748,14.974,14.974,0,0,0,1.771-7.154,4.554,4.554,0,0,0,2.786-8.376,3.024,3.024,0,0,0,3.1-9.809Z" transform="translate(4681.799 2475.747)" fill="#212429"/>
    <path id="Trazado_1045525" data-name="Trazado 1045525" d="M4.4-11.285H-.334l-.773,3.674.932-.035a4.014,4.014,0,0,1,2.742.866,3.076,3.076,0,0,1,.984,2.439,4.583,4.583,0,0,1-.642,2.4A4.083,4.083,0,0,1,1.129-.325,6.072,6.072,0,0,1-1.521.22,9.425,9.425,0,0,1-3.081.088,4.877,4.877,0,0,1-4.315-.255L-3.99-1.67A3.845,3.845,0,0,0-2.83-1.2a5.69,5.69,0,0,0,1.415.185,4.056,4.056,0,0,0,1.881-.4,2.9,2.9,0,0,0,1.191-1.1,3.016,3.016,0,0,0,.417-1.578,2.224,2.224,0,0,0-.633-1.718A2.9,2.9,0,0,0-.571-6.39q-1.222,0-2.188.088l1.327-6.3h6.1Z" transform="translate(4681.799 2502.747)" fill="#212429"/>
    <path id="Trazado_1044226" data-name="Trazado 1044226" d="M-224.024,3514.064h39.314" transform="translate(4886.799 -1029.318)" fill="none" stroke="#212429" stroke-width="1"/>
  </g>
</svg>
