<svg xmlns="http://www.w3.org/2000/svg" width="191.359" height="38.735" viewBox="0 0 191.359 38.735">
  <g id="Grupo_1206031" data-name="Grupo 1206031" transform="translate(21.156 -68.484)">
    <path id="Contenido" d="M8.93,0H7.488V-5.133Q7.488-8,5.4-8a2.269,2.269,0,0,0-1.789.813A3.013,3.013,0,0,0,2.9-5.133V0H1.459V-9H2.9v1.494h.035A3.248,3.248,0,0,1,5.889-9.211a2.753,2.753,0,0,1,2.259.954A4.248,4.248,0,0,1,8.93-5.5ZM13.9-6h-.841v-6.352a1.946,1.946,0,0,1-.285.223,4.638,4.638,0,0,1-.42.249q-.233.123-.492.231a3.577,3.577,0,0,1-.5.169v-.851a4.888,4.888,0,0,0,.587-.208q.31-.131.61-.292t.566-.338a4.5,4.5,0,0,0,.461-.346H13.9Z" transform="translate(16.905 82)" fill="#212429"/>
    <path id="Contenido-2" data-name="Contenido" d="M6.363,0H4.922V-10.89a3.336,3.336,0,0,1-.488.382,7.951,7.951,0,0,1-.721.426q-.4.211-.844.4A6.132,6.132,0,0,1,2-9.4v-1.459A8.379,8.379,0,0,0,3.01-11.21q.532-.224,1.046-.5t.971-.58a7.71,7.71,0,0,0,.791-.593h.545ZM18.222-3.85a4.242,4.242,0,0,1-.316,1.67A3.651,3.651,0,0,1,17-.9a4.034,4.034,0,0,1-1.411.826,5.517,5.517,0,0,1-1.837.29,5.074,5.074,0,0,1-2.61-.527V-1.837a4.8,4.8,0,0,0,2.628.826,3.556,3.556,0,0,0,1.235-.2,2.744,2.744,0,0,0,.936-.562,2.408,2.408,0,0,0,.593-.87,2.945,2.945,0,0,0,.207-1.116,2.391,2.391,0,0,0-.826-1.929,3.623,3.623,0,0,0-2.4-.7q-.255,0-.536.009t-.562.022q-.281.013-.549.031t-.488.044l.431-6.319h5.827v1.3H13.062l-.255,3.7q.281-.018.6-.031t.563-.013a5.656,5.656,0,0,1,1.793.264,3.8,3.8,0,0,1,1.34.751,3.151,3.151,0,0,1,.835,1.2A4.2,4.2,0,0,1,18.222-3.85Zm10.153-2.5a12.381,12.381,0,0,1-.286,2.8,6.533,6.533,0,0,1-.826,2.061A3.718,3.718,0,0,1,25.936-.215,3.633,3.633,0,0,1,24.147.22,3.393,3.393,0,0,1,22.455-.2,3.546,3.546,0,0,1,21.2-1.415a6.17,6.17,0,0,1-.773-1.964,12.146,12.146,0,0,1-.264-2.667,13.749,13.749,0,0,1,.277-2.918,6.674,6.674,0,0,1,.813-2.123,3.619,3.619,0,0,1,1.332-1.292,3.739,3.739,0,0,1,1.824-.435Q28.375-12.814,28.375-6.354ZM26.9-6.214q0-5.379-2.558-5.379-2.7,0-2.7,5.476,0,5.106,2.646,5.106Q26.9-1.011,26.9-6.214ZM38.08-6.354a12.381,12.381,0,0,1-.286,2.8,6.533,6.533,0,0,1-.826,2.061A3.718,3.718,0,0,1,35.641-.215,3.633,3.633,0,0,1,33.852.22,3.393,3.393,0,0,1,32.16-.2a3.546,3.546,0,0,1-1.252-1.217,6.17,6.17,0,0,1-.773-1.964,12.146,12.146,0,0,1-.264-2.667,13.749,13.749,0,0,1,.277-2.918,6.674,6.674,0,0,1,.813-2.123,3.619,3.619,0,0,1,1.332-1.292,3.739,3.739,0,0,1,1.824-.435Q38.08-12.814,38.08-6.354ZM36.6-6.214q0-5.379-2.558-5.379-2.7,0-2.7,5.476,0,5.106,2.646,5.106Q36.6-1.011,36.6-6.214Z" transform="translate(70.905 82)" fill="#212429"/>
    <path id="Contenido-3" data-name="Contenido" d="M3.656-.035a3.368,3.368,0,0,1-.5.114A3.5,3.5,0,0,1,2.61.123,1.793,1.793,0,0,1,1.283-.321,1.618,1.618,0,0,1,.844-1.512,3.631,3.631,0,0,1,.888-2.03q.044-.3.141-.738L2.338-9H3.8L2.479-2.733q-.079.369-.11.571a2.338,2.338,0,0,0-.031.343.724.724,0,0,0,.2.549.886.886,0,0,0,.628.189,2.662,2.662,0,0,0,.4-.026,1.772,1.772,0,0,0,.321-.079ZM4.685-12.208a.946.946,0,0,1-.268.677.88.88,0,0,1-.664.281.934.934,0,0,1-.672-.277.911.911,0,0,1-.286-.681.843.843,0,0,1,.286-.659.977.977,0,0,1,.672-.255.921.921,0,0,1,.659.259A.865.865,0,0,1,4.685-12.208ZM19.911-6.539H11.649V-7.7h8.262Zm0,3.744H11.649v-1.16h8.262Z" transform="translate(-22 93.5)" fill="#212429"/>
    <path id="Contenido-4" data-name="Contenido" d="M10.3-6.539H2.039V-7.7H10.3Zm0,3.744H2.039v-1.16H10.3Z" transform="translate(45.716 93.5)" fill="#212429"/>
    <path id="Contenido-5" data-name="Contenido" d="M10.3-6.539H2.039V-7.7H10.3Zm0,3.744H2.039v-1.16H10.3ZM24.05-9.3a2.606,2.606,0,0,0-.18-1.011,2,2,0,0,0-.492-.716,2.017,2.017,0,0,0-.734-.426,2.874,2.874,0,0,0-.914-.141,3.023,3.023,0,0,0-.826.114,4.016,4.016,0,0,0-.787.316,4.839,4.839,0,0,0-.738.483,5.333,5.333,0,0,0-.664.624V-11.6a4.309,4.309,0,0,1,1.358-.9,4.781,4.781,0,0,1,1.833-.312,4.424,4.424,0,0,1,1.433.224,3.285,3.285,0,0,1,1.143.655,3.027,3.027,0,0,1,.76,1.063,3.587,3.587,0,0,1,.277,1.45,4.973,4.973,0,0,1-.171,1.354,4.186,4.186,0,0,1-.519,1.143A5.513,5.513,0,0,1,23.954-5.9a12.387,12.387,0,0,1-1.239,1q-.888.633-1.463,1.081a6.469,6.469,0,0,0-.914.839,2.436,2.436,0,0,0-.475.782,2.734,2.734,0,0,0-.136.9H26V0H18.223V-.624A5.2,5.2,0,0,1,18.4-2.048a3.7,3.7,0,0,1,.58-1.169,6.487,6.487,0,0,1,1.059-1.107q.655-.554,1.6-1.248a10.141,10.141,0,0,0,1.147-.94,4.889,4.889,0,0,0,.743-.9,3.22,3.22,0,0,0,.4-.91A3.922,3.922,0,0,0,24.05-9.3ZM35.487-3.85a4.242,4.242,0,0,1-.316,1.67A3.651,3.651,0,0,1,34.27-.9a4.034,4.034,0,0,1-1.411.826,5.517,5.517,0,0,1-1.837.29,5.074,5.074,0,0,1-2.61-.527V-1.837a4.8,4.8,0,0,0,2.628.826,3.556,3.556,0,0,0,1.235-.2,2.744,2.744,0,0,0,.936-.562,2.408,2.408,0,0,0,.593-.87,2.945,2.945,0,0,0,.207-1.116,2.391,2.391,0,0,0-.826-1.929,3.623,3.623,0,0,0-2.4-.7q-.255,0-.536.009t-.562.022q-.281.013-.549.031t-.488.044L29.08-12.6h5.827v1.3H30.328l-.255,3.7q.281-.018.6-.031t.563-.013a5.656,5.656,0,0,1,1.793.264,3.8,3.8,0,0,1,1.34.751,3.151,3.151,0,0,1,.835,1.2A4.2,4.2,0,0,1,35.487-3.85Z" transform="translate(134.716 93.5)" fill="#212429"/>
    <path id="Contenido-6" data-name="Contenido" d="M8.93,0H7.488V-5.133Q7.488-8,5.4-8a2.269,2.269,0,0,0-1.789.813A3.013,3.013,0,0,0,2.9-5.133V0H1.459V-9H2.9v1.494h.035A3.248,3.248,0,0,1,5.889-9.211a2.753,2.753,0,0,1,2.259.954A4.248,4.248,0,0,1,8.93-5.5Zm5.216-11.424a1.52,1.52,0,0,0-.105-.59,1.168,1.168,0,0,0-.287-.418,1.176,1.176,0,0,0-.428-.249,1.676,1.676,0,0,0-.533-.082,1.764,1.764,0,0,0-.482.067,2.343,2.343,0,0,0-.459.185,2.823,2.823,0,0,0-.431.282,3.111,3.111,0,0,0-.387.364v-.9a2.514,2.514,0,0,1,.792-.525,2.789,2.789,0,0,1,1.069-.182,2.58,2.58,0,0,1,.836.131,1.916,1.916,0,0,1,.666.382,1.766,1.766,0,0,1,.443.62A2.092,2.092,0,0,1,15-11.5a2.9,2.9,0,0,1-.1.79,2.442,2.442,0,0,1-.3.666,3.216,3.216,0,0,1-.51.6,7.225,7.225,0,0,1-.723.584q-.518.369-.854.631a3.773,3.773,0,0,0-.533.49,1.421,1.421,0,0,0-.277.456,1.6,1.6,0,0,0-.079.525h3.66V-6H10.747v-.364a3.033,3.033,0,0,1,.1-.831,2.157,2.157,0,0,1,.338-.682,3.784,3.784,0,0,1,.618-.646q.382-.323.936-.728A5.915,5.915,0,0,0,13.41-9.8a2.852,2.852,0,0,0,.433-.523,1.878,1.878,0,0,0,.233-.531A2.288,2.288,0,0,0,14.146-11.424Z" transform="translate(14.905 107)" fill="#212429"/>
    <path id="Contenido-7" data-name="Contenido" d="M8.982-4a4.669,4.669,0,0,1-.3,1.7A4.078,4.078,0,0,1,7.857-.967,3.691,3.691,0,0,1,6.6-.092,3.98,3.98,0,0,1,5.019.22a3.6,3.6,0,0,1-1.7-.4A3.6,3.6,0,0,1,2.043-1.314a5.459,5.459,0,0,1-.8-1.815A9.833,9.833,0,0,1,.976-5.546,11.358,11.358,0,0,1,1.34-8.53a7.249,7.249,0,0,1,1.037-2.294A4.781,4.781,0,0,1,4-12.3a4.345,4.345,0,0,1,2.118-.519,5.1,5.1,0,0,1,2.092.36v1.362a4.442,4.442,0,0,0-2.057-.5,3.065,3.065,0,0,0-1.521.378,3.492,3.492,0,0,0-1.16,1.068,5.209,5.209,0,0,0-.743,1.666A8.45,8.45,0,0,0,2.47-6.311H2.5A3.027,3.027,0,0,1,5.379-7.884a3.783,3.783,0,0,1,1.49.281A3.216,3.216,0,0,1,8-6.807a3.581,3.581,0,0,1,.725,1.226A4.667,4.667,0,0,1,8.982-4Zm-1.477.185A3.922,3.922,0,0,0,7.339-5a2.574,2.574,0,0,0-.479-.9,2.065,2.065,0,0,0-.769-.567,2.588,2.588,0,0,0-1.037-.2,2.428,2.428,0,0,0-.993.2,2.473,2.473,0,0,0-.791.549,2.545,2.545,0,0,0-.523.809,2.561,2.561,0,0,0-.189.98A3.909,3.909,0,0,0,2.742-2.9a3.144,3.144,0,0,0,.519.989,2.466,2.466,0,0,0,.8.664,2.173,2.173,0,0,0,1.024.242,2.345,2.345,0,0,0,.993-.207,2.216,2.216,0,0,0,.765-.576,2.665,2.665,0,0,0,.492-.883A3.5,3.5,0,0,0,7.506-3.814ZM18.67-6.354a12.381,12.381,0,0,1-.286,2.8,6.533,6.533,0,0,1-.826,2.061A3.718,3.718,0,0,1,16.231-.215,3.633,3.633,0,0,1,14.442.22,3.393,3.393,0,0,1,12.75-.2,3.546,3.546,0,0,1,11.5-1.415a6.17,6.17,0,0,1-.773-1.964,12.146,12.146,0,0,1-.264-2.667,13.749,13.749,0,0,1,.277-2.918,6.674,6.674,0,0,1,.813-2.123,3.619,3.619,0,0,1,1.332-1.292,3.739,3.739,0,0,1,1.824-.435Q18.67-12.814,18.67-6.354Zm-1.477.141q0-5.379-2.558-5.379-2.7,0-2.7,5.476,0,5.106,2.646,5.106Q17.193-1.011,17.193-6.214Z" transform="translate(81.907 107)" fill="#212429"/>
    <path id="Trazado_1045198" data-name="Trazado 1045198" d="M155,81.725H121.811v-1H155Z" transform="translate(-114 7)" fill="#212429"/>
    <path id="Trazado_1045198-2" data-name="Trazado 1045198" d="M184,81.725H121.811v-1H184Z" transform="translate(-60 7)" fill="#212429"/>
  </g>
</svg>
