<svg xmlns="http://www.w3.org/2000/svg" xmlns:xlink="http://www.w3.org/1999/xlink" width="118" height="118" viewBox="0 0 118 118">
  <defs>
    <filter id="Trazado_982547" x="0" y="0" width="118" height="118" filterUnits="userSpaceOnUse">
      <feOffset dy="3" input="SourceAlpha"/>
      <feGaussianBlur stdDeviation="3" result="blur"/>
      <feFlood flood-opacity="0.161"/>
      <feComposite operator="in" in2="blur"/>
      <feComposite in="SourceGraphic"/>
    </filter>
    <clipPath id="clip-path">
      <path id="path2436" d="M0-682.665H73.57v73.57H0Z" transform="translate(0 682.665)"/>
    </clipPath>
  </defs>
  <g id="Grupo_1205964" data-name="Grupo 1205964" transform="translate(-1161 -1158.043)">
    <g id="Grupo_1205558" data-name="Grupo 1205558" transform="translate(0 468.043)">
      <g id="Grupo_1180397" data-name="Grupo 1180397" transform="translate(0 -566)">
        <g id="Grupo_1179136" data-name="Grupo 1179136" transform="translate(1170 1262)">
          <g id="Grupo_1177985" data-name="Grupo 1177985">
            <g id="Grupo_1177680" data-name="Grupo 1177680">
              <g id="Grupo_1172010" data-name="Grupo 1172010">
                <g id="Grupo_1171046" data-name="Grupo 1171046">
                  <g id="Grupo_1148525" data-name="Grupo 1148525">
                    <g transform="matrix(1, 0, 0, 1, -9, -6)" filter="url(#Trazado_982547)">
                      <g id="Trazado_982547-2" data-name="Trazado 982547" transform="translate(9 6)" fill="#fbedfe">
                        <path d="M 50 98.5 C 43.45188522338867 98.5 37.10042953491211 97.21787261962891 31.12207221984863 94.68923950195312 C 25.34690093994141 92.24655914306641 20.15995788574219 88.74931335449219 15.70531463623047 84.29468536376953 C 11.2506856918335 79.84004211425781 7.753442764282227 74.65309906005859 5.310757160186768 68.8779296875 C 2.782128572463989 62.89957046508789 1.5 56.54811477661133 1.5 50 C 1.5 43.45188522338867 2.782128572463989 37.10042953491211 5.310757160186768 31.12207221984863 C 7.753442764282227 25.34691429138184 11.2506856918335 20.15997123718262 15.70531463623047 15.70532894134521 C 20.15995788574219 11.2506856918335 25.34690093994141 7.753442764282227 31.12207221984863 5.310757160186768 C 37.10042953491211 2.782128572463989 43.45188522338867 1.5 50 1.5 C 56.54811477661133 1.5 62.89957046508789 2.782128572463989 68.8779296875 5.310757160186768 C 74.65309906005859 7.753442764282227 79.84004211425781 11.2506856918335 84.29468536376953 15.70532894134521 C 88.74931335449219 20.15997123718262 92.24655914306641 25.34691429138184 94.68923950195312 31.12207221984863 C 97.21787261962891 37.10042953491211 98.5 43.45188522338867 98.5 50 C 98.5 56.54811477661133 97.21787261962891 62.89957046508789 94.68923950195312 68.8779296875 C 92.24655914306641 74.65309906005859 88.74931335449219 79.84004211425781 84.29468536376953 84.29468536376953 C 79.84004211425781 88.74931335449219 74.65309906005859 92.24655914306641 68.8779296875 94.68923950195312 C 62.89957046508789 97.21787261962891 56.54811477661133 98.5 50 98.5 Z" stroke="none"/>
                        <path d="M 50 3 C 43.65372467041016 3 37.49886322021484 4.242263793945312 31.70639801025391 6.6922607421875 C 26.11003112792969 9.059326171875 21.08333587646484 12.44861602783203 16.76598358154297 16.76598358154297 C 12.44861602783203 21.08335113525391 9.059326171875 26.11003112792969 6.6922607421875 31.70639801025391 C 4.242263793945312 37.49886322021484 3 43.65372467041016 3 50 C 3 56.34627532958984 4.242263793945312 62.50113677978516 6.6922607421875 68.29360198974609 C 9.059326171875 73.88996887207031 12.44861602783203 78.91666412353516 16.76598358154297 83.23401641845703 C 21.08333587646484 87.55138397216797 26.11003112792969 90.940673828125 31.70639801025391 93.3077392578125 C 37.49886322021484 95.75773620605469 43.65372467041016 97 50 97 C 56.34627532958984 97 62.50113677978516 95.75773620605469 68.29360198974609 93.3077392578125 C 73.88996887207031 90.940673828125 78.91664886474609 87.55138397216797 83.23401641845703 83.23401641845703 C 87.55138397216797 78.91666412353516 90.940673828125 73.88996887207031 93.3077392578125 68.29360198974609 C 95.75773620605469 62.50113677978516 97 56.34627532958984 97 50 C 97 43.65372467041016 95.75773620605469 37.49886322021484 93.3077392578125 31.70639801025391 C 90.940673828125 26.11003112792969 87.55138397216797 21.08335113525391 83.23401641845703 16.76598358154297 C 78.91664886474609 12.44861602783203 73.88996887207031 9.059326171875 68.29360198974609 6.6922607421875 C 62.50113677978516 4.242263793945312 56.34627532958984 3 50 3 M 50 0 C 77.61422729492188 0 100 22.38577270507812 100 50 C 100 77.61424255371094 77.61422729492188 100 50 100 C 22.38575744628906 100 0 77.61424255371094 0 50 C 0 22.38577270507812 22.38575744628906 0 50 0 Z" stroke="none" fill="#e25cfa"/>
                      </g>
                    </g>
                  </g>
                </g>
              </g>
            </g>
          </g>
        </g>
      </g>
    </g>
    <g id="g2430" transform="translate(1182.965 1859.922)">
      <g id="g2432" transform="translate(0 -682.665)">
        <g id="g2434" clip-path="url(#clip-path)">
          <g id="g2440" transform="translate(2.977 1.078)">
            <path id="path2442" d="M-559.591-261.5l-1.341-7.6a1.671,1.671,0,0,0-1.936-1.355l-9.354,1.649a23.1,23.1,0,0,0-2.485-4.3l6.108-7.279a1.671,1.671,0,0,0-.206-2.354l-5.914-4.962a1.671,1.671,0,0,0-2.354.206l-6.105,7.276a22.96,22.96,0,0,0-4.665-1.7v-9.5a1.671,1.671,0,0,0-1.671-1.671h-7.72a1.671,1.671,0,0,0-1.671,1.671l-.008,9.506a22.871,22.871,0,0,0-4.657,1.69l-6.105-7.276a1.671,1.671,0,0,0-2.354-.206l-5.914,4.962a1.671,1.671,0,0,0-.206,2.354l6.25,7.279a23.746,23.746,0,0,0-2.627,4.3l-9.354-1.649a1.671,1.671,0,0,0-1.936,1.355l-1.34,7.6a1.671,1.671,0,0,0,1.355,1.936l9.359,1.65a23.048,23.048,0,0,0,.857,4.889l-8.225,4.749a1.671,1.671,0,0,0-.612,2.283l3.86,6.685a1.671,1.671,0,0,0,2.283.612l8.23-4.752a23.232,23.232,0,0,0,3.8,3.192l-3.249,8.928a1.671,1.671,0,0,0,1,2.142l5.923,2.051h18.1l6.233-2.051a1.671,1.671,0,0,0,1-2.142l-3.249-8.928a23.234,23.234,0,0,0,3.8-3.192l8.23,4.752a1.671,1.671,0,0,0,2.283-.612l3.86-6.685a1.671,1.671,0,0,0-.612-2.283l-8.225-4.749a23.059,23.059,0,0,0,.856-4.889l9.359-1.65a1.671,1.671,0,0,0,1.355-1.936" transform="translate(627.182 293.086)" fill="#655e67"/>
          </g>
          <g id="g2444" transform="translate(2.977 1.078)">
            <path id="path2446" d="M-164.5-308.116a35.371,35.371,0,0,0,14.7,28.733h-9.971l-5.922-2.05a1.67,1.67,0,0,1-1-2.141l3.249-8.928a23.3,23.3,0,0,1-3.8-3.193l-8.229,4.752a1.67,1.67,0,0,1-2.282-.611l-3.861-6.686a1.673,1.673,0,0,1,.612-2.283l8.225-4.748a22.973,22.973,0,0,1-.856-4.89l-9.359-1.65a1.67,1.67,0,0,1-1.355-1.936l1.339-7.6a1.671,1.671,0,0,1,1.937-1.355l9.353,1.648a23.8,23.8,0,0,1,2.627-4.3l-6.249-7.279a1.67,1.67,0,0,1,.205-2.354l5.914-4.962a1.67,1.67,0,0,1,2.354.205l6.105,7.277a22.82,22.82,0,0,1,4.657-1.69l.009-9.507a1.672,1.672,0,0,1,1.671-1.671h7.719a1.672,1.672,0,0,1,1.671,1.671v3.913A35.414,35.414,0,0,0-164.5-308.116" transform="translate(184.373 345.332)" fill="#544f56"/>
          </g>
          <g id="g2448" transform="translate(20.212 17.442)">
            <path id="path2450" d="M-274.415-137.207A16.573,16.573,0,0,0-291-153.78a16.576,16.576,0,0,0-16.557,16.573,16.511,16.511,0,0,0,4.26,11.093,23.657,23.657,0,0,1,6.167,15.825v6.468l1.467,4a1.661,1.661,0,0,0,1.56,1.089h6.271a1.661,1.661,0,0,0,1.565-1.1l1.429-4.024v-6.271a24.107,24.107,0,0,1,6.218-16.043,16.508,16.508,0,0,0,4.209-11.036" transform="translate(307.561 153.78)" fill="#fed22b"/>
          </g>
          <g id="g2452" transform="translate(20.212 17.442)">
            <path id="path2454" d="M-143.48-455.77h-3.877a1.66,1.66,0,0,1-1.559-1.09l-1.467-4v-6.468a23.654,23.654,0,0,0-6.167-15.825,16.515,16.515,0,0,1-4.26-11.093,16.576,16.576,0,0,1,16.557-16.573,16.7,16.7,0,0,1,1.953.112,16.58,16.58,0,0,0-14.633,16.461,16.514,16.514,0,0,0,4.26,11.093,23.654,23.654,0,0,1,6.167,15.825v6.468l1.467,4a1.661,1.661,0,0,0,1.56,1.09" transform="translate(160.81 510.82)" fill="#fdc202"/>
          </g>
          <g id="g2456" transform="translate(26.874 62.455)">
            <path id="path2458" d="M-13.751,0h16.5A1.661,1.661,0,0,1,4.409,1.661v1.55A1.661,1.661,0,0,1,2.748,4.872h-16.5a1.661,1.661,0,0,1-1.661-1.661V1.661A1.661,1.661,0,0,1-13.751,0" transform="translate(15.412)" fill="#2583fa"/>
          </g>
          <g id="g2460" transform="translate(30.639 66.146)">
            <path id="path2462" d="M-101.754,0V1.218l-1.429,4.023a1.661,1.661,0,0,1-1.565,1.105h-6.271a1.661,1.661,0,0,1-1.559-1.09l-1.467-4V0Z" transform="translate(114.045)" fill="#8e8391"/>
          </g>
          <path id="path2464" d="M308.16-246.172h-9.131v-10.57h9.131Z" transform="translate(-266.802 302.644)" fill="#0671f9"/>
          <g id="g2466" transform="translate(30.639 66.146)">
            <path id="path2468" d="M-57.15-52.546h-3.877a1.661,1.661,0,0,1-1.559-1.09l-1.467-4v-1.255h3.877v1.255l1.467,4a1.661,1.661,0,0,0,1.56,1.09" transform="translate(64.053 58.893)" fill="#766d78"/>
          </g>
          <g id="g2470" transform="translate(26.874 52.71)">
            <path id="path2472" d="M-150.348-40.337l-8.388,1.812-8.111-1.812A1.661,1.661,0,0,1-168.508-42v-1.55a1.661,1.661,0,0,1,1.661-1.661h16.5a1.661,1.661,0,0,1,1.661,1.661V-42a1.661,1.661,0,0,1-1.661,1.661" transform="translate(168.508 45.209)" fill="#a0cafe"/>
          </g>
          <g id="g2474" transform="translate(26.874 57.583)">
            <path id="path2476" d="M-150.348-40.337l-8.056,1.343-8.443-1.343A1.661,1.661,0,0,1-168.508-42v-1.55a1.661,1.661,0,0,1,1.661-1.661h16.5a1.661,1.661,0,0,1,1.661,1.661V-42a1.661,1.661,0,0,1-1.661,1.661" transform="translate(168.508 45.209)" fill="#62a6fd"/>
          </g>
          <g id="g2478" transform="translate(26.874 62.455)">
            <path id="path2480" d="M-13.751,0h16.5A1.661,1.661,0,0,1,4.409,1.661v1.55A1.661,1.661,0,0,1,2.748,4.872h-16.5a1.661,1.661,0,0,1-1.661-1.661V1.661A1.661,1.661,0,0,1-13.751,0" transform="translate(15.412)" fill="#4394fb"/>
          </g>
          <g id="g2482" transform="translate(26.874 52.711)">
            <path id="path2484" d="M-45.843-40.331H-49.72a1.66,1.66,0,0,1-1.66-1.66v-1.551a1.66,1.66,0,0,1,1.66-1.66h3.877a1.66,1.66,0,0,0-1.66,1.66v1.551a1.66,1.66,0,0,0,1.66,1.66" transform="translate(51.38 45.203)" fill="#81b8fd"/>
          </g>
          <g id="g2486" transform="translate(26.874 57.582)">
            <path id="path2488" d="M-45.843-40.341H-49.72A1.661,1.661,0,0,1-51.38-42v-1.55a1.661,1.661,0,0,1,1.66-1.662h3.877a1.661,1.661,0,0,0-1.66,1.662V-42a1.661,1.661,0,0,0,1.66,1.662" transform="translate(51.38 45.213)" fill="#4394fb"/>
          </g>
          <g id="g2490" transform="translate(26.874 62.455)">
            <path id="path2492" d="M-45.843-40.331H-49.72a1.66,1.66,0,0,1-1.66-1.66v-1.551a1.66,1.66,0,0,1,1.66-1.66h3.877a1.66,1.66,0,0,0-1.66,1.66v1.551a1.66,1.66,0,0,0,1.66,1.66" transform="translate(51.38 45.203)" fill="#2583fa"/>
          </g>
          <g id="g2494" transform="translate(31.197 27.121)">
            <path id="path2496" d="M-49.681-144.349c-.1.006-.2.009-.3.009h-.214l-.151,0a5.526,5.526,0,0,1-4.87-7.746l3.857-8.861a1.394,1.394,0,0,1,.2-.323,1.388,1.388,0,0,1,2.155.007,1.408,1.408,0,0,1,.19.316l3.861,8.873a5.518,5.518,0,0,1-4.723,7.729" transform="translate(55.681 161.785)" fill="#62a6fd"/>
          </g>
          <g id="g2498" transform="translate(34.596 36.539)">
            <path id="path2500" d="M-36.364-18.182a2.2,2.2,0,0,1-2.2,2.2,2.2,2.2,0,0,1-2.2-2.2,2.2,2.2,0,0,1,2.2-2.2,2.2,2.2,0,0,1,2.2,2.2" transform="translate(40.756 20.379)" fill="#0671f9"/>
          </g>
          <g id="g2502" transform="translate(30.608 43.821)">
            <path id="path2504" d="M-8.612,0H1.675a1.043,1.043,0,0,1,1.04,1.04v1.5a1.043,1.043,0,0,1-1.04,1.04H-8.612a1.043,1.043,0,0,1-1.04-1.04V1.04A1.043,1.043,0,0,1-8.612,0" transform="translate(9.652)" fill="#4394fb"/>
          </g>
          <g id="g2506" transform="translate(30.636 67.323)">
            <path id="path2508" d="M-101.821,0V.038l-1.43,4.026a1.662,1.662,0,0,1-1.566,1.106h-6.275a1.662,1.662,0,0,1-1.56-1.091l-1.468-4V0" transform="translate(114.12)" fill="none" stroke="#000" stroke-linecap="round" stroke-linejoin="round" stroke-miterlimit="10" stroke-width="1.2" stroke-dasharray="470 30"/>
          </g>
          <g id="g2510" transform="translate(20.202 17.406)">
            <path id="path2512" d="M-73.852-292.185a24.149,24.149,0,0,0-4.658-7.608,16.526,16.526,0,0,1-4.263-11.1A16.587,16.587,0,0,1-66.2-327.477a16.583,16.583,0,0,1,16.6,16.584,16.52,16.52,0,0,1-4.212,11.043,24.686,24.686,0,0,0-4.674,7.666" transform="translate(82.772 327.477)" fill="none" stroke="#000" stroke-linecap="round" stroke-linejoin="round" stroke-miterlimit="10" stroke-width="1.2" stroke-dasharray="250 30"/>
          </g>
          <g id="g2514" transform="translate(26.868 52.698)">
            <path id="path2516" d="M-150.445-40.363h-16.51a1.662,1.662,0,0,1-1.662-1.662v-1.551a1.662,1.662,0,0,1,1.662-1.662h16.51a1.662,1.662,0,0,1,1.662,1.662v1.551A1.662,1.662,0,0,1-150.445-40.363Z" transform="translate(168.617 45.239)" fill="none" stroke="#000" stroke-linecap="round" stroke-linejoin="round" stroke-miterlimit="10" stroke-width="1.2" stroke-dasharray="470 30"/>
          </g>
          <g id="g2518" transform="translate(26.868 57.573)">
            <path id="path2520" d="M-150.445-40.363h-16.51a1.662,1.662,0,0,1-1.662-1.662v-1.551a1.662,1.662,0,0,1,1.662-1.662h16.51a1.662,1.662,0,0,1,1.662,1.662v1.551A1.662,1.662,0,0,1-150.445-40.363Z" transform="translate(168.617 45.239)" fill="none" stroke="#000" stroke-linecap="round" stroke-linejoin="round" stroke-miterlimit="10" stroke-width="1.2" stroke-dasharray="470 30"/>
          </g>
          <g id="g2522" transform="translate(26.868 62.448)">
            <path id="path2524" d="M-13.761,0H2.749A1.662,1.662,0,0,1,4.411,1.662V3.213A1.662,1.662,0,0,1,2.749,4.875h-16.51a1.662,1.662,0,0,1-1.662-1.662V1.662A1.662,1.662,0,0,1-13.761,0Z" transform="translate(15.423)" fill="none" stroke="#000" stroke-linecap="round" stroke-linejoin="round" stroke-miterlimit="10" stroke-width="1.2" stroke-dasharray="184 30"/>
          </g>
          <g id="g2526" transform="translate(2.977 1.078)">
            <path id="path2528" d="M-353.531-547.455l6.233-2.227a1.671,1.671,0,0,0,1-2.142l-3.249-8.927a23.249,23.249,0,0,0,3.8-3.192l8.23,4.752a1.671,1.671,0,0,0,2.283-.612l3.86-6.685a1.671,1.671,0,0,0-.612-2.283l-8.225-4.749a23.032,23.032,0,0,0,.856-4.889l9.359-1.65a1.671,1.671,0,0,0,1.355-1.936l-1.34-7.6a1.671,1.671,0,0,0-1.936-1.355l-9.354,1.649a23.1,23.1,0,0,0-2.485-4.3l6.108-7.279a1.671,1.671,0,0,0-.206-2.354l-5.914-4.962a1.671,1.671,0,0,0-2.354.206l-6.105,7.276a22.946,22.946,0,0,0-4.665-1.7v-9.5a1.671,1.671,0,0,0-1.671-1.671h-7.72a1.671,1.671,0,0,0-1.671,1.671l-.008,9.507a22.845,22.845,0,0,0-4.658,1.69l-6.105-7.276a1.671,1.671,0,0,0-2.354-.206l-5.914,4.962a1.671,1.671,0,0,0-.206,2.354l6.249,7.279a23.753,23.753,0,0,0-2.627,4.3l-9.354-1.649a1.671,1.671,0,0,0-1.936,1.355l-1.34,7.6a1.671,1.671,0,0,0,1.355,1.936l9.359,1.65a23.049,23.049,0,0,0,.856,4.889l-8.225,4.749a1.671,1.671,0,0,0-.612,2.283l3.86,6.685a1.671,1.671,0,0,0,2.283.612l8.23-4.752a23.246,23.246,0,0,0,3.8,3.192l-3.249,8.927a1.671,1.671,0,0,0,1,2.142l5.923,2.051" transform="translate(396.233 613.58)" fill="none" stroke="#000" stroke-linecap="round" stroke-linejoin="round" stroke-miterlimit="10" stroke-width="1.2"/>
          </g>
          <g id="g2530" transform="translate(31.197 27.121)">
            <path id="path2532" d="M-70.145-138.257a5.558,5.558,0,0,0,2.252-6.993l-3.861-8.873a1.385,1.385,0,0,0-2.54,0l-3.857,8.861a5.567,5.567,0,0,0,2.257,7" transform="translate(78.617 154.956)" fill="none" stroke="#000" stroke-linecap="round" stroke-linejoin="round" stroke-miterlimit="10" stroke-width="1.2" stroke-dasharray="470 30"/>
          </g>
          <g id="g2534" transform="translate(34.596 36.539)">
            <path id="path2536" d="M-36.364-18.182a2.2,2.2,0,0,1-2.2,2.2,2.2,2.2,0,0,1-2.2-2.2,2.2,2.2,0,0,1,2.2-2.2A2.2,2.2,0,0,1-36.364-18.182Z" transform="translate(40.756 20.379)" fill="none" stroke="#000" stroke-linecap="round" stroke-linejoin="round" stroke-miterlimit="10" stroke-width="1.2" stroke-dasharray="102 30"/>
          </g>
          <g id="g2538" transform="translate(36.792 27.177)">
            <path id="path2540" d="M0-77.511v-9.362" transform="translate(0 86.873)" fill="none" stroke="#000" stroke-linecap="round" stroke-linejoin="round" stroke-miterlimit="10" stroke-width="1.2"/>
          </g>
          <g id="g2542" transform="translate(30.608 43.821)">
            <path id="path2544" d="M-8.612,0H1.675a1.043,1.043,0,0,1,1.04,1.04v1.5a1.043,1.043,0,0,1-1.04,1.04H-8.612a1.043,1.043,0,0,1-1.04-1.04V1.04A1.043,1.043,0,0,1-8.612,0Z" transform="translate(9.652)" fill="none" stroke="#000" stroke-linecap="round" stroke-linejoin="round" stroke-miterlimit="10" stroke-width="1.2" stroke-dasharray="470 30"/>
          </g>
          <g id="g2546" transform="translate(32.226 47.404)">
            <path id="path2548" d="M0-43.826V-49.12" transform="translate(0 49.12)" fill="none" stroke="#000" stroke-linecap="round" stroke-linejoin="round" stroke-miterlimit="10" stroke-width="1.2" stroke-dasharray="470 30"/>
          </g>
          <g id="g2550" transform="translate(41.357 47.404)">
            <path id="path2552" d="M0-43.826V-49.12" transform="translate(0 49.12)" fill="none" stroke="#000" stroke-linecap="round" stroke-linejoin="round" stroke-miterlimit="10" stroke-width="1.2" stroke-dasharray="470 30"/>
          </g>
          <g id="g2554" transform="translate(43.149 25.611)">
            <path id="path2556" d="M-24.4-12.2a1.474,1.474,0,0,1-1.474,1.474A1.474,1.474,0,0,1-27.349-12.2a1.474,1.474,0,0,1,1.474-1.474A1.474,1.474,0,0,1-24.4-12.2" transform="translate(27.349 13.675)"/>
          </g>
          <g id="g2558" transform="translate(43.149 25.611)">
            <path id="path2560" d="M-24.4-12.2a1.474,1.474,0,0,1-1.474,1.474A1.474,1.474,0,0,1-27.349-12.2a1.474,1.474,0,0,1,1.474-1.474A1.474,1.474,0,0,1-24.4-12.2Z" transform="translate(27.349 13.675)" fill="none" stroke="#000" stroke-linecap="round" stroke-linejoin="round" stroke-miterlimit="10" stroke-width="1.2" stroke-dasharray="102 30"/>
          </g>
          <g id="g2562" transform="translate(27.474 25.611)">
            <path id="path2564" d="M-4.235-2.96a1.474,1.474,0,0,1,2.078.154A1.474,1.474,0,0,1-2.311-.728,1.474,1.474,0,0,1-4.389-.882,1.474,1.474,0,0,1-4.235-2.96" transform="translate(4.747 3.318)"/>
          </g>
          <g id="g2566" transform="translate(27.474 25.611)">
            <path id="path2568" d="M-4.235-2.96a1.474,1.474,0,0,1,2.078.154A1.474,1.474,0,0,1-2.311-.728,1.474,1.474,0,0,1-4.389-.882,1.474,1.474,0,0,1-4.235-2.96Z" transform="translate(4.747 3.318)" fill="none" stroke="#000" stroke-linecap="round" stroke-linejoin="round" stroke-miterlimit="10" stroke-width="1.2" stroke-dasharray="100 30"/>
          </g>
          <g id="g2570" transform="translate(30.421 27.085)">
            <path id="path2572" d="M0,0H12.651" fill="none" stroke="#000" stroke-linecap="round" stroke-linejoin="round" stroke-miterlimit="10" stroke-width="1.2"/>
          </g>
        </g>
      </g>
    </g>
  </g>
</svg>
