<svg xmlns="http://www.w3.org/2000/svg" width="154.403" height="38.694" viewBox="0 0 154.403 38.694">
  <g id="Grupo_1206032" data-name="Grupo 1206032" transform="translate(22.686 -60.525)">
    <path id="Contenido" d="M7.734-8.587,2.408-1.23H7.682V0H.29V-.448L5.616-7.77H.791V-9H7.734ZM12.1-11.424a1.52,1.52,0,0,0-.105-.59,1.168,1.168,0,0,0-.287-.418,1.176,1.176,0,0,0-.428-.249,1.676,1.676,0,0,0-.533-.082,1.764,1.764,0,0,0-.482.067,2.343,2.343,0,0,0-.459.185,2.823,2.823,0,0,0-.431.282,3.111,3.111,0,0,0-.387.364v-.9a2.514,2.514,0,0,1,.792-.525,2.789,2.789,0,0,1,1.069-.182,2.58,2.58,0,0,1,.836.131,1.916,1.916,0,0,1,.666.382,1.766,1.766,0,0,1,.443.62,2.092,2.092,0,0,1,.161.846,2.9,2.9,0,0,1-.1.79,2.442,2.442,0,0,1-.3.666,3.216,3.216,0,0,1-.51.6,7.225,7.225,0,0,1-.723.584q-.518.369-.854.631a3.773,3.773,0,0,0-.533.49,1.421,1.421,0,0,0-.277.456,1.6,1.6,0,0,0-.079.525h3.66V-6H8.7v-.364a3.033,3.033,0,0,1,.1-.831,2.157,2.157,0,0,1,.338-.682,3.784,3.784,0,0,1,.618-.646q.382-.323.936-.728a5.915,5.915,0,0,0,.669-.549,2.852,2.852,0,0,0,.433-.523,1.878,1.878,0,0,0,.233-.531A2.288,2.288,0,0,0,12.1-11.424Z" transform="translate(16.905 74)" fill="#212429"/>
    <path id="Contenido-2" data-name="Contenido" d="M8.517-3.85A4.242,4.242,0,0,1,8.2-2.18,3.651,3.651,0,0,1,7.3-.9,4.034,4.034,0,0,1,5.889-.07,5.517,5.517,0,0,1,4.052.22a5.074,5.074,0,0,1-2.61-.527V-1.837a4.8,4.8,0,0,0,2.628.826,3.556,3.556,0,0,0,1.235-.2,2.744,2.744,0,0,0,.936-.562,2.408,2.408,0,0,0,.593-.87A2.945,2.945,0,0,0,7.04-3.762a2.391,2.391,0,0,0-.826-1.929,3.623,3.623,0,0,0-2.4-.7q-.255,0-.536.009t-.562.022q-.281.013-.549.031t-.488.044L2.109-12.6H7.937v1.3H3.357L3.1-7.6q.281-.018.6-.031t.563-.013a5.656,5.656,0,0,1,1.793.264,3.8,3.8,0,0,1,1.34.751,3.151,3.151,0,0,1,.835,1.2A4.2,4.2,0,0,1,8.517-3.85Zm10.153-2.5a12.381,12.381,0,0,1-.286,2.8,6.533,6.533,0,0,1-.826,2.061A3.718,3.718,0,0,1,16.231-.215,3.633,3.633,0,0,1,14.442.22,3.393,3.393,0,0,1,12.75-.2,3.546,3.546,0,0,1,11.5-1.415a6.17,6.17,0,0,1-.773-1.964,12.146,12.146,0,0,1-.264-2.667,13.749,13.749,0,0,1,.277-2.918,6.674,6.674,0,0,1,.813-2.123,3.619,3.619,0,0,1,1.332-1.292,3.739,3.739,0,0,1,1.824-.435Q18.67-12.814,18.67-6.354Zm-1.477.141q0-5.379-2.558-5.379-2.7,0-2.7,5.476,0,5.106,2.646,5.106Q17.193-1.011,17.193-6.214Z" transform="translate(70.905 74)" fill="#212429"/>
    <path id="Contenido-3" data-name="Contenido" d="M8.622-8.569,1.872-1.222H6.987L6.715,0h-7.4L-.58-.466,6.17-7.778H1.477L1.749-9H8.71ZM10.5,6,11.868-.4,10.053.089l.179-.81,2.7-.754L11.35,6ZM29.052-6.539H20.79V-7.7h8.262Zm0,3.744H20.79v-1.16h8.262Z" transform="translate(-22 85.5)" fill="#212429"/>
    <path id="Contenido-4" data-name="Contenido" d="M10.3-6.539H2.039V-7.7H10.3Zm0,3.744H2.039v-1.16H10.3Z" transform="translate(45.716 85.5)" fill="#212429"/>
    <path id="Contenido-5" data-name="Contenido" d="M10.3-6.539H2.039V-7.7H10.3Zm0,3.744H2.039v-1.16H10.3ZM24.05-9.3a2.606,2.606,0,0,0-.18-1.011,2,2,0,0,0-.492-.716,2.017,2.017,0,0,0-.734-.426,2.874,2.874,0,0,0-.914-.141,3.023,3.023,0,0,0-.826.114,4.016,4.016,0,0,0-.787.316,4.839,4.839,0,0,0-.738.483,5.333,5.333,0,0,0-.664.624V-11.6a4.309,4.309,0,0,1,1.358-.9,4.781,4.781,0,0,1,1.833-.312,4.424,4.424,0,0,1,1.433.224,3.285,3.285,0,0,1,1.143.655,3.027,3.027,0,0,1,.76,1.063,3.587,3.587,0,0,1,.277,1.45,4.973,4.973,0,0,1-.171,1.354,4.186,4.186,0,0,1-.519,1.143A5.513,5.513,0,0,1,23.954-5.9a12.387,12.387,0,0,1-1.239,1q-.888.633-1.463,1.081a6.469,6.469,0,0,0-.914.839,2.436,2.436,0,0,0-.475.782,2.734,2.734,0,0,0-.136.9H26V0H18.223V-.624A5.2,5.2,0,0,1,18.4-2.048a3.7,3.7,0,0,1,.58-1.169,6.487,6.487,0,0,1,1.059-1.107q.655-.554,1.6-1.248a10.141,10.141,0,0,0,1.147-.94,4.889,4.889,0,0,0,.743-.9,3.22,3.22,0,0,0,.4-.91A3.922,3.922,0,0,0,24.05-9.3Z" transform="translate(105.716 85.5)" fill="#212429"/>
    <path id="Contenido-6" data-name="Contenido" d="M2.2-11.285a.913.913,0,0,1-.659-.264.89.89,0,0,1-.272-.668.9.9,0,0,1,.272-.672.905.905,0,0,1,.659-.268.931.931,0,0,1,.672.268.9.9,0,0,1,.277.672.891.891,0,0,1-.277.659A.923.923,0,0,1,2.2-11.285ZM2.9,0H1.459V-9H2.9Z" transform="translate(22.405 99)" fill="#212429"/>
    <path id="Contenido-7" data-name="Contenido" d="M6.785-9.3A2.606,2.606,0,0,0,6.6-10.31a2,2,0,0,0-.492-.716,2.017,2.017,0,0,0-.734-.426,2.874,2.874,0,0,0-.914-.141,3.023,3.023,0,0,0-.826.114,4.016,4.016,0,0,0-.787.316,4.839,4.839,0,0,0-.738.483,5.333,5.333,0,0,0-.664.624V-11.6a4.309,4.309,0,0,1,1.358-.9,4.781,4.781,0,0,1,1.833-.312,4.424,4.424,0,0,1,1.433.224,3.285,3.285,0,0,1,1.143.655,3.027,3.027,0,0,1,.76,1.063,3.587,3.587,0,0,1,.277,1.45,4.973,4.973,0,0,1-.171,1.354,4.186,4.186,0,0,1-.519,1.143A5.513,5.513,0,0,1,6.688-5.9a12.387,12.387,0,0,1-1.239,1q-.888.633-1.463,1.081a6.469,6.469,0,0,0-.914.839,2.436,2.436,0,0,0-.475.782,2.734,2.734,0,0,0-.136.9H8.736V0H.958V-.624a5.2,5.2,0,0,1,.176-1.424,3.7,3.7,0,0,1,.58-1.169A6.487,6.487,0,0,1,2.773-4.324q.655-.554,1.6-1.248a10.141,10.141,0,0,0,1.147-.94,4.889,4.889,0,0,0,.743-.9,3.22,3.22,0,0,0,.4-.91A3.922,3.922,0,0,0,6.785-9.3ZM18.222-3.85a4.242,4.242,0,0,1-.316,1.67A3.651,3.651,0,0,1,17-.9a4.034,4.034,0,0,1-1.411.826,5.517,5.517,0,0,1-1.837.29,5.074,5.074,0,0,1-2.61-.527V-1.837a4.8,4.8,0,0,0,2.628.826,3.556,3.556,0,0,0,1.235-.2,2.744,2.744,0,0,0,.936-.562,2.408,2.408,0,0,0,.593-.87,2.945,2.945,0,0,0,.207-1.116,2.391,2.391,0,0,0-.826-1.929,3.623,3.623,0,0,0-2.4-.7q-.255,0-.536.009t-.562.022q-.281.013-.549.031t-.488.044l.431-6.319h5.827v1.3H13.062l-.255,3.7q.281-.018.6-.031t.563-.013a5.656,5.656,0,0,1,1.793.264,3.8,3.8,0,0,1,1.34.751,3.151,3.151,0,0,1,.835,1.2A4.2,4.2,0,0,1,18.222-3.85Z" transform="translate(70.121 99)" fill="#212429"/>
    <path id="Trazado_1045198" data-name="Trazado 1045198" d="M155,81.725H121.811v-1H155Z" transform="translate(-114 -1)" fill="#212429"/>
    <path id="Trazado_1045198-2" data-name="Trazado 1045198" d="M160.086,81.725H121.811v-1h38.275Z" transform="translate(-60 -1)" fill="#212429"/>
  </g>
</svg>
