<svg xmlns="http://www.w3.org/2000/svg" xmlns:xlink="http://www.w3.org/1999/xlink" width="113" height="113" viewBox="0 0 113 113">
  <defs>
    <filter id="Trazado_982547" x="0" y="0" width="113" height="113" filterUnits="userSpaceOnUse">
      <feOffset dy="3" input="SourceAlpha"/>
      <feGaussianBlur stdDeviation="3" result="blur"/>
      <feFlood flood-opacity="0.161"/>
      <feComposite operator="in" in2="blur"/>
      <feComposite in="SourceGraphic"/>
    </filter>
  </defs>
  <g id="Grupo_1206007" data-name="Grupo 1206007" transform="translate(-792 -6344.623)">
    <g id="Grupo_1202507" data-name="Grupo 1202507" transform="translate(0 5408)">
      <g id="Grupo_1202357" data-name="Grupo 1202357" transform="translate(-1.49 -525)">
        <g id="Grupo_1177632" data-name="Grupo 1177632" transform="translate(-4493 -458.649)">
          <g id="Grupo_1176928" data-name="Grupo 1176928" transform="translate(5295.49 1926.273)">
            <g id="Grupo_1172322" data-name="Grupo 1172322" transform="translate(0 0)">
              <g id="Grupo_1164700" data-name="Grupo 1164700">
                <g id="Grupo_1160931" data-name="Grupo 1160931">
                  <g id="Grupo_1160749" data-name="Grupo 1160749">
                    <g id="Grupo_1158891" data-name="Grupo 1158891">
                      <g id="Grupo_1157406" data-name="Grupo 1157406">
                        <g id="Grupo_1155793" data-name="Grupo 1155793">
                          <g id="Grupo_1154704" data-name="Grupo 1154704">
                            <g id="Grupo_1150790" data-name="Grupo 1150790">
                              <g id="Grupo_1154214" data-name="Grupo 1154214">
                                <g id="Grupo_1152583" data-name="Grupo 1152583">
                                  <g id="Grupo_1146973" data-name="Grupo 1146973">
                                    <g id="Grupo_1146954" data-name="Grupo 1146954">
                                      <g transform="matrix(1, 0, 0, 1, -9, -6)" filter="url(#Trazado_982547)">
                                        <g id="Trazado_982547-2" data-name="Trazado 982547" transform="translate(9 6)" fill="#fbedfe">
                                          <path d="M 47.5000114440918 93.49987030029297 C 41.28938293457031 93.49987030029297 35.26534652709961 92.28384399414062 29.5951976776123 89.88558959960938 C 24.11773109436035 87.56881713867188 19.19814491271973 84.25183868408203 14.97310447692871 80.02680206298828 C 10.74805164337158 75.80176544189453 7.43107795715332 70.88218688964844 5.114304542541504 65.40472412109375 C 2.716038227081299 59.73458862304688 1.500011444091797 53.71054840087891 1.500011444091797 47.49993515014648 C 1.500011444091797 41.28932189941406 2.716038227081299 35.26528167724609 5.114304542541504 29.59514808654785 C 7.43107795715332 24.1176815032959 10.74805164337158 19.1981086730957 14.97310447692871 14.97306823730469 C 19.19814491271973 10.74802875518799 24.11773109436035 7.431055068969727 29.5951976776123 5.11428165435791 C 35.26534652709961 2.716028451919556 41.28938293457031 1.500001788139343 47.5000114440918 1.500001788139343 C 53.71063995361328 1.500001788139343 59.73467636108398 2.716028451919556 65.40482330322266 5.11428165435791 C 70.88229370117188 7.431055068969727 75.8018798828125 10.74802875518799 80.02691650390625 14.97306823730469 C 84.25196838378906 19.1981086730957 87.56894683837891 24.1176815032959 89.88571929931641 29.59514808654785 C 92.28398132324219 35.26528167724609 93.50001525878906 41.28932189941406 93.50001525878906 47.49993515014648 C 93.50001525878906 53.71054840087891 92.28398132324219 59.73458862304688 89.88571929931641 65.40472412109375 C 87.56894683837891 70.88218688964844 84.25196838378906 75.80176544189453 80.02691650390625 80.02680206298828 C 75.8018798828125 84.25183868408203 70.88229370117188 87.56881713867188 65.40482330322266 89.88558959960938 C 59.73467636108398 92.28384399414062 53.71063995361328 93.49987030029297 47.5000114440918 93.49987030029297 Z" stroke="none"/>
                                          <path d="M 47.5000114440918 3 C 41.49122619628906 3 35.66378021240234 4.1761474609375 30.17951965332031 6.495796203613281 C 24.880859375 8.7369384765625 20.12153625488281 11.94596862792969 16.03376770019531 16.03373718261719 C 11.94598388671875 20.12149047851562 8.736968994140625 24.88081359863281 6.495811462402344 30.17947387695312 C 4.176162719726562 35.66371917724609 3.000007629394531 41.49116516113281 3.000007629394531 47.49993515014648 C 3.000007629394531 53.50870513916016 4.176162719726562 59.33615112304688 6.495811462402344 64.82039642333984 C 8.736968994140625 70.11905670166016 11.94598388671875 74.87837982177734 16.03376770019531 78.96613311767578 C 20.12153625488281 83.05390167236328 24.880859375 86.26293182373047 30.17951965332031 88.50407409667969 C 35.66378021240234 90.82372283935547 41.49122619628906 91.99987030029297 47.5000114440918 91.99987030029297 C 53.50879669189453 91.99987030029297 59.33624267578125 90.82372283935547 64.82050323486328 88.50407409667969 C 70.11916351318359 86.26293182373047 74.87848663330078 83.05390167236328 78.96625518798828 78.96613311767578 C 83.05403900146484 74.87837982177734 86.2630615234375 70.11905670166016 88.50421142578125 64.82039642333984 C 90.82386016845703 59.33615112304688 92.00001525878906 53.50870513916016 92.00001525878906 47.49993515014648 C 92.00001525878906 41.49116516113281 90.82386016845703 35.66371917724609 88.50421142578125 30.17947387695312 C 86.2630615234375 24.88081359863281 83.05403900146484 20.12149047851562 78.96625518798828 16.03373718261719 C 74.87848663330078 11.94596862792969 70.11916351318359 8.7369384765625 64.82050323486328 6.495796203613281 C 59.33624267578125 4.1761474609375 53.50879669189453 3 47.5000114440918 3 M 47.5000114440918 0 C 73.73353576660156 0 95.00001525878906 21.26644134521484 95.00001525878906 47.49993515014648 C 95.00001525878906 73.73342895507812 73.73353576660156 94.99987030029297 47.5000114440918 94.99987030029297 C 21.26648712158203 94.99987030029297 7.62939453125e-06 73.73342895507812 7.62939453125e-06 47.49993515014648 C 7.62939453125e-06 21.26644134521484 21.26648712158203 0 47.5000114440918 0 Z" stroke="none" fill="#7b3289"/>
                                        </g>
                                      </g>
                                    </g>
                                  </g>
                                </g>
                              </g>
                            </g>
                          </g>
                        </g>
                      </g>
                    </g>
                  </g>
                </g>
              </g>
            </g>
          </g>
        </g>
      </g>
    </g>
    <g id="Page-1" transform="translate(819 6368)">
      <g id="_010---Whell-And-Suspension" data-name="010---Whell-And-Suspension">
        <rect id="Rectangle-path" width="28" height="58" rx="4" transform="translate(1 1)" fill="#02a9f4"/>
        <path id="Shape" d="M25,1H22a4,4,0,0,1,4,4V55a4,4,0,0,1-4,4h3a4,4,0,0,0,4-4V5A4,4,0,0,0,25,1Z" fill="#0377bc"/>
        <path id="Rectangle-path-2" data-name="Rectangle-path" d="M8,1H22V59H8Z" fill="#3f51b5"/>
        <path id="Shape-2" data-name="Shape" d="M29,19h4.321A3.679,3.679,0,0,1,37,22.679V37.321A3.679,3.679,0,0,1,33.321,41H29Z" fill="#9e9e9e"/>
        <path id="Shape-3" data-name="Shape" d="M33.321,19h-3A3.679,3.679,0,0,1,34,22.679V37.32A3.679,3.679,0,0,1,30.321,41h3A3.679,3.679,0,0,0,37,37.32V22.679A3.679,3.679,0,0,0,33.321,19Z" fill="#707070"/>
        <path id="Shape-4" data-name="Shape" d="M37,25H58a1,1,0,0,1,1,1v8a1,1,0,0,1-1,1H37Z" fill="#7f8e94"/>
        <path id="Shape-5" data-name="Shape" d="M58,25H55a1,1,0,0,1,1,1v8a1,1,0,0,1-1,1h3a1,1,0,0,0,1-1V26A1,1,0,0,0,58,25Z" fill="#545c60"/>
        <rect id="Rectangle-path-3" data-name="Rectangle-path" width="18" height="4" rx="2" transform="translate(40 17)" fill="#7f8e94"/>
        <path id="Shape-6" data-name="Shape" d="M56,17H53a2,2,0,0,1,0,4h3a2,2,0,0,0,0-4Z" fill="#545c60"/>
        <rect id="Rectangle-path-4" data-name="Rectangle-path" width="18" height="4" rx="2" transform="translate(40 9)" fill="#7f8e94"/>
        <path id="Shape-7" data-name="Shape" d="M56,9H53a2,2,0,0,1,0,4h3a2,2,0,0,0,0-4Z" fill="#545c60"/>
        <rect id="Rectangle-path-5" data-name="Rectangle-path" width="18" height="4" rx="2" transform="translate(40 1)" fill="#7f8e94"/>
        <path id="Shape-8" data-name="Shape" d="M56,1H53a2,2,0,0,1,0,4h3a2,2,0,0,0,0-4Z" fill="#545c60"/>
        <path id="Rectangle-path-6" data-name="Rectangle-path" d="M44,21H54v4H44Z" fill="#607d8b"/>
        <path id="Rectangle-path-7" data-name="Rectangle-path" d="M51,21h3v4H51Z" fill="#37474f"/>
        <path id="Rectangle-path-8" data-name="Rectangle-path" d="M44,13H54v4H44Z" fill="#607d8b"/>
        <path id="Rectangle-path-9" data-name="Rectangle-path" d="M51,13h3v4H51Z" fill="#37474f"/>
        <path id="Rectangle-path-10" data-name="Rectangle-path" d="M44,5H54V9H44Z" fill="#607d8b"/>
        <path id="Rectangle-path-11" data-name="Rectangle-path" d="M51,5h3V9H51Z" fill="#37474f"/>
        <path id="Shape-9" data-name="Shape" d="M58,24H55V22h1a3,3,0,0,0,0-6H55V14h1a3,3,0,0,0,0-6H55V6h1a3,3,0,0,0,0-6H42a3,3,0,0,0,0,6h1V8H42a3,3,0,0,0,0,6h1v2H42a3,3,0,0,0,0,6h1v2H38V22.68A4.685,4.685,0,0,0,33.32,18H30V5a5.006,5.006,0,0,0-5-5H5A5.006,5.006,0,0,0,0,5V55a5.006,5.006,0,0,0,5,5H25a5.006,5.006,0,0,0,5-5V42h3.32A4.685,4.685,0,0,0,38,37.32V36H58a2,2,0,0,0,2-2V26A2,2,0,0,0,58,24ZM41,3a1,1,0,0,1,1-1H56a1,1,0,0,1,0,2H42A1,1,0,0,1,41,3Zm4,3h8V8H45Zm-4,5a1,1,0,0,1,1-1H56a1,1,0,0,1,0,2H42A1,1,0,0,1,41,11Zm12,3v2H45V14ZM41,19a1,1,0,0,1,1-1H56a1,1,0,0,1,0,2H42A1,1,0,0,1,41,19Zm4,3h8v2H45ZM21,36.341,9,41.484V36.659l12-5.143Zm0-7L9,34.484V29.659l12-5.143Zm0-7L9,27.484V22.659l12-5.143Zm0-7L9,20.484V15.659l12-5.143ZM9,43.659l12-5.143v4.825L9,48.484ZM21,8.341,9,13.484V8.659L21,3.516ZM9,50.659l12-5.143v4.825L9,55.484ZM19.462,2,9,6.484V2ZM2,55V5A3,3,0,0,1,5,2H7V58H5A3,3,0,0,1,2,55Zm7,3v-.341l12-5.143V58Zm19-3a3,3,0,0,1-3,3H23V2h2a3,3,0,0,1,3,3Zm8-17.68A2.683,2.683,0,0,1,33.32,40H30V20h3.32A2.683,2.683,0,0,1,36,22.68ZM38,34V26H58v8Z"/>
      </g>
    </g>
  </g>
</svg>
