<svg xmlns="http://www.w3.org/2000/svg" width="188.915" height="38.104" viewBox="0 0 188.915 38.104">
  <g id="Grupo_1206034" data-name="Grupo 1206034" transform="translate(-590.195 -7261.477)">
    <path id="Contenido" d="M6.363,0H4.922V-10.89a3.336,3.336,0,0,1-.488.382,7.951,7.951,0,0,1-.721.426q-.4.211-.844.4A6.132,6.132,0,0,1,2-9.4v-1.459A8.379,8.379,0,0,0,3.01-11.21q.532-.224,1.046-.5t.971-.58a7.71,7.71,0,0,0,.791-.593h.545ZM10.5-3.516a3.353,3.353,0,0,1,.158-1.006,3.645,3.645,0,0,1,.453-.945,3.746,3.746,0,0,1,.729-.8,3.478,3.478,0,0,1,.989-.571,3.737,3.737,0,0,1-1.3-1.173A2.775,2.775,0,0,1,11.041-9.6a3.06,3.06,0,0,1,.268-1.283,3.091,3.091,0,0,1,.743-1.02,3.433,3.433,0,0,1,1.125-.672,4.006,4.006,0,0,1,1.406-.242A3.967,3.967,0,0,1,16-12.568a3.494,3.494,0,0,1,1.125.677,3.038,3.038,0,0,1,.738,1.02A3.082,3.082,0,0,1,18.125-9.6a2.775,2.775,0,0,1-.483,1.586,3.783,3.783,0,0,1-1.283,1.173,3.447,3.447,0,0,1,.976.571,3.8,3.8,0,0,1,.725.8,3.645,3.645,0,0,1,.453.945,3.354,3.354,0,0,1,.158,1.006A3.743,3.743,0,0,1,18.371-2a3.378,3.378,0,0,1-.839,1.173,3.875,3.875,0,0,1-1.292.76A4.829,4.829,0,0,1,14.583.2,4.765,4.765,0,0,1,12.939-.07a3.934,3.934,0,0,1-1.292-.76A3.4,3.4,0,0,1,10.8-2,3.7,3.7,0,0,1,10.5-3.516Zm1.564-.123a2.977,2.977,0,0,0,.18,1.063,2.293,2.293,0,0,0,.51.809,2.225,2.225,0,0,0,.8.514,2.889,2.889,0,0,0,1.042.18,2.744,2.744,0,0,0,1.02-.185,2.376,2.376,0,0,0,.8-.519,2.332,2.332,0,0,0,.527-.809,2.828,2.828,0,0,0,.189-1.055,2.694,2.694,0,0,0-.18-.989,2.475,2.475,0,0,0-.514-.813,2.415,2.415,0,0,0-.8-.554,2.6,2.6,0,0,0-1.046-.2,2.63,2.63,0,0,0-1.006.189,2.408,2.408,0,0,0-.8.527,2.442,2.442,0,0,0-.532.809A2.69,2.69,0,0,0,12.06-3.639Zm.448-5.845a2.1,2.1,0,0,0,.163.831,2.093,2.093,0,0,0,.448.668,2.106,2.106,0,0,0,.664.448,2.024,2.024,0,0,0,.809.163,2.009,2.009,0,0,0,.813-.167,2.1,2.1,0,0,0,.664-.453,2.194,2.194,0,0,0,.448-.668,2.03,2.03,0,0,0,.167-.822,2.155,2.155,0,0,0-.163-.844A2.065,2.065,0,0,0,16.077-11a2.077,2.077,0,0,0-.664-.444,2.078,2.078,0,0,0-.822-.163,2.1,2.1,0,0,0-.848.167,2.049,2.049,0,0,0-.659.453,1.979,1.979,0,0,0-.426.672A2.272,2.272,0,0,0,12.509-9.483ZM28.375-6.354a12.381,12.381,0,0,1-.286,2.8,6.533,6.533,0,0,1-.826,2.061A3.718,3.718,0,0,1,25.936-.215,3.633,3.633,0,0,1,24.147.22,3.393,3.393,0,0,1,22.455-.2,3.546,3.546,0,0,1,21.2-1.415a6.17,6.17,0,0,1-.773-1.964,12.146,12.146,0,0,1-.264-2.667,13.749,13.749,0,0,1,.277-2.918,6.674,6.674,0,0,1,.813-2.123,3.619,3.619,0,0,1,1.332-1.292,3.739,3.739,0,0,1,1.824-.435Q28.375-12.814,28.375-6.354ZM26.9-6.214q0-5.379-2.558-5.379-2.7,0-2.7,5.476,0,5.106,2.646,5.106Q26.9-1.011,26.9-6.214ZM38.08-6.354a12.381,12.381,0,0,1-.286,2.8,6.533,6.533,0,0,1-.826,2.061A3.718,3.718,0,0,1,35.641-.215,3.633,3.633,0,0,1,33.852.22,3.393,3.393,0,0,1,32.16-.2a3.546,3.546,0,0,1-1.252-1.217,6.17,6.17,0,0,1-.773-1.964,12.146,12.146,0,0,1-.264-2.667,13.749,13.749,0,0,1,.277-2.918,6.674,6.674,0,0,1,.813-2.123,3.619,3.619,0,0,1,1.332-1.292,3.739,3.739,0,0,1,1.824-.435Q38.08-12.814,38.08-6.354ZM36.6-6.214q0-5.379-2.558-5.379-2.7,0-2.7,5.476,0,5.106,2.646,5.106Q36.6-1.011,36.6-6.214Z" transform="translate(593.374 7274.361)" fill="#212429"/>
    <path id="Contenido-2" data-name="Contenido" d="M3.674-3.586A2.177,2.177,0,0,1,2.1-4.228a2.09,2.09,0,0,1-.659-1.556A2.152,2.152,0,0,1,2.1-7.352a2.14,2.14,0,0,1,1.573-.664,2.09,2.09,0,0,1,1.556.659,2.177,2.177,0,0,1,.642,1.573,2.118,2.118,0,0,1-.642,1.556A2.118,2.118,0,0,1,3.674-3.586ZM19.032-9.3a2.606,2.606,0,0,0-.18-1.011,2,2,0,0,0-.492-.716,2.017,2.017,0,0,0-.734-.426,2.874,2.874,0,0,0-.914-.141,3.023,3.023,0,0,0-.826.114,4.016,4.016,0,0,0-.787.316,4.839,4.839,0,0,0-.738.483,5.333,5.333,0,0,0-.664.624V-11.6a4.309,4.309,0,0,1,1.358-.9,4.781,4.781,0,0,1,1.833-.312,4.424,4.424,0,0,1,1.433.224,3.285,3.285,0,0,1,1.143.655,3.027,3.027,0,0,1,.76,1.063,3.587,3.587,0,0,1,.277,1.45,4.973,4.973,0,0,1-.171,1.354,4.186,4.186,0,0,1-.519,1.143A5.513,5.513,0,0,1,18.935-5.9a12.387,12.387,0,0,1-1.239,1q-.888.633-1.463,1.081a6.469,6.469,0,0,0-.914.839,2.436,2.436,0,0,0-.475.782,2.734,2.734,0,0,0-.136.9h6.275V0H13.2V-.624a5.2,5.2,0,0,1,.176-1.424,3.7,3.7,0,0,1,.58-1.169A6.487,6.487,0,0,1,15.02-4.324q.655-.554,1.6-1.248a10.141,10.141,0,0,0,1.147-.94,4.889,4.889,0,0,0,.743-.9,3.22,3.22,0,0,0,.4-.91A3.922,3.922,0,0,0,19.032-9.3ZM32.49-7.831H30.539v5.44q0,1.23.888,1.23a2.456,2.456,0,0,0,.773-.167V-.1a3.021,3.021,0,0,1-1.072.2q-2.039,0-2.039-2.435v-5.5H25.669v5.37A7.806,7.806,0,0,1,25.388,0H23.92a6.947,6.947,0,0,0,.316-2.461v-5.37a3.8,3.8,0,0,0-2.136.782V-8.367A3.041,3.041,0,0,1,24.254-9H32.49Zm11.05,1.292H35.278V-7.7h8.262Zm0,3.744H35.278v-1.16h8.262ZM51.917,0H50.476V-10.89a3.336,3.336,0,0,1-.488.382,7.951,7.951,0,0,1-.721.426q-.4.211-.844.4a6.132,6.132,0,0,1-.866.29v-1.459a8.379,8.379,0,0,0,1.006-.356q.532-.224,1.046-.5t.971-.58a7.71,7.71,0,0,0,.791-.593h.545ZM56.05-3.516a3.353,3.353,0,0,1,.158-1.006,3.645,3.645,0,0,1,.453-.945,3.746,3.746,0,0,1,.729-.8,3.478,3.478,0,0,1,.989-.571,3.737,3.737,0,0,1-1.3-1.173A2.775,2.775,0,0,1,56.595-9.6a3.06,3.06,0,0,1,.268-1.283,3.091,3.091,0,0,1,.743-1.02,3.433,3.433,0,0,1,1.125-.672,4.006,4.006,0,0,1,1.406-.242,3.967,3.967,0,0,1,1.415.246,3.494,3.494,0,0,1,1.125.677,3.038,3.038,0,0,1,.738,1.02A3.082,3.082,0,0,1,63.679-9.6,2.775,2.775,0,0,1,63.2-8.011a3.783,3.783,0,0,1-1.283,1.173,3.446,3.446,0,0,1,.976.571,3.8,3.8,0,0,1,.725.8,3.645,3.645,0,0,1,.453.945,3.354,3.354,0,0,1,.158,1.006A3.743,3.743,0,0,1,63.925-2a3.378,3.378,0,0,1-.839,1.173,3.875,3.875,0,0,1-1.292.76A4.829,4.829,0,0,1,60.137.2,4.765,4.765,0,0,1,58.493-.07,3.934,3.934,0,0,1,57.2-.831,3.4,3.4,0,0,1,56.353-2,3.7,3.7,0,0,1,56.05-3.516Zm1.564-.123a2.977,2.977,0,0,0,.18,1.063,2.293,2.293,0,0,0,.51.809,2.225,2.225,0,0,0,.8.514,2.889,2.889,0,0,0,1.042.18,2.744,2.744,0,0,0,1.02-.185,2.376,2.376,0,0,0,.8-.519,2.332,2.332,0,0,0,.527-.809,2.828,2.828,0,0,0,.189-1.055,2.694,2.694,0,0,0-.18-.989,2.475,2.475,0,0,0-.514-.813,2.415,2.415,0,0,0-.8-.554,2.6,2.6,0,0,0-1.046-.2,2.63,2.63,0,0,0-1.006.189,2.408,2.408,0,0,0-.8.527,2.442,2.442,0,0,0-.532.809A2.69,2.69,0,0,0,57.614-3.639Zm.448-5.845a2.1,2.1,0,0,0,.163.831,2.093,2.093,0,0,0,.448.668,2.106,2.106,0,0,0,.664.448,2.024,2.024,0,0,0,.809.163,2.009,2.009,0,0,0,.813-.167,2.1,2.1,0,0,0,.664-.453,2.194,2.194,0,0,0,.448-.668,2.03,2.03,0,0,0,.167-.822,2.155,2.155,0,0,0-.163-.844A2.065,2.065,0,0,0,61.631-11a2.077,2.077,0,0,0-.664-.444,2.078,2.078,0,0,0-.822-.163,2.1,2.1,0,0,0-.848.167,2.049,2.049,0,0,0-.659.453,1.979,1.979,0,0,0-.426.672A2.272,2.272,0,0,0,58.063-9.483Zm7.692,5.968a3.353,3.353,0,0,1,.158-1.006,3.645,3.645,0,0,1,.453-.945,3.746,3.746,0,0,1,.729-.8,3.478,3.478,0,0,1,.989-.571,3.737,3.737,0,0,1-1.3-1.173A2.775,2.775,0,0,1,66.3-9.6a3.06,3.06,0,0,1,.268-1.283,3.091,3.091,0,0,1,.743-1.02,3.433,3.433,0,0,1,1.125-.672,4.006,4.006,0,0,1,1.406-.242,3.967,3.967,0,0,1,1.415.246,3.494,3.494,0,0,1,1.125.677,3.038,3.038,0,0,1,.738,1.02A3.082,3.082,0,0,1,73.384-9.6,2.775,2.775,0,0,1,72.9-8.011a3.783,3.783,0,0,1-1.283,1.173,3.446,3.446,0,0,1,.976.571,3.8,3.8,0,0,1,.725.8,3.645,3.645,0,0,1,.453.945,3.353,3.353,0,0,1,.158,1.006A3.743,3.743,0,0,1,73.63-2,3.378,3.378,0,0,1,72.79-.831,3.875,3.875,0,0,1,71.5-.07,4.829,4.829,0,0,1,69.842.2,4.765,4.765,0,0,1,68.2-.07a3.934,3.934,0,0,1-1.292-.76A3.4,3.4,0,0,1,66.058-2,3.7,3.7,0,0,1,65.755-3.516Zm1.564-.123a2.977,2.977,0,0,0,.18,1.063,2.293,2.293,0,0,0,.51.809,2.225,2.225,0,0,0,.8.514,2.889,2.889,0,0,0,1.042.18,2.744,2.744,0,0,0,1.02-.185,2.376,2.376,0,0,0,.8-.519,2.332,2.332,0,0,0,.527-.809,2.828,2.828,0,0,0,.189-1.055,2.694,2.694,0,0,0-.18-.989A2.475,2.475,0,0,0,71.7-5.44a2.415,2.415,0,0,0-.8-.554,2.6,2.6,0,0,0-1.046-.2,2.63,2.63,0,0,0-1.006.189,2.408,2.408,0,0,0-.8.527,2.442,2.442,0,0,0-.532.809A2.69,2.69,0,0,0,67.319-3.639Zm.448-5.845a2.1,2.1,0,0,0,.163.831,2.093,2.093,0,0,0,.448.668,2.106,2.106,0,0,0,.664.448,2.024,2.024,0,0,0,.809.163,2.009,2.009,0,0,0,.813-.167,2.1,2.1,0,0,0,.664-.453,2.194,2.194,0,0,0,.448-.668,2.03,2.03,0,0,0,.167-.822,2.155,2.155,0,0,0-.163-.844A2.065,2.065,0,0,0,71.336-11a2.077,2.077,0,0,0-.664-.444,2.078,2.078,0,0,0-.822-.163,2.1,2.1,0,0,0-.848.167,2.049,2.049,0,0,0-.659.453,1.979,1.979,0,0,0-.426.672A2.272,2.272,0,0,0,67.767-9.483ZM76.629.193a.933.933,0,0,1-.69-.29.955.955,0,0,1-.286-.694.969.969,0,0,1,.286-.7.926.926,0,0,1,.69-.294.95.95,0,0,1,.7.294.962.962,0,0,1,.29.7.947.947,0,0,1-.29.694A.958.958,0,0,1,76.629.193ZM87.089-3.85a4.242,4.242,0,0,1-.316,1.67,3.651,3.651,0,0,1-.9,1.283,4.034,4.034,0,0,1-1.411.826,5.517,5.517,0,0,1-1.837.29,5.074,5.074,0,0,1-2.61-.527V-1.837a4.8,4.8,0,0,0,2.628.826,3.556,3.556,0,0,0,1.235-.2,2.744,2.744,0,0,0,.936-.562,2.408,2.408,0,0,0,.593-.87,2.945,2.945,0,0,0,.207-1.116,2.391,2.391,0,0,0-.826-1.929,3.623,3.623,0,0,0-2.4-.7q-.255,0-.536.009t-.562.022q-.281.013-.549.031t-.488.044l.431-6.319h5.827v1.3H81.93l-.255,3.7q.281-.018.6-.031t.563-.013a5.656,5.656,0,0,1,1.793.264,3.8,3.8,0,0,1,1.34.751,3.151,3.151,0,0,1,.835,1.2A4.2,4.2,0,0,1,87.089-3.85ZM99.943-7.471h-.035a2.6,2.6,0,0,0-.461-.207,1.691,1.691,0,0,0-.567-.1,1.664,1.664,0,0,0-.976.33,3.587,3.587,0,0,0-.848.87,6.243,6.243,0,0,0-.668,1.235,8.434,8.434,0,0,0-.444,1.424L95.1,0H93.658l1.266-5.977q.079-.369.158-.773t.145-.809q.066-.4.119-.773T95.425-9h1.424q-.026.264-.062.558t-.07.571q-.035.277-.07.5t-.053.347h.035a9.7,9.7,0,0,1,.571-.905,4.182,4.182,0,0,1,.611-.69,2.589,2.589,0,0,1,.681-.444,1.924,1.924,0,0,1,.782-.158,2.481,2.481,0,0,1,.488.048q.242.048.435.1Zm7.613,4.588q-.07.334-.136.751t-.114.826q-.048.409-.079.76T107.2,0H105.7q.009-.176.026-.422t.048-.51q.031-.264.062-.519t.066-.439h-.035q-.272.431-.554.813a3.913,3.913,0,0,1-.624.672,2.732,2.732,0,0,1-.765.457,2.691,2.691,0,0,1-.993.167,2.684,2.684,0,0,1-1.077-.211,2.256,2.256,0,0,1-.839-.628,2.9,2.9,0,0,1-.541-1.046,5.1,5.1,0,0,1-.189-1.463,7.333,7.333,0,0,1,.105-1.16,7.1,7.1,0,0,1,.356-1.327,6.757,6.757,0,0,1,.668-1.323,5.023,5.023,0,0,1,1.037-1.156,4.947,4.947,0,0,1,1.463-.817,5.683,5.683,0,0,1,1.951-.308,10.373,10.373,0,0,1,1.45.105q.747.105,1.485.255Zm-.413-4.931q-.308-.07-.721-.123a6.128,6.128,0,0,0-.773-.053,3.508,3.508,0,0,0-1.349.242,3.462,3.462,0,0,0-1.015.633,3.727,3.727,0,0,0-.725.9,5.586,5.586,0,0,0-.47,1.042,6.13,6.13,0,0,0-.25,1.05,6.649,6.649,0,0,0-.075.94,4.212,4.212,0,0,0,.088.9,1.967,1.967,0,0,0,.277.681,1.3,1.3,0,0,0,.483.435,1.49,1.49,0,0,0,.7.154,1.9,1.9,0,0,0,.822-.18,2.849,2.849,0,0,0,.716-.488,4,4,0,0,0,.606-.712,7,7,0,0,0,.492-.857,7.329,7.329,0,0,0,.374-.923q.154-.47.25-.91Zm10.136,5.045q-.062.281-.119.677t-.1.8q-.044.4-.075.751T116.953,0h-1.494q0-.149.022-.4t.053-.523q.031-.272.066-.523t.062-.409h-.035a8.877,8.877,0,0,1-.633.9,3.663,3.663,0,0,1-.668.65,2.684,2.684,0,0,1-.747.391,2.738,2.738,0,0,1-.87.132A2.688,2.688,0,0,1,111.6,0a2.256,2.256,0,0,1-.839-.646,2.977,2.977,0,0,1-.532-1.055,5.141,5.141,0,0,1-.185-1.446,7.115,7.115,0,0,1,.136-1.354,6.931,6.931,0,0,1,.422-1.38,6.467,6.467,0,0,1,.725-1.283,5,5,0,0,1,1.046-1.063,4.96,4.96,0,0,1,1.389-.725,5.372,5.372,0,0,1,1.749-.268,5.932,5.932,0,0,1,.914.066q.422.066.729.136l.914-4.307h1.424Zm-.378-5.01a5.662,5.662,0,0,0-.7-.154,5.029,5.029,0,0,0-.778-.057,3.566,3.566,0,0,0-1.349.237,3.4,3.4,0,0,0-1.02.633,3.788,3.788,0,0,0-.729.9,5.676,5.676,0,0,0-.475,1.037,5.9,5.9,0,0,0-.255,1.046,6.508,6.508,0,0,0-.075.927,4.443,4.443,0,0,0,.083.9,2,2,0,0,0,.272.694,1.3,1.3,0,0,0,.488.448,1.522,1.522,0,0,0,.721.158,1.865,1.865,0,0,0,.822-.185,2.83,2.83,0,0,0,.716-.5,4.136,4.136,0,0,0,.606-.729,7.077,7.077,0,0,0,.492-.879,7.81,7.81,0,0,0,.374-.945q.154-.479.25-.918Zm2.252,9.87h-1.477l9.149-14.7h1.468Zm13.467-9.51a3.746,3.746,0,0,0-.888-.413,3.2,3.2,0,0,0-.984-.158,1.941,1.941,0,0,0-1.279.378,1.24,1.24,0,0,0-.453,1,1.255,1.255,0,0,0,.083.466,1.406,1.406,0,0,0,.246.4,2.233,2.233,0,0,0,.413.365q.25.176.576.378a4.531,4.531,0,0,1,1.419,1.173,2.262,2.262,0,0,1,.435,1.358,2.74,2.74,0,0,1-.189,1,2.247,2.247,0,0,1-.6.861,3.088,3.088,0,0,1-1.068.6,4.873,4.873,0,0,1-1.6.229,5.285,5.285,0,0,1-.58-.035,6.144,6.144,0,0,1-.637-.105,5.559,5.559,0,0,1-.615-.171,2.708,2.708,0,0,1-.514-.233l.29-1.371a3.028,3.028,0,0,0,.435.246,4.5,4.5,0,0,0,.563.22,5.257,5.257,0,0,0,.633.158,3.562,3.562,0,0,0,.655.062,2.063,2.063,0,0,0,1.314-.352,1.185,1.185,0,0,0,.435-.976,1.3,1.3,0,0,0-.066-.422,1.184,1.184,0,0,0-.233-.387,2.586,2.586,0,0,0-.439-.391q-.272-.2-.686-.444a4.44,4.44,0,0,1-1.323-1.138,2.241,2.241,0,0,1-.426-1.34,2.736,2.736,0,0,1,.2-1.042,2.52,2.52,0,0,1,.6-.879,2.928,2.928,0,0,1,1.006-.611,4,4,0,0,1,1.415-.229,5.645,5.645,0,0,1,1.2.123,4.26,4.26,0,0,1,.962.316Z" transform="translate(646.184 7285.861)" fill="#212429"/>
    <path id="Contenido-3" data-name="Contenido" d="M8.982-4a4.669,4.669,0,0,1-.3,1.7A4.078,4.078,0,0,1,7.857-.967,3.691,3.691,0,0,1,6.6-.092,3.98,3.98,0,0,1,5.019.22a3.6,3.6,0,0,1-1.7-.4A3.6,3.6,0,0,1,2.043-1.314a5.459,5.459,0,0,1-.8-1.815A9.833,9.833,0,0,1,.976-5.546,11.358,11.358,0,0,1,1.34-8.53a7.249,7.249,0,0,1,1.037-2.294A4.781,4.781,0,0,1,4-12.3a4.345,4.345,0,0,1,2.118-.519,5.1,5.1,0,0,1,2.092.36v1.362a4.442,4.442,0,0,0-2.057-.5,3.065,3.065,0,0,0-1.521.378,3.492,3.492,0,0,0-1.16,1.068,5.209,5.209,0,0,0-.743,1.666A8.45,8.45,0,0,0,2.47-6.311H2.5A3.027,3.027,0,0,1,5.379-7.884a3.783,3.783,0,0,1,1.49.281A3.216,3.216,0,0,1,8-6.807a3.581,3.581,0,0,1,.725,1.226A4.667,4.667,0,0,1,8.982-4Zm-1.477.185A3.922,3.922,0,0,0,7.339-5a2.574,2.574,0,0,0-.479-.9,2.065,2.065,0,0,0-.769-.567,2.588,2.588,0,0,0-1.037-.2,2.428,2.428,0,0,0-.993.2,2.473,2.473,0,0,0-.791.549,2.545,2.545,0,0,0-.523.809,2.561,2.561,0,0,0-.189.98A3.909,3.909,0,0,0,2.742-2.9a3.144,3.144,0,0,0,.519.989,2.466,2.466,0,0,0,.8.664,2.173,2.173,0,0,0,1.024.242,2.345,2.345,0,0,0,.993-.207,2.216,2.216,0,0,0,.765-.576,2.665,2.665,0,0,0,.492-.883A3.5,3.5,0,0,0,7.506-3.814ZM18.67-6.354a12.381,12.381,0,0,1-.286,2.8,6.533,6.533,0,0,1-.826,2.061A3.718,3.718,0,0,1,16.231-.215,3.633,3.633,0,0,1,14.442.22,3.393,3.393,0,0,1,12.75-.2,3.546,3.546,0,0,1,11.5-1.415a6.17,6.17,0,0,1-.773-1.964,12.146,12.146,0,0,1-.264-2.667,13.749,13.749,0,0,1,.277-2.918,6.674,6.674,0,0,1,.813-2.123,3.619,3.619,0,0,1,1.332-1.292,3.739,3.739,0,0,1,1.824-.435Q18.67-12.814,18.67-6.354Zm-1.477.141q0-5.379-2.558-5.379-2.7,0-2.7,5.476,0,5.106,2.646,5.106Q17.193-1.011,17.193-6.214Z" transform="translate(604.194 7299.361)" fill="#212429"/>
    <path id="Trazado_1045198" data-name="Trazado 1045198" d="M170.794,81.725H121.811v-1h48.984Z" transform="translate(468.384 7199.361)" fill="#212429"/>
  </g>
</svg>
