<svg xmlns="http://www.w3.org/2000/svg" xmlns:xlink="http://www.w3.org/1999/xlink" width="108" height="108" viewBox="0 0 108 108">
  <defs>
    <filter id="Trazado_904820" x="0" y="0" width="108" height="108" filterUnits="userSpaceOnUse">
      <feOffset dy="3" input="SourceAlpha"/>
      <feGaussianBlur stdDeviation="3" result="blur"/>
      <feFlood flood-opacity="0.161"/>
      <feComposite operator="in" in2="blur"/>
      <feComposite in="SourceGraphic"/>
    </filter>
  </defs>
  <g id="Grupo_1206020" data-name="Grupo 1206020" transform="translate(-200 -9186)">
    <g id="Grupo_1205959" data-name="Grupo 1205959" transform="translate(209 9192)">
      <g id="Grupo_1173585" data-name="Grupo 1173585" transform="translate(0 0)">
        <g id="Grupo_1173428" data-name="Grupo 1173428">
          <g id="Grupo_1171958" data-name="Grupo 1171958">
            <g id="Grupo_1167341" data-name="Grupo 1167341">
              <g id="Grupo_1166792" data-name="Grupo 1166792">
                <g transform="matrix(1, 0, 0, 1, -9, -6)" filter="url(#Trazado_904820)">
                  <g id="Trazado_904820-2" data-name="Trazado 904820" transform="translate(9 6)" fill="#fbedfe">
                    <path d="M 44.99999618530273 88.50002288818359 C 39.12687301635742 88.50002288818359 33.43022155761719 87.35009765625 28.06829643249512 85.08218383789062 C 22.88852119445801 82.89133453369141 18.23629570007324 79.75460815429688 14.24084663391113 75.75916290283203 C 10.24540901184082 71.76371002197266 7.108683586120605 67.11148834228516 4.917821407318115 61.93171310424805 C 2.649921178817749 56.56978607177734 1.499996185302734 50.87313461303711 1.499996185302734 45.0000114440918 C 1.499996185302734 39.12688827514648 2.649921178817749 33.43023681640625 4.917821407318115 28.06829833984375 C 7.108683586120605 22.88852310180664 10.24540901184082 18.2363109588623 14.24084663391113 14.2408618927002 C 18.23629570007324 10.24541187286377 22.88852119445801 7.108686447143555 28.06829643249512 4.917823791503906 C 33.43022155761719 2.649924039840698 39.12687301635742 1.499998927116394 44.99999618530273 1.499998927116394 C 50.87311935424805 1.499998927116394 56.56977081298828 2.649924039840698 61.93169784545898 4.917823791503906 C 67.11147308349609 7.108686447143555 71.76369476318359 10.24541187286377 75.75914764404297 14.2408618927002 C 79.75458526611328 18.2363109588623 82.89131164550781 22.88852310180664 85.08216857910156 28.06829833984375 C 87.35007476806641 33.43023681640625 88.5 39.12688827514648 88.5 45.0000114440918 C 88.5 50.87313461303711 87.35007476806641 56.56978607177734 85.08216857910156 61.93171310424805 C 82.89131164550781 67.11148834228516 79.75458526611328 71.76371002197266 75.75914764404297 75.75916290283203 C 71.76369476318359 79.75460815429688 67.11147308349609 82.89133453369141 61.93169784545898 85.08218383789062 C 56.56977081298828 87.35009765625 50.87311935424805 88.50002288818359 44.99999618530273 88.50002288818359 Z" stroke="none"/>
                    <path d="M 44.99999618530273 3 C 39.32870864868164 3 33.82865142822266 4.110054016113281 28.65262603759766 6.299339294433594 C 23.65165710449219 8.414566040039062 19.15968322753906 11.44333648681641 15.301513671875 15.30152893066406 C 11.44333648681641 19.15969848632812 8.414566040039062 23.65165710449219 6.299339294433594 28.65264129638672 C 4.110054016113281 33.82866668701172 2.999992370605469 39.3287239074707 2.999992370605469 45.0000114440918 C 2.999992370605469 50.67129898071289 4.110054016113281 56.17135620117188 6.299339294433594 61.34738159179688 C 8.414566040039062 66.34836578369141 11.44333648681641 70.84032440185547 15.301513671875 74.69849395751953 C 19.15968322753906 78.55668640136719 23.65165710449219 81.58545684814453 28.65262603759766 83.70068359375 C 33.82865142822266 85.88996887207031 39.32870864868164 87.00002288818359 44.99999618530273 87.00002288818359 C 50.67128372192383 87.00002288818359 56.17134094238281 85.88996887207031 61.34736633300781 83.70068359375 C 66.34834289550781 81.58545684814453 70.84030914306641 78.55668640136719 74.69847869873047 74.69849395751953 C 78.55665588378906 70.84032440185547 81.58542633056641 66.34836578369141 83.70065307617188 61.34738159179688 C 85.88993835449219 56.17135620117188 87 50.67129898071289 87 45.0000114440918 C 87 39.3287239074707 85.88993835449219 33.82866668701172 83.70065307617188 28.65264129638672 C 81.58542633056641 23.65165710449219 78.55665588378906 19.15969848632812 74.69847869873047 15.30152893066406 C 70.84030914306641 11.44333648681641 66.34834289550781 8.414566040039062 61.34736633300781 6.299339294433594 C 56.17134094238281 4.110054016113281 50.67128372192383 3 44.99999618530273 3 M 44.99999618530273 0 C 69.85281372070312 0 90 20.14719390869141 90 45.0000114440918 C 90 69.85282897949219 69.85281372070312 90.00002288818359 44.99999618530273 90.00002288818359 C 20.14717864990234 90.00002288818359 -7.62939453125e-06 69.85282897949219 -7.62939453125e-06 45.0000114440918 C -7.62939453125e-06 20.14719390869141 20.14717864990234 0 44.99999618530273 0 Z" stroke="none" fill="#7b3289"/>
                  </g>
                </g>
              </g>
            </g>
          </g>
        </g>
      </g>
    </g>
    <g id="inspire-idea_14781822_1_" data-name="inspire-idea_14781822 (1)" transform="translate(220.384 9202.608)">
      <g id="Grupo_1173811" data-name="Grupo 1173811" transform="translate(7.75 7.5)">
        <path id="Trazado_1030754" data-name="Trazado 1030754" d="M118.589,345.924v-3.862a2.348,2.348,0,0,0,1.909-2.307v-6.641h12.129v6.641a2.349,2.349,0,0,0,1.909,2.307l.33,3.326Z" transform="translate(-106.817 -298.532)" fill="#ca6e59"/>
        <path id="Trazado_1030755" data-name="Trazado 1030755" d="M61.222,17.953c0,7.641-4.112,16.719-14.581,13.716L37.906,27.7a3.449,3.449,0,0,1-.227-5.1l.882-.243.61-.606a3.645,3.645,0,0,1,.73-6.252.322.322,0,0,0,.188-.374,3.46,3.46,0,0,1-.1-.814,3.368,3.368,0,0,1,3.331-3.4,3.334,3.334,0,0,1,.648.065,1.581,1.581,0,0,1,.252-.255,1.345,1.345,0,0,0,.559-1.174,3.754,3.754,0,0,1,5.259-.371.317.317,0,0,0,.475-.076,3.3,3.3,0,0,1,5.64,0,.317.317,0,0,0,.476.076,3.741,3.741,0,0,1,.748-.5C61.222,9.835,61.222,15.2,61.222,17.953Z" transform="translate(-33.59 -7.5)" fill="#73788c"/>
        <path id="Trazado_1030756" data-name="Trazado 1030756" d="M154.008,31.478a3.423,3.423,0,0,1-1.246,2.653l-9.991,5.429h-8.931l-3.2-1.456a15.693,15.693,0,0,0,10.737-23,3.717,3.717,0,0,1,1.691-.4,3.769,3.769,0,0,1,2.82,1.273l.175.857.635.571a3.331,3.331,0,0,1,.647-.065,3.368,3.368,0,0,1,3.332,3.4,3.479,3.479,0,0,1-.175,1.089,3.641,3.641,0,0,1,1,6.352A3.392,3.392,0,0,1,154.008,31.478Z" transform="translate(-117.588 -13.935)" fill="#5e6577"/>
        <path id="Trazado_1030757" data-name="Trazado 1030757" d="M69.1,200.508a5.815,5.815,0,0,0,4.429-5.647h0a2.312,2.312,0,0,0-2.312-2.312H69.1l-23.292,0H43.687a2.312,2.312,0,0,0-2.312,2.312h0a5.815,5.815,0,0,0,4.429,5.647Z" transform="translate(-37.804 -172.896)" fill="#ca6e59"/>
        <path id="Trazado_1030758" data-name="Trazado 1030758" d="M100.592,130.959a2.3,2.3,0,0,1,3,.99,9.234,9.234,0,0,0,.77,1.171l.5.668c.213.62.686,3.517,1.342,3.517v8.822a7.359,7.359,0,0,1-2.513,5.539l-4.57,4a4.905,4.905,0,0,1-3.23,1.213h-2.71a4.905,4.905,0,0,1-3.23-1.213l-4.57-4a7.359,7.359,0,0,1-2.513-5.539V137.3a1.562,1.562,0,0,0,1.452-1.067l1.006-3.926a2.3,2.3,0,0,1,3.168-1.33l.147.07,1.184.454a13.108,13.108,0,0,0,9.38,0l1.184-.454Z" transform="translate(-74.896 -117.651)" fill="#d78878"/>
        <path id="Trazado_1030759" data-name="Trazado 1030759" d="M170.758,300.23c-2.52,0-2.632-2.326-2.589-3.169a.318.318,0,0,1,.318-.3h4.535a.318.318,0,0,1,.318.309C173.361,297.919,173.194,300.23,170.758,300.23Z" transform="translate(-151.126 -266.039)" fill="#eaf6ff"/>
        <path id="Trazado_1030760" data-name="Trazado 1030760" d="M14.735,440.006l-6.666-.015a.318.318,0,0,1-.319-.319v-5.919a.319.319,0,0,1,.171-.284,10.3,10.3,0,0,1,2.777-.956l.768-.154,6.774,2.513Z" transform="translate(-7.75 -387.238)" fill="#9be69d"/>
        <path id="Trazado_1030761" data-name="Trazado 1030761" d="M298.432,435.366l-2.572,4.2-8.877.006-3.212-5.625c.035-.036,6.493-2.064,6.493-2.064l.439.084a10.3,10.3,0,0,1,2.9,1.022Z" transform="translate(-254.457 -386.809)" fill="#9be69d"/>
        <path id="Trazado_1030762" data-name="Trazado 1030762" d="M122.828,418.39l.97,4.873-3.506,4.245-10.647.012-4.038-4.452,1.506-4.654A10.9,10.9,0,0,0,122.828,418.39Z" transform="translate(-95.214 -374.751)" fill="#eaf6ff"/>
        <path id="Trazado_1030763" data-name="Trazado 1030763" d="M49.626,409.406l-2.9-10.428a1.167,1.167,0,0,0-1.464-.8l-6.447,1.965a.505.505,0,0,0-.316.689l1.36,3.079a.319.319,0,0,0,.22.182l3.313.76a.319.319,0,0,1,.19.493l-1.8,2.577a.319.319,0,0,0-.039.29l.433,1.2Z" transform="translate(-35.194 -356.638)" fill="#bbf49b"/>
        <path id="Trazado_1030764" data-name="Trazado 1030764" d="M243.879,409.189l2.9-10.44a1.167,1.167,0,0,1,1.464-.8l6.447,1.964a.507.507,0,0,1,.316.689l-1.36,3.08a.318.318,0,0,1-.22.182l-3.314.76a.319.319,0,0,0-.19.493l1.8,2.578a.318.318,0,0,1,.039.29l-.435,1.212Z" transform="translate(-218.801 -356.433)" fill="#bbf49b"/>
        <g id="Grupo_1173808" data-name="Grupo 1173808" transform="translate(39.315 28.81)">
          <path id="Trazado_1030765" data-name="Trazado 1030765" d="M390.553,387.922v4.084a12.442,12.442,0,0,1-.28,2.476,8.7,8.7,0,0,1-1.006,1.81c-.644,1.083-.362,2.2-.358,3.458l-.816.522h-8.049v-1.748a4.392,4.392,0,0,0-1.156-2.968,3.636,3.636,0,0,1-.955-2.453v-1.76a2.154,2.154,0,0,1,.92-1.765Z" transform="translate(-377.933 -376.329)" fill="#d78878"/>
          <g id="Grupo_1173807" data-name="Grupo 1173807" transform="translate(9.823 6.858)">
            <path id="Trazado_1030766" data-name="Trazado 1030766" d="M473.221,344.035v4.05a.849.849,0,0,1-.341.76c-.255.255-1.15-.135-1.539-.132l-.693-.74-.224-2.632.735-.567a1.424,1.424,0,0,1,1.387-1.422C473.015,343.524,473.221,343.764,473.221,344.035Z" transform="translate(-470.425 -343.35)" fill="#d78878"/>
            <path id="Trazado_1030767" data-name="Trazado 1030767" d="M481.723,344.763v3.2a1.425,1.425,0,0,1-2.578.837l-.091-.1a1.425,1.425,0,0,0,1.413-1.425v-3.2a1.416,1.416,0,0,0-.207-.74h.038A1.424,1.424,0,0,1,481.723,344.763Z" transform="translate(-478.138 -343.34)" fill="#ca6e59"/>
          </g>
          <path id="Trazado_1030768" data-name="Trazado 1030768" d="M476.807,386.87v4.26a6.946,6.946,0,0,1-.977,3.553,6.949,6.949,0,0,0-.976,3.579l0,.751a.319.319,0,0,1-.319.32h-.98l0-1.071a6.96,6.96,0,0,1,.977-3.579,6.945,6.945,0,0,0,.977-3.552v-4.076Z" transform="translate(-463.398 -375.389)" fill="#ca6e59"/>
          <path id="Trazado_1030769" data-name="Trazado 1030769" d="M391.5,281.4v11.5c0,.826-1.352,1.5-2.178,1.5l.7-1.876-.971-.924V281.4a1.5,1.5,0,0,1,.886-1.368A1.389,1.389,0,0,1,391.5,281.4Z" transform="translate(-387.871 -279.896)" fill="#d78878"/>
          <path id="Trazado_1030770" data-name="Trazado 1030770" d="M417.777,332.219v3.774c0,.609-.988,1.135-1.511,1.37a1.505,1.505,0,0,1-.889-1.37l-.367-.081v-3.564l.367-.13a1.505,1.505,0,0,1,.889-1.369C417.527,331.011,417.777,331.611,417.777,332.219Z" transform="translate(-411.073 -325.319)" fill="#d78878"/>
          <path id="Trazado_1030771" data-name="Trazado 1030771" d="M447.382,332.219v4c0,.608-1.1,1.134-1.621,1.369a1.5,1.5,0,0,1-.889-1.369l-.358-.228v-3.612l.358-.162a1.5,1.5,0,0,1,.889-1.369C447.185,331.044,447.382,331.611,447.382,332.219Z" transform="translate(-437.443 -325.319)" fill="#d78878"/>
          <path id="Trazado_1030772" data-name="Trazado 1030772" d="M399.632,280.272v10.892a.679.679,0,0,1-1.353,0V280.272a1.506,1.506,0,0,0-.885-1.368,1.48,1.48,0,0,1,.616-.134h.12A1.506,1.506,0,0,1,399.632,280.272Z" transform="translate(-395.327 -278.77)" fill="#ca6e59"/>
          <path id="Trazado_1030773" data-name="Trazado 1030773" d="M429.07,331.1v3.775a1.507,1.507,0,0,1-1.5,1.5h-.121a1.466,1.466,0,0,1-.613-.133,1.505,1.505,0,0,0,.889-1.37V331.1a1.505,1.505,0,0,0-.889-1.369,1.467,1.467,0,0,1,.613-.133h.121A1.506,1.506,0,0,1,429.07,331.1Z" transform="translate(-421.64 -324.202)" fill="#ca6e59"/>
          <path id="Trazado_1030774" data-name="Trazado 1030774" d="M458.49,331.1v4a1.507,1.507,0,0,1-1.5,1.5h-.12a1.463,1.463,0,0,1-.613-.133,1.5,1.5,0,0,0,.888-1.369v-4a1.505,1.505,0,0,0-.888-1.369,1.464,1.464,0,0,1,.613-.133h.12A1.507,1.507,0,0,1,458.49,331.1Z" transform="translate(-447.936 -324.202)" fill="#ca6e59"/>
          <path id="Trazado_1030775" data-name="Trazado 1030775" d="M399.6,367.126a3.235,3.235,0,0,1-.068.661c-.279,1.336-2.267,1.5-3.675,1.648a4.493,4.493,0,0,0-2.662-.362c-.842.26-1.371,1.613-1.383,1.6l-2.757-1.442v-1.358l2.662-1.914a2.982,2.982,0,0,1,1.7-.555l4.42-.042A1.762,1.762,0,0,1,399.6,367.126Z" transform="translate(-387.869 -356.169)" fill="#ca6e59"/>
          <path id="Trazado_1030776" data-name="Trazado 1030776" d="M390.644,381.1l1.257-1.692a.319.319,0,0,1,.217-.126l2.717-.329a2.157,2.157,0,0,0,1.487-2.068.725.725,0,0,0-.73-.71h-4a2.7,2.7,0,0,0-1.548.488l-3.451,2.415Z" transform="translate(-385.675 -365.834)" fill="#d78878"/>
        </g>
        <g id="Grupo_1173810" data-name="Grupo 1173810" transform="translate(29.182 1.501)">
          <path id="Trazado_1030777" data-name="Trazado 1030777" d="M303.819,30.144a12.372,12.372,0,0,1-12.285,12.563c-2.241,0-7.161-1.645-7.8-3.431l.121-.489a.315.315,0,0,0-.028-.222,11.6,11.6,0,0,1,17.957-14.039A11.008,11.008,0,0,1,303.819,30.144Z" transform="translate(-282.516 -21.635)" fill="#eaf6ff"/>
          <path id="Trazado_1030778" data-name="Trazado 1030778" d="M306.67,60.02a11.615,11.615,0,0,1-17.407,7.416.317.317,0,0,0-.225-.041l-4.782.911a.319.319,0,0,1-.37-.39l1.063-4.3A12.506,12.506,0,0,0,303,48.865,11.569,11.569,0,0,1,306.67,60.02Z" transform="translate(-283.732 -45.973)" fill="#d8ecfe"/>
          <g id="Grupo_1173809" data-name="Grupo 1173809" transform="translate(5.612 2.889)">
            <path id="Trazado_1030779" data-name="Trazado 1030779" d="M345.959,55.476c0,3.107-3.264,6.113-6.435,6.113-.481,0-1,.327-1.841-.914a6.756,6.756,0,0,0-.831-1.462,5.756,5.756,0,0,1,3.248-9.531C344.458,49.682,345.959,52.711,345.959,55.476Z" transform="translate(-335.361 -49.592)" fill="#ffe177"/>
            <path id="Trazado_1030780" data-name="Trazado 1030780" d="M364.934,54.593a5.736,5.736,0,0,1-1.465,3.835,6.95,6.95,0,0,0-1.394,4.144v.36l-5.8.019v-.318a9.727,9.727,0,0,0-.712-3.167,5.828,5.828,0,0,0,1.395.168c3.171,0,5.918-2.065,5.918-5.172a5.659,5.659,0,0,0-4.719-5.536,5.76,5.76,0,0,1,6.773,5.667Z" transform="translate(-353.422 -48.837)" fill="#ffd15b"/>
            <path id="Trazado_1030781" data-name="Trazado 1030781" d="M366.858,179.51l.9,1.759c0,.955-.572,1.759-2.628,1.759h-.451a1.728,1.728,0,0,1-1.728-1.728V179.51h3.907Z" transform="translate(-360.021 -165.632)" fill="#5e6577"/>
            <path id="Trazado_1030782" data-name="Trazado 1030782" d="M386.946,179.511V181.3a1.728,1.728,0,0,1-1.728,1.728h-1.744A1.727,1.727,0,0,0,385.2,181.3v-1.791Z" transform="translate(-378.364 -165.633)" fill="#4d5263"/>
            <path id="Trazado_1030783" data-name="Trazado 1030783" d="M354.348,160.595c0,.382.232.816,0,1.067a6.96,6.96,0,0,1-2.31.548h-4.251a1.337,1.337,0,0,1-1.283-1.385,1.443,1.443,0,0,1,.376-.98,1.237,1.237,0,0,1,.908-.406h4.251C352.747,159.439,354.348,159.829,354.348,160.595Z" transform="translate(-345.32 -147.692)" fill="#73788c"/>
            <path id="Trazado_1030784" data-name="Trazado 1030784" d="M402.222,160.825a1.441,1.441,0,0,1-.375.98,1.237,1.237,0,0,1-.908.406h-2.328a1.235,1.235,0,0,0,.908-.406,1.441,1.441,0,0,0,.375-.98,1.337,1.337,0,0,0-1.283-1.386h2.328A1.337,1.337,0,0,1,402.222,160.825Z" transform="translate(-391.894 -147.692)" fill="#5e6577"/>
          </g>
        </g>
      </g>
      <g id="Grupo_1173820" data-name="Grupo 1173820" transform="translate(7.75 7.5)">
        <g id="Grupo_1173812" data-name="Grupo 1173812" transform="translate(3.571 19.656)">
          <path id="Trazado_1030785" data-name="Trazado 1030785" d="M45.752,200.523a5.815,5.815,0,0,1-4.376-5.634h0a2.312,2.312,0,0,1,2.312-2.312h2.117" transform="translate(-41.376 -192.577)" fill="none" stroke="#000" stroke-linecap="round" stroke-linejoin="round" stroke-miterlimit="10" stroke-width="0.8"/>
          <path id="Trazado_1030786" data-name="Trazado 1030786" d="M307.1,232.041a5.824,5.824,0,0,1-4.047,3.747" transform="translate(-275.265 -227.85)" fill="none" stroke="#000" stroke-linecap="round" stroke-linejoin="round" stroke-miterlimit="10" stroke-width="0.8"/>
        </g>
        <path id="Trazado_1030787" data-name="Trazado 1030787" d="M209.872,132.243a13.1,13.1,0,0,0,2.849-.738l1.184-.454.2-.092a2.3,2.3,0,0,1,3.155,1.336" transform="translate(-188.406 -117.651)" fill="none" stroke="#000" stroke-linecap="round" stroke-linejoin="round" stroke-miterlimit="10" stroke-width="0.8"/>
        <path id="Trazado_1030788" data-name="Trazado 1030788" d="M106.211,141.722v4.535A7.359,7.359,0,0,1,103.7,151.8l-4.57,4a4.9,4.9,0,0,1-3.23,1.213h-2.71a4.9,4.9,0,0,1-3.23-1.213l-4.57-4a7.358,7.358,0,0,1-2.513-5.539v-8.821a1.562,1.562,0,0,0,1.452-1.067l1.006-3.926a2.3,2.3,0,0,1,3.168-1.33l.147.07,1.184.454a13.1,13.1,0,0,0,2.832.735" transform="translate(-74.896 -117.783)" fill="none" stroke="#000" stroke-linecap="round" stroke-linejoin="round" stroke-miterlimit="10" stroke-width="0.8"/>
        <g id="Grupo_1173814" data-name="Grupo 1173814" transform="translate(12.906 18.647)">
          <g id="Grupo_1173813" data-name="Grupo 1173813">
            <path id="Trazado_1030789" data-name="Trazado 1030789" d="M184.322,262.089a2.462,2.462,0,0,1-2.233,0" transform="translate(-176.479 -253.697)" fill="none" stroke="#000" stroke-linecap="round" stroke-linejoin="round" stroke-miterlimit="10" stroke-width="0.8"/>
            <path id="Trazado_1030790" data-name="Trazado 1030790" d="M133.35,183.6a4.248,4.248,0,0,0-4.084,0" transform="translate(-129.266 -183.073)" fill="none" stroke="#000" stroke-linecap="round" stroke-linejoin="round" stroke-miterlimit="10" stroke-width="0.8"/>
            <path id="Trazado_1030791" data-name="Trazado 1030791" d="M221.57,183.6a4.248,4.248,0,0,0-4.084,0" transform="translate(-208.117 -183.073)" fill="none" stroke="#000" stroke-linecap="round" stroke-linejoin="round" stroke-miterlimit="10" stroke-width="0.8"/>
            <line id="Línea_813" data-name="Línea 813" y1="1.809" transform="translate(11.411 3.067)" fill="none" stroke="#000" stroke-linecap="round" stroke-linejoin="round" stroke-miterlimit="10" stroke-width="0.8"/>
            <line id="Línea_814" data-name="Línea 814" y1="1.809" transform="translate(2.042 3.067)" fill="none" stroke="#000" stroke-linecap="round" stroke-linejoin="round" stroke-miterlimit="10" stroke-width="0.8"/>
          </g>
          <path id="Trazado_1030792" data-name="Trazado 1030792" d="M170.758,300.23c-3.078,0-2.563-3.47-2.563-3.47h5.126S173.744,300.23,170.758,300.23Z" transform="translate(-164.031 -284.686)" fill="none" stroke="#000" stroke-linecap="round" stroke-linejoin="round" stroke-miterlimit="10" stroke-width="0.8"/>
        </g>
        <path id="Trazado_1030793" data-name="Trazado 1030793" d="M65.882,12.093a3.284,3.284,0,0,0-3.18-1.126,3.823,3.823,0,0,0-3.63-2.7,3.762,3.762,0,0,0-2.727,1.174,3.3,3.3,0,0,0-6.015,0A3.762,3.762,0,0,0,47.6,8.265a3.822,3.822,0,0,0-3.63,2.7,3.282,3.282,0,0,0-.648-.065A3.367,3.367,0,0,0,40,14.3a3.462,3.462,0,0,0,.175,1.088,3.642,3.642,0,0,0-1,6.353,3.432,3.432,0,0,0-1.264,5.95" transform="translate(-33.593 -7.5)" fill="none" stroke="#000" stroke-linecap="round" stroke-linejoin="round" stroke-miterlimit="10" stroke-width="0.8"/>
        <path id="Trazado_1030794" data-name="Trazado 1030794" d="M61.83,142.25a3.334,3.334,0,0,1-1.5-.609" transform="translate(-54.743 -127.395)" fill="none" stroke="#000" stroke-linecap="round" stroke-linejoin="round" stroke-miterlimit="10" stroke-width="0.8"/>
        <path id="Trazado_1030795" data-name="Trazado 1030795" d="M105.6,40.2a3.161,3.161,0,0,1,2,1.331" transform="translate(-95.208 -36.726)" fill="none" stroke="#000" stroke-linecap="round" stroke-linejoin="round" stroke-miterlimit="10" stroke-width="0.8"/>
        <path id="Trazado_1030796" data-name="Trazado 1030796" d="M268.155,40.183a3.166,3.166,0,0,0-1.609,1.226" transform="translate(-239.061 -36.712)" fill="none" stroke="#000" stroke-linecap="round" stroke-linejoin="round" stroke-miterlimit="10" stroke-width="0.8"/>
        <path id="Trazado_1030797" data-name="Trazado 1030797" d="M303.036,33.621q-.053.336-.127.674a11.956,11.956,0,0,1-18.028,7.568l-5.55,1.058,1.37-5.548A11.925,11.925,0,0,1,289.234,20" transform="translate(-250.455 -18.674)" fill="none" stroke="#000" stroke-linecap="round" stroke-linejoin="round" stroke-miterlimit="10" stroke-width="0.8"/>
        <path id="Trazado_1030798" data-name="Trazado 1030798" d="M407.545,19.544q.428.061.858.154a11.939,11.939,0,0,1,9.264,9.8" transform="translate(-365.085 -18.265)" fill="none" stroke="#000" stroke-linecap="round" stroke-linejoin="round" stroke-miterlimit="10" stroke-width="0.8"/>
        <g id="Grupo_1173815" data-name="Grupo 1173815" transform="translate(34.793 4.393)">
          <path id="Trazado_1030799" data-name="Trazado 1030799" d="M337.857,60.411a6.789,6.789,0,0,0-1.013-1.949,5.75,5.75,0,1,1,8.548-.029,7.092,7.092,0,0,0-1.03,1.955" transform="translate(-335.355 -48.863)" fill="none" stroke="#000" stroke-linecap="round" stroke-linejoin="round" stroke-miterlimit="10" stroke-width="0.8"/>
          <line id="Línea_815" data-name="Línea 815" y1="4.227" transform="translate(5.75 7.298)" fill="none" stroke="#000" stroke-linecap="round" stroke-linejoin="round" stroke-miterlimit="10" stroke-width="0.8"/>
          <path id="Trazado_1030800" data-name="Trazado 1030800" d="M368.563,186.134v.654a2.124,2.124,0,0,1-2.124,2.124h-1.4a2.124,2.124,0,0,1-2.124-2.124v-.654" transform="translate(-359.991 -171.555)" fill="none" stroke="#000" stroke-linecap="round" stroke-linejoin="round" stroke-miterlimit="10" stroke-width="0.8"/>
          <path id="Trazado_1030801" data-name="Trazado 1030801" d="M356.043,160.588h-5.722a1.454,1.454,0,0,1-1.454-1.454v-.086a1.454,1.454,0,0,1,1.454-1.454h5.722a1.454,1.454,0,0,1,1.454,1.454v.086A1.454,1.454,0,0,1,356.043,160.588Z" transform="translate(-347.432 -146.047)" fill="none" stroke="#000" stroke-linecap="round" stroke-linejoin="round" stroke-miterlimit="10" stroke-width="0.8"/>
          <line id="Línea_816" data-name="Línea 816" x2="3.681" transform="translate(3.986 7.288)" fill="none" stroke="#000" stroke-linecap="round" stroke-linejoin="round" stroke-miterlimit="10" stroke-width="0.8"/>
        </g>
        <path id="Trazado_1030802" data-name="Trazado 1030802" d="M346.53,432.2l.267.051a10.286,10.286,0,0,1,2.9,1.022" transform="translate(-310.55 -387.09)" fill="none" stroke="#000" stroke-linecap="round" stroke-linejoin="round" stroke-miterlimit="10" stroke-width="0.8"/>
        <path id="Trazado_1030803" data-name="Trazado 1030803" d="M250.768,358.351v3.96a2.349,2.349,0,0,0,1.909,2.307" transform="translate(-224.958 -321.089)" fill="none" stroke="#000" stroke-linecap="round" stroke-linejoin="round" stroke-miterlimit="10" stroke-width="0.8"/>
        <path id="Trazado_1030804" data-name="Trazado 1030804" d="M118.589,417.362h0a10.907,10.907,0,0,0,15.947,0h0" transform="translate(-106.817 -373.833)" fill="none" stroke="#000" stroke-linecap="round" stroke-linejoin="round" stroke-miterlimit="10" stroke-width="0.8"/>
        <path id="Trazado_1030805" data-name="Trazado 1030805" d="M11.116,366.281l-.418.084a10.285,10.285,0,0,0-2.949,1.047m13.68-9.06v3.96a2.349,2.349,0,0,1-1.909,2.307l-.122.023" transform="translate(-7.75 -321.089)" fill="none" stroke="#000" stroke-linecap="round" stroke-linejoin="round" stroke-miterlimit="10" stroke-width="0.8"/>
        <g id="Grupo_1173816" data-name="Grupo 1173816" transform="translate(2.969 41.486)">
          <path id="Trazado_1030806" data-name="Trazado 1030806" d="M45.64,404.971l-1.667-5.992a1.167,1.167,0,0,0-1.464-.8l-6.447,1.965a.505.505,0,0,0-.316.689l1.425,3.226,3.929.9-2.162,3.1.49,1.367" transform="translate(-35.703 -398.124)" fill="none" stroke="#000" stroke-linecap="round" stroke-linejoin="round" stroke-miterlimit="10" stroke-width="0.8"/>
          <line id="Línea_817" data-name="Línea 817" x1="0.242" y1="0.87" transform="translate(10.933 10.428)" fill="none" stroke="#000" stroke-linecap="round" stroke-linejoin="round" stroke-miterlimit="10" stroke-width="0.8"/>
          <path id="Trazado_1030807" data-name="Trazado 1030807" d="M244.868,409.422l2.9-10.443a1.167,1.167,0,0,1,1.464-.8l6.447,1.964a.507.507,0,0,1,.316.689l-1.425,3.226-3.93.9,2.163,3.1-.49,1.367" transform="translate(-222.654 -398.125)" fill="none" stroke="#000" stroke-linecap="round" stroke-linejoin="round" stroke-miterlimit="10" stroke-width="0.8"/>
        </g>
        <g id="Grupo_1173819" data-name="Grupo 1173819" transform="translate(39.322 28.841)">
          <g id="Grupo_1173817" data-name="Grupo 1173817" transform="translate(10.558 6.858)">
            <path id="Trazado_1030808" data-name="Trazado 1030808" d="M480.262,345.049a1.423,1.423,0,0,0-1.423-1.423h0a1.425,1.425,0,0,0-1.425,1.425v3.2a1.425,1.425,0,0,0,1.425,1.425h0a1.425,1.425,0,0,0,1.425-1.425Z" transform="translate(-477.412 -343.626)" fill="none" stroke="#000" stroke-linecap="round" stroke-linejoin="round" stroke-miterlimit="10" stroke-width="0.8"/>
            <path id="Trazado_1030809" data-name="Trazado 1030809" d="M490.831,400.563" transform="translate(-489.406 -394.516)" fill="none" stroke="#000" stroke-linecap="round" stroke-linejoin="round" stroke-miterlimit="10" stroke-width="0.8"/>
          </g>
          <g id="Grupo_1173818" data-name="Grupo 1173818" transform="translate(11.455 11.52)">
            <path id="Trazado_1030810" data-name="Trazado 1030810" d="M487.811,387.53v4.259a6.918,6.918,0,0,1-.977,3.514h0a6.953,6.953,0,0,0-.977,3.579l0,1.071" transform="translate(-485.858 -387.53)" fill="none" stroke="#000" stroke-linecap="round" stroke-linejoin="round" stroke-miterlimit="10" stroke-width="0.8"/>
          </g>
          <path id="Trazado_1030811" data-name="Trazado 1030811" d="M433.859,414.75a5.827,5.827,0,0,1,1.244,5.327l-.044.17" transform="translate(-427.926 -400.339)" fill="none" stroke="#000" stroke-linecap="round" stroke-linejoin="round" stroke-miterlimit="10" stroke-width="0.8"/>
          <path id="Trazado_1030812" data-name="Trazado 1030812" d="M389.115,292.055v-11.5a1.506,1.506,0,0,1,1.5-1.5h.12a1.506,1.506,0,0,1,1.5,1.5V289.9" transform="translate(-387.934 -279.057)" fill="none" stroke="#000" stroke-linecap="round" stroke-linejoin="round" stroke-miterlimit="10" stroke-width="0.8"/>
          <path id="Trazado_1030813" data-name="Trazado 1030813" d="M418.532,331.395a1.506,1.506,0,0,1,1.5-1.5h.12a1.506,1.506,0,0,1,1.5,1.5v3.419" transform="translate(-414.227 -324.494)" fill="none" stroke="#000" stroke-linecap="round" stroke-linejoin="round" stroke-miterlimit="10" stroke-width="0.8"/>
          <path id="Trazado_1030814" data-name="Trazado 1030814" d="M447.947,334.777v-3.382a1.506,1.506,0,0,1,1.5-1.5h.121a1.506,1.506,0,0,1,1.5,1.5v1.434" transform="translate(-440.518 -324.494)" fill="none" stroke="#000" stroke-linecap="round" stroke-linejoin="round" stroke-miterlimit="10" stroke-width="0.8"/>
          <path id="Trazado_1030815" data-name="Trazado 1030815" d="M382.968,381.394l1.339-1.8,2.683-.346a2.156,2.156,0,0,0,1.487-2.049.73.73,0,0,0-.73-.729h-3.828a2.7,2.7,0,0,0-1.548.488l-3.451,2.415a2.156,2.156,0,0,0-.92,1.766V382.9a3.631,3.631,0,0,0,.955,2.453,4.394,4.394,0,0,1,1.155,2.969v1.748" transform="translate(-377.999 -366.122)" fill="none" stroke="#000" stroke-linecap="round" stroke-linejoin="round" stroke-miterlimit="10" stroke-width="0.8"/>
        </g>
      </g>
    </g>
  </g>
</svg>
