<svg xmlns="http://www.w3.org/2000/svg" width="135.328" height="42.021" viewBox="0 0 135.328 42.021">
  <g id="Grupo_1206022" data-name="Grupo 1206022" transform="translate(-939.554 -3489.264)">
    <path id="Trazado_1045508" data-name="Trazado 1045508" d="M-30.415-12.6a24.113,24.113,0,0,0-1.894,2.224,14.978,14.978,0,0,0-1.468,2.386,12.788,12.788,0,0,0-.945,2.61,12.165,12.165,0,0,0-.334,2.9,12.409,12.409,0,0,0,.075,1.345A12.894,12.894,0,0,0-34.757.224a10.612,10.612,0,0,0,.382,1.327,7.809,7.809,0,0,0,.558,1.217h-2.153a7.383,7.383,0,0,1-.646-1.261A11.242,11.242,0,0,1-37.077.092a11.957,11.957,0,0,1-.277-1.459,11.249,11.249,0,0,1-.092-1.4A12.4,12.4,0,0,1-37.13-5.6a12.4,12.4,0,0,1,.914-2.588,12.975,12.975,0,0,1,1.459-2.338A16.04,16.04,0,0,1-32.805-12.6Zm8.176,2.347h-4.438l-.65,3.041h4.087l-.51,2.338h-4.078L-28.857,0h-2.865l2.681-12.6h7.295ZM-24.32,2.61l.211-1.046h7.471L-16.85,2.61ZM-5.185-6.855a3.1,3.1,0,0,1-.026.352q-.026.22-.066.457t-.083.461q-.044.224-.079.382L-6.538,0H-9.324l1.081-5.133q.053-.281.105-.58a2.85,2.85,0,0,0,.053-.457A1,1,0,0,0-8.3-6.842a.805.805,0,0,0-.646-.25,1.513,1.513,0,0,0-.751.224,3.126,3.126,0,0,0-.734.593,4.123,4.123,0,0,0-.6.848,3.619,3.619,0,0,0-.365.98L-12.33,0h-2.83l1.336-6.17q.079-.4.158-.813t.141-.782q.062-.374.11-.694T-13.341-9H-10.6q-.026.246-.057.514t-.062.514q-.031.246-.057.435t-.044.268h.035a5.835,5.835,0,0,1,.694-.76,5.165,5.165,0,0,1,.822-.62,4.391,4.391,0,0,1,.9-.417,2.956,2.956,0,0,1,.932-.154,2.168,2.168,0,0,1,1.683.62A2.491,2.491,0,0,1-5.185-6.855ZM4.7-6.68A2.775,2.775,0,0,1,4.41-5.405a2.551,2.551,0,0,1-.984,1,5.86,5.86,0,0,1-1.833.664,15.212,15.212,0,0,1-2.848.268.3.3,0,0,0-.018.092V-3.3a1.766,1.766,0,0,0,.088.545,1.244,1.244,0,0,0,.3.492A1.579,1.579,0,0,0-.314-1.9a2.451,2.451,0,0,0,.879.136,4.587,4.587,0,0,0,.69-.057,6.228,6.228,0,0,0,.76-.167,7.692,7.692,0,0,0,.769-.264,5.872,5.872,0,0,0,.708-.338L3.061-.519a5.828,5.828,0,0,1-.624.272,7.516,7.516,0,0,1-.76.237,7.394,7.394,0,0,1-.87.167A7.142,7.142,0,0,1-.138.22a4.607,4.607,0,0,1-1.749-.3,3.337,3.337,0,0,1-1.2-.8,3.132,3.132,0,0,1-.69-1.182A4.64,4.64,0,0,1-4-3.507,6.276,6.276,0,0,1-3.614-5.7a5.536,5.536,0,0,1,1.09-1.819A5.231,5.231,0,0,1-.819-8.758,5.245,5.245,0,0,1,1.409-9.22a4.751,4.751,0,0,1,1.512.211,2.882,2.882,0,0,1,1.02.567,2.192,2.192,0,0,1,.58.813A2.512,2.512,0,0,1,4.7-6.68Zm-2.646.035a.693.693,0,0,0-.242-.541A.99.99,0,0,0,1.136-7.4a1.729,1.729,0,0,0-.743.167,2.3,2.3,0,0,0-.65.461,2.8,2.8,0,0,0-.505.7,3.637,3.637,0,0,0-.316.883,5.5,5.5,0,0,0,2.36-.36A1.188,1.188,0,0,0,2.059-6.645Zm9.591-.308h-2.1L8.829-3.586q-.018.114-.044.246t-.048.264q-.022.132-.04.25a1.394,1.394,0,0,0-.018.2.685.685,0,0,0,.176.519.827.827,0,0,0,.58.167A1.738,1.738,0,0,0,9.7-1.969q.163-.026.334-.07t.33-.092q.158-.048.255-.083L10.191-.158A3.839,3.839,0,0,1,9.8-.035q-.229.062-.5.114T8.736.167A4.854,4.854,0,0,1,8.161.2,3.148,3.148,0,0,1,7.044.031a1.786,1.786,0,0,1-.716-.475,1.742,1.742,0,0,1-.378-.708,3.343,3.343,0,0,1-.11-.879q0-.141.018-.325t.048-.378q.031-.193.07-.391t.075-.365l.721-3.463H5.383L5.875-9H7.2l.457-2.109,2.927-.721L10-9h2.136Zm9.107,3.981q-.062.272-.119.659t-.105.8q-.048.417-.079.817T20.423,0H17.611q0-.132.013-.338t.031-.422q.018-.215.04-.422t.04-.347H17.7q-.255.343-.527.659a3.527,3.527,0,0,1-.606.558,2.93,2.93,0,0,1-.743.387,2.821,2.821,0,0,1-.945.145A2.77,2.77,0,0,1,13.7-.018,2.323,2.323,0,0,1,12.838-.7,3.157,3.157,0,0,1,12.3-1.8a5.33,5.33,0,0,1-.185-1.463,6.89,6.89,0,0,1,.092-1.015,6.66,6.66,0,0,1,.334-1.266,6.372,6.372,0,0,1,.672-1.318,4.988,4.988,0,0,1,1.1-1.182,5.472,5.472,0,0,1,1.626-.853,6.97,6.97,0,0,1,2.246-.325q.5,0,1.006.04t.993.105q.488.066.945.154t.853.176Zm-1.89-4.21a3.645,3.645,0,0,0-.448-.066q-.246-.022-.466-.022a2.609,2.609,0,0,0-1.063.2,2.729,2.729,0,0,0-.8.527,3.1,3.1,0,0,0-.567.738,4.669,4.669,0,0,0-.365.839,5.052,5.052,0,0,0-.193.831,5.163,5.163,0,0,0-.057.712,2.6,2.6,0,0,0,.066.6,1.4,1.4,0,0,0,.207.479,1.022,1.022,0,0,0,.347.316.973.973,0,0,0,.479.114A1.459,1.459,0,0,0,16.9-2.2a2.838,2.838,0,0,0,.686-.743,4.7,4.7,0,0,0,.492-1.02A9.968,9.968,0,0,0,18.4-5.08Zm13.627.123a12.4,12.4,0,0,1-.316,2.83,12.155,12.155,0,0,1-.918,2.584A13.236,13.236,0,0,1,29.8.69a16.376,16.376,0,0,1-1.942,2.079h-2.4A23.6,23.6,0,0,0,27.348.558,15.049,15.049,0,0,0,28.82-1.824a12.629,12.629,0,0,0,.949-2.61,12.165,12.165,0,0,0,.334-2.9,12.409,12.409,0,0,0-.075-1.345,12.894,12.894,0,0,0-.224-1.367,10.35,10.35,0,0,0-.387-1.332,8.4,8.4,0,0,0-.562-1.23h2.162a7.383,7.383,0,0,1,.646,1.261,11.152,11.152,0,0,1,.461,1.419A12.133,12.133,0,0,1,32.4-8.459,11.249,11.249,0,0,1,32.494-7.058Zm2.588-6.267h5.37V-14.8l2.1,1.978-2.1,2.013V-12.27h-5.37Z" transform="translate(977 3518.064)" fill="#212429"/>
    <path id="Trazado_1045509" data-name="Trazado 1045509" d="M-4.1-6.152v-1.8H4.447v1.8Zm0,3.814V-4.122H4.447v1.784Z" transform="translate(1026 3518.064)" fill="#212429"/>
    <path id="Trazado_1045510" data-name="Trazado 1045510" d="M-3.971-2.971q-.062.272-.119.659t-.105.8q-.048.417-.079.817T-4.3,0H-7.117q0-.123.013-.33t.035-.426q.022-.22.044-.426t.031-.33H-7.03a6.665,6.665,0,0,1-.567.7,3.671,3.671,0,0,1-.633.545,2.885,2.885,0,0,1-.734.356,2.825,2.825,0,0,1-.87.127A2.839,2.839,0,0,1-11-.009a2.372,2.372,0,0,1-.875-.664,2.985,2.985,0,0,1-.549-1.081,5.248,5.248,0,0,1-.189-1.472,6.584,6.584,0,0,1,.4-2.272,5.72,5.72,0,0,1,1.147-1.912A5.553,5.553,0,0,1-9.236-8.728,5.878,5.878,0,0,1-6.775-9.22q.352,0,.716.035t.593.079l.905-4.219h2.769Zm-1.89-4.192A3.089,3.089,0,0,0-6.3-7.242a4.336,4.336,0,0,0-.47-.026,2.609,2.609,0,0,0-1.063.2,2.684,2.684,0,0,0-.8.532,3.144,3.144,0,0,0-.567.747,4.8,4.8,0,0,0-.365.844,5.075,5.075,0,0,0-.193.826,5.023,5.023,0,0,0-.057.7,2.442,2.442,0,0,0,.07.6,1.519,1.519,0,0,0,.207.479.961.961,0,0,0,.352.316,1.063,1.063,0,0,0,.505.114,1.41,1.41,0,0,0,.866-.286,2.793,2.793,0,0,0,.677-.747,5,5,0,0,0,.5-1.037,10.531,10.531,0,0,0,.334-1.156ZM7.659-5.889A7.091,7.091,0,0,1,7.5-4.408a6.82,6.82,0,0,1-.47,1.424,5.894,5.894,0,0,1-.787,1.266A5.15,5.15,0,0,1,5.136-.7a5.31,5.31,0,0,1-1.428.677A5.912,5.912,0,0,1,1.955.22,6.274,6.274,0,0,1,1.181.167,5.553,5.553,0,0,1,.461.035l-.888,4.1h-2.8L-1.069-6.029q.053-.272.123-.672t.132-.822q.062-.422.114-.817T-.638-9H2.1q-.009.132-.026.338t-.044.426q-.026.22-.057.426t-.048.338h.035a4.8,4.8,0,0,1,.554-.686A3.755,3.755,0,0,1,3.19-8.71a3.348,3.348,0,0,1,.817-.374,3.234,3.234,0,0,1,.954-.136A2.674,2.674,0,0,1,6.055-9a2.324,2.324,0,0,1,.853.646,3.065,3.065,0,0,1,.554,1.046A4.667,4.667,0,0,1,7.659-5.889Zm-2.786.325a2.887,2.887,0,0,0-.057-.584,1.368,1.368,0,0,0-.2-.488,1.024,1.024,0,0,0-.365-.334,1.148,1.148,0,0,0-.558-.123,1.48,1.48,0,0,0-.888.286,2.8,2.8,0,0,0-.694.738,4.936,4.936,0,0,0-.505,1.011,7.666,7.666,0,0,0-.321,1.112L.821-1.89a1.844,1.844,0,0,0,.25.062q.145.026.3.048t.3.035q.149.013.264.013a2.29,2.29,0,0,0,1.191-.321A3.09,3.09,0,0,0,4.055-2.9a4.162,4.162,0,0,0,.6-1.226A4.809,4.809,0,0,0,4.873-5.563Zm4.539-7.761h5.37V-14.8l2.1,1.978-2.1,2.013V-12.27H9.411Z" transform="translate(1058 3504.064)" fill="#212429"/>
    <path id="Trazado_1045511" data-name="Trazado 1045511" d="M.465-2.971Q.4-2.7.346-2.312t-.105.8Q.192-1.09.162-.69T.131,0H-2.682q0-.123.013-.33t.035-.426q.022-.22.044-.426t.031-.33h-.035a6.665,6.665,0,0,1-.567.7,3.671,3.671,0,0,1-.633.545,2.885,2.885,0,0,1-.734.356A2.825,2.825,0,0,1-5.4.22,2.839,2.839,0,0,1-6.562-.009a2.372,2.372,0,0,1-.875-.664,2.985,2.985,0,0,1-.549-1.081,5.248,5.248,0,0,1-.189-1.472,6.584,6.584,0,0,1,.4-2.272A5.72,5.72,0,0,1-6.632-7.409,5.553,5.553,0,0,1-4.8-8.728,5.878,5.878,0,0,1-2.339-9.22q.352,0,.716.035t.593.079l.905-4.219H2.645Zm-1.89-4.192a3.089,3.089,0,0,0-.444-.079,4.336,4.336,0,0,0-.47-.026,2.609,2.609,0,0,0-1.063.2,2.684,2.684,0,0,0-.8.532,3.144,3.144,0,0,0-.567.747,4.8,4.8,0,0,0-.365.844,5.075,5.075,0,0,0-.193.826,5.023,5.023,0,0,0-.057.7,2.442,2.442,0,0,0,.07.6,1.519,1.519,0,0,0,.207.479.961.961,0,0,0,.352.316,1.063,1.063,0,0,0,.505.114,1.41,1.41,0,0,0,.866-.286A2.793,2.793,0,0,0-2.7-2.94a5,5,0,0,0,.5-1.037,10.531,10.531,0,0,0,.334-1.156Zm10.206.211h-2.1L5.96-3.586q-.018.114-.044.246t-.048.264q-.022.132-.04.25a1.394,1.394,0,0,0-.018.2.685.685,0,0,0,.176.519.827.827,0,0,0,.58.167,1.738,1.738,0,0,0,.268-.026Q7-2,7.168-2.039t.33-.092q.158-.048.255-.083L7.322-.158a3.839,3.839,0,0,1-.387.123q-.229.062-.5.114T5.868.167A4.854,4.854,0,0,1,5.292.2,3.148,3.148,0,0,1,4.176.031a1.786,1.786,0,0,1-.716-.475,1.742,1.742,0,0,1-.378-.708,3.343,3.343,0,0,1-.11-.879q0-.141.018-.325t.048-.378q.031-.193.07-.391t.075-.365L3.9-6.952H2.515L3.007-9H4.334l.457-2.109,2.927-.721L7.129-9H9.265Z" transform="translate(1053 3531.064)" fill="#212429"/>
    <path id="Trazado_1044226" data-name="Trazado 1044226" d="M-224.024,3514.064h39.314" transform="translate(1258 -1)" fill="none" stroke="#212429" stroke-width="1"/>
  </g>
</svg>
