<svg xmlns="http://www.w3.org/2000/svg" width="604" height="209.237" viewBox="0 0 604 209.237">
  <g id="Grupo_1206023" data-name="Grupo 1206023" transform="translate(-1003.718 -4689.778)">
    <path id="Contenido" d="M10.477,18.552a8.311,8.311,0,0,1-3.6.668,6.074,6.074,0,0,1-4.562-1.705A6.233,6.233,0,0,1,.65,12.971a6.659,6.659,0,0,1,1.868-4.9A6.533,6.533,0,0,1,7.365,6.186a9.065,9.065,0,0,1,3.111.466V9.385a5.513,5.513,0,0,0-2.883-.756A3.824,3.824,0,0,0,4.729,9.745a4.142,4.142,0,0,0-1.09,3.023,4.062,4.062,0,0,0,1.028,2.914,3.633,3.633,0,0,0,2.769,1.085,5.905,5.905,0,0,0,3.041-.809ZM19.891,19H17.264V17.708h-.035a2.933,2.933,0,0,1-2.681,1.512,2.8,2.8,0,0,1-2.061-.743,2.661,2.661,0,0,1-.751-1.982q0-2.619,3.1-3.023l2.443-.325q0-1.477-1.6-1.477a5.46,5.46,0,0,0-3.059.958V10.536a6.881,6.881,0,0,1,1.586-.527,8.339,8.339,0,0,1,1.833-.229q3.85,0,3.85,3.841Zm-2.61-3.656v-.606l-1.635.211q-1.354.176-1.354,1.222a1.01,1.01,0,0,0,.33.778,1.266,1.266,0,0,0,.892.3,1.644,1.644,0,0,0,1.274-.541A1.952,1.952,0,0,0,17.281,15.344ZM24.868,19H22.091V5.676h2.777Zm9.16-.325a5.492,5.492,0,0,1-2.716.545,4.593,4.593,0,0,1-3.357-1.257,4.341,4.341,0,0,1-1.283-3.243A4.782,4.782,0,0,1,28.047,11.1,5.083,5.083,0,0,1,31.725,9.78a4.72,4.72,0,0,1,2.3.422v2.355a3.166,3.166,0,0,0-1.942-.65,2.559,2.559,0,0,0-1.894.7,2.607,2.607,0,0,0-.7,1.929,2.565,2.565,0,0,0,.668,1.876A2.455,2.455,0,0,0,32,17.093a3.666,3.666,0,0,0,2.03-.65ZM44.4,19H41.632V17.629h-.044a3.141,3.141,0,0,1-2.751,1.591q-3.129,0-3.129-3.788V10h2.769v5.186q0,1.907,1.512,1.907a1.5,1.5,0,0,0,1.2-.523,2.109,2.109,0,0,0,.448-1.419V10H44.4Zm5.117,0H46.74V5.676h2.777Zm9.828,0H56.718V17.708h-.035A2.933,2.933,0,0,1,54,19.22a2.8,2.8,0,0,1-2.061-.743A2.661,2.661,0,0,1,51.19,16.5q0-2.619,3.1-3.023l2.443-.325q0-1.477-1.6-1.477a5.46,5.46,0,0,0-3.059.958V10.536a6.881,6.881,0,0,1,1.586-.527A8.339,8.339,0,0,1,55.5,9.78q3.85,0,3.85,3.841Zm-2.61-3.656v-.606l-1.635.211q-1.354.176-1.354,1.222a1.01,1.01,0,0,0,.33.778,1.266,1.266,0,0,0,.892.3,1.644,1.644,0,0,0,1.274-.541A1.952,1.952,0,0,0,56.735,15.344ZM70.237,19H67.469V14q0-2.092-1.494-2.092a1.483,1.483,0,0,0-1.187.554,2.109,2.109,0,0,0-.466,1.406V19H61.545V10h2.777v1.424h.035A3.183,3.183,0,0,1,67.249,9.78q2.988,0,2.988,3.709Zm11.006,0H78.466V17.761H78.43a3.114,3.114,0,0,1-2.786,1.459,3.412,3.412,0,0,1-2.716-1.191A4.93,4.93,0,0,1,71.9,14.7a5.366,5.366,0,0,1,1.134-3.577A3.7,3.7,0,0,1,76,9.78a2.527,2.527,0,0,1,2.426,1.248h.035V5.676h2.777Zm-2.725-4.377v-.677a2.13,2.13,0,0,0-.51-1.459,1.8,1.8,0,0,0-2.769.145,3.367,3.367,0,0,0-.519,1.991,2.914,2.914,0,0,0,.5,1.828,1.779,1.779,0,0,0,2.764-.035A2.821,2.821,0,0,0,78.518,14.623Zm9.353,4.6a4.838,4.838,0,0,1-3.538-1.261,4.573,4.573,0,0,1-1.288-3.423,4.573,4.573,0,0,1,1.336-3.494A5.048,5.048,0,0,1,87.995,9.78a4.78,4.78,0,0,1,3.516,1.261,4.483,4.483,0,0,1,1.274,3.335,4.759,4.759,0,0,1-1.314,3.542A4.892,4.892,0,0,1,87.872,19.22Zm.07-7.312a1.852,1.852,0,0,0-1.529.677,2.984,2.984,0,0,0-.545,1.916q0,2.593,2.092,2.593,2,0,2-2.663Q89.955,11.907,87.942,11.907Zm19.7,3.384h-5.871q.141,1.96,2.47,1.96a4.822,4.822,0,0,0,2.61-.7v2a6.858,6.858,0,0,1-3.243.668,4.565,4.565,0,0,1-3.384-1.208,4.566,4.566,0,0,1-1.2-3.371,4.816,4.816,0,0,1,1.3-3.551,4.334,4.334,0,0,1,3.2-1.31,3.933,3.933,0,0,1,3.045,1.169,4.5,4.5,0,0,1,1.077,3.173Zm-2.575-1.705q0-1.934-1.564-1.934a1.494,1.494,0,0,0-1.156.554,2.513,2.513,0,0,0-.593,1.38ZM112.073,19H109.3V5.676h2.777Zm10.419,0h-2.839V6.4h2.839Zm16.886,0h-2.769V13.867q0-1.96-1.441-1.96a1.324,1.324,0,0,0-1.116.589,2.42,2.42,0,0,0-.431,1.468V19h-2.777V13.814q0-1.907-1.415-1.907a1.356,1.356,0,0,0-1.138.563A2.475,2.475,0,0,0,127.864,14v5h-2.777V10h2.777v1.406h.035a3.41,3.41,0,0,1,2.909-1.626,2.592,2.592,0,0,1,2.61,1.679,3.329,3.329,0,0,1,3.023-1.679q2.936,0,2.936,3.621Zm5.012-1.046h-.035V23.14h-2.777V10h2.777v1.354h.035a3.534,3.534,0,0,1,5.594-.374,5.108,5.108,0,0,1,.954,3.265,5.537,5.537,0,0,1-1.112,3.612,3.625,3.625,0,0,1-2.958,1.362A2.8,2.8,0,0,1,144.389,17.954Zm-.079-3.691v.721A2.291,2.291,0,0,0,144.8,16.5a1.6,1.6,0,0,0,1.292.589,1.7,1.7,0,0,0,1.472-.734,3.543,3.543,0,0,0,.523-2.079q0-2.373-1.846-2.373a1.733,1.733,0,0,0-1.393.646A2.576,2.576,0,0,0,144.31,14.263ZM161.292,19h-2.769V17.629h-.044a3.141,3.141,0,0,1-2.751,1.591q-3.129,0-3.129-3.788V10h2.769v5.186q0,1.907,1.512,1.907a1.5,1.5,0,0,0,1.2-.523,2.109,2.109,0,0,0,.448-1.419V10h2.769Zm5.117,0h-2.777V5.676h2.777Zm1.751-.237v-2.25a5.913,5.913,0,0,0,1.367.615,4.531,4.531,0,0,0,1.288.2,2.762,2.762,0,0,0,1.165-.2.653.653,0,0,0,.426-.615.569.569,0,0,0-.193-.439,1.8,1.8,0,0,0-.5-.308,5.635,5.635,0,0,0-.664-.237q-.36-.105-.694-.237a6.653,6.653,0,0,1-.945-.435,2.731,2.731,0,0,1-.686-.541,2.125,2.125,0,0,1-.422-.712,2.841,2.841,0,0,1-.145-.958,2.466,2.466,0,0,1,.33-1.3,2.692,2.692,0,0,1,.879-.892,4.016,4.016,0,0,1,1.257-.51A6.553,6.553,0,0,1,172.1,9.78a8.168,8.168,0,0,1,1.213.092,9.053,9.053,0,0,1,1.213.268v2.145a4.383,4.383,0,0,0-1.129-.461,4.764,4.764,0,0,0-1.182-.154,2.619,2.619,0,0,0-.514.048,1.693,1.693,0,0,0-.426.141.783.783,0,0,0-.29.237.546.546,0,0,0-.105.33.609.609,0,0,0,.158.422,1.374,1.374,0,0,0,.413.3,4.078,4.078,0,0,0,.567.229q.312.1.62.207a8.056,8.056,0,0,1,1,.422,3.2,3.2,0,0,1,.769.536,2.105,2.105,0,0,1,.492.721,2.884,2.884,0,0,1-.176,2.351,2.78,2.78,0,0,1-.923.923,4.185,4.185,0,0,1-1.327.519,7.357,7.357,0,0,1-1.56.163A8.042,8.042,0,0,1,168.16,18.763Zm12.8.457a4.838,4.838,0,0,1-3.538-1.261,4.573,4.573,0,0,1-1.288-3.423,4.573,4.573,0,0,1,1.336-3.494,5.048,5.048,0,0,1,3.612-1.261,4.78,4.78,0,0,1,3.516,1.261,4.483,4.483,0,0,1,1.274,3.335,4.759,4.759,0,0,1-1.314,3.542A4.892,4.892,0,0,1,180.959,19.22Zm.07-7.312a1.852,1.852,0,0,0-1.529.677,2.984,2.984,0,0,0-.545,1.916q0,2.593,2.092,2.593,2,0,2-2.663Q183.042,11.907,181.029,11.907Zm7.886.879a1.63,1.63,0,0,1-1.143-.417,1.343,1.343,0,0,1-.457-1.033,1.306,1.306,0,0,1,.47-1.037,1.736,1.736,0,0,1,1.173-.4,1.671,1.671,0,0,1,1.165.409,1.41,1.41,0,0,1-.009,2.079A1.754,1.754,0,0,1,188.915,12.786Zm0,6.434a1.62,1.62,0,0,1-1.143-.422,1.356,1.356,0,0,1-.457-1.037,1.306,1.306,0,0,1,.47-1.037,1.736,1.736,0,0,1,1.173-.4,1.671,1.671,0,0,1,1.165.409,1.415,1.415,0,0,1-.009,2.083A1.742,1.742,0,0,1,188.915,19.22Zm17.25-4.737a5.633,5.633,0,0,1-.949,3.485,3.033,3.033,0,0,1-2.54,1.244A3,3,0,0,1,201.462,19V17.541a2.052,2.052,0,0,0,1.23.343q2,0,2-3.384V6.4h1.477Zm16.782-2.021h-8.262V11.3h8.262Zm0,3.744h-8.262v-1.16h8.262ZM236.256,19h-1.441V8.11a3.336,3.336,0,0,1-.488.382,7.951,7.951,0,0,1-.721.426q-.4.211-.844.4a6.132,6.132,0,0,1-.866.29V8.146A8.379,8.379,0,0,0,232.9,7.79q.532-.224,1.046-.5t.971-.58a7.71,7.71,0,0,0,.791-.593h.545Zm10.127-9.3a2.606,2.606,0,0,0-.18-1.011,1.957,1.957,0,0,0-1.226-1.143,2.874,2.874,0,0,0-.914-.141,3.023,3.023,0,0,0-.826.114,4.016,4.016,0,0,0-.787.316,4.839,4.839,0,0,0-.738.483,5.333,5.333,0,0,0-.664.624V7.4a4.309,4.309,0,0,1,1.358-.9,4.781,4.781,0,0,1,1.833-.312,4.424,4.424,0,0,1,1.433.224,3.285,3.285,0,0,1,1.143.655,3.027,3.027,0,0,1,.76,1.063,3.587,3.587,0,0,1,.277,1.45,4.973,4.973,0,0,1-.171,1.354,4.186,4.186,0,0,1-.519,1.143,5.513,5.513,0,0,1-.875,1.028,12.388,12.388,0,0,1-1.239,1q-.888.633-1.463,1.081a6.469,6.469,0,0,0-.914.839,2.436,2.436,0,0,0-.475.782,2.734,2.734,0,0,0-.136.9h6.275V19h-7.778v-.624a5.2,5.2,0,0,1,.176-1.424,3.7,3.7,0,0,1,.58-1.169,6.487,6.487,0,0,1,1.059-1.107q.655-.554,1.6-1.248a10.141,10.141,0,0,0,1.147-.94,4.889,4.889,0,0,0,.743-.9,3.22,3.22,0,0,0,.4-.91A3.922,3.922,0,0,0,246.383,9.7Zm11.885,2.944a12.381,12.381,0,0,1-.286,2.8,6.533,6.533,0,0,1-.826,2.061,3.718,3.718,0,0,1-1.327,1.274,3.633,3.633,0,0,1-1.789.435,3.393,3.393,0,0,1-1.692-.417,3.546,3.546,0,0,1-1.252-1.217,6.17,6.17,0,0,1-.773-1.964,12.146,12.146,0,0,1-.264-2.667,13.749,13.749,0,0,1,.277-2.918,6.674,6.674,0,0,1,.813-2.123,3.619,3.619,0,0,1,1.332-1.292,3.739,3.739,0,0,1,1.824-.435Q258.268,6.186,258.268,12.646Zm-1.477.141q0-5.379-2.558-5.379-2.7,0-2.7,5.476,0,5.106,2.646,5.106Q256.791,17.989,256.791,12.786Zm11.181-.141a12.381,12.381,0,0,1-.286,2.8,6.533,6.533,0,0,1-.826,2.061,3.718,3.718,0,0,1-1.327,1.274,3.633,3.633,0,0,1-1.789.435,3.393,3.393,0,0,1-1.692-.417,3.546,3.546,0,0,1-1.252-1.217,6.17,6.17,0,0,1-.773-1.964,12.146,12.146,0,0,1-.264-2.667,13.749,13.749,0,0,1,.277-2.918,6.674,6.674,0,0,1,.813-2.123,3.619,3.619,0,0,1,1.332-1.292,3.739,3.739,0,0,1,1.824-.435Q267.973,6.186,267.973,12.646Zm-1.477.141q0-5.379-2.558-5.379-2.7,0-2.7,5.476,0,5.106,2.646,5.106Q266.5,17.989,266.5,12.786Zm10.823,2.628a2.177,2.177,0,0,1-1.573-.642,2.09,2.09,0,0,1-.659-1.556,2.259,2.259,0,0,1,2.232-2.232,2.09,2.09,0,0,1,1.556.659,2.177,2.177,0,0,1,.642,1.573,2.191,2.191,0,0,1-2.2,2.2Zm13.811,6.451h-1.283a11.232,11.232,0,0,1-2.725-7.673,11.658,11.658,0,0,1,2.725-7.8h1.3a11.845,11.845,0,0,0-2.76,7.778A11.638,11.638,0,0,0,291.13,21.865Zm9.16-9.22a12.381,12.381,0,0,1-.286,2.8,6.533,6.533,0,0,1-.826,2.061,3.718,3.718,0,0,1-1.327,1.274,3.633,3.633,0,0,1-1.789.435,3.393,3.393,0,0,1-1.692-.417,3.546,3.546,0,0,1-1.252-1.217,6.17,6.17,0,0,1-.773-1.964,12.146,12.146,0,0,1-.264-2.667,13.749,13.749,0,0,1,.277-2.918,6.674,6.674,0,0,1,.813-2.123A3.619,3.619,0,0,1,294.5,6.621a3.739,3.739,0,0,1,1.824-.435Q300.29,6.186,300.29,12.646Zm-1.477.141q0-5.379-2.558-5.379-2.7,0-2.7,5.476,0,5.106,2.646,5.106Q298.814,17.989,298.814,12.786Zm16.149,1.767h-9V13.419h9ZM326.682,9.7a2.606,2.606,0,0,0-.18-1.011,1.957,1.957,0,0,0-1.226-1.143,2.874,2.874,0,0,0-.914-.141,3.023,3.023,0,0,0-.826.114,4.016,4.016,0,0,0-.787.316,4.839,4.839,0,0,0-.738.483,5.333,5.333,0,0,0-.664.624V7.4a4.309,4.309,0,0,1,1.358-.9,4.781,4.781,0,0,1,1.833-.312,4.424,4.424,0,0,1,1.433.224,3.285,3.285,0,0,1,1.143.655,3.027,3.027,0,0,1,.76,1.063,3.587,3.587,0,0,1,.277,1.45,4.973,4.973,0,0,1-.171,1.354,4.186,4.186,0,0,1-.519,1.143,5.513,5.513,0,0,1-.875,1.028,12.388,12.388,0,0,1-1.239,1q-.888.633-1.463,1.081a6.469,6.469,0,0,0-.914.839,2.436,2.436,0,0,0-.475.782,2.734,2.734,0,0,0-.136.9h6.275V19h-7.778v-.624a5.2,5.2,0,0,1,.176-1.424,3.7,3.7,0,0,1,.58-1.169,6.487,6.487,0,0,1,1.059-1.107q.655-.554,1.6-1.248a10.141,10.141,0,0,0,1.147-.94,4.889,4.889,0,0,0,.743-.9,3.22,3.22,0,0,0,.4-.91A3.922,3.922,0,0,0,326.682,9.7Zm11.885,2.944a12.381,12.381,0,0,1-.286,2.8,6.533,6.533,0,0,1-.826,2.061,3.718,3.718,0,0,1-1.327,1.274,3.633,3.633,0,0,1-1.789.435,3.393,3.393,0,0,1-1.692-.417,3.546,3.546,0,0,1-1.252-1.217,6.17,6.17,0,0,1-.773-1.964,12.146,12.146,0,0,1-.264-2.667,13.749,13.749,0,0,1,.277-2.918,6.674,6.674,0,0,1,.813-2.123,3.619,3.619,0,0,1,1.332-1.292,3.739,3.739,0,0,1,1.824-.435Q338.567,6.186,338.567,12.646Zm-1.477.141q0-5.379-2.558-5.379-2.7,0-2.7,5.476,0,5.106,2.646,5.106Q337.09,17.989,337.09,12.786Zm3.711,9.079h-1.283a11.638,11.638,0,0,0,2.742-7.69A11.845,11.845,0,0,0,339.5,6.4h1.3a11.611,11.611,0,0,1,2.742,7.8A11.188,11.188,0,0,1,340.8,21.865ZM216.974,41.482a5.633,5.633,0,0,1-.949,3.485,3.033,3.033,0,0,1-2.54,1.244A3,3,0,0,1,212.272,46V44.541a2.052,2.052,0,0,0,1.23.343q2,0,2-3.384V33.4h1.477Zm16.782-2.021h-8.262V38.3h8.262Zm0,3.744h-8.262v-1.16h8.262ZM249.7,41.553h-9V40.419h9ZM256.49,36.7a2.606,2.606,0,0,0-.18-1.011,1.957,1.957,0,0,0-1.226-1.143,2.874,2.874,0,0,0-.914-.141,3.023,3.023,0,0,0-.826.114,4.016,4.016,0,0,0-.787.316,4.839,4.839,0,0,0-.738.483,5.333,5.333,0,0,0-.664.624V34.4a4.309,4.309,0,0,1,1.358-.9,4.781,4.781,0,0,1,1.833-.312,4.424,4.424,0,0,1,1.433.224,3.285,3.285,0,0,1,1.143.655,3.028,3.028,0,0,1,.76,1.063,3.588,3.588,0,0,1,.277,1.45,4.975,4.975,0,0,1-.171,1.354,4.188,4.188,0,0,1-.519,1.143,5.516,5.516,0,0,1-.875,1.028,12.388,12.388,0,0,1-1.239,1q-.888.633-1.463,1.081a6.469,6.469,0,0,0-.914.839,2.436,2.436,0,0,0-.475.782,2.734,2.734,0,0,0-.136.9h6.275V46h-7.778v-.624a5.2,5.2,0,0,1,.176-1.424,3.7,3.7,0,0,1,.58-1.169,6.487,6.487,0,0,1,1.059-1.107q.655-.554,1.6-1.248a10.141,10.141,0,0,0,1.147-.94,4.889,4.889,0,0,0,.743-.9,3.219,3.219,0,0,0,.4-.91A3.922,3.922,0,0,0,256.49,36.7Zm10.39-3.3V41.72H268.5v1.318H266.88V46h-1.424V43.038h-5.924V41.79q.826-.932,1.67-1.991t1.613-2.149q.769-1.09,1.424-2.175a19.88,19.88,0,0,0,1.1-2.079Zm-5.722,8.323h4.3V35.55q-.659,1.151-1.248,2.057t-1.121,1.644q-.532.738-1.015,1.336T261.159,41.72Zm16.921-2.074a12.381,12.381,0,0,1-.286,2.8,6.533,6.533,0,0,1-.826,2.061,3.718,3.718,0,0,1-1.327,1.274,3.633,3.633,0,0,1-1.789.435,3.393,3.393,0,0,1-1.692-.417,3.546,3.546,0,0,1-1.252-1.217,6.17,6.17,0,0,1-.773-1.964,12.146,12.146,0,0,1-.264-2.667,13.749,13.749,0,0,1,.277-2.918,6.674,6.674,0,0,1,.813-2.123,3.619,3.619,0,0,1,1.332-1.292,3.739,3.739,0,0,1,1.824-.435Q278.079,33.186,278.079,39.646Zm-1.477.141q0-5.379-2.558-5.379-2.7,0-2.7,5.476,0,5.106,2.646,5.106Q276.6,44.989,276.6,39.786Zm11.181-.141a12.381,12.381,0,0,1-.286,2.8,6.533,6.533,0,0,1-.826,2.061,3.718,3.718,0,0,1-1.327,1.274,3.633,3.633,0,0,1-1.789.435,3.393,3.393,0,0,1-1.692-.417,3.546,3.546,0,0,1-1.252-1.217,6.17,6.17,0,0,1-.773-1.964,12.146,12.146,0,0,1-.264-2.667,13.749,13.749,0,0,1,.277-2.918,6.674,6.674,0,0,1,.813-2.123A3.619,3.619,0,0,1,282,33.621a3.739,3.739,0,0,1,1.824-.435Q287.784,33.186,287.784,39.646Zm-1.477.141q0-5.379-2.558-5.379-2.7,0-2.7,5.476,0,5.106,2.646,5.106Q286.308,44.989,286.308,39.786Zm11.181-.141a12.381,12.381,0,0,1-.286,2.8,6.533,6.533,0,0,1-.826,2.061,3.718,3.718,0,0,1-1.327,1.274,3.633,3.633,0,0,1-1.789.435,3.393,3.393,0,0,1-1.692-.417,3.546,3.546,0,0,1-1.252-1.217,6.17,6.17,0,0,1-.773-1.964,12.146,12.146,0,0,1-.264-2.667,13.749,13.749,0,0,1,.277-2.918,6.674,6.674,0,0,1,.813-2.123,3.619,3.619,0,0,1,1.332-1.292,3.739,3.739,0,0,1,1.824-.435Q297.489,33.186,297.489,39.646Zm-1.477.141q0-5.379-2.558-5.379-2.7,0-2.7,5.476,0,5.106,2.646,5.106Q296.013,44.989,296.013,39.786ZM312.091,46H310.07L306.1,41.676h-.035V46h-1.441V32.676h1.441v8.446h.035L309.876,37h1.89l-4.175,4.342Zm9.16-.721q0,4.957-4.746,4.957a6.372,6.372,0,0,1-2.918-.633V48.162a5.993,5.993,0,0,0,2.9.844q3.322,0,3.322-3.533v-.984h-.035a3.641,3.641,0,0,1-5.8.523,4.8,4.8,0,0,1-1.024-3.221,5.6,5.6,0,0,1,1.1-3.647,3.685,3.685,0,0,1,3.019-1.354,2.934,2.934,0,0,1,2.7,1.459h.035V37h1.441Zm-1.441-3.349V40.6a2.575,2.575,0,0,0-.725-1.837A2.387,2.387,0,0,0,317.279,38a2.5,2.5,0,0,0-2.092.971,4.335,4.335,0,0,0-.756,2.72,3.721,3.721,0,0,0,.725,2.4,2.343,2.343,0,0,0,1.92.9,2.509,2.509,0,0,0,1.973-.861A3.21,3.21,0,0,0,319.81,41.931Zm4.862,4.263a.933.933,0,0,1-.69-.29.955.955,0,0,1-.286-.694.969.969,0,0,1,.286-.7.926.926,0,0,1,.69-.294.95.95,0,0,1,.7.294.962.962,0,0,1,.29.7.947.947,0,0,1-.29.694A.958.958,0,0,1,324.672,46.193ZM345.787,46h-1.441V40.832a3.9,3.9,0,0,0-.461-2.162A1.75,1.75,0,0,0,342.333,38a1.921,1.921,0,0,0-1.569.844,3.228,3.228,0,0,0-.646,2.021V46h-1.441V40.656q0-2.654-2.048-2.654a1.9,1.9,0,0,0-1.564.8,3.288,3.288,0,0,0-.615,2.07V46h-1.441V37h1.441v1.424h.035a3.058,3.058,0,0,1,2.795-1.635,2.6,2.6,0,0,1,2.549,1.863,3.212,3.212,0,0,1,2.988-1.863q2.971,0,2.971,3.665ZM354.2,33.4l-6.047,14.7h-1.345l6.029-14.7Zm.784,12.278V44.128a4.266,4.266,0,0,0,2.593.87q1.9,0,1.9-1.266a1.1,1.1,0,0,0-.163-.611,1.62,1.62,0,0,0-.439-.444,3.383,3.383,0,0,0-.65-.347q-.374-.154-.8-.321a10.357,10.357,0,0,1-1.05-.479,3.173,3.173,0,0,1-.756-.545,2.028,2.028,0,0,1-.457-.69,2.441,2.441,0,0,1-.154-.905,2.15,2.15,0,0,1,.29-1.121,2.572,2.572,0,0,1,.773-.817,3.607,3.607,0,0,1,1.1-.5,4.893,4.893,0,0,1,1.279-.167,5.164,5.164,0,0,1,2.092.4v1.459a4.077,4.077,0,0,0-2.285-.65,2.671,2.671,0,0,0-.729.092,1.786,1.786,0,0,0-.558.259,1.2,1.2,0,0,0-.36.4,1.053,1.053,0,0,0-.127.514,1.233,1.233,0,0,0,.127.589,1.3,1.3,0,0,0,.374.422,2.855,2.855,0,0,0,.6.334q.352.149.8.325a11.131,11.131,0,0,1,1.072.47,3.678,3.678,0,0,1,.809.545,2.129,2.129,0,0,1,.514.7,2.254,2.254,0,0,1,.18.94,2.217,2.217,0,0,1-.294,1.16,2.523,2.523,0,0,1-.787.817,3.6,3.6,0,0,1-1.134.483,5.6,5.6,0,0,1-1.345.158A5.106,5.106,0,0,1,354.984,45.675Z" transform="translate(1003.718 4755.796)" fill="#212429"/>
    <text id="Contenido-2" data-name="Contenido" transform="translate(1003.718 4814.796)" fill="#212429" font-size="18" font-family="SegoeUI-Bold, Segoe UI" font-weight="700" letter-spacing="0em"><tspan x="0" y="19">Calculando la fuerza promedio:</tspan></text>
    <g id="Grupo_1205592" data-name="Grupo 1205592" transform="translate(0 -24.5)">
      <path id="Contenido-3" data-name="Contenido" d="M1.441,19V6.4H5.906q6.715,0,6.715,6.144a6.212,6.212,0,0,1-1.833,4.7A6.757,6.757,0,0,1,5.906,19ZM4.28,8.708V16.7H5.687a3.8,3.8,0,0,0,2.9-1.107,4.2,4.2,0,0,0,1.05-3.015A3.812,3.812,0,0,0,8.591,9.741,3.971,3.971,0,0,0,5.669,8.708ZM21.931,19H19.3V17.708h-.035a2.933,2.933,0,0,1-2.681,1.512,2.8,2.8,0,0,1-2.061-.743,2.661,2.661,0,0,1-.751-1.982q0-2.619,3.1-3.023l2.443-.325q0-1.477-1.6-1.477a5.46,5.46,0,0,0-3.059.958V10.536a6.881,6.881,0,0,1,1.586-.527,8.339,8.339,0,0,1,1.833-.229q3.85,0,3.85,3.841Zm-2.61-3.656v-.606l-1.635.211q-1.354.176-1.354,1.222a1.01,1.01,0,0,0,.33.778,1.266,1.266,0,0,0,.892.3,1.644,1.644,0,0,0,1.274-.541A1.952,1.952,0,0,0,19.32,15.344Zm10.25,3.551a4.105,4.105,0,0,1-1.854.325q-2.936,0-2.936-3.05V12.048H23.321V10H24.78V8.058l2.769-.791V10H29.57v2.048H27.549v3.639q0,1.406,1.116,1.406a1.882,1.882,0,0,0,.905-.255Zm5.785.325a4.838,4.838,0,0,1-3.538-1.261,4.573,4.573,0,0,1-1.288-3.423,4.573,4.573,0,0,1,1.336-3.494A5.048,5.048,0,0,1,35.478,9.78a4.78,4.78,0,0,1,3.516,1.261,4.483,4.483,0,0,1,1.274,3.335,4.759,4.759,0,0,1-1.314,3.542A4.892,4.892,0,0,1,35.355,19.22Zm.07-7.312a1.852,1.852,0,0,0-1.529.677,2.984,2.984,0,0,0-.545,1.916q0,2.593,2.092,2.593,2,0,2-2.663Q37.438,11.907,35.425,11.907Zm6.057,6.855v-2.25a5.913,5.913,0,0,0,1.367.615,4.531,4.531,0,0,0,1.288.2,2.762,2.762,0,0,0,1.165-.2.653.653,0,0,0,.426-.615.569.569,0,0,0-.193-.439,1.8,1.8,0,0,0-.5-.308,5.635,5.635,0,0,0-.664-.237q-.36-.105-.694-.237a6.653,6.653,0,0,1-.945-.435,2.731,2.731,0,0,1-.686-.541,2.125,2.125,0,0,1-.422-.712,2.841,2.841,0,0,1-.145-.958,2.466,2.466,0,0,1,.33-1.3,2.692,2.692,0,0,1,.879-.892,4.016,4.016,0,0,1,1.257-.51A6.553,6.553,0,0,1,45.42,9.78a8.168,8.168,0,0,1,1.213.092,9.053,9.053,0,0,1,1.213.268v2.145a4.383,4.383,0,0,0-1.129-.461,4.764,4.764,0,0,0-1.182-.154,2.619,2.619,0,0,0-.514.048,1.693,1.693,0,0,0-.426.141.783.783,0,0,0-.29.237.546.546,0,0,0-.105.33.609.609,0,0,0,.158.422,1.374,1.374,0,0,0,.413.3,4.078,4.078,0,0,0,.567.229q.312.1.62.207a8.056,8.056,0,0,1,1,.422,3.2,3.2,0,0,1,.769.536,2.105,2.105,0,0,1,.492.721,2.884,2.884,0,0,1-.176,2.351,2.78,2.78,0,0,1-.923.923,4.185,4.185,0,0,1-1.327.519,7.357,7.357,0,0,1-1.56.163A8.042,8.042,0,0,1,41.483,18.763Zm9.749-5.977a1.63,1.63,0,0,1-1.143-.417,1.343,1.343,0,0,1-.457-1.033A1.306,1.306,0,0,1,50.1,10.3a1.736,1.736,0,0,1,1.173-.4,1.671,1.671,0,0,1,1.165.409,1.41,1.41,0,0,1-.009,2.079A1.754,1.754,0,0,1,51.232,12.786Zm0,6.434a1.62,1.62,0,0,1-1.143-.422,1.356,1.356,0,0,1-.457-1.037,1.306,1.306,0,0,1,.47-1.037,1.736,1.736,0,0,1,1.173-.4,1.671,1.671,0,0,1,1.165.409,1.415,1.415,0,0,1-.009,2.083A1.742,1.742,0,0,1,51.232,19.22ZM72.874,19H71.433V13.832a3.9,3.9,0,0,0-.461-2.162A1.75,1.75,0,0,0,69.42,11a1.921,1.921,0,0,0-1.569.844,3.228,3.228,0,0,0-.646,2.021V19H65.764V13.656Q65.764,11,63.716,11a1.9,1.9,0,0,0-1.564.8,3.288,3.288,0,0,0-.615,2.07V19H60.095V10h1.441v1.424h.035a3.058,3.058,0,0,1,2.795-1.635,2.6,2.6,0,0,1,2.549,1.863A3.212,3.212,0,0,1,69.9,9.789q2.971,0,2.971,3.665Zm16.5-6.539H81.113V11.3h8.262Zm0,3.744H81.113v-1.16h8.262ZM102.685,19h-1.441V8.11a3.336,3.336,0,0,1-.488.382,7.951,7.951,0,0,1-.721.426q-.4.211-.844.4a6.132,6.132,0,0,1-.866.29V8.146a8.379,8.379,0,0,0,1.006-.356q.532-.224,1.046-.5t.971-.58a7.71,7.71,0,0,0,.791-.593h.545Zm10.127-9.3a2.606,2.606,0,0,0-.18-1.011,1.957,1.957,0,0,0-1.226-1.143,2.874,2.874,0,0,0-.914-.141,3.023,3.023,0,0,0-.826.114,4.016,4.016,0,0,0-.787.316,4.839,4.839,0,0,0-.738.483,5.333,5.333,0,0,0-.664.624V7.4a4.309,4.309,0,0,1,1.358-.9,4.781,4.781,0,0,1,1.833-.312,4.424,4.424,0,0,1,1.433.224,3.285,3.285,0,0,1,1.143.655A3.027,3.027,0,0,1,114,8.128a3.587,3.587,0,0,1,.277,1.45,4.973,4.973,0,0,1-.171,1.354,4.186,4.186,0,0,1-.519,1.143,5.513,5.513,0,0,1-.875,1.028,12.388,12.388,0,0,1-1.239,1q-.888.633-1.463,1.081a6.469,6.469,0,0,0-.914.839,2.436,2.436,0,0,0-.475.782,2.734,2.734,0,0,0-.136.9h6.275V19h-7.778v-.624a5.2,5.2,0,0,1,.176-1.424,3.7,3.7,0,0,1,.58-1.169,6.487,6.487,0,0,1,1.059-1.107q.655-.554,1.6-1.248a10.141,10.141,0,0,0,1.147-.94,4.889,4.889,0,0,0,.743-.9,3.22,3.22,0,0,0,.4-.91A3.922,3.922,0,0,0,112.812,9.7ZM124.7,12.646a12.381,12.381,0,0,1-.286,2.8,6.533,6.533,0,0,1-.826,2.061,3.718,3.718,0,0,1-1.327,1.274,3.633,3.633,0,0,1-1.789.435,3.393,3.393,0,0,1-1.692-.417,3.546,3.546,0,0,1-1.252-1.217,6.17,6.17,0,0,1-.773-1.964,12.146,12.146,0,0,1-.264-2.667,13.749,13.749,0,0,1,.277-2.918,6.674,6.674,0,0,1,.813-2.123,3.619,3.619,0,0,1,1.332-1.292,3.739,3.739,0,0,1,1.824-.435Q124.7,6.186,124.7,12.646Zm-1.477.141q0-5.379-2.558-5.379-2.7,0-2.7,5.476,0,5.106,2.646,5.106Q123.22,17.989,123.22,12.786Zm11.181-.141a12.383,12.383,0,0,1-.286,2.8,6.533,6.533,0,0,1-.826,2.061,3.718,3.718,0,0,1-1.327,1.274,3.633,3.633,0,0,1-1.789.435,3.393,3.393,0,0,1-1.692-.417,3.546,3.546,0,0,1-1.252-1.217,6.17,6.17,0,0,1-.773-1.964,12.146,12.146,0,0,1-.264-2.667,13.749,13.749,0,0,1,.277-2.918,6.674,6.674,0,0,1,.813-2.123,3.619,3.619,0,0,1,1.332-1.292,3.739,3.739,0,0,1,1.824-.435Q134.4,6.186,134.4,12.646Zm-1.477.141q0-5.379-2.558-5.379-2.7,0-2.7,5.476,0,5.106,2.646,5.106Q132.925,17.989,132.925,12.786ZM149,19h-2.021l-3.973-4.324h-.035V19h-1.441V5.676h1.441v8.446h.035L146.789,10h1.89L144.5,14.342Zm9.16-.721q0,4.957-4.746,4.957A6.372,6.372,0,0,1,150.5,22.6V21.162a5.993,5.993,0,0,0,2.9.844q3.322,0,3.322-3.533v-.984h-.035a3.641,3.641,0,0,1-5.8.523,4.8,4.8,0,0,1-1.024-3.221,5.6,5.6,0,0,1,1.1-3.647,3.685,3.685,0,0,1,3.019-1.354,2.934,2.934,0,0,1,2.7,1.459h.035V10h1.441Zm-1.441-3.349V13.6A2.575,2.575,0,0,0,156,11.767,2.387,2.387,0,0,0,154.191,11a2.5,2.5,0,0,0-2.092.971,4.335,4.335,0,0,0-.756,2.72,3.721,3.721,0,0,0,.725,2.4,2.343,2.343,0,0,0,1.92.9,2.509,2.509,0,0,0,1.973-.861A3.21,3.21,0,0,0,156.722,14.931ZM162.4,17,161,21.32h-1.028L161,17Zm14.593-7-3.586,9h-1.415l-3.41-9h1.582l2.285,6.539a5.869,5.869,0,0,1,.316,1.257h.035a5.943,5.943,0,0,1,.281-1.222L175.474,10Zm2.287-2.285a.913.913,0,0,1-.659-.264.89.89,0,0,1-.272-.668.923.923,0,0,1,.932-.94.931.931,0,0,1,.672.268.939.939,0,0,1,0,1.332A.923.923,0,0,1,179.282,7.715Zm.7,11.285h-1.441V10h1.441Zm16.694-6.539h-8.262V11.3h8.262Zm0,3.744h-8.262v-1.16h8.262Zm13.732-6.5a2.606,2.606,0,0,0-.18-1.011A1.957,1.957,0,0,0,209,7.548a2.874,2.874,0,0,0-.914-.141,3.023,3.023,0,0,0-.826.114,4.016,4.016,0,0,0-.787.316,4.839,4.839,0,0,0-.738.483,5.333,5.333,0,0,0-.664.624V7.4a4.309,4.309,0,0,1,1.358-.9,4.781,4.781,0,0,1,1.833-.312,4.424,4.424,0,0,1,1.433.224,3.285,3.285,0,0,1,1.143.655,3.027,3.027,0,0,1,.76,1.063,3.587,3.587,0,0,1,.277,1.45,4.973,4.973,0,0,1-.171,1.354,4.186,4.186,0,0,1-.519,1.143,5.513,5.513,0,0,1-.875,1.028,12.388,12.388,0,0,1-1.239,1q-.888.633-1.463,1.081a6.469,6.469,0,0,0-.914.839,2.436,2.436,0,0,0-.475.782,2.734,2.734,0,0,0-.136.9h6.275V19h-7.778v-.624a5.2,5.2,0,0,1,.176-1.424,3.7,3.7,0,0,1,.58-1.169,6.487,6.487,0,0,1,1.059-1.107q.655-.554,1.6-1.248a10.141,10.141,0,0,0,1.147-.94,4.889,4.889,0,0,0,.743-.9,3.22,3.22,0,0,0,.4-.91A3.922,3.922,0,0,0,210.411,9.7ZM222.3,12.646a12.381,12.381,0,0,1-.286,2.8,6.533,6.533,0,0,1-.826,2.061,3.718,3.718,0,0,1-1.327,1.274,3.633,3.633,0,0,1-1.789.435,3.393,3.393,0,0,1-1.692-.417,3.546,3.546,0,0,1-1.252-1.217,6.17,6.17,0,0,1-.773-1.964,12.146,12.146,0,0,1-.264-2.667,13.749,13.749,0,0,1,.277-2.918,6.674,6.674,0,0,1,.813-2.123,3.619,3.619,0,0,1,1.332-1.292,3.739,3.739,0,0,1,1.824-.435Q222.3,6.186,222.3,12.646Zm-1.477.141q0-5.379-2.558-5.379-2.7,0-2.7,5.476,0,5.106,2.646,5.106Q220.819,17.989,220.819,12.786ZM242.207,19h-1.441V13.832a3.9,3.9,0,0,0-.461-2.162A1.75,1.75,0,0,0,238.753,11a1.921,1.921,0,0,0-1.569.844,3.228,3.228,0,0,0-.646,2.021V19H235.1V13.656Q235.1,11,233.048,11a1.9,1.9,0,0,0-1.564.8,3.288,3.288,0,0,0-.615,2.07V19h-1.441V10h1.441v1.424h.035A3.058,3.058,0,0,1,233.7,9.789a2.6,2.6,0,0,1,2.549,1.863,3.212,3.212,0,0,1,2.988-1.863q2.971,0,2.971,3.665ZM250.62,6.4l-6.047,14.7h-1.345l6.029-14.7Zm.784,12.278V17.128A4.266,4.266,0,0,0,254,18q1.9,0,1.9-1.266a1.1,1.1,0,0,0-.163-.611,1.62,1.62,0,0,0-.439-.444,3.383,3.383,0,0,0-.65-.347q-.374-.154-.8-.321a10.357,10.357,0,0,1-1.05-.479,3.173,3.173,0,0,1-.756-.545,2.028,2.028,0,0,1-.457-.69,2.441,2.441,0,0,1-.154-.905,2.15,2.15,0,0,1,.29-1.121,2.572,2.572,0,0,1,.773-.817,3.607,3.607,0,0,1,1.1-.5,4.893,4.893,0,0,1,1.279-.167,5.164,5.164,0,0,1,2.092.4v1.459a4.077,4.077,0,0,0-2.285-.65,2.671,2.671,0,0,0-.729.092,1.786,1.786,0,0,0-.558.259,1.2,1.2,0,0,0-.36.4,1.053,1.053,0,0,0-.127.514,1.233,1.233,0,0,0,.127.589,1.3,1.3,0,0,0,.374.422,2.855,2.855,0,0,0,.6.334q.352.149.8.325a11.131,11.131,0,0,1,1.072.47,3.677,3.677,0,0,1,.809.545,2.129,2.129,0,0,1,.514.7,2.254,2.254,0,0,1,.18.94,2.218,2.218,0,0,1-.294,1.16,2.524,2.524,0,0,1-.787.817,3.6,3.6,0,0,1-1.134.483,5.6,5.6,0,0,1-1.345.158A5.106,5.106,0,0,1,251.4,18.675Zm9.5-1.679L259.5,21.32h-1.028L259.5,17ZM275.5,10l-3.586,9H270.5l-3.41-9h1.582l2.285,6.539a5.869,5.869,0,0,1,.316,1.257h.035a5.943,5.943,0,0,1,.281-1.222L273.979,10Zm6-3.059a1.92,1.92,0,0,0-.958-.237q-1.512,0-1.512,1.907V10h2.109v1.23h-2.109V19h-1.433V11.23h-1.538V10h1.538V8.541a3.032,3.032,0,0,1,.817-2.237,2.759,2.759,0,0,1,2.039-.822,2.824,2.824,0,0,1,1.046.158Zm14.963,5.52H288.2V11.3h8.262Zm0,3.744H288.2v-1.16h8.262Zm15.912-3.56a12.381,12.381,0,0,1-.286,2.8,6.533,6.533,0,0,1-.826,2.061,3.718,3.718,0,0,1-1.327,1.274,3.633,3.633,0,0,1-1.789.435,3.393,3.393,0,0,1-1.692-.417,3.546,3.546,0,0,1-1.252-1.217,6.17,6.17,0,0,1-.773-1.964,12.146,12.146,0,0,1-.264-2.667,13.749,13.749,0,0,1,.277-2.918,6.674,6.674,0,0,1,.813-2.123,3.619,3.619,0,0,1,1.332-1.292,3.739,3.739,0,0,1,1.824-.435Q312.37,6.186,312.37,12.646Zm-1.477.141q0-5.379-2.558-5.379-2.7,0-2.7,5.476,0,5.106,2.646,5.106Q310.894,17.989,310.894,12.786ZM332.281,19H330.84V13.832a3.9,3.9,0,0,0-.461-2.162A1.75,1.75,0,0,0,328.827,11a1.921,1.921,0,0,0-1.569.844,3.228,3.228,0,0,0-.646,2.021V19h-1.441V13.656q0-2.654-2.048-2.654a1.9,1.9,0,0,0-1.564.8,3.288,3.288,0,0,0-.615,2.07V19H319.5V10h1.441v1.424h.035a3.058,3.058,0,0,1,2.795-1.635,2.6,2.6,0,0,1,2.549,1.863,3.212,3.212,0,0,1,2.988-1.863q2.971,0,2.971,3.665Zm8.413-12.6-6.047,14.7H333.3l6.029-14.7Zm.784,12.278V17.128a4.266,4.266,0,0,0,2.593.87q1.9,0,1.9-1.266a1.1,1.1,0,0,0-.163-.611,1.62,1.62,0,0,0-.439-.444,3.383,3.383,0,0,0-.65-.347q-.374-.154-.8-.321a10.357,10.357,0,0,1-1.05-.479,3.173,3.173,0,0,1-.756-.545,2.028,2.028,0,0,1-.457-.69,2.441,2.441,0,0,1-.154-.905,2.15,2.15,0,0,1,.29-1.121,2.572,2.572,0,0,1,.773-.817,3.607,3.607,0,0,1,1.1-.5,4.893,4.893,0,0,1,1.279-.167,5.164,5.164,0,0,1,2.092.4v1.459a4.077,4.077,0,0,0-2.285-.65,2.671,2.671,0,0,0-.729.092,1.786,1.786,0,0,0-.558.259,1.2,1.2,0,0,0-.36.4,1.053,1.053,0,0,0-.127.514,1.233,1.233,0,0,0,.127.589,1.3,1.3,0,0,0,.374.422,2.855,2.855,0,0,0,.6.334q.352.149.8.325a11.131,11.131,0,0,1,1.072.47,3.678,3.678,0,0,1,.809.545,2.129,2.129,0,0,1,.514.7,2.254,2.254,0,0,1,.18.94,2.217,2.217,0,0,1-.294,1.16,2.523,2.523,0,0,1-.787.817,3.6,3.6,0,0,1-1.134.483,5.6,5.6,0,0,1-1.345.158A5.106,5.106,0,0,1,341.478,18.675Zm9.5-1.679-1.406,4.324h-1.028L349.574,17Zm16.351,2H356.785l.167-.721L363.931,6.4h1.679l1.872,11.883Zm-2.7-9.615q-.026-.2-.053-.431t-.048-.435q-.022-.207-.031-.378t-.009-.25h-.035l-.22.461q-.123.259-.272.532l-5.08,8.771h6.987Zm10.074,1.837H372.44l-1.011,4.772q-.053.272-.105.589a3.254,3.254,0,0,0-.053.51.888.888,0,0,0,.2.646.86.86,0,0,0,.628.2,1.382,1.382,0,0,0,.272-.035q.167-.035.343-.088t.347-.119l.3-.119-.272,1.266a4.261,4.261,0,0,1-.7.224,3.237,3.237,0,0,1-.743.092,2.513,2.513,0,0,1-.853-.127,1.461,1.461,0,0,1-.576-.365,1.413,1.413,0,0,1-.325-.576,2.653,2.653,0,0,1-.1-.76,4.261,4.261,0,0,1,.048-.593,6.15,6.15,0,0,1,.119-.62l1.037-4.9H369.5L369.777,10h1.477l.466-2.2a2.709,2.709,0,0,1,.268-.083q.233-.066.51-.149l.51-.154.259-.079L372.713,10h2.268Zm15.007,1.239h-8.262V11.3h8.262Zm0,3.744h-8.262v-1.16h8.262Zm15.464-1.055a4.242,4.242,0,0,1-.316,1.67,3.651,3.651,0,0,1-.9,1.283,4.034,4.034,0,0,1-1.411.826,5.517,5.517,0,0,1-1.837.29,5.074,5.074,0,0,1-2.61-.527V17.163a4.8,4.8,0,0,0,2.628.826,3.556,3.556,0,0,0,1.235-.2,2.744,2.744,0,0,0,.936-.562,2.408,2.408,0,0,0,.593-.87,2.945,2.945,0,0,0,.207-1.116,2.391,2.391,0,0,0-.826-1.929,3.623,3.623,0,0,0-2.4-.7q-.255,0-.536.009t-.562.022q-.281.013-.549.031t-.488.044l.431-6.319H404.6V7.7h-4.579l-.255,3.7q.281-.018.6-.031t.563-.013a5.657,5.657,0,0,1,1.793.264,3.8,3.8,0,0,1,1.34.751,3.151,3.151,0,0,1,.835,1.2A4.2,4.2,0,0,1,405.178,15.15Zm7.035,3.524V17.128a4.266,4.266,0,0,0,2.593.87q1.9,0,1.9-1.266a1.1,1.1,0,0,0-.163-.611,1.62,1.62,0,0,0-.439-.444,3.383,3.383,0,0,0-.65-.347q-.374-.154-.8-.321a10.357,10.357,0,0,1-1.05-.479,3.173,3.173,0,0,1-.756-.545,2.028,2.028,0,0,1-.457-.69,2.441,2.441,0,0,1-.154-.905,2.15,2.15,0,0,1,.29-1.121,2.572,2.572,0,0,1,.773-.817,3.607,3.607,0,0,1,1.1-.5,4.893,4.893,0,0,1,1.279-.167,5.164,5.164,0,0,1,2.092.4v1.459a4.077,4.077,0,0,0-2.285-.65,2.671,2.671,0,0,0-.729.092,1.786,1.786,0,0,0-.558.259,1.2,1.2,0,0,0-.36.4,1.053,1.053,0,0,0-.127.514,1.233,1.233,0,0,0,.127.589,1.3,1.3,0,0,0,.374.422,2.855,2.855,0,0,0,.6.334q.352.149.8.325a11.131,11.131,0,0,1,1.072.47,3.678,3.678,0,0,1,.809.545,2.129,2.129,0,0,1,.514.7,2.254,2.254,0,0,1,.18.94,2.217,2.217,0,0,1-.294,1.16,2.523,2.523,0,0,1-.787.817,3.6,3.6,0,0,1-1.134.483,5.6,5.6,0,0,1-1.345.158A5.106,5.106,0,0,1,412.213,18.675ZM8.728,35.708H4.28V38.8H8.367v2.3H4.28V46H1.441V33.4H8.728ZM14.82,46.22a4.838,4.838,0,0,1-3.538-1.261,4.573,4.573,0,0,1-1.288-3.423,4.573,4.573,0,0,1,1.336-3.494,5.048,5.048,0,0,1,3.612-1.261,4.78,4.78,0,0,1,3.516,1.261,4.483,4.483,0,0,1,1.274,3.335,4.759,4.759,0,0,1-1.314,3.542A4.892,4.892,0,0,1,14.82,46.22Zm.07-7.312a1.852,1.852,0,0,0-1.529.677,2.984,2.984,0,0,0-.545,1.916q0,2.593,2.092,2.593,2,0,2-2.663Q16.9,38.907,14.89,38.907Zm2.979-6.17-2.751,2.839h-2L15.4,32.737ZM27.4,39.5a2.409,2.409,0,0,0-1.169-.272,1.684,1.684,0,0,0-1.415.664,2.9,2.9,0,0,0-.51,1.806V46H21.528V37h2.777v1.67h.035a2.4,2.4,0,0,1,2.373-1.828,1.788,1.788,0,0,1,.686.105ZM43.037,46H40.268V40.867q0-1.96-1.441-1.96a1.324,1.324,0,0,0-1.116.589,2.42,2.42,0,0,0-.431,1.468V46H34.5V40.814q0-1.907-1.415-1.907a1.356,1.356,0,0,0-1.138.563A2.475,2.475,0,0,0,31.523,41v5H28.746V37h2.777v1.406h.035a3.41,3.41,0,0,1,2.909-1.626,2.592,2.592,0,0,1,2.61,1.679A3.329,3.329,0,0,1,40.1,36.78q2.936,0,2.936,3.621Zm10.751,0H51.019V44.629h-.044a3.141,3.141,0,0,1-2.751,1.591q-3.129,0-3.129-3.788V37h2.769v5.186q0,1.907,1.512,1.907a1.5,1.5,0,0,0,1.2-.523,2.109,2.109,0,0,0,.448-1.419V37h2.769ZM58.9,46H56.127V32.676H58.9Zm9.828,0H66.1V44.708h-.035a2.933,2.933,0,0,1-2.681,1.512,2.8,2.8,0,0,1-2.061-.743,2.661,2.661,0,0,1-.751-1.982q0-2.619,3.1-3.023l2.443-.325q0-1.477-1.6-1.477a5.46,5.46,0,0,0-3.059.958V37.536a6.881,6.881,0,0,1,1.586-.527,8.339,8.339,0,0,1,1.833-.229q3.85,0,3.85,3.841Zm-2.61-3.656v-.606l-1.635.211q-1.354.176-1.354,1.222a1.01,1.01,0,0,0,.33.778,1.266,1.266,0,0,0,.892.3,1.644,1.644,0,0,0,1.274-.541A1.952,1.952,0,0,0,66.122,42.344Zm6.049-2.558a1.63,1.63,0,0,1-1.143-.417,1.343,1.343,0,0,1-.457-1.033,1.306,1.306,0,0,1,.47-1.037,1.736,1.736,0,0,1,1.173-.4,1.671,1.671,0,0,1,1.165.409,1.41,1.41,0,0,1-.009,2.079A1.754,1.754,0,0,1,72.171,39.786Zm0,6.434a1.62,1.62,0,0,1-1.143-.422,1.356,1.356,0,0,1-.457-1.037,1.306,1.306,0,0,1,.47-1.037,1.736,1.736,0,0,1,1.173-.4,1.671,1.671,0,0,1,1.165.409,1.415,1.415,0,0,1-.009,2.083A1.742,1.742,0,0,1,72.171,46.22Zm12.124-4.685a11.737,11.737,0,0,1-.611,2.021,5.366,5.366,0,0,1-.875,1.468,3.416,3.416,0,0,1-1.178.892,3.641,3.641,0,0,1-1.521.3,3.239,3.239,0,0,1-.378-.026,4.129,4.129,0,0,1-.431-.075q-.211-.048-.387-.1a1.007,1.007,0,0,1-.255-.105l.246-1.406a1.528,1.528,0,0,0,.233.154,1.784,1.784,0,0,0,.294.127,2.319,2.319,0,0,0,.334.083,1.987,1.987,0,0,0,.343.031,2.229,2.229,0,0,0,.879-.171,1.969,1.969,0,0,0,.734-.562,3.947,3.947,0,0,0,.593-1.02,8.675,8.675,0,0,0,.457-1.542L84.505,33.4h1.512Zm2.746-8.859h5.37V31.2l2.1,1.978-2.1,2.013V33.73H87.04Zm5.987,6.794V38.292h8.262V39.47Zm0,3.744V42.036h8.262v1.178ZM118.352,46H107.805l.167-.721L114.951,33.4h1.679L118.5,45.279Zm-2.7-9.615q-.026-.2-.053-.431t-.048-.435q-.022-.207-.031-.378t-.009-.25h-.035l-.22.461q-.123.259-.272.532l-5.08,8.771h6.987Zm13.08,3.762a6.835,6.835,0,0,1-.141,1.349,6.982,6.982,0,0,1-.431,1.375,6.773,6.773,0,0,1-.725,1.283,5.2,5.2,0,0,1-1.024,1.068,4.748,4.748,0,0,1-1.336.729,4.863,4.863,0,0,1-1.652.268,5.437,5.437,0,0,1-1.024-.1,6.294,6.294,0,0,1-.883-.229l-.9,4.28h-1.459l2.2-10.406q.062-.281.114-.677t.092-.8q.04-.4.066-.751t.026-.545h1.477q0,.149-.022.4t-.057.532q-.035.277-.07.536t-.062.417h.035a4.748,4.748,0,0,1,1.406-1.586,3.006,3.006,0,0,1,1.705-.523,2.785,2.785,0,0,1,1.107.211,2.192,2.192,0,0,1,.839.633,2.928,2.928,0,0,1,.532,1.055A5.259,5.259,0,0,1,128.734,40.146Zm-1.477.062a4.347,4.347,0,0,0-.083-.879,1.95,1.95,0,0,0-.277-.694,1.4,1.4,0,0,0-.5-.457,1.521,1.521,0,0,0-.743-.167,1.981,1.981,0,0,0-.857.189,2.951,2.951,0,0,0-.743.505,4.143,4.143,0,0,0-.624.734,7.294,7.294,0,0,0-.5.866,7.607,7.607,0,0,0-.374.9,6.791,6.791,0,0,0-.233.848l-.554,2.61a2.467,2.467,0,0,0,.378.127q.22.057.457.1t.483.07a4.309,4.309,0,0,0,.457.026,3.036,3.036,0,0,0,1.121-.2,3.252,3.252,0,0,0,.923-.549,3.877,3.877,0,0,0,.721-.817,5.424,5.424,0,0,0,.523-1,5.9,5.9,0,0,0,.316-1.1A6.071,6.071,0,0,0,127.257,40.208Zm3.379-7.532h5.37V31.2l2.1,1.978-2.1,2.013V33.73h-5.37Zm5.987,6.794V38.292h8.262V39.47Zm0,3.744V42.036h8.262v1.178Zm24.611-3.946a2.923,2.923,0,0,1-.031.347q-.031.233-.079.5t-.1.523q-.048.259-.083.435L159.881,46h-1.441l1.1-5.273q.035-.149.07-.334t.066-.365q.031-.18.048-.334a2.261,2.261,0,0,0,.018-.242,1.673,1.673,0,0,0-.3-1.068,1.121,1.121,0,0,0-.932-.374,1.735,1.735,0,0,0-.69.154,3.191,3.191,0,0,0-.694.417,4.9,4.9,0,0,0-.65.615,6.263,6.263,0,0,0-.571.751,5.851,5.851,0,0,0-.444.817,4.286,4.286,0,0,0-.272.822L154.247,46h-1.459l1.116-5.273q.035-.149.07-.334t.066-.365q.031-.18.048-.334a2.261,2.261,0,0,0,.018-.242,1.639,1.639,0,0,0-.308-1.068,1.126,1.126,0,0,0-.923-.374,1.784,1.784,0,0,0-.7.154,3.152,3.152,0,0,0-.7.422,4.83,4.83,0,0,0-.655.624,6.555,6.555,0,0,0-.571.756,5.53,5.53,0,0,0-.439.817,4.474,4.474,0,0,0-.268.822L148.6,46h-1.459l1.389-6.425q.07-.343.141-.716t.132-.721q.062-.347.105-.646t.07-.492h1.406q-.044.343-.105.716t-.105.69q-.053.369-.114.721h.035a7.6,7.6,0,0,1,.686-.94,5.014,5.014,0,0,1,.782-.743,3.622,3.622,0,0,1,.861-.488,2.712,2.712,0,0,1,1.9-.009,1.8,1.8,0,0,1,.672.47,2.055,2.055,0,0,1,.409.734,3.671,3.671,0,0,1,.167.958,8.5,8.5,0,0,1,.7-.918,4.961,4.961,0,0,1,.8-.738,3.782,3.782,0,0,1,.905-.492,2.859,2.859,0,0,1,1.015-.18,2.1,2.1,0,0,1,1.688.655A2.726,2.726,0,0,1,161.234,39.268ZM172.442,46H161.9l.167-.721L169.041,33.4h1.679l1.872,11.883Zm-2.7-9.615q-.026-.2-.053-.431t-.048-.435q-.022-.207-.031-.378t-.009-.25h-.035l-.22.461q-.123.259-.272.532L164,44.655h6.987ZM177.6,46h-1.222l-1.424-9h1.459l.791,5.669q.026.167.048.378t.044.431q.022.22.031.431t.009.378h.035q.07-.158.163-.36t.207-.417q.114-.215.233-.435t.224-.4L181.418,37h1.644Zm5.883-13.324h5.37V31.2l2.1,1.978-2.1,2.013V33.73h-5.37ZM215.2,47.494a10.585,10.585,0,0,1-.817,1.165,5.421,5.421,0,0,1-.866.857,3.276,3.276,0,0,1-2.1.712,2.928,2.928,0,0,1-.453-.04,3.3,3.3,0,0,1-.4-.083l.272-1.274a1.3,1.3,0,0,0,.343.114,2.022,2.022,0,0,0,.413.044,1.893,1.893,0,0,0,1.094-.334,3.4,3.4,0,0,0,.918-1.02l1.081-1.67L213.055,37h1.494l1.046,6.908a3.375,3.375,0,0,1,.031.374,2.024,2.024,0,0,1-.013.312h.053q.044-.105.136-.3a3.226,3.226,0,0,1,.207-.369L220,37h1.591Z" transform="translate(1003.718 4708.796)" fill="#212429"/>
      <text id="Contenido-4" data-name="Contenido" transform="translate(1346.718 4778.796)" fill="#212429" font-size="18" font-family="SegoeUI-Italic, Segoe UI" font-style="italic" letter-spacing="0em"><tspan x="0" y="0">∆t</tspan></text>
      <text id="Contenido-5" data-name="Contenido" transform="translate(1332.718 4754.751)" fill="#212429" font-size="18" font-family="SegoeUI-Italic, Segoe UI" font-style="italic" letter-spacing="0em"><tspan x="0" y="0" xml:space="preserve">    J </tspan><tspan y="0" font-family="SegoeUISymbol, Segoe UI Symbol" font-style="normal">⃗</tspan></text>
      <path id="Trazado_1044254" data-name="Trazado 1044254" d="M1309.154,4760.8h35.081" transform="translate(30)" fill="none" stroke="#212429" stroke-width="1"/>
      <g id="Grupo_1205595" data-name="Grupo 1205595" transform="translate(232 -181.045)">
        <text id="Contenido-6" data-name="Contenido" transform="translate(1003.718 4935.796)" fill="#212429" font-size="18" font-family="SegoeUI-Italic, Segoe UI" font-style="italic" letter-spacing="0em"><tspan x="0" y="0" xml:space="preserve"> F_prom = </tspan></text>
        <g id="Grupo_1205593" data-name="Grupo 1205593" transform="translate(-12.092 -1.045)">
          <path id="Trazado_1044254-2" data-name="Trazado 1044254" d="M1309.154,4760.8h58.262l-2.912-1.945-2.941-1.965" transform="translate(-284 158)" fill="none" stroke="#212429" stroke-linecap="square" stroke-linejoin="round" stroke-width="1"/>
          <path id="Trazado_1044256" data-name="Trazado 1044256" d="M1309.154,4756.886h58.262l-2.912,1.945-2.941,1.965" transform="translate(-284 162)" fill="none" stroke="#212429" stroke-linecap="square" stroke-linejoin="round" stroke-width="1"/>
        </g>
      </g>
    </g>
    <path id="Contenido-7" data-name="Contenido" d="M10.3-6.539H2.039V-7.7H10.3Zm0,3.744H2.039v-1.16H10.3ZM24.718-12.6V-4.28h1.617v1.318H24.718V0H23.295V-2.962H17.371V-4.21q.826-.932,1.67-1.991T20.654-8.35q.769-1.09,1.424-2.175a19.88,19.88,0,0,0,1.1-2.079ZM19-4.28h4.3v-6.17Q22.635-9.3,22.047-8.394T20.926-6.75q-.532.738-1.015,1.336T19-4.28Zm8.747.765A3.353,3.353,0,0,1,27.9-4.522a3.645,3.645,0,0,1,.453-.945,3.746,3.746,0,0,1,.729-.8,3.478,3.478,0,0,1,.989-.571,3.737,3.737,0,0,1-1.3-1.173A2.775,2.775,0,0,1,28.289-9.6a3.06,3.06,0,0,1,.268-1.283A3.091,3.091,0,0,1,29.3-11.9a3.433,3.433,0,0,1,1.125-.672,4.006,4.006,0,0,1,1.406-.242,3.967,3.967,0,0,1,1.415.246,3.494,3.494,0,0,1,1.125.677,3.038,3.038,0,0,1,.738,1.02A3.082,3.082,0,0,1,35.373-9.6a2.775,2.775,0,0,1-.483,1.586,3.783,3.783,0,0,1-1.283,1.173,3.446,3.446,0,0,1,.976.571,3.8,3.8,0,0,1,.725.8,3.645,3.645,0,0,1,.453.945,3.353,3.353,0,0,1,.158,1.006A3.743,3.743,0,0,1,35.619-2a3.378,3.378,0,0,1-.839,1.173,3.875,3.875,0,0,1-1.292.76A4.829,4.829,0,0,1,31.831.2,4.765,4.765,0,0,1,30.187-.07,3.934,3.934,0,0,1,28.9-.831,3.4,3.4,0,0,1,28.047-2,3.7,3.7,0,0,1,27.744-3.516Zm1.564-.123a2.977,2.977,0,0,0,.18,1.063,2.293,2.293,0,0,0,.51.809,2.225,2.225,0,0,0,.8.514,2.889,2.889,0,0,0,1.042.18,2.744,2.744,0,0,0,1.02-.185,2.376,2.376,0,0,0,.8-.519,2.332,2.332,0,0,0,.527-.809,2.828,2.828,0,0,0,.189-1.055,2.694,2.694,0,0,0-.18-.989,2.475,2.475,0,0,0-.514-.813,2.415,2.415,0,0,0-.8-.554,2.6,2.6,0,0,0-1.046-.2,2.63,2.63,0,0,0-1.006.189,2.408,2.408,0,0,0-.8.527,2.442,2.442,0,0,0-.532.809A2.69,2.69,0,0,0,29.308-3.639Zm.448-5.845a2.1,2.1,0,0,0,.163.831,2.093,2.093,0,0,0,.448.668,2.106,2.106,0,0,0,.664.448,2.024,2.024,0,0,0,.809.163,2.009,2.009,0,0,0,.813-.167,2.1,2.1,0,0,0,.664-.453,2.194,2.194,0,0,0,.448-.668,2.03,2.03,0,0,0,.167-.822,2.155,2.155,0,0,0-.163-.844A2.065,2.065,0,0,0,33.325-11a2.077,2.077,0,0,0-.664-.444,2.078,2.078,0,0,0-.822-.163,2.1,2.1,0,0,0-.848.167,2.049,2.049,0,0,0-.659.453,1.979,1.979,0,0,0-.426.672A2.272,2.272,0,0,0,29.756-9.483ZM45.622-6.354a12.381,12.381,0,0,1-.286,2.8,6.533,6.533,0,0,1-.826,2.061A3.718,3.718,0,0,1,43.183-.215,3.633,3.633,0,0,1,41.395.22,3.393,3.393,0,0,1,39.7-.2a3.546,3.546,0,0,1-1.252-1.217,6.17,6.17,0,0,1-.773-1.964,12.146,12.146,0,0,1-.264-2.667,13.749,13.749,0,0,1,.277-2.918,6.674,6.674,0,0,1,.813-2.123,3.619,3.619,0,0,1,1.332-1.292,3.739,3.739,0,0,1,1.824-.435Q45.622-12.814,45.622-6.354Zm-1.477.141q0-5.379-2.558-5.379-2.7,0-2.7,5.476,0,5.106,2.646,5.106Q44.146-1.011,44.146-6.214Zm11.181-.141a12.381,12.381,0,0,1-.286,2.8,6.533,6.533,0,0,1-.826,2.061A3.718,3.718,0,0,1,52.888-.215,3.633,3.633,0,0,1,51.1.22,3.393,3.393,0,0,1,49.408-.2a3.546,3.546,0,0,1-1.252-1.217,6.17,6.17,0,0,1-.773-1.964,12.146,12.146,0,0,1-.264-2.667A13.749,13.749,0,0,1,47.4-8.965a6.674,6.674,0,0,1,.813-2.123,3.619,3.619,0,0,1,1.332-1.292,3.739,3.739,0,0,1,1.824-.435Q55.327-12.814,55.327-6.354Zm-1.477.141q0-5.379-2.558-5.379-2.7,0-2.7,5.476,0,5.106,2.646,5.106Q53.851-1.011,53.851-6.214Zm11.181-.141a12.382,12.382,0,0,1-.286,2.8A6.533,6.533,0,0,1,63.92-1.49,3.718,3.718,0,0,1,62.593-.215,3.633,3.633,0,0,1,60.8.22,3.393,3.393,0,0,1,59.113-.2,3.546,3.546,0,0,1,57.86-1.415a6.17,6.17,0,0,1-.773-1.964,12.146,12.146,0,0,1-.264-2.667A13.749,13.749,0,0,1,57.1-8.965a6.674,6.674,0,0,1,.813-2.123,3.619,3.619,0,0,1,1.332-1.292,3.739,3.739,0,0,1,1.824-.435Q65.032-12.814,65.032-6.354Zm-1.477.141q0-5.379-2.558-5.379-2.7,0-2.7,5.476,0,5.106,2.646,5.106Q63.556-1.011,63.556-6.214ZM81.612,0H79.977L75.328-10.1q-.026-.07-.062-.171t-.07-.215q-.035-.114-.062-.22t-.035-.167h-.053q-.009.088-.022.215t-.031.259q-.018.132-.04.259t-.04.224L72.814,0H71.355l2.663-12.6h1.767l4.456,9.888a1.668,1.668,0,0,1,.088.189q.044.11.088.229t.083.233q.04.114.066.193H80.6q.009-.105.026-.246t.035-.294q.018-.154.044-.3t.044-.255L82.8-12.6h1.494Z" transform="translate(1169.718 4881.796)" fill="#212429"/>
    <path id="Contenido-8" data-name="Contenido" d="M6.064-4.447h-4.8V-5.581h4.8ZM13.985-9.3a2.606,2.606,0,0,0-.18-1.011,2,2,0,0,0-.492-.716,2.017,2.017,0,0,0-.734-.426,2.874,2.874,0,0,0-.914-.141,3.023,3.023,0,0,0-.826.114,4.016,4.016,0,0,0-.787.316,4.839,4.839,0,0,0-.738.483,5.333,5.333,0,0,0-.664.624V-11.6a4.309,4.309,0,0,1,1.358-.9,4.781,4.781,0,0,1,1.833-.312,4.424,4.424,0,0,1,1.433.224,3.285,3.285,0,0,1,1.143.655,3.027,3.027,0,0,1,.76,1.063,3.587,3.587,0,0,1,.277,1.45,4.973,4.973,0,0,1-.171,1.354,4.186,4.186,0,0,1-.519,1.143A5.513,5.513,0,0,1,13.889-5.9a12.387,12.387,0,0,1-1.239,1q-.888.633-1.463,1.081a6.469,6.469,0,0,0-.914.839,2.436,2.436,0,0,0-.475.782,2.734,2.734,0,0,0-.136.9h6.275V0H8.158V-.624a5.2,5.2,0,0,1,.176-1.424,3.7,3.7,0,0,1,.58-1.169A6.487,6.487,0,0,1,9.973-4.324q.655-.554,1.6-1.248a10.141,10.141,0,0,0,1.147-.94,4.889,4.889,0,0,0,.743-.9,3.22,3.22,0,0,0,.4-.91A3.922,3.922,0,0,0,13.985-9.3Zm10.39-3.3V-4.28h1.617v1.318H24.376V0H22.952V-2.962H17.028V-4.21q.826-.932,1.67-1.991T20.311-8.35q.769-1.09,1.424-2.175a19.88,19.88,0,0,0,1.1-2.079ZM18.654-4.28h4.3v-6.17Q22.293-9.3,21.7-8.394T20.583-6.75q-.532.738-1.015,1.336T18.654-4.28ZM35.575-6.354a12.381,12.381,0,0,1-.286,2.8,6.533,6.533,0,0,1-.826,2.061A3.718,3.718,0,0,1,33.136-.215,3.633,3.633,0,0,1,31.347.22,3.393,3.393,0,0,1,29.655-.2,3.546,3.546,0,0,1,28.4-1.415a6.17,6.17,0,0,1-.773-1.964,12.146,12.146,0,0,1-.264-2.667,13.749,13.749,0,0,1,.277-2.918,6.674,6.674,0,0,1,.813-2.123,3.619,3.619,0,0,1,1.332-1.292,3.739,3.739,0,0,1,1.824-.435Q35.575-12.814,35.575-6.354ZM34.1-6.214q0-5.379-2.558-5.379-2.7,0-2.7,5.476,0,5.106,2.646,5.106Q34.1-1.011,34.1-6.214ZM45.28-6.354a12.381,12.381,0,0,1-.286,2.8,6.533,6.533,0,0,1-.826,2.061A3.718,3.718,0,0,1,42.841-.215,3.633,3.633,0,0,1,41.052.22,3.393,3.393,0,0,1,39.36-.2a3.546,3.546,0,0,1-1.252-1.217,6.17,6.17,0,0,1-.773-1.964,12.146,12.146,0,0,1-.264-2.667,13.749,13.749,0,0,1,.277-2.918,6.674,6.674,0,0,1,.813-2.123,3.619,3.619,0,0,1,1.332-1.292,3.739,3.739,0,0,1,1.824-.435Q45.28-12.814,45.28-6.354ZM43.8-6.214q0-5.379-2.558-5.379-2.7,0-2.7,5.476,0,5.106,2.646,5.106Q43.8-1.011,43.8-6.214Zm11.181-.141a12.381,12.381,0,0,1-.286,2.8,6.533,6.533,0,0,1-.826,2.061A3.718,3.718,0,0,1,52.546-.215,3.633,3.633,0,0,1,50.757.22,3.393,3.393,0,0,1,49.065-.2a3.546,3.546,0,0,1-1.252-1.217,6.17,6.17,0,0,1-.773-1.964,12.146,12.146,0,0,1-.264-2.667,13.749,13.749,0,0,1,.277-2.918,6.674,6.674,0,0,1,.813-2.123A3.619,3.619,0,0,1,49.2-12.379a3.739,3.739,0,0,1,1.824-.435Q54.985-12.814,54.985-6.354Zm-1.477.141q0-5.379-2.558-5.379-2.7,0-2.7,5.476,0,5.106,2.646,5.106Q53.508-1.011,53.508-6.214Z" transform="translate(1100.718 4864.796)" fill="#212429"/>
    <path id="Contenido-9" data-name="Contenido" d="M8.517-3.85A4.242,4.242,0,0,1,8.2-2.18,3.651,3.651,0,0,1,7.3-.9,4.034,4.034,0,0,1,5.889-.07,5.517,5.517,0,0,1,4.052.22a5.074,5.074,0,0,1-2.61-.527V-1.837a4.8,4.8,0,0,0,2.628.826,3.556,3.556,0,0,0,1.235-.2,2.744,2.744,0,0,0,.936-.562,2.408,2.408,0,0,0,.593-.87A2.945,2.945,0,0,0,7.04-3.762a2.391,2.391,0,0,0-.826-1.929,3.623,3.623,0,0,0-2.4-.7q-.255,0-.536.009t-.562.022q-.281.013-.549.031t-.488.044L2.109-12.6H7.937v1.3H3.357L3.1-7.6q.281-.018.6-.031t.563-.013a5.656,5.656,0,0,1,1.793.264,3.8,3.8,0,0,1,1.34.751,3.151,3.151,0,0,1,.835,1.2A4.2,4.2,0,0,1,8.517-3.85Z" transform="translate(1126.218 4898.796)" fill="#212429"/>
    <g id="Grupo_1205594" data-name="Grupo 1205594" transform="translate(0 -54)">
      <text id="Contenido-10" data-name="Contenido" transform="translate(1003.718 4935.796)" fill="#212429" font-size="18" font-family="SegoeUI-Italic, Segoe UI" font-style="italic" letter-spacing="0em"><tspan x="0" y="0" xml:space="preserve"> F_prom = </tspan></text>
      <g id="Grupo_1205593-2" data-name="Grupo 1205593" transform="translate(-12.092 -1.045)">
        <path id="Trazado_1044254-3" data-name="Trazado 1044254" d="M1309.154,4760.8h58.262l-2.912-1.945-2.941-1.965" transform="translate(-284 158)" fill="none" stroke="#212429" stroke-linecap="square" stroke-linejoin="round" stroke-width="1"/>
        <path id="Trazado_1044256-2" data-name="Trazado 1044256" d="M1309.154,4756.886h58.262l-2.912,1.945-2.941,1.965" transform="translate(-284 162)" fill="none" stroke="#212429" stroke-linecap="square" stroke-linejoin="round" stroke-width="1"/>
      </g>
    </g>
    <path id="Trazado_1044257" data-name="Trazado 1044257" d="M1309.154,4760.8h60.55" transform="translate(-205.734 116)" fill="none" stroke="#212429" stroke-width="1"/>
  </g>
</svg>
