<svg xmlns="http://www.w3.org/2000/svg" xmlns:xlink="http://www.w3.org/1999/xlink" width="108" height="108" viewBox="0 0 108 108">
  <defs>
    <filter id="Trazado_904820" x="0" y="0" width="108" height="108" filterUnits="userSpaceOnUse">
      <feOffset dy="3" input="SourceAlpha"/>
      <feGaussianBlur stdDeviation="3" result="blur"/>
      <feFlood flood-opacity="0.161"/>
      <feComposite operator="in" in2="blur"/>
      <feComposite in="SourceGraphic"/>
    </filter>
  </defs>
  <g id="Grupo_1174741" data-name="Grupo 1174741" transform="translate(9 6)">
    <g id="Grupo_1173585" data-name="Grupo 1173585" transform="translate(0 0)">
      <g id="Grupo_1173428" data-name="Grupo 1173428">
        <g id="Grupo_1171958" data-name="Grupo 1171958">
          <g id="Grupo_1167341" data-name="Grupo 1167341">
            <g id="Grupo_1166792" data-name="Grupo 1166792">
              <g transform="matrix(1, 0, 0, 1, -9, -6)" filter="url(#Trazado_904820)">
                <g id="Trazado_904820-2" data-name="Trazado 904820" transform="translate(9 6)" fill="#f2f7e5">
                  <path d="M 44.99999618530273 88.50004577636719 C 39.12687301635742 88.50004577636719 33.43022155761719 87.35012054443359 28.06829643249512 85.08220672607422 C 22.88852119445801 82.89134216308594 18.23629570007324 79.75463104248047 14.24084663391113 75.75917816162109 C 10.24540901184082 71.76371765136719 7.108683586120605 67.11149597167969 4.917821407318115 61.93173217773438 C 2.649921178817749 56.56979370117188 1.499996185302734 50.87314224243164 1.499996185302734 45.00001907348633 C 1.499996185302734 39.12689590454102 2.649921178817749 33.43024444580078 4.917821407318115 28.06830596923828 C 7.108683586120605 22.88853073120117 10.24540901184082 18.23631858825684 14.24084663391113 14.24086952209473 C 18.23629570007324 10.2454195022583 22.88852119445801 7.108694076538086 28.06829643249512 4.917831420898438 C 33.43022155761719 2.649931669235229 39.12687301635742 1.500006556510925 44.99999618530273 1.500006556510925 C 50.87311935424805 1.500006556510925 56.56977081298828 2.649931669235229 61.93169784545898 4.917831420898438 C 67.11147308349609 7.108694076538086 71.76369476318359 10.2454195022583 75.75914764404297 14.24086952209473 C 79.75458526611328 18.23631858825684 82.89131164550781 22.88853073120117 85.08216857910156 28.06830596923828 C 87.35007476806641 33.43024444580078 88.5 39.12689590454102 88.5 45.00001907348633 C 88.5 50.87314224243164 87.35007476806641 56.56979370117188 85.08216857910156 61.93173217773438 C 82.89131164550781 67.11149597167969 79.75458526611328 71.76371765136719 75.75914764404297 75.75917816162109 C 71.76369476318359 79.75463104248047 67.11147308349609 82.89134216308594 61.93169784545898 85.08220672607422 C 56.56977081298828 87.35012054443359 50.87311935424805 88.50004577636719 44.99999618530273 88.50004577636719 Z" stroke="none"/>
                  <path d="M 44.99999618530273 3.000007629394531 C 39.32870864868164 3.000007629394531 33.82865142822266 4.110061645507812 28.65262603759766 6.299346923828125 C 23.65165710449219 8.414573669433594 19.15968322753906 11.44334411621094 15.301513671875 15.30152130126953 C 11.44333648681641 19.15969085693359 8.414566040039062 23.65166473388672 6.299339294433594 28.65263366699219 C 4.110054016113281 33.82867431640625 2.999992370605469 39.32873153686523 2.999992370605469 45.00001907348633 C 2.999992370605469 50.67130661010742 4.110054016113281 56.17136383056641 6.299339294433594 61.34738922119141 C 8.414566040039062 66.34837341308594 11.44333648681641 70.84033203125 15.301513671875 74.69850158691406 C 19.15968322753906 78.55668640136719 23.65165710449219 81.58546447753906 28.65262603759766 83.70069122314453 C 33.82865142822266 85.88997650146484 39.32870864868164 87.00003051757812 44.99999618530273 87.00003051757812 C 50.67128372192383 87.00003051757812 56.17134094238281 85.88997650146484 61.34736633300781 83.70069122314453 C 66.34834289550781 81.58546447753906 70.84030914306641 78.55668640136719 74.69847869873047 74.69850158691406 C 78.55665588378906 70.84033203125 81.58542633056641 66.34837341308594 83.70065307617188 61.34738922119141 C 85.88993835449219 56.17136383056641 87 50.67130661010742 87 45.00001907348633 C 87 39.32873153686523 85.88993835449219 33.82867431640625 83.70065307617188 28.65263366699219 C 81.58542633056641 23.65166473388672 78.55665588378906 19.15969085693359 74.69847869873047 15.30152130126953 C 70.84030914306641 11.44334411621094 66.34834289550781 8.414573669433594 61.34736633300781 6.299346923828125 C 56.17134094238281 4.110061645507812 50.67128372192383 3.000007629394531 44.99999618530273 3.000007629394531 M 44.99999618530273 7.62939453125e-06 C 69.85281372070312 7.62939453125e-06 90 20.14719390869141 90 45.00001907348633 C 90 69.85282897949219 69.85281372070312 90.00003051757812 44.99999618530273 90.00003051757812 C 20.14717864990234 90.00003051757812 -7.62939453125e-06 69.85282897949219 -7.62939453125e-06 45.00001907348633 C -7.62939453125e-06 20.14719390869141 20.14717864990234 7.62939453125e-06 44.99999618530273 7.62939453125e-06 Z" stroke="none" fill="#86b60c"/>
                </g>
              </g>
            </g>
          </g>
        </g>
      </g>
    </g>
    <g id="pencil_921955" transform="translate(-55.036 12.686)">
      <g id="Grupo_1205965" data-name="Grupo 1205965" transform="translate(74.447 8.079)">
        <path id="Trazado_1045243" data-name="Trazado 1045243" d="M175.049,69.936H170V66.525A2.525,2.525,0,0,1,172.525,64h0a2.525,2.525,0,0,1,2.525,2.525Z" transform="translate(-158.766 -64)" fill="#cbcbcb"/>
        <path id="Trazado_1045244" data-name="Trazado 1045244" d="M81,155.525h0A2.525,2.525,0,0,1,83.525,153h3.412v5.049H83.525A2.525,2.525,0,0,1,81,155.525Z" transform="translate(-81 -141.766)" fill="#cbcbcb"/>
        <path id="Trazado_1045245" data-name="Trazado 1045245" d="M107.807,90.806h0a2.524,2.524,0,0,1,3.57,0l2.412,2.412-3.57,3.57-2.412-2.412A2.525,2.525,0,0,1,107.807,90.806Z" transform="translate(-103.777 -86.776)" fill="#cbcbcb"/>
        <path id="Trazado_1045246" data-name="Trazado 1045246" d="M172.525,240.909h0A2.525,2.525,0,0,1,170,238.385v-3.412h5.049v3.412A2.525,2.525,0,0,1,172.525,240.909Z" transform="translate(-158.766 -213.391)" fill="#cbcbcb"/>
        <path id="Trazado_1045247" data-name="Trazado 1045247" d="M107.806,208.663h0a2.524,2.524,0,0,1,0-3.57l2.412-2.412,3.57,3.57-2.412,2.412A2.525,2.525,0,0,1,107.806,208.663Z" transform="translate(-103.776 -185.175)" fill="#cbcbcb"/>
        <path id="Trazado_1045248" data-name="Trazado 1045248" d="M223.25,96.789l-3.57-3.57,2.412-2.412a2.525,2.525,0,0,1,3.57,0h0a2.525,2.525,0,0,1,0,3.57Z" transform="translate(-202.175 -86.777)" fill="#cbcbcb"/>
        <path id="Trazado_1045249" data-name="Trazado 1045249" d="M251.973,158.049V153h3.412a2.525,2.525,0,0,1,2.525,2.525h0a2.525,2.525,0,0,1-2.525,2.525Z" transform="translate(-230.391 -141.766)" fill="#cbcbcb"/>
        <path id="Trazado_1045250" data-name="Trazado 1045250" d="M219.68,206.25l3.57-3.57,2.412,2.412a2.525,2.525,0,0,1,0,3.57h0a2.525,2.525,0,0,1-3.57,0Z" transform="translate(-202.175 -185.175)" fill="#cbcbcb"/>
      </g>
      <path id="Trazado_1045251" data-name="Trazado 1045251" d="M135.086,105.59a8.836,8.836,0,1,0,0,12.5A8.838,8.838,0,0,0,135.086,105.59Zm-3.392,9.1a4.04,4.04,0,1,1,0-5.713A4.042,4.042,0,0,1,131.695,114.695Z" transform="translate(-40.633 -90.001)" fill="#e5e5e5"/>
      <path id="Trazado_1045252" data-name="Trazado 1045252" d="M249.806,425.274l-6.883,9.786a.5.5,0,0,1-.826,0l-6.879-9.786Z" transform="translate(-141.305 -371.592)" fill="#e59e5f"/>
      <path id="Trazado_1045253" data-name="Trazado 1045253" d="M272.755,468.932l-3.013,4.267a.5.5,0,0,1-.826,0l-3-4.265Z" transform="translate(-168.129 -409.74)" fill="#6e6e6e"/>
      <path id="Trazado_1045254" data-name="Trazado 1045254" d="M259.4,13.983H248.057V10.742A3.242,3.242,0,0,1,251.3,7.5h4.863a3.242,3.242,0,0,1,3.242,3.242v3.242Z" transform="translate(-152.523 -6.553)" fill="#ff7e91"/>
      <path id="Trazado_1045255" data-name="Trazado 1045255" d="M286.048,7.5h-3.787a3.242,3.242,0,0,1,3.242,3.242v3.242h3.787V10.742A3.242,3.242,0,0,0,286.048,7.5Z" transform="translate(-182.409 -6.553)" fill="#ff647a"/>
      <rect id="Rectángulo_418217" data-name="Rectángulo 418217" width="4.863" height="38.796" transform="translate(93.914 14.886)" fill="#ff6242"/>
      <rect id="Rectángulo_418218" data-name="Rectángulo 418218" width="4.863" height="38.796" transform="translate(98.776 14.886)" fill="#cf4c32"/>
      <rect id="Rectángulo_418219" data-name="Rectángulo 418219" width="4.863" height="38.796" transform="translate(103.638 14.886)" fill="#bd452e"/>
      <rect id="Rectángulo_418220" data-name="Rectángulo 418220" width="16.209" height="7.456" transform="translate(93.103 7.43)" fill="#fcd660"/>
      <rect id="Rectángulo_418221" data-name="Rectángulo 418221" width="3.787" height="7.456" transform="translate(105.524 7.43)" fill="#ffbd00"/>
      <g id="Grupo_1205966" data-name="Grupo 1205966" transform="translate(98.683 32.567)">
        <path id="Trazado_1045256" data-name="Trazado 1045256" d="M341.163,262.3H337.5v-2.473a1.83,1.83,0,0,1,1.83-1.83h0a1.83,1.83,0,0,1,1.83,1.83V262.3Z" transform="translate(-329.362 -258.001)" fill="#4ab3db"/>
        <path id="Trazado_1045257" data-name="Trazado 1045257" d="M339.335,386.219h0a1.83,1.83,0,0,1-1.83-1.83v-2.473h3.659v2.473A1.83,1.83,0,0,1,339.335,386.219Z" transform="translate(-329.363 -366.275)" fill="#4ab3db"/>
        <path id="Trazado_1045258" data-name="Trazado 1045258" d="M292.429,362.846h0a1.83,1.83,0,0,1,0-2.588l1.748-1.748,2.588,2.588-1.748,1.748A1.83,1.83,0,0,1,292.429,362.846Z" transform="translate(-289.508 -345.823)" fill="#4ab3db"/>
        <path id="Trazado_1045259" data-name="Trazado 1045259" d="M273,324.335h0a1.83,1.83,0,0,1,1.83-1.83H277.3v3.659H274.83A1.83,1.83,0,0,1,273,324.335Z" transform="translate(-273 -314.363)" fill="#4ab3db"/>
        <path id="Trazado_1045260" data-name="Trazado 1045260" d="M292.429,277.429h0a1.83,1.83,0,0,1,2.588,0l1.748,1.748-2.588,2.588-1.748-1.748A1.83,1.83,0,0,1,292.429,277.429Z" transform="translate(-289.508 -274.509)" fill="#4ab3db"/>
        <path id="Trazado_1045261" data-name="Trazado 1045261" d="M376.1,281.764l-2.588-2.588,1.748-1.748a1.83,1.83,0,0,1,2.588,0h0a1.83,1.83,0,0,1,0,2.588Z" transform="translate(-360.823 -274.508)" fill="#4ab3db"/>
        <path id="Trazado_1045262" data-name="Trazado 1045262" d="M396.916,326.163V322.5h2.473a1.83,1.83,0,0,1,1.83,1.83h0a1.83,1.83,0,0,1-1.83,1.83h-2.473Z" transform="translate(-381.274 -314.362)" fill="#4ab3db"/>
        <path id="Trazado_1045263" data-name="Trazado 1045263" d="M373.511,361.1l2.588-2.588,1.748,1.748a1.83,1.83,0,0,1,0,2.588h0a1.83,1.83,0,0,1-2.588,0Z" transform="translate(-360.824 -345.823)" fill="#4ab3db"/>
      </g>
      <path id="Trazado_1045264" data-name="Trazado 1045264" d="M312.2,288.141a6.4,6.4,0,1,0,0,9.056A6.4,6.4,0,0,0,312.2,288.141Z" transform="translate(-199.015 -250.13)" fill="#67d4fc"/>
      <circle id="Elipse_12651" data-name="Elipse 12651" cx="2.927" cy="2.927" r="2.927" transform="translate(105.727 39.612)" fill="#e5e5e5"/>
      <path id="Trazado_1045265" data-name="Trazado 1045265" d="M140.991,325.217a.947.947,0,1,0,0-1.893h-1.325V322a.947.947,0,1,0-1.893,0v1.325h-1.325a.947.947,0,1,0,0,1.893h1.325v1.325a.947.947,0,1,0,1.893,0v-1.325Z" transform="translate(-54.174 -280.525)"/>
      <path id="Trazado_1045266" data-name="Trazado 1045266" d="M174.788,414.141h-.694v-.694a.947.947,0,1,0-1.893,0v.694h-.694a.947.947,0,1,0,0,1.893h.694v.694a.947.947,0,1,0,1.893,0v-.694h.694a.947.947,0,1,0,0-1.893Z" transform="translate(-84.807 -360.431)"/>
      <path id="Trazado_1045267" data-name="Trazado 1045267" d="M385.347,121.413h1.073v1.073a.947.947,0,0,0,1.893,0v-1.073h1.073a.947.947,0,1,0,0-1.893h-1.073v-1.073a.947.947,0,0,0-1.893,0v1.073h-1.073a.947.947,0,1,0,0,1.893Z" transform="translate(-271.656 -102.668)"/>
      <path id="Trazado_1045268" data-name="Trazado 1045268" d="M267.186,82.789h4.862a.947.947,0,1,0,0-1.893h-4.862a.947.947,0,0,0,0,1.893Z" transform="translate(-168.41 -70.685)"/>
      <path id="Trazado_1045269" data-name="Trazado 1045269" d="M116.8,45.316a2.778,2.778,0,0,0,2.777-2.777,2.78,2.78,0,0,0-2.777-2.777h-1.332l-.031-.075.942-.942a2.777,2.777,0,0,0-3.927-3.927l-.942.942-.075-.031V34.4a2.781,2.781,0,0,0-1.984-2.662V20.7a.947.947,0,1,0-1.893,0V31.852a2.8,2.8,0,0,0-1.676,2.545v1.332l-.075.031-.942-.942a2.772,2.772,0,0,0-.276-.238V15.833h2.969v.892a.947.947,0,1,0,1.893,0v-.9a.946.946,0,0,0,.811-.936V7.43a.947.947,0,0,0-.947-.947h-1.485V4.188A4.193,4.193,0,0,0,103.638,0H98.776a4.193,4.193,0,0,0-4.188,4.188V6.483H93.1a.947.947,0,0,0-.947.947v5.457c-.158-.07-.318-.135-.479-.2V10.6a3.471,3.471,0,0,0-6.943,0V12.69c-.183.069-.364.145-.542.226L82.717,11.44a3.446,3.446,0,0,0-2.455-1.018h0a3.471,3.471,0,0,0-2.454,5.926l1.478,1.478c-.08.178-.153.358-.222.54H76.971a3.471,3.471,0,1,0,0,6.943h2.092c.069.182.142.362.222.54l-1.477,1.477a3.471,3.471,0,1,0,4.908,4.909l1.476-1.476c.179.08.359.156.542.226v2.087a3.471,3.471,0,0,0,6.943,0V30.984q.274-.1.542-.225l.749.749V48.472a.947.947,0,0,0,1.893,0V31.116h0V15.833h2.969V41.825a2.774,2.774,0,0,0,0,1.428v9.482H94.86v-.223a.947.947,0,0,0-1.893,0v1.17c0,.012,0,.023,0,.035s0,.031,0,.046q0,.046.012.092c0,.01,0,.021.006.031a.943.943,0,0,0,.026.094c0,.013.009.026.014.038s.02.048.031.072.011.024.017.035a.91.91,0,0,0,.055.091l.006.011,6.878,9.786a1.453,1.453,0,0,0,1.187.617h0a1.453,1.453,0,0,0,1.187-.617l2.831-4.025.175-.248,0-.007,3.872-5.505.007-.011a.913.913,0,0,0,.055-.091c.006-.012.012-.024.017-.036s.021-.047.03-.071.01-.026.014-.039a.939.939,0,0,0,.025-.092c0-.011,0-.022.007-.033.005-.03.01-.06.012-.091,0-.016,0-.031,0-.046s0-.023,0-.035v-.339a2.781,2.781,0,0,0,1.984-2.661V49.348l.075-.031.942.942a2.777,2.777,0,0,0,3.927-3.927l-.942-.942.031-.075Zm0-3.661a.885.885,0,0,1,.884.884.885.885,0,0,1-.884.884h-.845a7.2,7.2,0,0,0,0-1.767ZM112.513,46.4a5.482,5.482,0,0,1-1.234.928c-.023.011-.045.024-.068.038a5.38,5.38,0,0,1-.984.4l-.029.008a5.5,5.5,0,0,1-3.088,0l-.028-.008a5.375,5.375,0,0,1-.985-.4c-.022-.013-.044-.026-.067-.037a5.492,5.492,0,0,1-2.162-2.162c-.012-.023-.024-.046-.038-.069a5.38,5.38,0,0,1-.4-.984c0-.01,0-.019-.008-.029a5.5,5.5,0,0,1,0-3.087c0-.009.005-.019.008-.028a5.382,5.382,0,0,1,.4-.984c.014-.022.027-.045.038-.068a5.494,5.494,0,0,1,2.162-2.162c.023-.011.045-.024.068-.037a5.383,5.383,0,0,1,.984-.4l.029-.008a5.5,5.5,0,0,1,3.088,0l.028.008a5.375,5.375,0,0,1,.985.4c.022.013.044.026.067.037a5.492,5.492,0,0,1,2.162,2.162c.012.023.024.046.038.069a5.38,5.38,0,0,1,.4.984c0,.01,0,.019.008.029a5.5,5.5,0,0,1,0,3.088c0,.009-.005.019-.008.029a5.385,5.385,0,0,1-.4.984c-.014.023-.027.045-.038.069a5.476,5.476,0,0,1-.927,1.234Zm-8.992,2.523a.883.883,0,1,1-1.249-1.249l.6-.6a7.211,7.211,0,0,0,1.249,1.249Zm-2.163-5.5h-.845a.884.884,0,0,1-.79-.491v-.786a.884.884,0,0,1,.79-.491h.845a7.2,7.2,0,0,0,0,1.767ZM99.723,45.2a2.764,2.764,0,0,0,.79.115h1.332l.031.075-.942.942a2.773,2.773,0,0,0,1.758,4.729v1.673H99.723V45.2Zm7.071,7.534h-2.209V50.5a2.8,2.8,0,0,0,.276-.238l.942-.942.075.031v1.332A2.777,2.777,0,0,0,106.794,52.734Zm6.993-16.577a.883.883,0,0,1,1.249,1.249l-.6.6a7.211,7.211,0,0,0-1.249-1.249Zm-6.017-1.76a.886.886,0,0,1,.8-.88c.027,0,.055,0,.082,0a.885.885,0,0,1,.884.884v.845a7.2,7.2,0,0,0-1.767,0Zm-4.314,2.944a7.488,7.488,0,0,0-.586.663l-.6-.6a.883.883,0,1,1,1.249-1.249l.6.6A7.485,7.485,0,0,0,103.457,37.341ZM96.481,4.188a2.3,2.3,0,0,1,2.3-2.3h4.862a2.3,2.3,0,0,1,2.3,2.3V6.483H96.481Zm-.947,4.188h12.83v5.562H94.05V8.377Zm-5.1,21.03a7.889,7.889,0,1,1,.009-15.135l.006,0a7.836,7.836,0,0,1,1.715.741.946.946,0,0,0,.8.807v4.53a4.981,4.981,0,1,0,0,2.971v4.8A7.84,7.84,0,0,1,90.458,29.4Zm.862-7.569a3.072,3.072,0,0,1-.906,2.187h0a3.092,3.092,0,1,1,.906-2.187ZM86.628,10.6a1.578,1.578,0,0,1,3.156,0v1.581a9.682,9.682,0,0,0-3.156,0Zm-7.482,4.406a1.577,1.577,0,1,1,2.231-2.23L82.5,13.9a9.668,9.668,0,0,0-2.231,2.23Zm-2.175,8.406a1.578,1.578,0,1,1,0-3.156h1.586a9.869,9.869,0,0,0,0,3.156ZM81.377,30.9a1.577,1.577,0,1,1-2.23-2.231l1.117-1.117a9.665,9.665,0,0,0,2.231,2.23Zm8.406,2.175a1.578,1.578,0,0,1-3.156,0V31.49a9.831,9.831,0,0,0,1.2.122q.191.007.381.007a9.82,9.82,0,0,0,1.576-.129v1.581Zm12.908-17.239V34.016a2.773,2.773,0,0,0-1.758,4.729l.942.942-.031.075h-1.332a2.765,2.765,0,0,0-.79.115V15.833ZM99.611,60.14H102.8L101.2,62.4Zm4.522-1.894H98.28l-2.544-3.619h10.942Zm5.4-7.565a.885.885,0,0,1-.884.884c-.028,0-.055,0-.075,0a.888.888,0,0,1-.808-.881v-.845a7.2,7.2,0,0,0,1.767,0Zm5.5-3.009a.883.883,0,0,1-1.249,1.249l-.6-.6a7.212,7.212,0,0,0,1.249-1.249Z"/>
      <path id="Trazado_1045270" data-name="Trazado 1045270" d="M327.922,307.443a3.874,3.874,0,1,0,0,5.479h0a3.874,3.874,0,0,0,0-5.479Zm-1.339,4.14h0a1.981,1.981,0,1,1,.58-1.4A1.968,1.968,0,0,1,326.583,311.583Z" transform="translate(-216.528 -267.643)"/>
    </g>
  </g>
</svg>
