<svg xmlns="http://www.w3.org/2000/svg" width="96.97" height="40.034" viewBox="0 0 96.97 40.034">
  <g id="Grupo_1206028" data-name="Grupo 1206028" transform="translate(-4642.389 -2977.932)">
    <path id="Trazado_1045526" data-name="Trazado 1045526" d="M-8.874,0h-1.512l2.663-12.6h1.529Zm4.88-6.53V-7.708H4.267V-6.53Zm0,3.744V-3.964H4.267v1.178Z" transform="translate(4652.775 3004.747)" fill="#212429"/>
    <path id="Trazado_1045527" data-name="Trazado 1045527" d="M12.094,0H10.626l1.793-8.455q.105-.5.272-1.138t.387-1.367h-.035q-.105.211-.264.47t-.33.5q-.171.242-.312.435t-.2.29L7.427-3.287H6.706L4.737-9.246a2.182,2.182,0,0,0-.083-.3q-.066-.2-.127-.439t-.11-.5a2.557,2.557,0,0,1-.048-.475H4.333q-.053.378-.171,1.02t-.294,1.5L2.074,0H.65L3.322-12.6H5.08l2,5.994a7.193,7.193,0,0,1,.207.738,4.227,4.227,0,0,1,.092.6h.053q.141-.264.343-.615a6.511,6.511,0,0,1,.519-.756L12.814-12.6h1.951ZM21.9,0h-6.53l2.663-12.6h1.529L17.176-1.371h5.019ZM27.7-11.721a1,1,0,0,0-.295-.766,1.154,1.154,0,0,0-.818-.274,2.574,2.574,0,0,0-1,.21,3.228,3.228,0,0,0-.938.61l.21-.943a2.723,2.723,0,0,1,.889-.461,3.813,3.813,0,0,1,1.043-.128,1.9,1.9,0,0,1,1.307.433,1.483,1.483,0,0,1,.487,1.166,2.664,2.664,0,0,1-.213,1.1,2.923,2.923,0,0,1-.679.915,9.052,9.052,0,0,1-1.364,1q-.815.508-1.238.836a3.3,3.3,0,0,0-.628.6,1.744,1.744,0,0,0-.292.661H27.8L27.641-6H23.1l.077-.364a3.545,3.545,0,0,1,.4-1.066,3.655,3.655,0,0,1,.741-.866A12.637,12.637,0,0,1,25.79-9.353a8.734,8.734,0,0,0,1.13-.82,2.657,2.657,0,0,0,.592-.713A1.764,1.764,0,0,0,27.7-11.721Z" transform="translate(4710.775 3004.747)" fill="#212429"/>
    <path id="Trazado_1045528" data-name="Trazado 1045528" d="M-.809,0,1.538-10.978l-3.111.844.308-1.389,4.623-1.292L.65,0Z" transform="translate(4681.799 2990.747)" fill="#212429"/>
    <path id="Trazado_1045529" data-name="Trazado 1045529" d="M4.386-9.993a3.691,3.691,0,0,1-.193,1.2A2.92,2.92,0,0,1,3.586-7.77a3.649,3.649,0,0,1-1.055.787A5.424,5.424,0,0,1,1-6.5v.035a2.933,2.933,0,0,1,.967.316,2.646,2.646,0,0,1,.751.6A2.645,2.645,0,0,1,3.2-4.72a2.905,2.905,0,0,1,.171,1.011A3.968,3.968,0,0,1,3.085-2.2,3.392,3.392,0,0,1,2.2-.949,4.356,4.356,0,0,1,.716-.1,6.273,6.273,0,0,1-1.38.22,6.767,6.767,0,0,1-2.329.154,8.758,8.758,0,0,1-3.2-.013a6.943,6.943,0,0,1-.751-.229A4.8,4.8,0,0,1-4.544-.5l.308-1.371a4.673,4.673,0,0,0,.567.316,5.216,5.216,0,0,0,.712.277,6.646,6.646,0,0,0,.8.193,4.707,4.707,0,0,0,.831.075A4.616,4.616,0,0,0,.22-1.235a2.767,2.767,0,0,0,1-.589,2.065,2.065,0,0,0,.536-.835,3,3,0,0,0,.158-.962,2,2,0,0,0-.773-1.657A3.734,3.734,0,0,0-1.2-5.889h-.958l.272-1.239H-.835A6.343,6.343,0,0,0,.778-7.312a3.579,3.579,0,0,0,1.173-.523,2.227,2.227,0,0,0,.716-.822,2.384,2.384,0,0,0,.242-1.081,2.08,2.08,0,0,0-.123-.716,1.541,1.541,0,0,0-.382-.589,1.9,1.9,0,0,0-.65-.4,2.625,2.625,0,0,0-.936-.149,5.378,5.378,0,0,0-.857.066,6.322,6.322,0,0,0-.769.171,5.912,5.912,0,0,0-.668.237,5.97,5.97,0,0,0-.545.264l.3-1.441q.229-.088.51-.18a6.337,6.337,0,0,1,.624-.167q.343-.075.756-.123a7.822,7.822,0,0,1,.905-.048,4.126,4.126,0,0,1,1.512.246,3.009,3.009,0,0,1,1.028.646,2.442,2.442,0,0,1,.589.905A2.965,2.965,0,0,1,4.386-9.993Z" transform="translate(4681.799 3017.747)" fill="#212429"/>
    <path id="Trazado_1044226" data-name="Trazado 1044226" d="M-224.024,3514.064h39.314" transform="translate(4886.799 -514.318)" fill="none" stroke="#212429" stroke-width="1"/>
  </g>
</svg>
