<svg xmlns="http://www.w3.org/2000/svg" xmlns:xlink="http://www.w3.org/1999/xlink" width="118" height="118" viewBox="0 0 118 118">
  <defs>
    <filter id="Trazado_982547" x="0" y="0" width="118" height="118" filterUnits="userSpaceOnUse">
      <feOffset dy="3" input="SourceAlpha"/>
      <feGaussianBlur stdDeviation="3" result="blur"/>
      <feFlood flood-opacity="0.161"/>
      <feComposite operator="in" in2="blur"/>
      <feComposite in="SourceGraphic"/>
    </filter>
  </defs>
  <g id="Grupo_1205961" data-name="Grupo 1205961" transform="translate(-321 -1158.043)">
    <g id="Grupo_1205559" data-name="Grupo 1205559" transform="translate(0 468.043)">
      <g id="Grupo_1180389" data-name="Grupo 1180389" transform="translate(0 -566)">
        <g id="Grupo_1179138" data-name="Grupo 1179138" transform="translate(-2.5 571)">
          <g id="Grupo_1177984" data-name="Grupo 1177984" transform="translate(332.5 691)">
            <g id="Grupo_1177679" data-name="Grupo 1177679">
              <g id="Grupo_1172010" data-name="Grupo 1172010">
                <g id="Grupo_1171046" data-name="Grupo 1171046">
                  <g id="Grupo_1148525" data-name="Grupo 1148525">
                    <g transform="matrix(1, 0, 0, 1, -9, -6)" filter="url(#Trazado_982547)">
                      <g id="Trazado_982547-2" data-name="Trazado 982547" transform="translate(9 6)" fill="#fbedfe">
                        <path d="M 50 98.5 C 43.45188522338867 98.5 37.10042953491211 97.21787261962891 31.12207221984863 94.68923950195312 C 25.34691429138184 92.24655914306641 20.15997123718262 88.74931335449219 15.70532894134521 84.29468536376953 C 11.2506856918335 79.84004211425781 7.753442764282227 74.65309906005859 5.310757160186768 68.8779296875 C 2.782128572463989 62.89957046508789 1.5 56.54811477661133 1.5 50 C 1.5 43.45188522338867 2.782128572463989 37.10042953491211 5.310757160186768 31.12207221984863 C 7.753442764282227 25.34691429138184 11.2506856918335 20.15997123718262 15.70532894134521 15.70532894134521 C 20.15997123718262 11.2506856918335 25.34691429138184 7.753442764282227 31.12207221984863 5.310757160186768 C 37.10042953491211 2.782128572463989 43.45188522338867 1.5 50 1.5 C 56.54811477661133 1.5 62.89957046508789 2.782128572463989 68.8779296875 5.310757160186768 C 74.65309906005859 7.753442764282227 79.84004211425781 11.2506856918335 84.29468536376953 15.70532894134521 C 88.74931335449219 20.15997123718262 92.24655914306641 25.34691429138184 94.68923950195312 31.12207221984863 C 97.21787261962891 37.10042953491211 98.5 43.45188522338867 98.5 50 C 98.5 56.54811477661133 97.21787261962891 62.89957046508789 94.68923950195312 68.8779296875 C 92.24655914306641 74.65309906005859 88.74931335449219 79.84004211425781 84.29468536376953 84.29468536376953 C 79.84004211425781 88.74931335449219 74.65309906005859 92.24655914306641 68.8779296875 94.68923950195312 C 62.89957046508789 97.21787261962891 56.54811477661133 98.5 50 98.5 Z" stroke="none"/>
                        <path d="M 50 3 C 43.65372467041016 3 37.49886322021484 4.242263793945312 31.70639801025391 6.6922607421875 C 26.11003112792969 9.059326171875 21.08335113525391 12.44861602783203 16.76598358154297 16.76598358154297 C 12.44861602783203 21.08335113525391 9.059326171875 26.11003112792969 6.6922607421875 31.70639801025391 C 4.242263793945312 37.49886322021484 3 43.65372467041016 3 50 C 3 56.34627532958984 4.242263793945312 62.50113677978516 6.6922607421875 68.29360198974609 C 9.059326171875 73.88996887207031 12.44861602783203 78.91666412353516 16.76598358154297 83.23401641845703 C 21.08335113525391 87.55138397216797 26.11003112792969 90.940673828125 31.70639801025391 93.3077392578125 C 37.49886322021484 95.75773620605469 43.65372467041016 97 50 97 C 56.34627532958984 97 62.50113677978516 95.75773620605469 68.29360198974609 93.3077392578125 C 73.88996887207031 90.940673828125 78.91666412353516 87.55138397216797 83.23401641845703 83.23401641845703 C 87.55138397216797 78.91666412353516 90.940673828125 73.88996887207031 93.3077392578125 68.29360198974609 C 95.75773620605469 62.50113677978516 97 56.34627532958984 97 50 C 97 43.65372467041016 95.75773620605469 37.49886322021484 93.3077392578125 31.70639801025391 C 90.940673828125 26.11003112792969 87.55138397216797 21.08335113525391 83.23401641845703 16.76598358154297 C 78.91666412353516 12.44861602783203 73.88996887207031 9.059326171875 68.29360198974609 6.6922607421875 C 62.50113677978516 4.242263793945312 56.34627532958984 3 50 3 M 50 0 C 77.61424255371094 0 100 22.38577270507812 100 50 C 100 77.61424255371094 77.61424255371094 100 50 100 C 22.38577270507812 100 0 77.61424255371094 0 50 C 0 22.38577270507812 22.38577270507812 0 50 0 Z" stroke="none" fill="#e25cfa"/>
                      </g>
                    </g>
                  </g>
                </g>
              </g>
            </g>
          </g>
        </g>
      </g>
    </g>
    <g id="Page-1" transform="translate(350 1184)">
      <g id="_036---Graph-Length" data-name="036---Graph-Length">
        <g id="Icons_copy" transform="translate(1 1)">
          <rect id="Rectangle-path" width="58" height="5" rx="2.5" transform="translate(0 53)" fill="#ff9801"/>
          <path id="Shape" d="M55.5,53h-3a2.5,2.5,0,0,1,0,5h3a2.5,2.5,0,0,0,0-5Z" fill="#f57c00"/>
          <circle id="Oval" cx="4" cy="4" r="4" transform="translate(0 30)" fill="#ffdc00"/>
          <path id="Shape-2" data-name="Shape" d="M4,30a3.984,3.984,0,0,0-1.5.3,3.992,3.992,0,0,1,0,7.406A4,4,0,1,0,4,30Z" fill="#fec108"/>
          <circle id="Oval-2" data-name="Oval" cx="4" cy="4" r="4" transform="translate(50)" fill="#ffdc00"/>
          <path id="Shape-3" data-name="Shape" d="M54,0a3.984,3.984,0,0,0-1.5.3,3.992,3.992,0,0,1,0,7.406A4,4,0,1,0,54,0Z" fill="#fec108"/>
          <path id="Shape-4" data-name="Shape" d="M36,38a2,2,0,0,1-2,2H25a3,3,0,0,1-3-3V26a2,2,0,0,1,4,0V36h8A2,2,0,0,1,36,38Z" fill="#02a9f4"/>
          <path id="Shape-5" data-name="Shape" d="M34,36H31a2,2,0,0,1,0,4h3a2,2,0,0,0,0-4Z" fill="#0377bc"/>
        </g>
        <g id="Icons">
          <path id="Shape-6" data-name="Shape" d="M56.5,53H3.5a3.5,3.5,0,0,0,0,7h53a3.5,3.5,0,0,0,0-7Zm0,5H3.5a1.5,1.5,0,0,1,0-3h53a1.5,1.5,0,0,1,0,3Z"/>
          <path id="Shape-7" data-name="Shape" d="M55,0a5,5,0,0,0-1.933,9.61C51.018,13.814,42.547,19,30,19,16.734,19,7.118,24.468,4.924,30.008a4.982,4.982,0,1,0,2.009.382C8.982,26.186,17.453,21,30,21c13.266,0,22.882-5.468,25.076-11.008A5,5,0,0,0,55,0ZM8,35a3,3,0,1,1-.879-2.121A3,3,0,0,1,8,35ZM55,8a3,3,0,1,1,2.121-.879A3,3,0,0,1,55,8Z"/>
          <path id="Shape-8" data-name="Shape" d="M15.868,41.5a1,1,0,0,0-1.364-.372l-7,4a1,1,0,0,0,0,1.736l7,4a1,1,0,1,0,.992-1.736L11.766,47H48.234L44.5,49.132A1,1,0,0,0,45,51a.988.988,0,0,0,.5-.132l7-4a1,1,0,0,0,0-1.736l-7-4a1,1,0,1,0-.992,1.736L48.234,45H11.766l3.73-2.132a1,1,0,0,0,.372-1.368Z"/>
          <path id="Shape-9" data-name="Shape" d="M25,24a3,3,0,0,0-3,3V38a4,4,0,0,0,4,4h9a3,3,0,0,0,0-6H28V27A3,3,0,0,0,25,24ZM35,38a1,1,0,0,1,0,2H26a2,2,0,0,1-2-2V27a1,1,0,0,1,2,0V37a1,1,0,0,0,1,1Z"/>
          <path id="Shape-10" data-name="Shape" d="M58,50V13a1,1,0,0,0-2,0V50a1,1,0,0,0,2,0Z"/>
          <path id="Shape-11" data-name="Shape" d="M4,50V43a1,1,0,0,0-2,0v7a1,1,0,0,0,2,0Z"/>
        </g>
      </g>
    </g>
  </g>
</svg>
