<svg xmlns="http://www.w3.org/2000/svg" width="96.97" height="39.814" viewBox="0 0 96.97 39.814">
  <g id="Grupo_1206029" data-name="Grupo 1206029" transform="translate(-4642.389 -3474.932)">
    <path id="Trazado_1045530" data-name="Trazado 1045530" d="M-8.874,0h-1.512l2.663-12.6h1.529Zm4.88-6.53V-7.708H4.267V-6.53Zm0,3.744V-3.964H4.267v1.178Z" transform="translate(4652.775 3501.747)" fill="#212429"/>
    <path id="Trazado_1045531" data-name="Trazado 1045531" d="M12.094,0H10.626l1.793-8.455q.105-.5.272-1.138t.387-1.367h-.035q-.105.211-.264.47t-.33.5q-.171.242-.312.435t-.2.29L7.427-3.287H6.706L4.737-9.246a2.182,2.182,0,0,0-.083-.3q-.066-.2-.127-.439t-.11-.5a2.557,2.557,0,0,1-.048-.475H4.333q-.053.378-.171,1.02t-.294,1.5L2.074,0H.65L3.322-12.6H5.08l2,5.994a7.193,7.193,0,0,1,.207.738,4.227,4.227,0,0,1,.092.6h.053q.141-.264.343-.615a6.511,6.511,0,0,1,.519-.756L12.814-12.6h1.951ZM21.9,0h-6.53l2.663-12.6h1.529L17.176-1.371h5.019ZM27.7-11.721a1,1,0,0,0-.295-.766,1.154,1.154,0,0,0-.818-.274,2.574,2.574,0,0,0-1,.21,3.228,3.228,0,0,0-.938.61l.21-.943a2.723,2.723,0,0,1,.889-.461,3.813,3.813,0,0,1,1.043-.128,1.9,1.9,0,0,1,1.307.433,1.483,1.483,0,0,1,.487,1.166,2.664,2.664,0,0,1-.213,1.1,2.923,2.923,0,0,1-.679.915,9.052,9.052,0,0,1-1.364,1q-.815.508-1.238.836a3.3,3.3,0,0,0-.628.6,1.744,1.744,0,0,0-.292.661H27.8L27.641-6H23.1l.077-.364a3.545,3.545,0,0,1,.4-1.066,3.655,3.655,0,0,1,.741-.866A12.637,12.637,0,0,1,25.79-9.353a8.734,8.734,0,0,0,1.13-.82,2.657,2.657,0,0,0,.592-.713A1.764,1.764,0,0,0,27.7-11.721Z" transform="translate(4710.775 3501.747)" fill="#212429"/>
    <path id="Trazado_1045532" data-name="Trazado 1045532" d="M-.809,0,1.538-10.978l-3.111.844.308-1.389,4.623-1.292L.65,0Z" transform="translate(4681.799 3487.747)" fill="#212429"/>
    <path id="Trazado_1045533" data-name="Trazado 1045533" d="M-5.661,0l2.347-10.978-3.111.844.308-1.389L-1.5-12.814-4.2,0ZM7.955-9.809a1.706,1.706,0,0,0-.505-1.314,1.979,1.979,0,0,0-1.4-.47,4.413,4.413,0,0,0-1.714.36,5.535,5.535,0,0,0-1.608,1.046l.36-1.617a4.669,4.669,0,0,1,1.525-.791,6.537,6.537,0,0,1,1.789-.22,3.249,3.249,0,0,1,2.241.743,2.542,2.542,0,0,1,.835,2,4.566,4.566,0,0,1-.365,1.885A5.012,5.012,0,0,1,7.946-6.618,15.519,15.519,0,0,1,5.608-4.9q-1.4.87-2.123,1.433A5.661,5.661,0,0,0,2.409-2.426a2.989,2.989,0,0,0-.5,1.134H8.131L7.858,0H.08L.212-.624A6.077,6.077,0,0,1,.893-2.452a6.266,6.266,0,0,1,1.27-1.485A21.664,21.664,0,0,1,4.685-5.748,14.974,14.974,0,0,0,6.623-7.154,4.554,4.554,0,0,0,7.639-8.376,3.024,3.024,0,0,0,7.955-9.809Z" transform="translate(4681.799 3514.747)" fill="#212429"/>
    <path id="Trazado_1044226" data-name="Trazado 1044226" d="M-224.024,3514.064h39.314" transform="translate(4886.799 -17.318)" fill="none" stroke="#212429" stroke-width="1"/>
  </g>
</svg>
