<svg xmlns="http://www.w3.org/2000/svg" xmlns:xlink="http://www.w3.org/1999/xlink" width="108" height="108" viewBox="0 0 108 108">
  <defs>
    <filter id="Trazado_904820" x="0" y="0" width="108" height="108" filterUnits="userSpaceOnUse">
      <feOffset dy="3" input="SourceAlpha"/>
      <feGaussianBlur stdDeviation="3" result="blur"/>
      <feFlood flood-opacity="0.161"/>
      <feComposite operator="in" in2="blur"/>
      <feComposite in="SourceGraphic"/>
    </filter>
    <clipPath id="clip-path">
      <path id="path7887" d="M0-682.665H57.332v57.332H0Z" transform="translate(0 682.665)"/>
    </clipPath>
  </defs>
  <g id="Grupo_1206003" data-name="Grupo 1206003" transform="translate(-200 -2312)">
    <g id="Grupo_1205948" data-name="Grupo 1205948" transform="translate(209 2318)">
      <g id="Grupo_1173585" data-name="Grupo 1173585" transform="translate(0 0)">
        <g id="Grupo_1173428" data-name="Grupo 1173428">
          <g id="Grupo_1171958" data-name="Grupo 1171958">
            <g id="Grupo_1167341" data-name="Grupo 1167341">
              <g id="Grupo_1166792" data-name="Grupo 1166792">
                <g transform="matrix(1, 0, 0, 1, -9, -6)" filter="url(#Trazado_904820)">
                  <g id="Trazado_904820-2" data-name="Trazado 904820" transform="translate(9 6)" fill="#fef9e7">
                    <path d="M 44.99999618530273 88.50006866455078 C 39.12687301635742 88.50006866455078 33.43022155761719 87.35014343261719 28.06829643249512 85.08223724365234 C 22.88852119445801 82.89137268066406 18.23629570007324 79.75466156005859 14.24084663391113 75.75919342041016 C 10.24540901184082 71.76374816894531 7.108683586120605 67.11151885986328 4.917821407318115 61.93174743652344 C 2.649921178817749 56.56980895996094 1.499996185302734 50.8731575012207 1.499996185302734 45.00003433227539 C 1.499996185302734 39.12691116333008 2.649921178817749 33.43024826049805 4.917821407318115 28.06830978393555 C 7.108683586120605 22.88853454589844 10.24540901184082 18.23630905151367 14.24084663391113 14.24085903167725 C 18.23629570007324 10.24540901184082 22.88852119445801 7.108684539794922 28.06829643249512 4.917834281921387 C 33.43022155761719 2.649921894073486 39.12687301635742 1.499996781349182 44.99999618530273 1.499996781349182 C 50.87311935424805 1.499996781349182 56.56977081298828 2.649921894073486 61.93169784545898 4.917834281921387 C 67.11147308349609 7.108684539794922 71.76369476318359 10.24540901184082 75.75914764404297 14.24085903167725 C 79.75458526611328 18.23630905151367 82.89131164550781 22.88853454589844 85.08216857910156 28.06830978393555 C 87.35007476806641 33.43024826049805 88.5 39.12691116333008 88.5 45.00003433227539 C 88.5 50.8731575012207 87.35007476806641 56.56980895996094 85.08216857910156 61.93174743652344 C 82.89131164550781 67.11151885986328 79.75458526611328 71.76374816894531 75.75914764404297 75.75919342041016 C 71.76369476318359 79.75466156005859 67.11147308349609 82.89137268066406 61.93169784545898 85.08223724365234 C 56.56977081298828 87.35014343261719 50.87311935424805 88.50006866455078 44.99999618530273 88.50006866455078 Z" stroke="none"/>
                    <path d="M 44.99999618530273 2.999992370605469 C 39.32870864868164 2.999992370605469 33.82865142822266 4.11004638671875 28.65262603759766 6.299331665039062 C 23.65165710449219 8.414566040039062 19.15968322753906 11.44335174560547 15.301513671875 15.30152130126953 C 11.44333648681641 19.15970611572266 8.414566040039062 23.65166473388672 6.299339294433594 28.65264892578125 C 4.110054016113281 33.82868957519531 2.999992370605469 39.3287467956543 2.999992370605469 45.00003433227539 C 2.999992370605469 50.67132186889648 4.110054016113281 56.17137908935547 6.299339294433594 61.34741973876953 C 8.414566040039062 66.348388671875 11.44333648681641 70.84036254882812 15.301513671875 74.69853210449219 C 19.15968322753906 78.55671691894531 23.65165710449219 81.58549499511719 28.65262603759766 83.70072174072266 C 33.82865142822266 85.89000701904297 39.32870864868164 87.00006103515625 44.99999618530273 87.00006103515625 C 50.67128372192383 87.00006103515625 56.17134094238281 85.89000701904297 61.34736633300781 83.70072174072266 C 66.34834289550781 81.58549499511719 70.84030914306641 78.55671691894531 74.69847869873047 74.69853210449219 C 78.55665588378906 70.84036254882812 81.58542633056641 66.348388671875 83.70065307617188 61.34741973876953 C 85.88993835449219 56.17137908935547 87 50.67132186889648 87 45.00003433227539 C 87 39.3287467956543 85.88993835449219 33.82868957519531 83.70065307617188 28.65264892578125 C 81.58542633056641 23.65166473388672 78.55665588378906 19.15970611572266 74.69847869873047 15.30152130126953 C 70.84030914306641 11.44335174560547 66.34834289550781 8.414566040039062 61.34736633300781 6.299331665039062 C 56.17134094238281 4.11004638671875 50.67128372192383 2.999992370605469 44.99999618530273 2.999992370605469 M 44.99999618530273 -7.62939453125e-06 C 69.85281372070312 -7.62939453125e-06 90 20.14720916748047 90 45.00003433227539 C 90 69.85285949707031 69.85281372070312 90.00006103515625 44.99999618530273 90.00006103515625 C 20.14717864990234 90.00006103515625 -7.62939453125e-06 69.85285949707031 -7.62939453125e-06 45.00003433227539 C -7.62939453125e-06 20.14720916748047 20.14717864990234 -7.62939453125e-06 44.99999618530273 -7.62939453125e-06 Z" stroke="none" fill="#887013"/>
                  </g>
                </g>
              </g>
            </g>
          </g>
        </g>
      </g>
    </g>
    <g id="g7881" transform="translate(225.334 3020.332)">
      <g id="g7883" transform="translate(0 -682.665)">
        <g id="g7885" clip-path="url(#clip-path)">
          <g id="g7891" transform="translate(0.84 7.853)">
            <path id="path7893" d="M0,0S21.661.057,27.824,20.815H0Z" fill="#fba65c"/>
          </g>
          <g id="g7895" transform="translate(28.668 28.663)">
            <path id="path7897" d="M-303.481-227.039s-21.661-.057-27.824-20.815h27.824Z" transform="translate(331.305 247.854)" fill="#fba65c"/>
          </g>
          <g id="g7899" transform="translate(0.84 7.853)">
            <path id="path7901" d="M0,0V.223c6.011.79,19.5,4.369,24.319,20.592h3.5C21.661.057,0,0,0,0" transform="translate(0 0)" fill="#fb9538"/>
          </g>
          <g id="g7903" transform="translate(53.777 28.663)">
            <path id="path7905" d="M0,0V20.592a23.581,23.581,0,0,0,2.715.224V0Z" fill="#fb9538"/>
          </g>
          <g id="g7907" transform="translate(28.666 0.84)">
            <path id="path7909" d="M0,0V55.652" fill="none" stroke="#000" stroke-linecap="round" stroke-linejoin="round" stroke-miterlimit="10" stroke-width="1.5"/>
          </g>
          <g id="g7911" transform="translate(0.84 28.666)">
            <path id="path7913" d="M-607.013,0h-55.652" transform="translate(662.665)" fill="none" stroke="#000" stroke-linecap="round" stroke-linejoin="round" stroke-miterlimit="10" stroke-width="1.5"/>
          </g>
          <g id="g7915" transform="translate(28.668 28.663)">
            <path id="path7917" d="M0,0C6.162,20.759,27.824,20.815,27.824,20.815h0" fill="none" stroke="#000" stroke-linecap="round" stroke-linejoin="round" stroke-miterlimit="10" stroke-width="1.5"/>
          </g>
          <g id="g7919" transform="translate(0.84 7.853)">
            <path id="path7921" d="M0,0H0" fill="none" stroke="#000" stroke-linecap="round" stroke-linejoin="round" stroke-miterlimit="10" stroke-width="1.5"/>
          </g>
          <g id="g7923" transform="translate(14.701 11.536)">
            <path id="path7925" d="M0,0A27.38,27.38,0,0,1,13.962,17.132" fill="none" stroke="#000" stroke-linecap="round" stroke-linejoin="round" stroke-miterlimit="10" stroke-width="1.5"/>
          </g>
          <g id="g7927" transform="translate(0.84 7.853)">
            <path id="path7929" d="M-.051,0h0A32.9,32.9,0,0,1,10.1,2.055" transform="translate(0.056)" fill="none" stroke="#000" stroke-linecap="round" stroke-linejoin="round" stroke-miterlimit="10" stroke-width="1.5"/>
          </g>
          <g id="g7931" transform="translate(33.959 0.84)">
            <path id="path7933" d="M-177.277,0a8.311,8.311,0,0,0-8.115,6.626l-.422,2.07h-4.092v4.141h3.247l-1.183,5.8a2.078,2.078,0,0,1-2.029,1.656h-3.659v4.141h3.659a6.233,6.233,0,0,0,6.086-4.97l1.352-6.625h4.95V8.7h-4.1l.254-1.242a4.155,4.155,0,0,1,4.057-3.313h1.968V0Z" transform="translate(193.53)" fill="#fc8086"/>
          </g>
          <path id="path7935" d="M570.12-564.974h2.126v-4.141H570.12Z" transform="translate(-522.24 578.651)" fill="#fa4954"/>
          <g id="g7937" transform="translate(35.492 13.677)">
            <path id="path7939" d="M-66.384-72.266A6.233,6.233,0,0,1-72.47-67.3h2.126a6.212,6.212,0,0,0,6.086-4.97l1.352-6.625h-.279a2.262,2.262,0,0,0-2.217,1.81Z" transform="translate(72.47 78.892)" fill="#fa4954"/>
          </g>
          <g id="g7941" transform="translate(50.054 0.84)">
            <path id="path7943" d="M-1.726,0c-.053,0-.105,0-.158,0V4.145c.053,0,.105,0,.158,0H.242V0Z" transform="translate(1.884)" fill="#fa4954"/>
          </g>
          <g id="g7945" transform="translate(33.959 0.84)">
            <path id="path7947" d="M-90.648-64.728q-.1.34-.173.692l-.422,2.07h-4.092v4.141h3.247l-1.183,5.8A2.078,2.078,0,0,1-95.3-50.371h-3.659v4.141H-95.3a6.233,6.233,0,0,0,6.086-4.97l1.352-6.625h4.95v-4.141h-4.1l.254-1.242a4.155,4.155,0,0,1,4.057-3.313h1.968v-4.141h-1.968a8.289,8.289,0,0,0-5.918,2.5" transform="translate(98.958 70.662)" fill="none" stroke="#000" stroke-linecap="round" stroke-linejoin="round" stroke-miterlimit="10" stroke-width="1.5"/>
          </g>
        </g>
      </g>
    </g>
  </g>
</svg>
