<svg xmlns="http://www.w3.org/2000/svg" width="101.145" height="37.885" viewBox="0 0 101.145 37.885">
  <g id="Grupo_1206030" data-name="Grupo 1206030" transform="translate(-316.214 -92.115)">
    <path id="Contenido" d="M6.363,0H4.922V-10.89a3.336,3.336,0,0,1-.488.382,7.951,7.951,0,0,1-.721.426q-.4.211-.844.4A6.132,6.132,0,0,1,2-9.4v-1.459A8.379,8.379,0,0,0,3.01-11.21q.532-.224,1.046-.5t.971-.58a7.71,7.71,0,0,0,.791-.593h.545Z" transform="translate(362.718 105)" fill="#212429"/>
    <path id="Contenido-2" data-name="Contenido" d="M9.413-11.268H4.553l-.914,4.3h4.5l-.29,1.336h-4.5l-.923,4.3H7.594L7.33,0H.65L3.313-12.6H9.7Zm4,1.059a1.93,1.93,0,0,0-.52-.32,1.694,1.694,0,0,0-.674-.131,1.593,1.593,0,0,0-.638.123,1.761,1.761,0,0,0-.5.328,2.129,2.129,0,0,0-.379.472,3.145,3.145,0,0,0-.261.554,3.408,3.408,0,0,0-.151.572,3.156,3.156,0,0,0-.049.531,1.675,1.675,0,0,0,.323,1.112,1.1,1.1,0,0,0,.882.379,1.941,1.941,0,0,0,.7-.141,3.38,3.38,0,0,0,.687-.361l-.179.841a3.6,3.6,0,0,1-.664.279,2.406,2.406,0,0,1-.7.1,1.988,1.988,0,0,1-.838-.164,1.642,1.642,0,0,1-.592-.451A1.933,1.933,0,0,1,9.5-7.166a2.934,2.934,0,0,1-.118-.848,4.144,4.144,0,0,1,.087-.848,3.654,3.654,0,0,1,.259-.79,3.424,3.424,0,0,1,.423-.69,2.727,2.727,0,0,1,.577-.546,2.738,2.738,0,0,1,.725-.359,2.773,2.773,0,0,1,.866-.131,2.764,2.764,0,0,1,.42.031,2.5,2.5,0,0,1,.364.082,2.452,2.452,0,0,1,.292.11,1.2,1.2,0,0,1,.205.115ZM18.7-6.53V-7.708h8.262V-6.53Zm0,3.744V-3.964h8.262v1.178Z" transform="translate(315.564 116.5)" fill="#212429"/>
    <path id="Contenido-3" data-name="Contenido" d="M2.162,0H.65L3.313-12.6H4.843Zm16.27-6.117a12.011,12.011,0,0,1-.242,2.47,6.507,6.507,0,0,1-.756,2.013A3.918,3.918,0,0,1,16.112-.277a3.641,3.641,0,0,1-1.942.5A3.19,3.19,0,0,1,13.124.062a2.561,2.561,0,0,1-.787-.426A2.242,2.242,0,0,1,11.8-.993a2.9,2.9,0,0,1-.3-.756h-.035a5.705,5.705,0,0,1-.527.782,3.214,3.214,0,0,1-.668.624A3.141,3.141,0,0,1,9.424.07,3.479,3.479,0,0,1,8.36.22,3.159,3.159,0,0,1,7.125,0a2.426,2.426,0,0,1-.892-.633,2.678,2.678,0,0,1-.541-.98,4.194,4.194,0,0,1-.18-1.266A7.46,7.46,0,0,1,5.7-4.54a9.927,9.927,0,0,1,.5-1.582,12.194,12.194,0,0,1,.738-1.494q.422-.725.9-1.384H9.485a14.32,14.32,0,0,0-.94,1.406,13.041,13.041,0,0,0-.769,1.525,10.038,10.038,0,0,0-.519,1.56A6.432,6.432,0,0,0,7.068-3a3.754,3.754,0,0,0,.083.826,1.823,1.823,0,0,0,.264.633,1.2,1.2,0,0,0,.461.4,1.5,1.5,0,0,0,.677.141,2.115,2.115,0,0,0,.853-.176,2.13,2.13,0,0,0,.743-.558,3.8,3.8,0,0,0,.606-.989,7.626,7.626,0,0,0,.453-1.459l.492-2.4h1.468l-.5,2.4q-.035.149-.066.325t-.053.356q-.022.18-.035.338t-.013.272a2.512,2.512,0,0,0,.123.822,1.656,1.656,0,0,0,.343.593,1.4,1.4,0,0,0,.523.356,1.806,1.806,0,0,0,.664.119,2.021,2.021,0,0,0,1.327-.426,2.966,2.966,0,0,0,.826-1.134,5.984,5.984,0,0,0,.426-1.613,14.327,14.327,0,0,0,.119-1.863,10.8,10.8,0,0,0-.119-1.613A13.262,13.262,0,0,0,16.464-9H18.09q.07.272.132.62t.105.725q.044.378.075.773T18.432-6.117Zm5.476-5.6a1,1,0,0,0-.295-.766,1.154,1.154,0,0,0-.818-.274,2.574,2.574,0,0,0-1,.21,3.228,3.228,0,0,0-.938.61l.21-.943a2.723,2.723,0,0,1,.889-.461A3.813,3.813,0,0,1,23-13.475a1.9,1.9,0,0,1,1.307.433,1.483,1.483,0,0,1,.487,1.166,2.664,2.664,0,0,1-.213,1.1,2.923,2.923,0,0,1-.679.915,9.052,9.052,0,0,1-1.364,1q-.815.508-1.238.836a3.3,3.3,0,0,0-.628.6,1.744,1.744,0,0,0-.292.661h3.63L23.852-6H19.315l.077-.364a3.545,3.545,0,0,1,.4-1.066A3.655,3.655,0,0,1,20.53-8.3,12.637,12.637,0,0,1,22-9.353a8.734,8.734,0,0,0,1.13-.82,2.657,2.657,0,0,0,.592-.713A1.764,1.764,0,0,0,23.909-11.721Z" transform="translate(392.564 116.5)" fill="#212429"/>
    <path id="Contenido-4" data-name="Contenido" d="M6.785-9.3A2.606,2.606,0,0,0,6.6-10.31a2,2,0,0,0-.492-.716,2.017,2.017,0,0,0-.734-.426,2.874,2.874,0,0,0-.914-.141,3.023,3.023,0,0,0-.826.114,4.016,4.016,0,0,0-.787.316,4.839,4.839,0,0,0-.738.483,5.333,5.333,0,0,0-.664.624V-11.6a4.309,4.309,0,0,1,1.358-.9,4.781,4.781,0,0,1,1.833-.312,4.424,4.424,0,0,1,1.433.224,3.285,3.285,0,0,1,1.143.655,3.027,3.027,0,0,1,.76,1.063,3.587,3.587,0,0,1,.277,1.45,4.973,4.973,0,0,1-.171,1.354,4.186,4.186,0,0,1-.519,1.143A5.513,5.513,0,0,1,6.688-5.9a12.387,12.387,0,0,1-1.239,1q-.888.633-1.463,1.081a6.469,6.469,0,0,0-.914.839,2.436,2.436,0,0,0-.475.782,2.734,2.734,0,0,0-.136.9H8.736V0H.958V-.624a5.2,5.2,0,0,1,.176-1.424,3.7,3.7,0,0,1,.58-1.169A6.487,6.487,0,0,1,2.773-4.324q.655-.554,1.6-1.248a10.141,10.141,0,0,0,1.147-.94,4.889,4.889,0,0,0,.743-.9,3.22,3.22,0,0,0,.4-.91A3.922,3.922,0,0,0,6.785-9.3Z" transform="translate(362.718 130)" fill="#212429"/>
    <path id="Trazado_1045198" data-name="Trazado 1045198" d="M121.811,81.225h34.316" transform="translate(229.408 30)" fill="none" stroke="#212429" stroke-width="1"/>
  </g>
</svg>
