<svg xmlns="http://www.w3.org/2000/svg" xmlns:xlink="http://www.w3.org/1999/xlink" width="108" height="108" viewBox="0 0 108 108">
  <defs>
    <filter id="Trazado_904820" x="0" y="0" width="108" height="108" filterUnits="userSpaceOnUse">
      <feOffset dy="3" input="SourceAlpha"/>
      <feGaussianBlur stdDeviation="3" result="blur"/>
      <feFlood flood-opacity="0.161"/>
      <feComposite operator="in" in2="blur"/>
      <feComposite in="SourceGraphic"/>
    </filter>
    <clipPath id="clip-path">
      <path id="path2466" d="M0-682.665H62.219v62.219H0Z" transform="translate(0 682.665)"/>
    </clipPath>
  </defs>
  <g id="Grupo_1206004" data-name="Grupo 1206004" transform="translate(-200 -320)">
    <g id="Grupo_1205949" data-name="Grupo 1205949" transform="translate(209 326)">
      <g id="Grupo_1173585" data-name="Grupo 1173585" transform="translate(0 0)">
        <g id="Grupo_1173428" data-name="Grupo 1173428">
          <g id="Grupo_1171958" data-name="Grupo 1171958">
            <g id="Grupo_1167341" data-name="Grupo 1167341">
              <g id="Grupo_1166792" data-name="Grupo 1166792">
                <g transform="matrix(1, 0, 0, 1, -9, -6)" filter="url(#Trazado_904820)">
                  <g id="Trazado_904820-2" data-name="Trazado 904820" transform="translate(9 6)" fill="#fbedfe">
                    <path d="M 44.99999618530273 88.50002288818359 C 39.12687301635742 88.50002288818359 33.43022155761719 87.35009765625 28.06829643249512 85.08218383789062 C 22.88852119445801 82.89133453369141 18.23629570007324 79.75460815429688 14.24084663391113 75.75916290283203 C 10.24540901184082 71.76371002197266 7.108683586120605 67.11148834228516 4.917821407318115 61.93171310424805 C 2.649921178817749 56.56978607177734 1.499996185302734 50.87313461303711 1.499996185302734 45.0000114440918 C 1.499996185302734 39.12688827514648 2.649921178817749 33.43023681640625 4.917821407318115 28.06829833984375 C 7.108683586120605 22.88852310180664 10.24540901184082 18.2363109588623 14.24084663391113 14.2408618927002 C 18.23629570007324 10.24541187286377 22.88852119445801 7.108686447143555 28.06829643249512 4.917823791503906 C 33.43022155761719 2.649924039840698 39.12687301635742 1.499998927116394 44.99999618530273 1.499998927116394 C 50.87311935424805 1.499998927116394 56.56977081298828 2.649924039840698 61.93169784545898 4.917823791503906 C 67.11147308349609 7.108686447143555 71.76369476318359 10.24541187286377 75.75914764404297 14.2408618927002 C 79.75458526611328 18.2363109588623 82.89131164550781 22.88852310180664 85.08216857910156 28.06829833984375 C 87.35007476806641 33.43023681640625 88.5 39.12688827514648 88.5 45.0000114440918 C 88.5 50.87313461303711 87.35007476806641 56.56978607177734 85.08216857910156 61.93171310424805 C 82.89131164550781 67.11148834228516 79.75458526611328 71.76371002197266 75.75914764404297 75.75916290283203 C 71.76369476318359 79.75460815429688 67.11147308349609 82.89133453369141 61.93169784545898 85.08218383789062 C 56.56977081298828 87.35009765625 50.87311935424805 88.50002288818359 44.99999618530273 88.50002288818359 Z" stroke="none"/>
                    <path d="M 44.99999618530273 3 C 39.32870864868164 3 33.82865142822266 4.110054016113281 28.65262603759766 6.299339294433594 C 23.65165710449219 8.414566040039062 19.15968322753906 11.44333648681641 15.301513671875 15.30152893066406 C 11.44333648681641 19.15969848632812 8.414566040039062 23.65165710449219 6.299339294433594 28.65264129638672 C 4.110054016113281 33.82866668701172 2.999992370605469 39.3287239074707 2.999992370605469 45.0000114440918 C 2.999992370605469 50.67129898071289 4.110054016113281 56.17135620117188 6.299339294433594 61.34738159179688 C 8.414566040039062 66.34836578369141 11.44333648681641 70.84032440185547 15.301513671875 74.69849395751953 C 19.15968322753906 78.55668640136719 23.65165710449219 81.58545684814453 28.65262603759766 83.70068359375 C 33.82865142822266 85.88996887207031 39.32870864868164 87.00002288818359 44.99999618530273 87.00002288818359 C 50.67128372192383 87.00002288818359 56.17134094238281 85.88996887207031 61.34736633300781 83.70068359375 C 66.34834289550781 81.58545684814453 70.84030914306641 78.55668640136719 74.69847869873047 74.69849395751953 C 78.55665588378906 70.84032440185547 81.58542633056641 66.34836578369141 83.70065307617188 61.34738159179688 C 85.88993835449219 56.17135620117188 87 50.67129898071289 87 45.0000114440918 C 87 39.3287239074707 85.88993835449219 33.82866668701172 83.70065307617188 28.65264129638672 C 81.58542633056641 23.65165710449219 78.55665588378906 19.15969848632812 74.69847869873047 15.30152893066406 C 70.84030914306641 11.44333648681641 66.34834289550781 8.414566040039062 61.34736633300781 6.299339294433594 C 56.17134094238281 4.110054016113281 50.67128372192383 3 44.99999618530273 3 M 44.99999618530273 0 C 69.85281372070312 0 90 20.14719390869141 90 45.0000114440918 C 90 69.85282897949219 69.85281372070312 90.00002288818359 44.99999618530273 90.00002288818359 C 20.14717864990234 90.00002288818359 -7.62939453125e-06 69.85282897949219 -7.62939453125e-06 45.0000114440918 C -7.62939453125e-06 20.14719390869141 20.14717864990234 0 44.99999618530273 0 Z" stroke="none" fill="#7b3289"/>
                  </g>
                </g>
              </g>
            </g>
          </g>
        </g>
      </g>
    </g>
    <g id="g2460" transform="translate(224.272 1025.937)">
      <g id="g2462" transform="translate(0 -682.665)">
        <g id="g2464" clip-path="url(#clip-path)">
          <g id="g2470" transform="translate(25.346 30.75)">
            <path id="path2472" d="M-87.091,0a8.734,8.734,0,0,0-8.734,8.734,8.691,8.691,0,0,0,1.464,4.839,8.792,8.792,0,0,0,6.055,2.679,8.734,8.734,0,0,0,8.734-8.734,7.639,7.639,0,0,0-.433-2.386Z" transform="translate(95.825)" fill="#bfe2e6"/>
          </g>
          <g id="g2474" transform="translate(26.81 30.75)">
            <path id="path2476" d="M-120.755-14.6a8.692,8.692,0,0,0-4.839-1.464l-1.266.827a22.354,22.354,0,0,0,2.824,3.658,20.887,20.887,0,0,0,2.839-1.06,13.754,13.754,0,0,0,1.746,1.2,8.764,8.764,0,0,1,.161,1.674,8.734,8.734,0,0,1-8.734,8.734,8.691,8.691,0,0,1-4.84-1.464,8.724,8.724,0,0,0,7.27,3.894,8.734,8.734,0,0,0,8.734-8.734,8.724,8.724,0,0,0-3.894-7.27" transform="translate(132.865 16.059)" fill="#94ccd4"/>
          </g>
          <g id="g2478" transform="translate(12.255 17.659)">
            <path id="path2480" d="M-393.3-189.584h-3.552v1.743q.04.53.04,1.07a14.1,14.1,0,0,1-14.1,14.1,14.057,14.057,0,0,1-9.823-3.985l-2.312-.5v-2.43a14.039,14.039,0,0,1-1.969-7.19,14.089,14.089,0,0,1,.7-4.4v-1.575l1.268-1.215a14.1,14.1,0,0,1,12.135-6.914v-7.72q-1.085,0-2.143.1c-.24.811-.47,1.734-.687,2.738a19.05,19.05,0,0,0-4.212,1.125c-.69-.761-1.351-1.446-1.965-2.028a21.79,21.79,0,0,0-3.709,2.146c.2.823.461,1.738.775,2.717a19.3,19.3,0,0,0-3.08,3.08c-.979-.314-1.893-.577-2.717-.775a21.808,21.808,0,0,0-2.146,3.709c.583.614,1.267,1.275,2.028,1.965-.084.214-.164.43-.241.648l-.738,2.719c-.054.28-.1.561-.146.845-1,.217-1.927.447-2.738.687q-.1,1.058-.1,2.143t.1,2.143c.811.24,1.734.47,2.738.687a19.074,19.074,0,0,0,.885,3.564l1.215,1.215-2.806,1.193-.2.2q.426.939.938,1.829l5.326.679a17.8,17.8,0,0,0,13.621,6.323,17.838,17.838,0,0,0,17.838-17.838,17.943,17.943,0,0,0-.222-2.813" transform="translate(432.742 208.595)" fill="#a29aa5"/>
          </g>
          <g id="g2482" transform="translate(15.244 32.293)">
            <path id="path2484" d="M-66.811,0l-5.961.8a19.05,19.05,0,0,0-.738,2.72l5.432-.725A14.031,14.031,0,0,1-66.811,0" transform="translate(73.51)" fill="#766d78"/>
          </g>
          <g id="g2486" transform="translate(14.392 17.659)">
            <path id="path2488" d="M-412.914-239q.1-1.058.1-2.143t-.1-2.143c-.811-.24-1.734-.47-2.738-.687a19.049,19.049,0,0,0-1.125-4.212c.761-.69,1.446-1.351,2.028-1.965a21.791,21.791,0,0,0-2.146-3.709c-.823.2-1.738.461-2.717.775a19.3,19.3,0,0,0-3.08-3.08c.314-.979.577-1.893.775-2.717a21.8,21.8,0,0,0-3.709-2.146c-.614.583-1.275,1.267-1.965,2.028a19.057,19.057,0,0,0-4.212-1.125c-.217-1-.447-1.927-.687-2.738q-1.058-.1-2.143-.1v7.72a14.105,14.105,0,0,1,14.064,13.035q.253-.576.5-1.224a13.728,13.728,0,0,0,1.887-.333,16.773,16.773,0,0,1,.207,2.627,16.659,16.659,0,0,1-16.659,16.659,16.637,16.637,0,0,1-13.6-7.044l3.78.5a14.164,14.164,0,0,1-2.312-2.93l-5.961-.8c.077.218.156.434.241.648-.677.614-1.294,1.205-1.832,1.76l4.557.609c-1.768.71-3.073,1.173-3.816,1.425a21.909,21.909,0,0,0,1.209,1.88c.823-.2,1.738-.461,2.717-.775a19.3,19.3,0,0,0,3.08,3.08c-.314.979-.577,1.893-.775,2.717a21.794,21.794,0,0,0,3.709,2.146c.614-.583,1.275-1.267,1.965-2.028a19.056,19.056,0,0,0,4.212,1.125c.217,1,.447,1.927.687,2.738q1.058.1,2.143.1t2.143-.1c.24-.811.47-1.734.687-2.738a19.057,19.057,0,0,0,4.212-1.125c.69.761,1.351,1.446,1.965,2.028a21.8,21.8,0,0,0,3.709-2.146c-.2-.823-.461-1.738-.775-2.717a19.3,19.3,0,0,0,3.08-3.08c.979.314,1.893.577,2.717.775a21.793,21.793,0,0,0,2.146-3.709c-.583-.614-1.267-1.275-2.028-1.965a19.05,19.05,0,0,0,1.125-4.212c1-.217,1.927-.447,2.738-.687" transform="translate(454.322 262.971)" fill="#766d78"/>
          </g>
          <g id="g2490" transform="translate(28.223 4.434)">
            <path id="path2492" d="M-164.962-89.754a7.543,7.543,0,0,1,7.543,7.543,7.543,7.543,0,0,1-7.543,7.543,7.543,7.543,0,0,1-7.543-7.543,7.543,7.543,0,0,1,7.543-7.543m0,20.347a12.8,12.8,0,0,0,12.8-12.8c0-2.716-.17-5.693-.17-5.693l.28-4.64a16.537,16.537,0,0,0-1.354-1.5,20.882,20.882,0,0,0-2.839,1.06,13.777,13.777,0,0,0-3.814-2.192,20.873,20.873,0,0,0-.514-2.985,16.436,16.436,0,0,0-4.582-.6,20.862,20.862,0,0,0-1.258,2.759,13.776,13.776,0,0,0-4.246,1.149,20.874,20.874,0,0,0-2.478-1.75,16.438,16.438,0,0,0-3.658,2.823,20.88,20.88,0,0,0,1.061,2.839,13.769,13.769,0,0,0-2.192,3.814,20.876,20.876,0,0,0-2.985.514,16.434,16.434,0,0,0-.6,4.582,20.866,20.866,0,0,0,2.759,1.259,13.773,13.773,0,0,0,1.149,4.246,20.854,20.854,0,0,0-1.75,2.478,16.351,16.351,0,0,0,1.23,1.858l4.433.74s4.879,2.037,8.72,2.037" transform="translate(181.505 98.754)" fill="#e1dee2"/>
          </g>
          <g id="g2494" transform="translate(31.613 10.644)">
            <path id="path2496" d="M-257.135-46.269a20.86,20.86,0,0,0,1.75-2.478,16.356,16.356,0,0,0-1.469-2.162q-1.4,1.633-2.9,3.205a.91.91,0,0,0-.123,1.1,11.522,11.522,0,0,1,1.69,6.095A11.674,11.674,0,0,1-270.045-29a11.54,11.54,0,0,1-7.964-3.443.909.909,0,0,0-1.1-.146q-1.888,1.075-3.814,2.042a16.528,16.528,0,0,0,1.594,1.8,20.882,20.882,0,0,0,2.839-1.06,13.779,13.779,0,0,0,3.814,2.192,20.877,20.877,0,0,0,.514,2.985,16.441,16.441,0,0,0,4.582.6,20.86,20.86,0,0,0,1.258-2.759,13.769,13.769,0,0,0,4.246-1.149,20.877,20.877,0,0,0,2.478,1.75,16.439,16.439,0,0,0,3.658-2.823A20.879,20.879,0,0,0-259-31.855a13.767,13.767,0,0,0,2.192-3.814,20.875,20.875,0,0,0,2.985-.514,16.429,16.429,0,0,0,.6-4.582,20.872,20.872,0,0,0-2.759-1.259,13.772,13.772,0,0,0-1.15-4.246" transform="translate(282.921 50.909)" fill="#c5bec6"/>
          </g>
          <g id="g2498" transform="translate(32.307 37.71)">
            <path id="path2500" d="M-17.68-35.359a1.773,1.773,0,0,0,1.773-1.773,1.773,1.773,0,0,0-1.773-1.773,1.773,1.773,0,0,0-1.773,1.773,1.773,1.773,0,0,0,1.773,1.773" transform="translate(19.453 38.905)" fill="#766d78"/>
          </g>
          <g id="g2502" transform="translate(0.911 0.911)">
            <path id="path2504" d="M-116.553-65.223a5.021,5.021,0,0,1,5.021,5.021,5.021,5.021,0,0,1-5.021,5.021,5.021,5.021,0,0,1-5.021-5.021,5.021,5.021,0,0,1,5.021-5.021m0,13.109a8.089,8.089,0,0,0,8.089-8.089,34.537,34.537,0,0,0-.443-4.8l-.03-4.07a11.583,11.583,0,0,0-1.607-1.16c-.708.513-1.471,1.125-2.264,1.814a9.075,9.075,0,0,0-4.079-.809c-.471-.938-.942-1.795-1.4-2.538a11.616,11.616,0,0,0-3.944,1.346c.09.869.239,1.835.439,2.866a8.978,8.978,0,0,0-2.74,3.127c-1.048-.061-2.025-.081-2.9-.055a11.755,11.755,0,0,0-.809,4.088c.8.357,1.708.711,2.7,1.053A8.982,8.982,0,0,0-124.2-55.4c-.577.877-1.083,1.714-1.5,2.484a11.655,11.655,0,0,0,1.347,1.427l4.052-.494s1.97-.126,3.745-.126" transform="translate(128.241 71.764)" fill="#a29aa5"/>
          </g>
          <g id="g2506" transform="translate(4.803 3.604)">
            <path id="path2508" d="M-167.363-79.821a8.982,8.982,0,0,0-1.342-3.934c.577-.877,1.084-1.714,1.5-2.484a11.642,11.642,0,0,0-1.528-1.586c-.54.906-1.6,2.569-2.159,3.443a.912.912,0,0,0,.057,1.06,7.007,7.007,0,0,1,1.512,4.675,7.053,7.053,0,0,1-6.622,6.712,7.013,7.013,0,0,1-3.991-.972.916.916,0,0,0-1.058.076c-.772.643-2.232,1.855-3.149,2.583a11.6,11.6,0,0,0,1.787,1.32c.708-.513,1.471-1.125,2.264-1.814a9.073,9.073,0,0,0,4.079.809c.471.938.942,1.794,1.4,2.538a11.623,11.623,0,0,0,3.944-1.346c-.09-.869-.239-1.835-.439-2.866a8.977,8.977,0,0,0,2.74-3.127c1.048.061,2.025.081,2.9.055a11.755,11.755,0,0,0,.809-4.088c-.8-.357-1.708-.71-2.7-1.053" transform="translate(184.146 87.825)" fill="#766d78"/>
          </g>
          <g id="g2510" transform="translate(42.396 18.607)">
            <path id="path2512" d="M-36.369-12.731a1.992,1.992,0,0,0-.588-1.174,2.366,2.366,0,0,0-.688-.1,2.37,2.37,0,0,0-2.37,2.37,2.366,2.366,0,0,0,.1.688,2.3,2.3,0,0,0,1.174.588,2.37,2.37,0,0,0,2.37-2.37" transform="translate(40.016 14.008)" fill="#e1dee2"/>
          </g>
          <g id="g2514" transform="translate(42.498 18.71)">
            <path id="path2516" d="M-29.481,0a2.366,2.366,0,0,1,.1.688,2.37,2.37,0,0,1-2.37,2.37,2.366,2.366,0,0,1-.688-.1,2.371,2.371,0,0,0,2.268,1.682,2.37,2.37,0,0,0,2.37-2.37A2.371,2.371,0,0,0-29.481,0" transform="translate(32.437)" fill="#c5bec6"/>
          </g>
          <g id="g2518" transform="translate(28.223 4.434)">
            <path id="path2520" d="M-272.353-251.937a20.874,20.874,0,0,1,1.061,2.839,16.431,16.431,0,0,1-3.658,2.823,20.864,20.864,0,0,1-2.478-1.75,13.771,13.771,0,0,1-4.246,1.149,20.865,20.865,0,0,1-1.258,2.759,16.442,16.442,0,0,1-4.582-.6,20.9,20.9,0,0,1-.514-2.985,13.776,13.776,0,0,1-3.814-2.192,20.862,20.862,0,0,1-2.839,1.06,16.438,16.438,0,0,1-2.824-3.658,20.879,20.879,0,0,1,1.75-2.478,13.772,13.772,0,0,1-1.15-4.246,20.856,20.856,0,0,1-2.759-1.259,16.434,16.434,0,0,1,.6-4.582,20.873,20.873,0,0,1,2.985-.514,13.767,13.767,0,0,1,2.192-3.814,20.885,20.885,0,0,1-1.061-2.839,16.439,16.439,0,0,1,3.658-2.823,20.877,20.877,0,0,1,2.478,1.75,13.774,13.774,0,0,1,4.246-1.149,20.887,20.887,0,0,1,1.258-2.759,16.438,16.438,0,0,1,4.582.6,20.871,20.871,0,0,1,.514,2.985,13.778,13.778,0,0,1,3.814,2.192,20.866,20.866,0,0,1,2.839-1.061,16.443,16.443,0,0,1,2.824,3.658,20.855,20.855,0,0,1-1.75,2.478,13.776,13.776,0,0,1,1.15,4.246,20.871,20.871,0,0,1,2.759,1.259,16.44,16.44,0,0,1-.6,4.582,20.9,20.9,0,0,1-2.985.514,13.771,13.771,0,0,1-2.192,3.814" transform="translate(299.665 277.202)" fill="none" stroke="#000" stroke-linecap="round" stroke-linejoin="round" stroke-miterlimit="10" stroke-width="1.3"/>
          </g>
          <g id="g2522" transform="translate(37.235 20.114)">
            <path id="path2524" d="M-53.086,0c-.459.459-.94.966-1.437,1.513A19.036,19.036,0,0,0-58.409.439" transform="translate(58.409)" fill="none" stroke="#010101" stroke-linecap="round" stroke-linejoin="round" stroke-miterlimit="10" stroke-width="1.3"/>
          </g>
          <g id="g2526" transform="translate(46.021 22.463)">
            <path id="path2528" d="M-28.677-48.126a19.3,19.3,0,0,0-2.876-2.828c.226-.7.425-1.372.592-2" transform="translate(31.553 52.952)" fill="none" stroke="#010101" stroke-linecap="round" stroke-linejoin="round" stroke-miterlimit="10" stroke-width="1.3"/>
          </g>
          <g id="g2530" transform="translate(12.255 19.599)">
            <path id="path2532" d="M-159.359-15.967q-.608.194-1.2.427c-.69-.761-1.351-1.446-1.965-2.028a21.8,21.8,0,0,0-3.709,2.146c.2.823.46,1.738.775,2.717a19.3,19.3,0,0,0-3.08,3.08c-.979-.314-1.893-.577-2.717-.775A21.793,21.793,0,0,0-173.4-6.691c.583.614,1.267,1.275,2.028,1.965A19.066,19.066,0,0,0-172.5-.513c-1,.217-1.927.447-2.738.687q-.1,1.058-.1,2.143t.1,2.143c.811.24,1.734.47,2.738.687a19.063,19.063,0,0,0,1.125,4.212c-.761.69-1.446,1.351-2.028,1.965a21.793,21.793,0,0,0,2.146,3.709c.823-.2,1.738-.46,2.717-.775a19.3,19.3,0,0,0,3.08,3.08c-.314.979-.577,1.893-.775,2.717a21.793,21.793,0,0,0,3.709,2.146c.614-.583,1.275-1.267,1.965-2.028a19.06,19.06,0,0,0,4.212,1.125c.217,1,.447,1.927.687,2.738q1.058.1,2.143.1t2.143-.1c.24-.811.47-1.734.687-2.738a19.06,19.06,0,0,0,4.212-1.125c.69.761,1.351,1.446,1.965,2.028a21.792,21.792,0,0,0,3.709-2.146c-.2-.823-.46-1.738-.775-2.717a19.3,19.3,0,0,0,3.08-3.08c.979.314,1.893.577,2.717.775a21.79,21.79,0,0,0,2.146-3.709c-.583-.614-1.267-1.275-2.028-1.965a19.064,19.064,0,0,0,1.125-4.212c1-.217,1.927-.447,2.738-.687q.1-1.058.1-2.143t-.1-2.143c-.811-.24-1.734-.47-2.738-.687q-.095-.642-.231-1.269" transform="translate(175.34 17.568)" fill="none" stroke="#010101" stroke-linecap="round" stroke-linejoin="round" stroke-miterlimit="10" stroke-width="1.3"/>
          </g>
          <g id="g2534" transform="translate(46.755 34.765)">
            <path id="path2536" d="M0-108.826a14.048,14.048,0,0,0,1.43-6.195,14.081,14.081,0,0,0-.809-4.719" transform="translate(0 119.74)" fill="none" stroke="#010101" stroke-linecap="round" stroke-linejoin="round" stroke-miterlimit="10" stroke-width="1.3"/>
          </g>
          <g id="g2538" transform="translate(22.043 46.839)">
            <path id="path2540" d="M0,0A14.1,14.1,0,0,0,12.037,6.749a14.072,14.072,0,0,0,10.686-4.9" fill="none" stroke="#010101" stroke-linecap="round" stroke-linejoin="round" stroke-miterlimit="10" stroke-width="1.3"/>
          </g>
          <g id="g2542" transform="translate(19.975 25.63)">
            <path id="path2544" d="M-114.066,0a14.109,14.109,0,0,0-11.439,13.853,14.145,14.145,0,0,0,.378,3.256" transform="translate(125.505)" fill="none" stroke="#010101" stroke-linecap="round" stroke-linejoin="round" stroke-miterlimit="10" stroke-width="1.3"/>
          </g>
          <g id="g2546" transform="translate(0.911 0.911)">
            <path id="path2548" d="M-25.379-187.9a11.615,11.615,0,0,0,3.134,2.747c.708-.513,1.471-1.125,2.264-1.814a9.071,9.071,0,0,0,4.079.809c.471.938.942,1.795,1.4,2.538a11.62,11.62,0,0,0,3.944-1.346c-.09-.869-.239-1.835-.439-2.866a8.976,8.976,0,0,0,2.74-3.127c1.048.061,2.025.081,2.9.055A11.755,11.755,0,0,0-4.548-195c-.8-.357-1.708-.711-2.7-1.053a8.981,8.981,0,0,0-1.342-3.934c.578-.877,1.084-1.714,1.5-2.484a11.616,11.616,0,0,0-3.134-2.747c-.708.513-1.471,1.125-2.264,1.814a9.074,9.074,0,0,0-4.079-.809c-.471-.938-.942-1.794-1.4-2.538a11.615,11.615,0,0,0-3.944,1.346c.09.869.239,1.835.439,2.866a8.977,8.977,0,0,0-2.74,3.127c-1.048-.061-2.025-.081-2.9-.055a11.753,11.753,0,0,0-.809,4.088c.8.357,1.708.711,2.7,1.053a8.982,8.982,0,0,0,1.342,3.934C-24.459-189.511-24.965-188.674-25.379-187.9Z" transform="translate(27.924 206.747)" fill="none" stroke="#000" stroke-linecap="round" stroke-linejoin="round" stroke-miterlimit="10" stroke-width="1.3"/>
          </g>
          <g id="g2550" transform="translate(37.223 13.435)">
            <path id="path2552" d="M-75.218,0a7.543,7.543,0,0,0-7.543,7.543,7.543,7.543,0,0,0,7.543,7.543,7.543,7.543,0,0,0,7.543-7.543,7.54,7.54,0,0,0-3.777-6.537" transform="translate(82.761)" fill="none" stroke="#000" stroke-linecap="round" stroke-linejoin="round" stroke-miterlimit="10" stroke-width="1.3"/>
          </g>
          <g id="g2554" transform="translate(32.307 37.71)">
            <path id="path2556" d="M-17.68-35.359a1.773,1.773,0,0,0,1.773-1.773,1.773,1.773,0,0,0-1.773-1.773,1.773,1.773,0,0,0-1.773,1.773A1.773,1.773,0,0,0-17.68-35.359Z" transform="translate(19.453 38.905)" fill="none" stroke="#000" stroke-linecap="round" stroke-linejoin="round" stroke-miterlimit="10" stroke-width="1.3"/>
          </g>
          <g id="g2558" transform="translate(25.346 31.142)">
            <path id="path2560" d="M-61.193,0a8.737,8.737,0,0,0-6.136,8.341A8.734,8.734,0,0,0-58.6,17.075a8.733,8.733,0,0,0,8.734-8.734,8.759,8.759,0,0,0-.223-1.971" transform="translate(67.329)" fill="none" stroke="#000" stroke-linecap="round" stroke-linejoin="round" stroke-miterlimit="10" stroke-width="1.3"/>
          </g>
          <g id="g2562" transform="translate(7.579 7.452)">
            <path id="path2564" d="M-18.589-11.13a5.011,5.011,0,0,0-1.864,3.9,5.021,5.021,0,0,0,5.021,5.021,5.021,5.021,0,0,0,5.021-5.021,5.021,5.021,0,0,0-5.021-5.021" transform="translate(20.453 12.247)" fill="none" stroke="#000" stroke-linecap="round" stroke-linejoin="round" stroke-miterlimit="10" stroke-width="1.3"/>
          </g>
          <g id="g2566" transform="translate(42.396 18.607)">
            <path id="path2568" d="M-23.638-47.275a2.37,2.37,0,0,0,2.37-2.37,2.37,2.37,0,0,0-2.37-2.37,2.37,2.37,0,0,0-2.37,2.37A2.37,2.37,0,0,0-23.638-47.275Z" transform="translate(26.008 52.016)" fill="none" stroke="#000" stroke-linecap="round" stroke-linejoin="round" stroke-miterlimit="10" stroke-width="1.3"/>
          </g>
          <g id="g2570" transform="translate(12.54 12.414)">
            <path id="path2572" d="M-.061-.329A.059.059,0,0,0-.034-.25.059.059,0,0,0,.045-.277.059.059,0,0,0,.018-.356.059.059,0,0,0-.061-.329Z" transform="translate(0.067 0.362)" fill="none" stroke="#000" stroke-linecap="round" stroke-linejoin="round" stroke-miterlimit="10" stroke-width="1.3"/>
          </g>
          <g id="g2574" transform="translate(0.911 31.03)">
            <path id="path2576" d="M-304.037,0l-30.489,4.072" transform="translate(334.526)" fill="none" stroke="#000" stroke-linecap="round" stroke-linejoin="round" stroke-miterlimit="10" stroke-width="1.3"/>
          </g>
          <g id="g2578" transform="translate(0.911 43.865)">
            <path id="path2580" d="M-319.223-42.634l-32.012-4.275" transform="translate(351.235 46.909)" fill="none" stroke="#000" stroke-linecap="round" stroke-linejoin="round" stroke-miterlimit="10" stroke-width="1.3"/>
          </g>
          <g id="g2582" transform="translate(23.959 12.473)">
            <path id="path2584" d="M0,0H9.462" fill="none" stroke="#000" stroke-linecap="round" stroke-linejoin="round" stroke-miterlimit="10" stroke-width="1.3"/>
          </g>
          <g id="g2586" transform="translate(59.186 12.473)">
            <path id="path2588" d="M-21.155,0h-2.121" transform="translate(23.276)" fill="none" stroke="#000" stroke-linecap="round" stroke-linejoin="round" stroke-miterlimit="10" stroke-width="1.3"/>
          </g>
        </g>
      </g>
    </g>
  </g>
</svg>
