<svg xmlns="http://www.w3.org/2000/svg" xmlns:xlink="http://www.w3.org/1999/xlink" width="118" height="118" viewBox="0 0 118 118">
  <defs>
    <filter id="Trazado_982547" x="0" y="0" width="118" height="118" filterUnits="userSpaceOnUse">
      <feOffset dy="3" input="SourceAlpha"/>
      <feGaussianBlur stdDeviation="3" result="blur"/>
      <feFlood flood-opacity="0.161"/>
      <feComposite operator="in" in2="blur"/>
      <feComposite in="SourceGraphic"/>
    </filter>
  </defs>
  <g id="Grupo_1205963" data-name="Grupo 1205963" transform="translate(-741 -1158.043)">
    <g id="Grupo_1205557" data-name="Grupo 1205557" transform="translate(0 468.043)">
      <g id="Grupo_1180391" data-name="Grupo 1180391" transform="translate(0 -566)">
        <g id="Grupo_1179137" data-name="Grupo 1179137" transform="translate(-2.25 571)">
          <g id="Grupo_1177987" data-name="Grupo 1177987" transform="translate(752.25 691)">
            <g id="Grupo_1177681" data-name="Grupo 1177681">
              <g id="Grupo_1172010" data-name="Grupo 1172010">
                <g id="Grupo_1171046" data-name="Grupo 1171046">
                  <g id="Grupo_1148525" data-name="Grupo 1148525">
                    <g transform="matrix(1, 0, 0, 1, -9, -6)" filter="url(#Trazado_982547)">
                      <g id="Trazado_982547-2" data-name="Trazado 982547" transform="translate(9 6)" fill="#fbedfe">
                        <path d="M 50 98.5 C 43.45188522338867 98.5 37.10042953491211 97.21787261962891 31.12207221984863 94.68923950195312 C 25.34690093994141 92.24655914306641 20.15995788574219 88.74931335449219 15.70531463623047 84.29468536376953 C 11.2506856918335 79.84004211425781 7.753442764282227 74.65309906005859 5.310757160186768 68.8779296875 C 2.782128572463989 62.89957046508789 1.5 56.54811477661133 1.5 50 C 1.5 43.45188522338867 2.782128572463989 37.10042953491211 5.310757160186768 31.12207221984863 C 7.753442764282227 25.34691429138184 11.2506856918335 20.15997123718262 15.70531463623047 15.70532894134521 C 20.15995788574219 11.2506856918335 25.34690093994141 7.753442764282227 31.12207221984863 5.310757160186768 C 37.10042953491211 2.782128572463989 43.45188522338867 1.5 50 1.5 C 56.54811477661133 1.5 62.89957046508789 2.782128572463989 68.8779296875 5.310757160186768 C 74.65309906005859 7.753442764282227 79.84004211425781 11.2506856918335 84.29468536376953 15.70532894134521 C 88.74931335449219 20.15997123718262 92.24655914306641 25.34691429138184 94.68923950195312 31.12207221984863 C 97.21787261962891 37.10042953491211 98.5 43.45188522338867 98.5 50 C 98.5 56.54811477661133 97.21787261962891 62.89957046508789 94.68923950195312 68.8779296875 C 92.24655914306641 74.65309906005859 88.74931335449219 79.84004211425781 84.29468536376953 84.29468536376953 C 79.84004211425781 88.74931335449219 74.65309906005859 92.24655914306641 68.8779296875 94.68923950195312 C 62.89957046508789 97.21787261962891 56.54811477661133 98.5 50 98.5 Z" stroke="none"/>
                        <path d="M 50 3 C 43.65372467041016 3 37.49886322021484 4.242263793945312 31.70639801025391 6.6922607421875 C 26.11003112792969 9.059326171875 21.08333587646484 12.44861602783203 16.76598358154297 16.76598358154297 C 12.44861602783203 21.08335113525391 9.059326171875 26.11003112792969 6.6922607421875 31.70639801025391 C 4.242263793945312 37.49886322021484 3 43.65372467041016 3 50 C 3 56.34627532958984 4.242263793945312 62.50113677978516 6.6922607421875 68.29360198974609 C 9.059326171875 73.88996887207031 12.44861602783203 78.91666412353516 16.76598358154297 83.23401641845703 C 21.08333587646484 87.55138397216797 26.11003112792969 90.940673828125 31.70639801025391 93.3077392578125 C 37.49886322021484 95.75773620605469 43.65372467041016 97 50 97 C 56.34627532958984 97 62.50113677978516 95.75773620605469 68.29360198974609 93.3077392578125 C 73.88996887207031 90.940673828125 78.91664886474609 87.55138397216797 83.23401641845703 83.23401641845703 C 87.55138397216797 78.91666412353516 90.940673828125 73.88996887207031 93.3077392578125 68.29360198974609 C 95.75773620605469 62.50113677978516 97 56.34627532958984 97 50 C 97 43.65372467041016 95.75773620605469 37.49886322021484 93.3077392578125 31.70639801025391 C 90.940673828125 26.11003112792969 87.55138397216797 21.08335113525391 83.23401641845703 16.76598358154297 C 78.91664886474609 12.44861602783203 73.88996887207031 9.059326171875 68.29360198974609 6.6922607421875 C 62.50113677978516 4.242263793945312 56.34627532958984 3 50 3 M 50 0 C 77.61422729492188 0 100 22.38577270507812 100 50 C 100 77.61424255371094 77.61422729492188 100 50 100 C 22.38575744628906 100 0 77.61424255371094 0 50 C 0 22.38577270507812 22.38575744628906 0 50 0 Z" stroke="none" fill="#e25cfa"/>
                      </g>
                    </g>
                  </g>
                </g>
              </g>
            </g>
          </g>
        </g>
      </g>
    </g>
    <g id="mobile-phones_12970148" transform="translate(765.71 1176.012)">
      <path id="Trazado_1045228" data-name="Trazado 1045228" d="M187.5,189.229a14.308,14.308,0,0,0-6.725-4.652l5.161-15.649a1.065,1.065,0,0,0-1.012-1.4H167.856a1.065,1.065,0,0,0-1.012,1.4L172,184.577a14.224,14.224,0,1,0,15.5,4.651Z" transform="translate(-137.103 -138.286)" fill="#54c4cc"/>
      <path id="Trazado_1045229" data-name="Trazado 1045229" d="M215.766,335.776a8.178,8.178,0,1,0,8.178,8.178A8.178,8.178,0,0,0,215.766,335.776Z" transform="translate(-176.478 -284.13)" fill="#d8ecfe"/>
      <circle id="Elipse_12650" data-name="Elipse 12650" cx="10.12" cy="10.12" r="10.12" transform="translate(29.167 8.799)" fill="#ffb229"/>
      <path id="Trazado_1045230" data-name="Trazado 1045230" d="M378.633,214.864l-6.757-5.69a1.065,1.065,0,0,0-1.751.815v2.669h-9.247a1.065,1.065,0,0,0-1.065,1.065v3.912a1.065,1.065,0,0,0,1.065,1.065h9.247v2.669a1.065,1.065,0,0,0,1.751.815l6.757-5.69a1.065,1.065,0,0,0,0-1.63Z" transform="translate(-308.432 -174.169)" fill="#ffb229"/>
      <rect id="Rectángulo_418216" data-name="Rectángulo 418216" width="26.499" height="39.415" rx="6" transform="translate(4 8)" fill="#54c4cc"/>
      <path id="Trazado_1045231" data-name="Trazado 1045231" d="M52.135,212.658H42.888V209.99a1.065,1.065,0,0,0-1.751-.815l-6.757,5.69a1.065,1.065,0,0,0,0,1.63l6.757,5.69a1.065,1.065,0,0,0,1.751-.815V218.7h9.248a1.065,1.065,0,0,0,1.065-1.065v-3.912A1.065,1.065,0,0,0,52.135,212.658Z" transform="translate(-26.006 -174.169)" fill="#ffb229"/>
      <g id="Grupo_1205962" data-name="Grupo 1205962" transform="translate(4 8)">
        <path id="Trazado_1045232" data-name="Trazado 1045232" d="M41.823,222.434a1.065,1.065,0,0,1-.687-.251l-6.756-5.69a1.065,1.065,0,0,1,0-1.63l6.757-5.69a1.065,1.065,0,0,1,1.751.815v2.669h9.248a1.065,1.065,0,0,1,1.065,1.065v3.912a1.065,1.065,0,0,1-1.065,1.065H42.888v2.669a1.065,1.065,0,0,1-1.065,1.065Zm-5.1-6.755,4.038,3.4v-1.444a1.065,1.065,0,0,1,1.065-1.065H51.07v-1.781H41.822a1.065,1.065,0,0,1-1.065-1.065v-1.444Z" transform="translate(-30.006 -182.169)" fill="#440a29"/>
        <path id="Trazado_1045233" data-name="Trazado 1045233" d="M27.3,47.415H7.2a3.2,3.2,0,0,1-3.2-3.2V11.2A3.2,3.2,0,0,1,7.2,8H27.3a3.2,3.2,0,0,1,3.2,3.2V44.219a3.2,3.2,0,0,1-3.2,3.2ZM7.2,10.131A1.066,1.066,0,0,0,6.131,11.2V44.219A1.066,1.066,0,0,0,7.2,45.285H27.3a1.066,1.066,0,0,0,1.065-1.065V11.2A1.066,1.066,0,0,0,27.3,10.131Z" transform="translate(-4 -8)" fill="#440a29"/>
        <path id="Trazado_1045234" data-name="Trazado 1045234" d="M67.218,43.131H56.565a1.065,1.065,0,0,1,0-2.131H67.218a1.065,1.065,0,0,1,0,2.131Z" transform="translate(-48.642 -36.606)" fill="#440a29"/>
        <path id="Trazado_1045235" data-name="Trazado 1045235" d="M203.12,34.24a10.12,10.12,0,1,1,10.12-10.12A10.12,10.12,0,0,1,203.12,34.24Zm0-18.11a7.99,7.99,0,1,0,7.99,7.99A7.99,7.99,0,0,0,203.12,16.131Z" transform="translate(-167.833 -13.201)" fill="#440a29"/>
        <path id="Trazado_1045236" data-name="Trazado 1045236" d="M226.525,89.59A6.532,6.532,0,0,1,220,83.065a1.065,1.065,0,0,1,2.131,0,4.4,4.4,0,0,0,4.394,4.394,1.065,1.065,0,0,1,0,2.131Z" transform="translate(-191.238 -72.146)" fill="#440a29"/>
        <path id="Trazado_1045237" data-name="Trazado 1045237" d="M267.525,48.59a1.065,1.065,0,0,1-1.065-1.065,4.4,4.4,0,0,0-4.394-4.394,1.065,1.065,0,1,1,0-2.131,6.532,6.532,0,0,1,6.525,6.525A1.065,1.065,0,0,1,267.525,48.59Z" transform="translate(-226.778 -36.606)" fill="#440a29"/>
        <path id="Trazado_1045238" data-name="Trazado 1045238" d="M176.415,212.333a14.225,14.225,0,0,1-4.385-27.756l-5.161-15.649a1.065,1.065,0,0,1,1.012-1.4H184.95a1.065,1.065,0,0,1,1.012,1.4L180.8,184.577a14.225,14.225,0,0,1-4.386,27.756Zm-2.89-25.968a12.092,12.092,0,1,0,5.784,0,1.065,1.065,0,0,1-.883-1.391l5.05-15.315H169.354l5.051,15.315a1.065,1.065,0,0,1-.879,1.391Z" transform="translate(-141.128 -146.286)" fill="#440a29"/>
        <path id="Trazado_1045239" data-name="Trazado 1045239" d="M215.766,352.131a8.178,8.178,0,1,1,8.178-8.178A8.178,8.178,0,0,1,215.766,352.131Zm0-14.225a6.047,6.047,0,1,0,6.047,6.047A6.047,6.047,0,0,0,215.766,337.907Z" transform="translate(-180.478 -292.13)" fill="#440a29"/>
        <path id="Trazado_1045240" data-name="Trazado 1045240" d="M371.19,222.435a1.065,1.065,0,0,1-1.065-1.065V218.7h-9.247a1.065,1.065,0,0,1-1.065-1.065v-3.912a1.065,1.065,0,0,1,1.065-1.065h9.247V209.99a1.065,1.065,0,0,1,1.751-.815l6.757,5.69a1.065,1.065,0,0,1,0,1.63l-6.757,5.69A1.065,1.065,0,0,1,371.19,222.435Zm-9.247-5.865h9.248a1.065,1.065,0,0,1,1.065,1.065v1.444l4.038-3.4-4.038-3.4v1.444a1.065,1.065,0,0,1-1.065,1.065h-9.248Z" transform="translate(-312.432 -182.169)" fill="#440a29"/>
      </g>
      <path id="Trazado_1045241" data-name="Trazado 1045241" d="M193.19,200.235a1.065,1.065,0,0,1-.883-1.391l5.05-15.315H183.234l5.051,15.315a1.065,1.065,0,0,1-.879,1.391,12.092,12.092,0,1,0,5.784,0ZM190.3,220.157a8.178,8.178,0,1,1,8.178-8.178A8.178,8.178,0,0,1,190.3,220.157Z" transform="translate(-151.009 -152.156)" fill="none"/>
      <path id="Trazado_1045242" data-name="Trazado 1045242" d="M229.635,351.776a6.047,6.047,0,1,0,6.047,6.047,6.047,6.047,0,0,0-6.047-6.047Z" transform="translate(-190.348 -297.999)" fill="none"/>
    </g>
  </g>
</svg>
