<svg xmlns="http://www.w3.org/2000/svg" xmlns:xlink="http://www.w3.org/1999/xlink" width="108" height="108" viewBox="0 0 108 108">
  <defs>
    <filter id="Trazado_904820" x="0" y="0" width="108" height="108" filterUnits="userSpaceOnUse">
      <feOffset dy="3" input="SourceAlpha"/>
      <feGaussianBlur stdDeviation="3" result="blur"/>
      <feFlood flood-opacity="0.161"/>
      <feComposite operator="in" in2="blur"/>
      <feComposite in="SourceGraphic"/>
    </filter>
  </defs>
  <g id="Grupo_1206006" data-name="Grupo 1206006" transform="translate(-200 -1800.519)">
    <g id="Grupo_1205950" data-name="Grupo 1205950" transform="translate(209 1806.519)">
      <g id="Grupo_1173585" data-name="Grupo 1173585" transform="translate(0 0)">
        <g id="Grupo_1173428" data-name="Grupo 1173428">
          <g id="Grupo_1171958" data-name="Grupo 1171958">
            <g id="Grupo_1167341" data-name="Grupo 1167341">
              <g id="Grupo_1166792" data-name="Grupo 1166792">
                <g transform="matrix(1, 0, 0, 1, -9, -6)" filter="url(#Trazado_904820)">
                  <g id="Trazado_904820-2" data-name="Trazado 904820" transform="translate(9 6)" fill="#fef9e7">
                    <path d="M 44.99999618530273 88.50006866455078 C 39.12687301635742 88.50006866455078 33.43022155761719 87.35014343261719 28.06829643249512 85.08223724365234 C 22.88852119445801 82.89137268066406 18.23629570007324 79.75466156005859 14.24084663391113 75.75919342041016 C 10.24540901184082 71.76374816894531 7.108683586120605 67.11151885986328 4.917821407318115 61.93174743652344 C 2.649921178817749 56.56980895996094 1.499996185302734 50.8731575012207 1.499996185302734 45.00003433227539 C 1.499996185302734 39.12691116333008 2.649921178817749 33.43024826049805 4.917821407318115 28.06830978393555 C 7.108683586120605 22.88853454589844 10.24540901184082 18.23630905151367 14.24084663391113 14.24085903167725 C 18.23629570007324 10.24540901184082 22.88852119445801 7.108684539794922 28.06829643249512 4.917834281921387 C 33.43022155761719 2.649921894073486 39.12687301635742 1.499996781349182 44.99999618530273 1.499996781349182 C 50.87311935424805 1.499996781349182 56.56977081298828 2.649921894073486 61.93169784545898 4.917834281921387 C 67.11147308349609 7.108684539794922 71.76369476318359 10.24540901184082 75.75914764404297 14.24085903167725 C 79.75458526611328 18.23630905151367 82.89131164550781 22.88853454589844 85.08216857910156 28.06830978393555 C 87.35007476806641 33.43024826049805 88.5 39.12691116333008 88.5 45.00003433227539 C 88.5 50.8731575012207 87.35007476806641 56.56980895996094 85.08216857910156 61.93174743652344 C 82.89131164550781 67.11151885986328 79.75458526611328 71.76374816894531 75.75914764404297 75.75919342041016 C 71.76369476318359 79.75466156005859 67.11147308349609 82.89137268066406 61.93169784545898 85.08223724365234 C 56.56977081298828 87.35014343261719 50.87311935424805 88.50006866455078 44.99999618530273 88.50006866455078 Z" stroke="none"/>
                    <path d="M 44.99999618530273 2.999992370605469 C 39.32870864868164 2.999992370605469 33.82865142822266 4.11004638671875 28.65262603759766 6.299331665039062 C 23.65165710449219 8.414566040039062 19.15968322753906 11.44335174560547 15.301513671875 15.30152130126953 C 11.44333648681641 19.15970611572266 8.414566040039062 23.65166473388672 6.299339294433594 28.65264892578125 C 4.110054016113281 33.82868957519531 2.999992370605469 39.3287467956543 2.999992370605469 45.00003433227539 C 2.999992370605469 50.67132186889648 4.110054016113281 56.17137908935547 6.299339294433594 61.34741973876953 C 8.414566040039062 66.348388671875 11.44333648681641 70.84036254882812 15.301513671875 74.69853210449219 C 19.15968322753906 78.55671691894531 23.65165710449219 81.58549499511719 28.65262603759766 83.70072174072266 C 33.82865142822266 85.89000701904297 39.32870864868164 87.00006103515625 44.99999618530273 87.00006103515625 C 50.67128372192383 87.00006103515625 56.17134094238281 85.89000701904297 61.34736633300781 83.70072174072266 C 66.34834289550781 81.58549499511719 70.84030914306641 78.55671691894531 74.69847869873047 74.69853210449219 C 78.55665588378906 70.84036254882812 81.58542633056641 66.348388671875 83.70065307617188 61.34741973876953 C 85.88993835449219 56.17137908935547 87 50.67132186889648 87 45.00003433227539 C 87 39.3287467956543 85.88993835449219 33.82868957519531 83.70065307617188 28.65264892578125 C 81.58542633056641 23.65166473388672 78.55665588378906 19.15970611572266 74.69847869873047 15.30152130126953 C 70.84030914306641 11.44335174560547 66.34834289550781 8.414566040039062 61.34736633300781 6.299331665039062 C 56.17134094238281 4.11004638671875 50.67128372192383 2.999992370605469 44.99999618530273 2.999992370605469 M 44.99999618530273 -7.62939453125e-06 C 69.85281372070312 -7.62939453125e-06 90 20.14720916748047 90 45.00003433227539 C 90 69.85285949707031 69.85281372070312 90.00006103515625 44.99999618530273 90.00006103515625 C 20.14717864990234 90.00006103515625 -7.62939453125e-06 69.85285949707031 -7.62939453125e-06 45.00003433227539 C -7.62939453125e-06 20.14720916748047 20.14717864990234 -7.62939453125e-06 44.99999618530273 -7.62939453125e-06 Z" stroke="none" fill="#887013"/>
                  </g>
                </g>
              </g>
            </g>
          </g>
        </g>
      </g>
    </g>
    <g id="Spring_Suspension" data-name="Spring Suspension" transform="translate(226.757 1823.628)">
      <path id="Trazado_1045344" data-name="Trazado 1045344" d="M6,11H22.27v6.973H6Z" transform="translate(0.324 1.783)" fill="#7c7d7d"/>
      <path id="Trazado_1045345" data-name="Trazado 1045345" d="M21.946,11v4.649h-9.3A4.649,4.649,0,0,1,8,11Z" transform="translate(0.649 1.783)" fill="#919191"/>
      <rect id="Rect치ngulo_418262" data-name="Rect치ngulo 418262" width="16" height="7" rx="2" transform="translate(6.243 40.891)" fill="#7c7d7d"/>
      <path id="Trazado_1045346" data-name="Trazado 1045346" d="M21.946,37.324v2.324h-9.3A4.649,4.649,0,0,1,8,35H19.621A2.324,2.324,0,0,1,21.946,37.324Z" transform="translate(0.649 5.675)" fill="#919191"/>
      <path id="Trazado_1045347" data-name="Trazado 1045347" d="M11,17h4.649v3.486H11Z" transform="translate(1.135 2.756)" fill="#2c435e"/>
      <path id="Trazado_1045348" data-name="Trazado 1045348" d="M11,18h3.486v2.324H11Z" transform="translate(1.135 2.918)" fill="#374f68"/>
      <path id="Trazado_1045349" data-name="Trazado 1045349" d="M11,32h4.649v3.486H11Z" transform="translate(1.135 5.188)" fill="#2c435e"/>
      <path id="Trazado_1045350" data-name="Trazado 1045350" d="M11,34h3.486v1.162H11Z" transform="translate(1.135 5.512)" fill="#374f68"/>
      <path id="Trazado_1045351" data-name="Trazado 1045351" d="M18.3,41v4.649a2.324,2.324,0,0,1-1.371,2.115c-.593.291-.6.209-5.6.209A2.324,2.324,0,0,1,9,45.649V41Z" transform="translate(0.811 6.647)" fill="#747575"/>
      <path id="Trazado_1045352" data-name="Trazado 1045352" d="M15.973,43v4.649H11.324A2.324,2.324,0,0,1,9,45.324V43Z" transform="translate(0.811 6.972)" fill="#7c7d7d"/>
      <path id="Trazado_1045353" data-name="Trazado 1045353" d="M22.272,9.136v3.486H6C6,8.915,5.526,5.08,9.663,2.337a8.135,8.135,0,0,1,12.609,6.8Z" transform="translate(0.322 0.162)" fill="#7c7d7d"/>
      <path id="Trazado_1045354" data-name="Trazado 1045354" d="M21.946,9.136V10.3H11.486A3.486,3.486,0,0,1,8,6.811,8.042,8.042,0,0,1,9.336,2.337a8.135,8.135,0,0,1,12.609,6.8Z" transform="translate(0.649 0.162)" fill="#919191"/>
      <path id="Trazado_1045355" data-name="Trazado 1045355" d="M28,11H44.27v6.973H28Z" transform="translate(3.891 1.783)" fill="#7c7d7d"/>
      <path id="Trazado_1045356" data-name="Trazado 1045356" d="M43.946,11v4.649h-9.3A4.649,4.649,0,0,1,30,11Z" transform="translate(4.215 1.783)" fill="#919191"/>
      <rect id="Rect치ngulo_418263" data-name="Rect치ngulo 418263" width="16" height="7" rx="2" transform="translate(32.243 40.891)" fill="#7c7d7d"/>
      <path id="Trazado_1045357" data-name="Trazado 1045357" d="M43.946,37.324v2.324h-9.3A4.649,4.649,0,0,1,30,35H41.621A2.324,2.324,0,0,1,43.946,37.324Z" transform="translate(4.215 5.675)" fill="#919191"/>
      <path id="Trazado_1045358" data-name="Trazado 1045358" d="M33,17h4.649v3.486H33Z" transform="translate(4.702 2.756)" fill="#2c435e"/>
      <path id="Trazado_1045359" data-name="Trazado 1045359" d="M33,18h3.486v2.324H33Z" transform="translate(4.702 2.918)" fill="#374f68"/>
      <path id="Trazado_1045360" data-name="Trazado 1045360" d="M33,32h4.649v3.486H33Z" transform="translate(4.702 5.188)" fill="#2c435e"/>
      <path id="Trazado_1045361" data-name="Trazado 1045361" d="M33,34h3.486v1.162H33Z" transform="translate(4.702 5.512)" fill="#374f68"/>
      <path id="Trazado_1045362" data-name="Trazado 1045362" d="M40.3,41v4.649a2.324,2.324,0,0,1-1.371,2.115c-.593.291-.6.209-5.6.209A2.324,2.324,0,0,1,31,45.649V41Z" transform="translate(4.378 6.647)" fill="#747575"/>
      <path id="Trazado_1045363" data-name="Trazado 1045363" d="M37.973,43v4.649H33.324A2.324,2.324,0,0,1,31,45.324V43Z" transform="translate(4.378 6.972)" fill="#7c7d7d"/>
      <path id="Trazado_1045364" data-name="Trazado 1045364" d="M44.272,9.136v3.486H28c0-3.707-.476-7.542,3.661-10.285a8.135,8.135,0,0,1,12.609,6.8Z" transform="translate(3.889 0.162)" fill="#7c7d7d"/>
      <path id="Trazado_1045365" data-name="Trazado 1045365" d="M43.946,9.136V10.3H33.486A3.486,3.486,0,0,1,30,6.811a8.042,8.042,0,0,1,1.336-4.474,8.135,8.135,0,0,1,12.609,6.8Z" transform="translate(4.215 0.162)" fill="#919191"/>
      <g id="Grupo_1206005" data-name="Grupo 1206005" transform="translate(4)">
        <path id="Trazado_1045366" data-name="Trazado 1045366" d="M23.756,51.134H20.27V48.809a3.486,3.486,0,0,0,3.486-3.486V43a3.486,3.486,0,0,0-3.486-3.486H17.946V38.35h4.649a1.162,1.162,0,1,0,0-2.324H16.783V35.41L22.919,33.7a1.173,1.173,0,0,0-.325-2.324H16.783v-.616l6.136-1.708a1.173,1.173,0,0,0-.325-2.324H16.783v-.616L22.919,24.4a1.173,1.173,0,0,0-.325-2.324H17.946V20.918h4.649a1.162,1.162,0,0,0,1.162-1.162V9.3a9.3,9.3,0,1,0-18.594,0V19.756a1.162,1.162,0,0,0,1.162,1.162h4.649V22.08H6.324a1.162,1.162,0,1,0,0,2.324h5.811v.616L6,26.729a1.173,1.173,0,1,0,.325,2.324h5.811v.616L6,31.378A1.173,1.173,0,1,0,6.324,33.7h5.811v.616L6,36.026a1.173,1.173,0,1,0,.325,2.324h4.649v1.162H8.649A3.486,3.486,0,0,0,5.162,43v2.324a3.486,3.486,0,0,0,3.486,3.486v2.324H5.162a1.162,1.162,0,0,0,0,2.324h3.7a3.486,3.486,0,0,0,3.277,2.324h4.649a3.486,3.486,0,0,0,3.277-2.324h3.7a1.162,1.162,0,1,0,0-2.324Zm-9.3-48.809A6.973,6.973,0,0,1,21.432,9.3v2.324H7.486V9.3a6.973,6.973,0,0,1,6.973-6.973ZM7.486,13.946H21.432v4.649H7.486Zm8.135,6.973V22.08H13.3V20.918ZM13.3,38.35h2.324v1.162H13.3ZM7.486,45.323V43a1.162,1.162,0,0,1,1.162-1.162H20.27A1.162,1.162,0,0,1,21.432,43v2.324a1.162,1.162,0,0,1-1.162,1.162H8.649A1.162,1.162,0,0,1,7.486,45.323Zm9.3,8.135H12.135A1.162,1.162,0,0,1,10.973,52.3V48.809h6.973V52.3A1.162,1.162,0,0,1,16.783,53.458Z" transform="translate(-4)" fill="#231f20"/>
        <ellipse id="Elipse_12652" data-name="Elipse 12652" cx="2.5" cy="2" rx="2.5" ry="2" transform="translate(8.243 4.891)" fill="#231f20"/>
        <path id="Trazado_1045367" data-name="Trazado 1045367" d="M45.756,51.134H42.27V48.809a3.486,3.486,0,0,0,3.486-3.486V43a3.486,3.486,0,0,0-3.486-3.486H39.946V38.35h4.649a1.162,1.162,0,1,0,0-2.324H38.783V35.41L44.919,33.7a1.173,1.173,0,0,0-.325-2.324H38.783v-.616l6.136-1.708a1.173,1.173,0,0,0-.325-2.324H38.783v-.616L44.919,24.4a1.173,1.173,0,1,0-.325-2.324H39.946V20.918h4.649a1.162,1.162,0,0,0,1.162-1.162V9.3a9.3,9.3,0,1,0-18.594,0V19.756a1.162,1.162,0,0,0,1.162,1.162h4.649V22.08H28.324a1.162,1.162,0,1,0,0,2.324h5.811v.616L28,26.729a1.173,1.173,0,1,0,.325,2.324h5.811v.616L28,31.378a1.173,1.173,0,1,0,.325,2.324h5.811v.616L28,36.026a1.173,1.173,0,1,0,.325,2.324h4.649v1.162H30.649A3.486,3.486,0,0,0,27.162,43v2.324a3.486,3.486,0,0,0,3.486,3.486v2.324H27.162a1.162,1.162,0,1,0,0,2.324h3.7a3.486,3.486,0,0,0,3.277,2.324h4.649a3.486,3.486,0,0,0,3.277-2.324h3.7a1.162,1.162,0,0,0,0-2.324Zm-9.3-48.809A6.973,6.973,0,0,1,43.432,9.3v2.324H29.486V9.3A6.973,6.973,0,0,1,36.459,2.324ZM29.486,13.946H43.432v4.649H29.486Zm8.135,6.973V22.08H35.3V20.918ZM35.3,38.35h2.324v1.162H35.3Zm-5.811,6.973V43a1.162,1.162,0,0,1,1.162-1.162H42.27A1.162,1.162,0,0,1,43.432,43v2.324a1.162,1.162,0,0,1-1.162,1.162H30.649A1.162,1.162,0,0,1,29.486,45.323Zm9.3,8.135H34.135A1.162,1.162,0,0,1,32.973,52.3V48.809h6.973V52.3A1.162,1.162,0,0,1,38.783,53.458Z" transform="translate(-0.433)" fill="#231f20"/>
        <ellipse id="Elipse_12653" data-name="Elipse 12653" cx="2.5" cy="2" rx="2.5" ry="2" transform="translate(33.243 4.891)" fill="#231f20"/>
      </g>
    </g>
  </g>
</svg>
