<svg xmlns="http://www.w3.org/2000/svg" width="171.359" height="38.925" viewBox="0 0 171.359 38.925">
  <g id="Grupo_1206033" data-name="Grupo 1206033" transform="translate(21.156 -57.525)">
    <path id="Contenido" d="M3.656-.035a3.368,3.368,0,0,1-.5.114A3.5,3.5,0,0,1,2.61.123,1.793,1.793,0,0,1,1.283-.321,1.618,1.618,0,0,1,.844-1.512,3.631,3.631,0,0,1,.888-2.03q.044-.3.141-.738L2.338-9H3.8L2.479-2.733q-.079.369-.11.571a2.338,2.338,0,0,0-.031.343.724.724,0,0,0,.2.549.886.886,0,0,0,.628.189,2.662,2.662,0,0,0,.4-.026,1.772,1.772,0,0,0,.321-.079ZM4.685-12.208a.946.946,0,0,1-.268.677.88.88,0,0,1-.664.281.934.934,0,0,1-.672-.277.911.911,0,0,1-.286-.681.843.843,0,0,1,.286-.659.977.977,0,0,1,.672-.255.921.921,0,0,1,.659.259A.865.865,0,0,1,4.685-12.208ZM3.148,2.61l.22-1.046H10.83L10.619,2.61ZM16.06,1.642h-.021a1.514,1.514,0,0,0-.269-.12.986.986,0,0,0-.331-.059.971.971,0,0,0-.569.192,2.092,2.092,0,0,0-.495.508,3.641,3.641,0,0,0-.39.72,4.919,4.919,0,0,0-.259.831L13.235,6h-.841l.738-3.486q.046-.215.092-.451t.085-.472q.038-.236.069-.451t.046-.39h.831q-.015.154-.036.326t-.041.333q-.021.161-.041.292t-.031.2h.021a5.659,5.659,0,0,1,.333-.528,2.44,2.44,0,0,1,.356-.4,1.51,1.51,0,0,1,.4-.259A1.122,1.122,0,0,1,15.67.622a1.447,1.447,0,0,1,.285.028q.141.028.254.059Zm4.712.338a1.562,1.562,0,0,1-.185.756,1.53,1.53,0,0,1-.61.584,3.664,3.664,0,0,1-1.123.377,9.632,9.632,0,0,1-1.723.138.658.658,0,0,0-.01.118v.1a1.743,1.743,0,0,0,.077.523,1.18,1.18,0,0,0,.238.431,1.125,1.125,0,0,0,.415.292,1.536,1.536,0,0,0,.6.108,2.557,2.557,0,0,0,.777-.136,3.338,3.338,0,0,0,.807-.387l-.159.831a3.332,3.332,0,0,1-.672.287,2.887,2.887,0,0,1-.872.123,2.368,2.368,0,0,1-.977-.179,1.72,1.72,0,0,1-.641-.479,1.869,1.869,0,0,1-.351-.692,3.1,3.1,0,0,1-.108-.823,3.806,3.806,0,0,1,.1-.889,3.622,3.622,0,0,1,.29-.8,3.378,3.378,0,0,1,.449-.674,2.916,2.916,0,0,1,.579-.52A2.686,2.686,0,0,1,18.362.74a2.43,2.43,0,0,1,.754-.118,2.178,2.178,0,0,1,.715.108,1.494,1.494,0,0,1,.518.295,1.257,1.257,0,0,1,.315.433A1.29,1.29,0,0,1,20.772,1.981Zm-.856.041a.593.593,0,0,0-.238-.5,1.027,1.027,0,0,0-.633-.179,1.42,1.42,0,0,0-.6.136,1.958,1.958,0,0,0-.538.374,2.336,2.336,0,0,0-.426.569,2.65,2.65,0,0,0-.261.715A8.861,8.861,0,0,0,18.46,3.06a3.232,3.232,0,0,0,.836-.218,1.123,1.123,0,0,0,.472-.351A.786.786,0,0,0,19.916,2.022Zm5.7,2.3q-.041.195-.079.438t-.067.482q-.028.238-.046.443T25.4,6h-.872q.005-.1.015-.246t.028-.3q.018-.154.036-.3t.038-.256h-.021q-.159.251-.323.474a2.283,2.283,0,0,1-.364.392,1.594,1.594,0,0,1-.446.267,1.714,1.714,0,0,1-1.207-.026,1.316,1.316,0,0,1-.49-.367,1.689,1.689,0,0,1-.315-.61,2.974,2.974,0,0,1-.11-.854,4.277,4.277,0,0,1,.062-.677,4.14,4.14,0,0,1,.208-.774,3.942,3.942,0,0,1,.39-.772,2.93,2.93,0,0,1,.6-.674A2.886,2.886,0,0,1,23.49.8,3.315,3.315,0,0,1,24.628.622a6.05,6.05,0,0,1,.846.062q.436.062.866.149Zm-.241-2.876q-.179-.041-.42-.072A3.574,3.574,0,0,0,24.5,1.34a2.046,2.046,0,0,0-.787.141,2.019,2.019,0,0,0-.592.369,2.174,2.174,0,0,0-.423.525,3.258,3.258,0,0,0-.274.608,3.575,3.575,0,0,0-.146.613,3.878,3.878,0,0,0-.044.549,2.457,2.457,0,0,0,.051.525,1.147,1.147,0,0,0,.161.4.758.758,0,0,0,.282.254.869.869,0,0,0,.408.09,1.11,1.11,0,0,0,.479-.105,1.662,1.662,0,0,0,.418-.285,2.336,2.336,0,0,0,.354-.415,4.085,4.085,0,0,0,.287-.5,4.275,4.275,0,0,0,.218-.538q.09-.274.146-.531ZM28.8,5.979a1.965,1.965,0,0,1-.29.067,2.041,2.041,0,0,1-.32.026,1.046,1.046,0,0,1-.774-.259.944.944,0,0,1-.256-.695,2.118,2.118,0,0,1,.026-.3q.026-.174.082-.431l1.312-6.162h.851L28.11,4.406q-.046.215-.064.333a1.364,1.364,0,0,0-.018.2.423.423,0,0,0,.115.32.517.517,0,0,0,.367.11,1.553,1.553,0,0,0,.233-.015,1.033,1.033,0,0,0,.187-.046Z" transform="translate(-22 82.5)" fill="#212429"/>
    <path id="Contenido-2" data-name="Contenido" d="M7.734-8.587,2.408-1.23H7.682V0H.29V-.448L5.616-7.77H.791V-9H7.734ZM12.1-11.424a1.52,1.52,0,0,0-.105-.59,1.168,1.168,0,0,0-.287-.418,1.176,1.176,0,0,0-.428-.249,1.676,1.676,0,0,0-.533-.082,1.764,1.764,0,0,0-.482.067,2.343,2.343,0,0,0-.459.185,2.823,2.823,0,0,0-.431.282,3.111,3.111,0,0,0-.387.364v-.9a2.514,2.514,0,0,1,.792-.525,2.789,2.789,0,0,1,1.069-.182,2.58,2.58,0,0,1,.836.131,1.916,1.916,0,0,1,.666.382,1.766,1.766,0,0,1,.443.62,2.092,2.092,0,0,1,.161.846,2.9,2.9,0,0,1-.1.79,2.442,2.442,0,0,1-.3.666,3.216,3.216,0,0,1-.51.6,7.225,7.225,0,0,1-.723.584q-.518.369-.854.631a3.773,3.773,0,0,0-.533.49,1.421,1.421,0,0,0-.277.456,1.6,1.6,0,0,0-.079.525h3.66V-6H8.7v-.364a3.033,3.033,0,0,1,.1-.831,2.157,2.157,0,0,1,.338-.682,3.784,3.784,0,0,1,.618-.646q.382-.323.936-.728a5.915,5.915,0,0,0,.669-.549,2.852,2.852,0,0,0,.433-.523,1.878,1.878,0,0,0,.233-.531A2.288,2.288,0,0,0,12.1-11.424Z" transform="translate(25.905 71)" fill="#212429"/>
    <path id="Contenido-3" data-name="Contenido" d="M7.734-8.587,2.408-1.23H7.682V0H.29V-.448L5.616-7.77H.791V-9H7.734ZM11.852-6h-.841v-6.352a1.946,1.946,0,0,1-.285.223,4.638,4.638,0,0,1-.42.249q-.233.123-.492.231a3.577,3.577,0,0,1-.5.169v-.851a4.888,4.888,0,0,0,.587-.208q.31-.131.61-.292t.566-.338a4.5,4.5,0,0,0,.461-.346h.318Z" transform="translate(25.905 96.45)" fill="#212429"/>
    <path id="Contenido-4" data-name="Contenido" d="M8.517-3.85A4.242,4.242,0,0,1,8.2-2.18,3.651,3.651,0,0,1,7.3-.9,4.034,4.034,0,0,1,5.889-.07,5.517,5.517,0,0,1,4.052.22a5.074,5.074,0,0,1-2.61-.527V-1.837a4.8,4.8,0,0,0,2.628.826,3.556,3.556,0,0,0,1.235-.2,2.744,2.744,0,0,0,.936-.562,2.408,2.408,0,0,0,.593-.87A2.945,2.945,0,0,0,7.04-3.762a2.391,2.391,0,0,0-.826-1.929,3.623,3.623,0,0,0-2.4-.7q-.255,0-.536.009t-.562.022q-.281.013-.549.031t-.488.044L2.109-12.6H7.937v1.3H3.357L3.1-7.6q.281-.018.6-.031t.563-.013a5.656,5.656,0,0,1,1.793.264,3.8,3.8,0,0,1,1.34.751,3.151,3.151,0,0,1,.835,1.2A4.2,4.2,0,0,1,8.517-3.85Zm10.153-2.5a12.381,12.381,0,0,1-.286,2.8,6.533,6.533,0,0,1-.826,2.061A3.718,3.718,0,0,1,16.231-.215,3.633,3.633,0,0,1,14.442.22,3.393,3.393,0,0,1,12.75-.2,3.546,3.546,0,0,1,11.5-1.415a6.17,6.17,0,0,1-.773-1.964,12.146,12.146,0,0,1-.264-2.667,13.749,13.749,0,0,1,.277-2.918,6.674,6.674,0,0,1,.813-2.123,3.619,3.619,0,0,1,1.332-1.292,3.739,3.739,0,0,1,1.824-.435Q18.67-12.814,18.67-6.354Zm-1.477.141q0-5.379-2.558-5.379-2.7,0-2.7,5.476,0,5.106,2.646,5.106Q17.193-1.011,17.193-6.214Z" transform="translate(79.905 71)" fill="#212429"/>
    <path id="Contenido-5" data-name="Contenido" d="M10.3-6.539H2.039V-7.7H10.3Zm0,3.744H2.039v-1.16H10.3Z" transform="translate(54.716 82.5)" fill="#212429"/>
    <path id="Contenido-6" data-name="Contenido" d="M10.3-6.539H2.039V-7.7H10.3Zm0,3.744H2.039v-1.16H10.3ZM24.05-9.3a2.606,2.606,0,0,0-.18-1.011,2,2,0,0,0-.492-.716,2.017,2.017,0,0,0-.734-.426,2.874,2.874,0,0,0-.914-.141,3.023,3.023,0,0,0-.826.114,4.016,4.016,0,0,0-.787.316,4.839,4.839,0,0,0-.738.483,5.333,5.333,0,0,0-.664.624V-11.6a4.309,4.309,0,0,1,1.358-.9,4.781,4.781,0,0,1,1.833-.312,4.424,4.424,0,0,1,1.433.224,3.285,3.285,0,0,1,1.143.655,3.027,3.027,0,0,1,.76,1.063,3.587,3.587,0,0,1,.277,1.45,4.973,4.973,0,0,1-.171,1.354,4.186,4.186,0,0,1-.519,1.143A5.513,5.513,0,0,1,23.954-5.9a12.387,12.387,0,0,1-1.239,1q-.888.633-1.463,1.081a6.469,6.469,0,0,0-.914.839,2.436,2.436,0,0,0-.475.782,2.734,2.734,0,0,0-.136.9H26V0H18.223V-.624A5.2,5.2,0,0,1,18.4-2.048a3.7,3.7,0,0,1,.58-1.169,6.487,6.487,0,0,1,1.059-1.107q.655-.554,1.6-1.248a10.141,10.141,0,0,0,1.147-.94,4.889,4.889,0,0,0,.743-.9,3.22,3.22,0,0,0,.4-.91A3.922,3.922,0,0,0,24.05-9.3ZM35.487-3.85a4.242,4.242,0,0,1-.316,1.67A3.651,3.651,0,0,1,34.27-.9a4.034,4.034,0,0,1-1.411.826,5.517,5.517,0,0,1-1.837.29,5.074,5.074,0,0,1-2.61-.527V-1.837a4.8,4.8,0,0,0,2.628.826,3.556,3.556,0,0,0,1.235-.2,2.744,2.744,0,0,0,.936-.562,2.408,2.408,0,0,0,.593-.87,2.945,2.945,0,0,0,.207-1.116,2.391,2.391,0,0,0-.826-1.929,3.623,3.623,0,0,0-2.4-.7q-.255,0-.536.009t-.562.022q-.281.013-.549.031t-.488.044L29.08-12.6h5.827v1.3H30.328l-.255,3.7q.281-.018.6-.031t.563-.013a5.656,5.656,0,0,1,1.793.264,3.8,3.8,0,0,1,1.34.751,3.151,3.151,0,0,1,.835,1.2A4.2,4.2,0,0,1,35.487-3.85Z" transform="translate(114.716 82.5)" fill="#212429"/>
    <path id="Contenido-7" data-name="Contenido" d="M6.785-9.3A2.606,2.606,0,0,0,6.6-10.31a2,2,0,0,0-.492-.716,2.017,2.017,0,0,0-.734-.426,2.874,2.874,0,0,0-.914-.141,3.023,3.023,0,0,0-.826.114,4.016,4.016,0,0,0-.787.316,4.839,4.839,0,0,0-.738.483,5.333,5.333,0,0,0-.664.624V-11.6a4.309,4.309,0,0,1,1.358-.9,4.781,4.781,0,0,1,1.833-.312,4.424,4.424,0,0,1,1.433.224,3.285,3.285,0,0,1,1.143.655,3.027,3.027,0,0,1,.76,1.063,3.587,3.587,0,0,1,.277,1.45,4.973,4.973,0,0,1-.171,1.354,4.186,4.186,0,0,1-.519,1.143A5.513,5.513,0,0,1,6.688-5.9a12.387,12.387,0,0,1-1.239,1q-.888.633-1.463,1.081a6.469,6.469,0,0,0-.914.839,2.436,2.436,0,0,0-.475.782,2.734,2.734,0,0,0-.136.9H8.736V0H.958V-.624a5.2,5.2,0,0,1,.176-1.424,3.7,3.7,0,0,1,.58-1.169A6.487,6.487,0,0,1,2.773-4.324q.655-.554,1.6-1.248a10.141,10.141,0,0,0,1.147-.94,4.889,4.889,0,0,0,.743-.9,3.22,3.22,0,0,0,.4-.91A3.922,3.922,0,0,0,6.785-9.3Z" transform="translate(79.121 96)" fill="#212429"/>
    <path id="Trazado_1045198" data-name="Trazado 1045198" d="M155,81.725H121.811v-1H155Z" transform="translate(-105 -4)" fill="#212429"/>
    <path id="Trazado_1045198-2" data-name="Trazado 1045198" d="M160.086,81.725H121.811v-1h38.275Z" transform="translate(-51 -4)" fill="#212429"/>
  </g>
</svg>
