<svg xmlns="http://www.w3.org/2000/svg" xmlns:xlink="http://www.w3.org/1999/xlink" width="113" height="113" viewBox="0 0 113 113">
  <defs>
    <filter id="Trazado_982547" x="0" y="0" width="113" height="113" filterUnits="userSpaceOnUse">
      <feOffset dy="3" input="SourceAlpha"/>
      <feGaussianBlur stdDeviation="3" result="blur"/>
      <feFlood flood-opacity="0.161"/>
      <feComposite operator="in" in2="blur"/>
      <feComposite in="SourceGraphic"/>
    </filter>
  </defs>
  <g id="Grupo_1206016" data-name="Grupo 1206016" transform="translate(-7600.5 -6182.623)">
    <g id="Grupo_1205954" data-name="Grupo 1205954" transform="translate(6489.5 5246)">
      <g id="Grupo_1202358" data-name="Grupo 1202358" transform="translate(317.51 -525)">
        <g id="Grupo_1177632" data-name="Grupo 1177632" transform="translate(-4493 -458.649)">
          <g id="Grupo_1176928" data-name="Grupo 1176928" transform="translate(5295.49 1926.273)">
            <g id="Grupo_1172322" data-name="Grupo 1172322" transform="translate(0 0)">
              <g id="Grupo_1164700" data-name="Grupo 1164700">
                <g id="Grupo_1160931" data-name="Grupo 1160931">
                  <g id="Grupo_1160749" data-name="Grupo 1160749">
                    <g id="Grupo_1158891" data-name="Grupo 1158891">
                      <g id="Grupo_1157406" data-name="Grupo 1157406">
                        <g id="Grupo_1155793" data-name="Grupo 1155793">
                          <g id="Grupo_1154704" data-name="Grupo 1154704">
                            <g id="Grupo_1150790" data-name="Grupo 1150790">
                              <g id="Grupo_1154214" data-name="Grupo 1154214">
                                <g id="Grupo_1152583" data-name="Grupo 1152583">
                                  <g id="Grupo_1146973" data-name="Grupo 1146973">
                                    <g id="Grupo_1146954" data-name="Grupo 1146954">
                                      <g transform="matrix(1, 0, 0, 1, -9, -6)" filter="url(#Trazado_982547)">
                                        <g id="Trazado_982547-2" data-name="Trazado 982547" transform="translate(9 6)" fill="#fbedfe">
                                          <path d="M 47.5000114440918 93.49987030029297 C 41.28938293457031 93.49987030029297 35.26534652709961 92.28384399414062 29.5951976776123 89.88558959960938 C 24.11773109436035 87.56881713867188 19.19814491271973 84.25183868408203 14.97310447692871 80.02680206298828 C 10.74805164337158 75.80176544189453 7.43107795715332 70.88218688964844 5.114304542541504 65.40472412109375 C 2.716038227081299 59.73458862304688 1.500011444091797 53.71054840087891 1.500011444091797 47.49993515014648 C 1.500011444091797 41.28932189941406 2.716038227081299 35.26528167724609 5.114304542541504 29.59514808654785 C 7.43107795715332 24.1176815032959 10.74805164337158 19.1981086730957 14.97310447692871 14.97306823730469 C 19.19814491271973 10.74802875518799 24.11773109436035 7.431055068969727 29.5951976776123 5.11428165435791 C 35.26534652709961 2.716028451919556 41.28938293457031 1.500001788139343 47.5000114440918 1.500001788139343 C 53.71063995361328 1.500001788139343 59.73467636108398 2.716028451919556 65.40482330322266 5.11428165435791 C 70.88229370117188 7.431055068969727 75.8018798828125 10.74802875518799 80.02691650390625 14.97306823730469 C 84.25196838378906 19.1981086730957 87.56894683837891 24.1176815032959 89.88571929931641 29.59514808654785 C 92.28398132324219 35.26528167724609 93.50001525878906 41.28932189941406 93.50001525878906 47.49993515014648 C 93.50001525878906 53.71054840087891 92.28398132324219 59.73458862304688 89.88571929931641 65.40472412109375 C 87.56894683837891 70.88218688964844 84.25196838378906 75.80176544189453 80.02691650390625 80.02680206298828 C 75.8018798828125 84.25183868408203 70.88229370117188 87.56881713867188 65.40482330322266 89.88558959960938 C 59.73467636108398 92.28384399414062 53.71063995361328 93.49987030029297 47.5000114440918 93.49987030029297 Z" stroke="none"/>
                                          <path d="M 47.5000114440918 3 C 41.49122619628906 3 35.66378021240234 4.1761474609375 30.17951965332031 6.495796203613281 C 24.880859375 8.7369384765625 20.12153625488281 11.94596862792969 16.03376770019531 16.03373718261719 C 11.94598388671875 20.12149047851562 8.736968994140625 24.88081359863281 6.495811462402344 30.17947387695312 C 4.176162719726562 35.66371917724609 3.000007629394531 41.49116516113281 3.000007629394531 47.49993515014648 C 3.000007629394531 53.50870513916016 4.176162719726562 59.33615112304688 6.495811462402344 64.82039642333984 C 8.736968994140625 70.11905670166016 11.94598388671875 74.87837982177734 16.03376770019531 78.96613311767578 C 20.12153625488281 83.05390167236328 24.880859375 86.26293182373047 30.17951965332031 88.50407409667969 C 35.66378021240234 90.82372283935547 41.49122619628906 91.99987030029297 47.5000114440918 91.99987030029297 C 53.50879669189453 91.99987030029297 59.33624267578125 90.82372283935547 64.82050323486328 88.50407409667969 C 70.11916351318359 86.26293182373047 74.87848663330078 83.05390167236328 78.96625518798828 78.96613311767578 C 83.05403900146484 74.87837982177734 86.2630615234375 70.11905670166016 88.50421142578125 64.82039642333984 C 90.82386016845703 59.33615112304688 92.00001525878906 53.50870513916016 92.00001525878906 47.49993515014648 C 92.00001525878906 41.49116516113281 90.82386016845703 35.66371917724609 88.50421142578125 30.17947387695312 C 86.2630615234375 24.88081359863281 83.05403900146484 20.12149047851562 78.96625518798828 16.03373718261719 C 74.87848663330078 11.94596862792969 70.11916351318359 8.7369384765625 64.82050323486328 6.495796203613281 C 59.33624267578125 4.1761474609375 53.50879669189453 3 47.5000114440918 3 M 47.5000114440918 0 C 73.73353576660156 0 95.00001525878906 21.26644134521484 95.00001525878906 47.49993515014648 C 95.00001525878906 73.73342895507812 73.73353576660156 94.99987030029297 47.5000114440918 94.99987030029297 C 21.26648712158203 94.99987030029297 7.62939453125e-06 73.73342895507812 7.62939453125e-06 47.49993515014648 C 7.62939453125e-06 21.26644134521484 21.26648712158203 0 47.5000114440918 0 Z" stroke="none" fill="#7b3289"/>
                                        </g>
                                      </g>
                                    </g>
                                  </g>
                                </g>
                              </g>
                            </g>
                          </g>
                        </g>
                      </g>
                    </g>
                  </g>
                </g>
              </g>
            </g>
          </g>
        </g>
      </g>
    </g>
    <g id="balancing_998302" transform="translate(7623 6177.122)">
      <g id="Grupo_1206014" data-name="Grupo 1206014" transform="translate(0.996 29.827)">
        <g id="Grupo_1206013" data-name="Grupo 1206013" transform="translate(0 0)">
          <path id="Trazado_1045400" data-name="Trazado 1045400" d="M72.446,227.81H8.391a.89.89,0,0,0-.891.891v5.393a.89.89,0,0,0,.891.891H72.446a1.06,1.06,0,0,0,1.061-1.06V228.87A1.061,1.061,0,0,0,72.446,227.81Z" transform="translate(-7.5 -202.379)" fill="#d1d5cd"/>
          <path id="Trazado_1045401" data-name="Trazado 1045401" d="M72.446,249.745H8.391a.89.89,0,0,1-.891-.891V252.2a.89.89,0,0,0,.891.891H72.446a1.06,1.06,0,0,0,1.061-1.06v-3.344A1.06,1.06,0,0,1,72.446,249.745Z" transform="translate(-7.5 -220.482)" fill="#c7c9c3"/>
          <path id="Trazado_1045402" data-name="Trazado 1045402" d="M146.087,187.87H110.236a1.575,1.575,0,0,0-1.576,1.575V204.7a1.575,1.575,0,0,0,1.576,1.575h35.851a1.575,1.575,0,0,0,1.576-1.575V189.445A1.575,1.575,0,0,0,146.087,187.87Z" transform="translate(-95.225 -167.744)" fill="#fca51a"/>
          <path id="Trazado_1045403" data-name="Trazado 1045403" d="M146.087,275.9H110.236a1.575,1.575,0,0,1-1.576-1.575v5.352a1.575,1.575,0,0,0,1.576,1.575h35.851a1.575,1.575,0,0,0,1.576-1.575v-5.352A1.575,1.575,0,0,1,146.087,275.9Z" transform="translate(-95.225 -242.715)" fill="#ff7503"/>
          <g id="Grupo_1206012" data-name="Grupo 1206012" transform="translate(18.272)">
            <g id="Grupo_1206011" data-name="Grupo 1206011" transform="translate(0)">
              <g id="Grupo_1206010" data-name="Grupo 1206010">
                <g id="Grupo_1206009" data-name="Grupo 1206009">
                  <path id="Trazado_1045404" data-name="Trazado 1045404" d="M174.41,74.865V90.717a3.961,3.961,0,0,1-3.96,3.962H149.04a3.961,3.961,0,0,1-3.96-3.962V40.292a3.961,3.961,0,0,1,3.96-3.962h21.409a3.961,3.961,0,0,1,3.96,3.962V74.865Z" transform="translate(-145.08 -36.33)" fill="#70727f"/>
                </g>
              </g>
            </g>
          </g>
          <path id="Trazado_1045405" data-name="Trazado 1045405" d="M152.5,90.717V40.292a3.961,3.961,0,0,1,3.96-3.962H149.04a3.961,3.961,0,0,0-3.96,3.962V90.717a3.961,3.961,0,0,0,3.96,3.962h7.422A3.961,3.961,0,0,1,152.5,90.717Z" transform="translate(-126.808 -36.33)" fill="#636570"/>
        </g>
      </g>
      <g id="Grupo_1206015" data-name="Grupo 1206015" transform="translate(0 28.831)">
        <path id="Trazado_1045406" data-name="Trazado 1045406" d="M211.406,62.9a1,1,0,0,0-1,1V90.1a1,1,0,1,0,1.992,0V63.893A1,1,0,0,0,211.406,62.9Z" transform="translate(-182.465 -58.373)"/>
        <path id="Trazado_1045407" data-name="Trazado 1045407" d="M211.406,293.139a1,1,0,0,0-1,1v3.432a1,1,0,0,0,1.992,0v-3.432A1,1,0,0,0,211.406,293.139Z" transform="translate(-182.465 -258.036)"/>
        <path id="Trazado_1045408" data-name="Trazado 1045408" d="M211.406,349.524a1,1,0,0,0-1,1v11.233a1,1,0,1,0,1.992,0V350.52A1,1,0,0,0,211.406,349.524Z" transform="translate(-182.465 -306.933)"/>
        <path id="Trazado_1045409" data-name="Trazado 1045409" d="M286.586,62.9a1,1,0,0,0-1,1V90.1a1,1,0,0,0,1.992,0V63.893A1,1,0,0,0,286.586,62.9Z" transform="translate(-247.661 -58.373)"/>
        <path id="Trazado_1045410" data-name="Trazado 1045410" d="M286.586,293.139a1,1,0,0,0-1,1v3.432a1,1,0,0,0,1.992,0v-3.432A1,1,0,0,0,286.586,293.139Z" transform="translate(-247.661 -258.036)"/>
        <path id="Trazado_1045411" data-name="Trazado 1045411" d="M286.586,349.524a1,1,0,0,0-1,1v11.233a1,1,0,0,0,1.992,0V350.52A1,1,0,0,0,286.586,349.524Z" transform="translate(-247.661 -306.933)"/>
        <path id="Trazado_1045412" data-name="Trazado 1045412" d="M249,243.8a1,1,0,0,0-1,1v25.274a1,1,0,0,0,1.992,0V244.8A1,1,0,0,0,249,243.8Z" transform="translate(-215.063 -215.251)"/>
        <path id="Trazado_1045413" data-name="Trazado 1045413" d="M249,185.066a1,1,0,0,0-1,1v3.432a1,1,0,0,0,1.992,0v-3.432A1,1,0,0,0,249,185.066Z" transform="translate(-215.063 -164.316)"/>
        <path id="Trazado_1045414" data-name="Trazado 1045414" d="M249,62.9a1,1,0,0,0-1,1V76.062a1,1,0,1,0,1.992,0V63.893A1,1,0,0,0,249,62.9Z" transform="translate(-215.063 -58.373)"/>
        <path id="Trazado_1045415" data-name="Trazado 1045415" d="M65.942,54.261H60.96a1,1,0,0,0,0,1.992h4.982a.065.065,0,0,1,.065.065v5.055a.065.065,0,0,1-.065.065H54.431V56.253h2.545a1,1,0,1,0,0-1.992H54.431V51.529a2.575,2.575,0,0,0-2.572-2.572H49.594V33.788a4.963,4.963,0,0,0-4.957-4.957H23.229a4.963,4.963,0,0,0-4.957,4.957V48.957H16.007a2.575,2.575,0,0,0-2.572,2.572v2.733H1.887A1.889,1.889,0,0,0,0,56.148v5.394A1.889,1.889,0,0,0,1.887,63.43H13.435v3.357a2.575,2.575,0,0,0,2.572,2.572h2.265V84.215a4.963,4.963,0,0,0,4.957,4.957H44.637a4.963,4.963,0,0,0,4.957-4.957V69.358h2.265a2.575,2.575,0,0,0,2.572-2.572V63.43H65.942A2.059,2.059,0,0,0,68,61.373V56.318A2.059,2.059,0,0,0,65.942,54.261ZM1.992,61.438V56.253H13.435v5.184Zm14.015,5.928a.58.58,0,0,1-.58-.58h0V51.528h0a.58.58,0,0,1,.58-.58h2.265V67.366Zm4.257,16.849h0V33.788h0a2.97,2.97,0,0,1,2.376-2.906V87.121A2.97,2.97,0,0,1,20.264,84.215Zm4.368,2.965V30.823h18.6V87.18ZM47.6,84.215a2.97,2.97,0,0,1-2.376,2.906V30.882A2.97,2.97,0,0,1,47.6,33.788h0V84.215Zm4.836-17.428a.58.58,0,0,1-.58.58H49.594V50.949h2.265a.58.58,0,0,1,.58.58h0V66.786Z" transform="translate(0 -28.831)"/>
        <path id="Trazado_1045416" data-name="Trazado 1045416" d="M433.326,92.615a1,1,0,1,0,1.933-.483L434.95,90.9a7.541,7.541,0,0,1,3.339,6.278v2.844a1,1,0,1,0,1.992,0V97.174a9.526,9.526,0,0,0-4.629-8.193l1.111-.333a1,1,0,1,0-.572-1.908l-3.12.936a1,1,0,0,0-.68,1.2Z" transform="translate(-374.939 -79.011)"/>
        <path id="Trazado_1045417" data-name="Trazado 1045417" d="M29.955,315.9a1,1,0,1,0-1.933.483l.309,1.236a7.541,7.541,0,0,1-3.339-6.278V308.5a1,1,0,1,0-1.992,0v2.844a9.526,9.526,0,0,0,4.629,8.193l-1.111.333a1,1,0,1,0,.572,1.908l3.12-.936a1,1,0,0,0,.68-1.2Z" transform="translate(-19.945 -270.49)"/>
      </g>
    </g>
  </g>
</svg>
