<svg xmlns="http://www.w3.org/2000/svg" xmlns:xlink="http://www.w3.org/1999/xlink" width="113" height="113" viewBox="0 0 113 113">
  <defs>
    <filter id="Trazado_982547" x="0" y="0" width="113" height="113" filterUnits="userSpaceOnUse">
      <feOffset dy="3" input="SourceAlpha"/>
      <feGaussianBlur stdDeviation="3" result="blur"/>
      <feFlood flood-opacity="0.161"/>
      <feComposite operator="in" in2="blur"/>
      <feComposite in="SourceGraphic"/>
    </filter>
  </defs>
  <g id="Grupo_1206017" data-name="Grupo 1206017" transform="translate(-7919 -6182.623)">
    <g id="Grupo_1205955" data-name="Grupo 1205955" transform="translate(6808 5246)">
      <g id="Grupo_1202358" data-name="Grupo 1202358" transform="translate(317.51 -525)">
        <g id="Grupo_1177632" data-name="Grupo 1177632" transform="translate(-4493 -458.649)">
          <g id="Grupo_1176928" data-name="Grupo 1176928" transform="translate(5295.49 1926.273)">
            <g id="Grupo_1172322" data-name="Grupo 1172322" transform="translate(0 0)">
              <g id="Grupo_1164700" data-name="Grupo 1164700">
                <g id="Grupo_1160931" data-name="Grupo 1160931">
                  <g id="Grupo_1160749" data-name="Grupo 1160749">
                    <g id="Grupo_1158891" data-name="Grupo 1158891">
                      <g id="Grupo_1157406" data-name="Grupo 1157406">
                        <g id="Grupo_1155793" data-name="Grupo 1155793">
                          <g id="Grupo_1154704" data-name="Grupo 1154704">
                            <g id="Grupo_1150790" data-name="Grupo 1150790">
                              <g id="Grupo_1154214" data-name="Grupo 1154214">
                                <g id="Grupo_1152583" data-name="Grupo 1152583">
                                  <g id="Grupo_1146973" data-name="Grupo 1146973">
                                    <g id="Grupo_1146954" data-name="Grupo 1146954">
                                      <g transform="matrix(1, 0, 0, 1, -9, -6)" filter="url(#Trazado_982547)">
                                        <g id="Trazado_982547-2" data-name="Trazado 982547" transform="translate(9 6)" fill="#fbedfe">
                                          <path d="M 47.5000114440918 93.49987030029297 C 41.28938293457031 93.49987030029297 35.26534652709961 92.28384399414062 29.5951976776123 89.88558959960938 C 24.11773109436035 87.56881713867188 19.19814491271973 84.25183868408203 14.97310447692871 80.02680206298828 C 10.74805164337158 75.80176544189453 7.43107795715332 70.88218688964844 5.114304542541504 65.40472412109375 C 2.716038227081299 59.73458862304688 1.500011444091797 53.71054840087891 1.500011444091797 47.49993515014648 C 1.500011444091797 41.28932189941406 2.716038227081299 35.26528167724609 5.114304542541504 29.59514808654785 C 7.43107795715332 24.1176815032959 10.74805164337158 19.1981086730957 14.97310447692871 14.97306823730469 C 19.19814491271973 10.74802875518799 24.11773109436035 7.431055068969727 29.5951976776123 5.11428165435791 C 35.26534652709961 2.716028451919556 41.28938293457031 1.500001788139343 47.5000114440918 1.500001788139343 C 53.71063995361328 1.500001788139343 59.73467636108398 2.716028451919556 65.40482330322266 5.11428165435791 C 70.88229370117188 7.431055068969727 75.8018798828125 10.74802875518799 80.02691650390625 14.97306823730469 C 84.25196838378906 19.1981086730957 87.56894683837891 24.1176815032959 89.88571929931641 29.59514808654785 C 92.28398132324219 35.26528167724609 93.50001525878906 41.28932189941406 93.50001525878906 47.49993515014648 C 93.50001525878906 53.71054840087891 92.28398132324219 59.73458862304688 89.88571929931641 65.40472412109375 C 87.56894683837891 70.88218688964844 84.25196838378906 75.80176544189453 80.02691650390625 80.02680206298828 C 75.8018798828125 84.25183868408203 70.88229370117188 87.56881713867188 65.40482330322266 89.88558959960938 C 59.73467636108398 92.28384399414062 53.71063995361328 93.49987030029297 47.5000114440918 93.49987030029297 Z" stroke="none"/>
                                          <path d="M 47.5000114440918 3 C 41.49122619628906 3 35.66378021240234 4.1761474609375 30.17951965332031 6.495796203613281 C 24.880859375 8.7369384765625 20.12153625488281 11.94596862792969 16.03376770019531 16.03373718261719 C 11.94598388671875 20.12149047851562 8.736968994140625 24.88081359863281 6.495811462402344 30.17947387695312 C 4.176162719726562 35.66371917724609 3.000007629394531 41.49116516113281 3.000007629394531 47.49993515014648 C 3.000007629394531 53.50870513916016 4.176162719726562 59.33615112304688 6.495811462402344 64.82039642333984 C 8.736968994140625 70.11905670166016 11.94598388671875 74.87837982177734 16.03376770019531 78.96613311767578 C 20.12153625488281 83.05390167236328 24.880859375 86.26293182373047 30.17951965332031 88.50407409667969 C 35.66378021240234 90.82372283935547 41.49122619628906 91.99987030029297 47.5000114440918 91.99987030029297 C 53.50879669189453 91.99987030029297 59.33624267578125 90.82372283935547 64.82050323486328 88.50407409667969 C 70.11916351318359 86.26293182373047 74.87848663330078 83.05390167236328 78.96625518798828 78.96613311767578 C 83.05403900146484 74.87837982177734 86.2630615234375 70.11905670166016 88.50421142578125 64.82039642333984 C 90.82386016845703 59.33615112304688 92.00001525878906 53.50870513916016 92.00001525878906 47.49993515014648 C 92.00001525878906 41.49116516113281 90.82386016845703 35.66371917724609 88.50421142578125 30.17947387695312 C 86.2630615234375 24.88081359863281 83.05403900146484 20.12149047851562 78.96625518798828 16.03373718261719 C 74.87848663330078 11.94596862792969 70.11916351318359 8.7369384765625 64.82050323486328 6.495796203613281 C 59.33624267578125 4.1761474609375 53.50879669189453 3 47.5000114440918 3 M 47.5000114440918 0 C 73.73353576660156 0 95.00001525878906 21.26644134521484 95.00001525878906 47.49993515014648 C 95.00001525878906 73.73342895507812 73.73353576660156 94.99987030029297 47.5000114440918 94.99987030029297 C 21.26648712158203 94.99987030029297 7.62939453125e-06 73.73342895507812 7.62939453125e-06 47.49993515014648 C 7.62939453125e-06 21.26644134521484 21.26648712158203 0 47.5000114440918 0 Z" stroke="none" fill="#7b3289"/>
                                        </g>
                                      </g>
                                    </g>
                                  </g>
                                </g>
                              </g>
                            </g>
                          </g>
                        </g>
                      </g>
                    </g>
                  </g>
                </g>
              </g>
            </g>
          </g>
        </g>
      </g>
    </g>
    <g id="laser-cutting-machine_3955997" transform="translate(7943.835 6199.962)">
      <g id="Layer_2" data-name="Layer 2" transform="translate(2.954 2.994)">
        <path id="Trazado_1045418" data-name="Trazado 1045418" d="M61.329,59.845,53.283,34.7a1.207,1.207,0,0,0-1.006-.7H12.051a1.207,1.207,0,0,0-1.006.7L3,59.845a1.006,1.006,0,0,0,1.006,1.307H60.323a1.006,1.006,0,0,0,1.006-1.307Z" transform="translate(-2.954 -2.818)" fill="#90a4ae"/>
        <path id="Trazado_1045419" data-name="Trazado 1045419" d="M61.329,59.845,53.283,34.7a1.207,1.207,0,0,0-1.006-.7H47.249l6.135,19.208a3.017,3.017,0,0,1-2.816,3.922H3.905L3,59.845a1.006,1.006,0,0,0,1.006,1.307H60.323a1.006,1.006,0,0,0,1.006-1.307Z" transform="translate(-2.954 -2.818)" fill="#5c747c"/>
        <path id="Trazado_1045420" data-name="Trazado 1045420" d="M36.051,28H28.006A.905.905,0,0,0,27,29.006v7.643a1.106,1.106,0,0,0,.3.7l4.023,4.425a1.006,1.006,0,0,0,1.408,0l4.023-4.425a1.106,1.106,0,0,0,.3-.7V29.006A.905.905,0,0,0,36.051,28Z" transform="translate(-2.818 -2.852)" fill="#fbc02d"/>
        <path id="Trazado_1045421" data-name="Trazado 1045421" d="M36.051,28H28.006A.905.905,0,0,0,27,29.006v4.023h4.023a2.916,2.916,0,0,1,3.017,3.017V40.37l2.715-3.017a1.106,1.106,0,0,0,.3-.7V29.006A.905.905,0,0,0,36.051,28Z" transform="translate(-2.818 -2.852)" fill="#ff8f00"/>
        <rect id="Rectángulo_418269" data-name="Rectángulo 418269" width="18.102" height="27.153" rx="1" transform="translate(20.16 0.006)" fill="#ef6c00"/>
        <path id="Trazado_1045422" data-name="Trazado 1045422" d="M40.1,3H24.006A.905.905,0,0,0,23,4.006V7.023H33.057a2.916,2.916,0,0,1,3.017,3.017V30.153H40.1A.905.905,0,0,0,41.1,29.147V4.006A.905.905,0,0,0,40.1,3Z" transform="translate(-2.84 -2.994)" fill="#e65100"/>
      </g>
      <g id="Layer_3" data-name="Layer 3" transform="translate(2.954 2.994)">
        <path id="Trazado_1045423" data-name="Trazado 1045423" d="M60.323,61.328a1.006,1.006,0,0,0,1.006-1.307L53.283,34.879a1.207,1.207,0,0,0-1.006-.7H37.193V30.153H40.21a.905.905,0,0,0,1.006-1.006V4.006A.905.905,0,0,0,40.21,3H24.119a.905.905,0,0,0-1.006,1.006V29.147a.905.905,0,0,0,1.006,1.006h3.017v4.023H12.051a1.207,1.207,0,0,0-1.006.7L3,60.021a1.006,1.006,0,0,0,1.006,1.307ZM25.125,5.011H39.2v23.13H25.125ZM35.181,30.153v6.235l-3.017,3.319-3.017-3.319V30.153ZM12.755,36.187H27.136v.6a1.106,1.106,0,0,0,.3.7l3.721,4.123v5.632H17.08a1.006,1.006,0,0,0-.905.7l-2.011,6.034a.905.905,0,0,0,.905,1.307h35.2a1.207,1.207,0,0,0,.8-.4.8.8,0,0,0,.1-.905L46.143,39.908l-1.81.6,4.525,12.772H16.476l1.307-4.023H39.2V47.249H33.17V41.617l3.721-4.123a1.106,1.106,0,0,0,.3-.7v-.6H51.574l7.341,23.13H5.414Z" transform="translate(-2.954 -2.994)"/>
        <path id="Trazado_1045424" data-name="Trazado 1045424" d="M0,0H2.011V4.2H0Z" transform="matrix(0.64, -0.768, 0.768, 0.64, 21.858, 38.275)"/>
        <path id="Trazado_1045425" data-name="Trazado 1045425" d="M0,0H2.011V4.254H0Z" transform="translate(19.994 42.39) rotate(-75.7)"/>
        <path id="Trazado_1045426" data-name="Trazado 1045426" d="M0,0H4.224V2.011H0Z" transform="matrix(0.768, -0.64, 0.64, 0.768, 32.055, 39.486)"/>
        <path id="Trazado_1045427" data-name="Trazado 1045427" d="M0,0H4.224V2.011H0Z" transform="translate(33.768 41.423) rotate(-14.3)"/>
      </g>
    </g>
  </g>
</svg>
