<svg xmlns="http://www.w3.org/2000/svg" xmlns:xlink="http://www.w3.org/1999/xlink" width="113" height="113" viewBox="0 0 113 113">
  <defs>
    <filter id="Trazado_982547" x="0" y="0" width="113" height="113" filterUnits="userSpaceOnUse">
      <feOffset dy="3" input="SourceAlpha"/>
      <feGaussianBlur stdDeviation="3" result="blur"/>
      <feFlood flood-opacity="0.161"/>
      <feComposite operator="in" in2="blur"/>
      <feComposite in="SourceGraphic"/>
    </filter>
  </defs>
  <g id="Grupo_1206019" data-name="Grupo 1206019" transform="translate(-7600.5 -6618.623)">
    <g id="Grupo_1205956" data-name="Grupo 1205956" transform="translate(6489.5 5682)">
      <g id="Grupo_1202358" data-name="Grupo 1202358" transform="translate(317.51 -525)">
        <g id="Grupo_1177632" data-name="Grupo 1177632" transform="translate(-4493 -458.649)">
          <g id="Grupo_1176928" data-name="Grupo 1176928" transform="translate(5295.49 1926.273)">
            <g id="Grupo_1172322" data-name="Grupo 1172322" transform="translate(0 0)">
              <g id="Grupo_1164700" data-name="Grupo 1164700">
                <g id="Grupo_1160931" data-name="Grupo 1160931">
                  <g id="Grupo_1160749" data-name="Grupo 1160749">
                    <g id="Grupo_1158891" data-name="Grupo 1158891">
                      <g id="Grupo_1157406" data-name="Grupo 1157406">
                        <g id="Grupo_1155793" data-name="Grupo 1155793">
                          <g id="Grupo_1154704" data-name="Grupo 1154704">
                            <g id="Grupo_1150790" data-name="Grupo 1150790">
                              <g id="Grupo_1154214" data-name="Grupo 1154214">
                                <g id="Grupo_1152583" data-name="Grupo 1152583">
                                  <g id="Grupo_1146973" data-name="Grupo 1146973">
                                    <g id="Grupo_1146954" data-name="Grupo 1146954">
                                      <g transform="matrix(1, 0, 0, 1, -9, -6)" filter="url(#Trazado_982547)">
                                        <g id="Trazado_982547-2" data-name="Trazado 982547" transform="translate(9 6)" fill="#fbedfe">
                                          <path d="M 47.5000114440918 93.49987030029297 C 41.28938293457031 93.49987030029297 35.26534652709961 92.28384399414062 29.5951976776123 89.88558959960938 C 24.11773109436035 87.56881713867188 19.19814491271973 84.25183868408203 14.97310447692871 80.02680206298828 C 10.74805164337158 75.80176544189453 7.43107795715332 70.88218688964844 5.114304542541504 65.40472412109375 C 2.716038227081299 59.73458862304688 1.500011444091797 53.71054840087891 1.500011444091797 47.49993515014648 C 1.500011444091797 41.28932189941406 2.716038227081299 35.26528167724609 5.114304542541504 29.59514808654785 C 7.43107795715332 24.1176815032959 10.74805164337158 19.1981086730957 14.97310447692871 14.97306823730469 C 19.19814491271973 10.74802875518799 24.11773109436035 7.431055068969727 29.5951976776123 5.11428165435791 C 35.26534652709961 2.716028451919556 41.28938293457031 1.500001788139343 47.5000114440918 1.500001788139343 C 53.71063995361328 1.500001788139343 59.73467636108398 2.716028451919556 65.40482330322266 5.11428165435791 C 70.88229370117188 7.431055068969727 75.8018798828125 10.74802875518799 80.02691650390625 14.97306823730469 C 84.25196838378906 19.1981086730957 87.56894683837891 24.1176815032959 89.88571929931641 29.59514808654785 C 92.28398132324219 35.26528167724609 93.50001525878906 41.28932189941406 93.50001525878906 47.49993515014648 C 93.50001525878906 53.71054840087891 92.28398132324219 59.73458862304688 89.88571929931641 65.40472412109375 C 87.56894683837891 70.88218688964844 84.25196838378906 75.80176544189453 80.02691650390625 80.02680206298828 C 75.8018798828125 84.25183868408203 70.88229370117188 87.56881713867188 65.40482330322266 89.88558959960938 C 59.73467636108398 92.28384399414062 53.71063995361328 93.49987030029297 47.5000114440918 93.49987030029297 Z" stroke="none"/>
                                          <path d="M 47.5000114440918 3 C 41.49122619628906 3 35.66378021240234 4.1761474609375 30.17951965332031 6.495796203613281 C 24.880859375 8.7369384765625 20.12153625488281 11.94596862792969 16.03376770019531 16.03373718261719 C 11.94598388671875 20.12149047851562 8.736968994140625 24.88081359863281 6.495811462402344 30.17947387695312 C 4.176162719726562 35.66371917724609 3.000007629394531 41.49116516113281 3.000007629394531 47.49993515014648 C 3.000007629394531 53.50870513916016 4.176162719726562 59.33615112304688 6.495811462402344 64.82039642333984 C 8.736968994140625 70.11905670166016 11.94598388671875 74.87837982177734 16.03376770019531 78.96613311767578 C 20.12153625488281 83.05390167236328 24.880859375 86.26293182373047 30.17951965332031 88.50407409667969 C 35.66378021240234 90.82372283935547 41.49122619628906 91.99987030029297 47.5000114440918 91.99987030029297 C 53.50879669189453 91.99987030029297 59.33624267578125 90.82372283935547 64.82050323486328 88.50407409667969 C 70.11916351318359 86.26293182373047 74.87848663330078 83.05390167236328 78.96625518798828 78.96613311767578 C 83.05403900146484 74.87837982177734 86.2630615234375 70.11905670166016 88.50421142578125 64.82039642333984 C 90.82386016845703 59.33615112304688 92.00001525878906 53.50870513916016 92.00001525878906 47.49993515014648 C 92.00001525878906 41.49116516113281 90.82386016845703 35.66371917724609 88.50421142578125 30.17947387695312 C 86.2630615234375 24.88081359863281 83.05403900146484 20.12149047851562 78.96625518798828 16.03373718261719 C 74.87848663330078 11.94596862792969 70.11916351318359 8.7369384765625 64.82050323486328 6.495796203613281 C 59.33624267578125 4.1761474609375 53.50879669189453 3 47.5000114440918 3 M 47.5000114440918 0 C 73.73353576660156 0 95.00001525878906 21.26644134521484 95.00001525878906 47.49993515014648 C 95.00001525878906 73.73342895507812 73.73353576660156 94.99987030029297 47.5000114440918 94.99987030029297 C 21.26648712158203 94.99987030029297 7.62939453125e-06 73.73342895507812 7.62939453125e-06 47.49993515014648 C 7.62939453125e-06 21.26644134521484 21.26648712158203 0 47.5000114440918 0 Z" stroke="none" fill="#7b3289"/>
                                        </g>
                                      </g>
                                    </g>
                                  </g>
                                </g>
                              </g>
                            </g>
                          </g>
                        </g>
                      </g>
                    </g>
                  </g>
                </g>
              </g>
            </g>
          </g>
        </g>
      </g>
    </g>
    <g id="_24-hours_1683418" data-name="24-hours_1683418" transform="translate(7631.26 6646.383)">
      <path id="Trazado_1045428" data-name="Trazado 1045428" d="M8,8H57.764V47.468H8ZM8,8" transform="translate(-7.142 -7.142)" fill="#3d5360"/>
      <path id="Trazado_1045429" data-name="Trazado 1045429" d="M72,440h36.036v3.432H72Zm0,0" transform="translate(-64.278 -392.81)" fill="#7d8d9c"/>
      <path id="Trazado_1045430" data-name="Trazado 1045430" d="M208,376h6.864v6.864H208Zm0,0" transform="translate(-185.692 -335.674)" fill="#a2afba"/>
      <path id="Trazado_1045431" data-name="Trazado 1045431" d="M40,40H82.9V69.172H40Zm0,0" transform="translate(-35.71 -35.71)" fill="#f4f4e6"/>
      <path id="Trazado_1045432" data-name="Trazado 1045432" d="M408,336h4.29v1.716H408Zm0,0" transform="translate(-364.242 -299.964)" fill="#fcf05a"/>
      <path id="Trazado_1045433" data-name="Trazado 1045433" d="M376,336h1.716v1.716H376Zm0,0" transform="translate(-335.674 -299.964)" fill="#55b56a"/>
      <path id="Trazado_1045434" data-name="Trazado 1045434" d="M224,336h3.432v1.716H224Zm0,0" transform="translate(-199.976 -299.964)" fill="#aabece"/>
      <path id="Trazado_1045435" data-name="Trazado 1045435" d="M77.728,74.3H64V70.435l3.432-2.574V65.716H65.716v1.716H64V64h5.148v4.719l-3.432,2.574V72.58H77.728Zm0,0" transform="translate(-57.136 -57.136)" fill="#db527d"/>
      <path id="Trazado_1045436" data-name="Trazado 1045436" d="M134.864,70.864H128V64h1.716v5.148h5.148Zm0,0" transform="translate(-114.272 -57.136)" fill="#db527d"/>
      <path id="Trazado_1045437" data-name="Trazado 1045437" d="M194.018,88.024h-6.864a.858.858,0,0,1-.858-.858V85.45h-2.574a.858.858,0,0,1-.858-.858V82.018H180.29a.858.858,0,0,1-.858-.858V77.728h-2.574A.858.858,0,0,1,176,76.87V64h1.716V76.012h2.574a.858.858,0,0,1,.858.858V80.3h2.574a.858.858,0,0,1,.858.858v2.574h2.574a.858.858,0,0,1,.858.858v1.716h5.148v-4.29h1.716v5.148A.858.858,0,0,1,194.018,88.024Zm0,0" transform="translate(-157.124 -57.136)" fill="#db527d"/>
      <path id="Trazado_1045438" data-name="Trazado 1045438" d="M208,64h1.716V74.3H208Zm0,0" transform="translate(-185.692 -57.136)" fill="#301a12"/>
      <path id="Trazado_1045439" data-name="Trazado 1045439" d="M220.29,107.154h-1.716v-8.58a.858.858,0,0,0-.858-.858H216V96h1.716a2.574,2.574,0,0,1,2.574,2.574Zm0,0" transform="translate(-192.834 -85.704)" fill="#301a12"/>
      <path id="Trazado_1045440" data-name="Trazado 1045440" d="M293.728,78.864A6.864,6.864,0,1,1,286.864,72,6.864,6.864,0,0,1,293.728,78.864Zm0,0" transform="translate(-249.97 -64.278)" fill="#9fcadd"/>
      <g id="Grupo_1206018" data-name="Grupo 1206018" transform="translate(30.03 7.722)">
        <path id="Trazado_1045441" data-name="Trazado 1045441" d="M336,72h1.716v2.574H336Zm0,0" transform="translate(-329.994 -72)" fill="#3d5360"/>
        <path id="Trazado_1045442" data-name="Trazado 1045442" d="M280,128h2.574v1.716H280Zm0,0" transform="translate(-280 -121.994)" fill="#3d5360"/>
        <path id="Trazado_1045443" data-name="Trazado 1045443" d="M336,176h1.716v2.574H336Zm0,0" transform="translate(-329.994 -164.846)" fill="#3d5360"/>
        <path id="Trazado_1045444" data-name="Trazado 1045444" d="M384,128h2.574v1.716H384Zm0,0" transform="translate(-372.846 -121.994)" fill="#3d5360"/>
        <path id="Trazado_1045445" data-name="Trazado 1045445" d="M290.344,83.561l1.213-1.213,1.716,1.716-1.213,1.213Zm0,0" transform="translate(-289.235 -81.238)" fill="#3d5360"/>
        <path id="Trazado_1045446" data-name="Trazado 1045446" d="M370.344,84.06l1.716-1.716,1.214,1.214-1.716,1.716Zm0,0" transform="translate(-360.655 -81.234)" fill="#3d5360"/>
        <path id="Trazado_1045447" data-name="Trazado 1045447" d="M370.344,163.561l1.213-1.213,1.716,1.716-1.214,1.213Zm0,0" transform="translate(-360.655 -152.658)" fill="#3d5360"/>
        <path id="Trazado_1045448" data-name="Trazado 1045448" d="M290.344,164.063l1.716-1.716,1.214,1.213-1.716,1.716Zm0,0" transform="translate(-289.235 -152.658)" fill="#3d5360"/>
      </g>
      <path id="Trazado_1045449" data-name="Trazado 1045449" d="M320.1,110.382h-2.929l-2.825-2.825,1.213-1.213,2.323,2.323H320.1Zm0,0" transform="translate(-280.631 -94.938)" fill="#dd3e46"/>
      <path id="Trazado_1045450" data-name="Trazado 1045450" d="M319.492,225.081l-1.967-1.967-1.967,1.967-1.213-1.213,3.181-3.181,3.181,3.181Zm0,0" transform="translate(-280.631 -197.019)" fill="#db527d"/>
      <path id="Trazado_1045451" data-name="Trazado 1045451" d="M102.864,183.722c-.069,0-6.864-.086-6.864-7.722h1.716c0,5.938,4.938,6.006,5.148,6.006Zm0,0" transform="translate(-85.704 -157.124)" fill="#abdfef"/>
      <path id="Trazado_1045452" data-name="Trazado 1045452" d="M131.312,180.29a3.287,3.287,0,0,1-2.2-.9,4.5,4.5,0,0,1-1.2-3.385h1.716a2.894,2.894,0,0,0,.669,2.145,1.6,1.6,0,0,0,1.009.429l.074,1.716Zm0,0" transform="translate(-114.18 -157.124)" fill="#abdfef"/>
      <path id="Trazado_1045453" data-name="Trazado 1045453" d="M74.3,187.154a11.247,11.247,0,0,1-7.341-3.027A11.017,11.017,0,0,1,64,176h1.716a9.384,9.384,0,0,0,2.45,6.913,9.568,9.568,0,0,0,6.13,2.525Zm0,0" transform="translate(-57.136 -157.124)" fill="#abdfef"/>
      <path id="Trazado_1045454" data-name="Trazado 1045454" d="M50.622,0H.858A.858.858,0,0,0,0,.858V40.326a.858.858,0,0,0,.858.858H21.45v5.148H7.722a.858.858,0,0,0-.858.858v3.432a.858.858,0,0,0,.858.858H43.758a.858.858,0,0,0,.858-.858V47.19a.858.858,0,0,0-.858-.858H30.03V41.184H50.622a.858.858,0,0,0,.858-.858V.858A.858.858,0,0,0,50.622,0ZM42.9,49.764H8.58V48.048H42.9ZM28.314,46.332H23.166V41.184h5.148Zm21.45-6.864H1.716V1.716H49.764Zm0,0"/>
      <path id="Trazado_1045455" data-name="Trazado 1045455" d="M76.616,32H32V62.888H76.616ZM74.9,61.172H33.716V33.716H74.9Zm0,0" transform="translate(-28.568 -28.568)"/>
      <path id="Trazado_1045456" data-name="Trazado 1045456" d="M408,336h4.29v1.716H408Zm0,0" transform="translate(-364.242 -299.964)"/>
      <path id="Trazado_1045457" data-name="Trazado 1045457" d="M376,336h1.716v1.716H376Zm0,0" transform="translate(-335.674 -299.964)"/>
      <path id="Trazado_1045458" data-name="Trazado 1045458" d="M224,336h3.432v1.716H224Zm0,0" transform="translate(-199.976 -299.964)"/>
      <path id="Trazado_1045459" data-name="Trazado 1045459" d="M76.012,76.87a.858.858,0,0,0,.858.858h2.574V81.16a.858.858,0,0,0,.858.858h2.574v2.574a.858.858,0,0,0,.858.858h2.574v1.716a.858.858,0,0,0,.858.858H94.03a.858.858,0,0,0,.858-.858V84.089L96,85.2l1.213-1.213L94.03,80.8l-3.181,3.181L92.062,85.2l1.109-1.109v2.219H88.024V84.592a.858.858,0,0,0-.858-.858H84.592V81.16a.858.858,0,0,0-.858-.858H81.16V76.87a.858.858,0,0,0-.858-.858H77.728V64H76.012v5.148H72.58V64H70.864v6.864h5.148V72.58h-10.3V71.293l3.432-2.574V64H64v3.432h1.716V65.716h1.716v2.145L64,70.435V74.3H76.012Zm0,0" transform="translate(-57.136 -57.136)"/>
      <path id="Trazado_1045460" data-name="Trazado 1045460" d="M209.716,69.148h.858a.858.858,0,0,1,.858.858v8.58h1.716v-8.58a2.574,2.574,0,0,0-2.574-2.574h-.858V64H208V74.3h1.716Zm0,0" transform="translate(-185.692 -57.136)"/>
      <path id="Trazado_1045461" data-name="Trazado 1045461" d="M279.722,79.444A7.722,7.722,0,1,0,272,71.722,7.722,7.722,0,0,0,279.722,79.444Zm-5.937-8.58a5.963,5.963,0,0,1,1.132-2.732l.765.765,1.213-1.213-.765-.765a5.961,5.961,0,0,1,2.734-1.134v1.647h1.716V65.785a5.963,5.963,0,0,1,2.732,1.132l-.765.765,1.213,1.213.765-.765a5.961,5.961,0,0,1,1.134,2.734h-1.647V72.58h1.647a5.963,5.963,0,0,1-1.132,2.732l-.765-.765-1.213,1.213.765.765a5.961,5.961,0,0,1-2.734,1.134V76.012h-1.716v1.647a5.963,5.963,0,0,1-2.732-1.132l.765-.765-1.213-1.213-.765.765a5.962,5.962,0,0,1-1.134-2.734h1.647V70.864Zm0,0" transform="translate(-242.828 -57.136)"/>
      <path id="Trazado_1045462" data-name="Trazado 1045462" d="M320.1,110.382v-1.716H317.88l-2.323-2.323-1.213,1.213,2.825,2.825Zm0,0" transform="translate(-280.631 -94.938)"/>
      <path id="Trazado_1045463" data-name="Trazado 1045463" d="M97.716,176H96c0,7.636,6.8,7.722,6.864,7.722v-1.716C102.654,182.006,97.716,181.938,97.716,176Zm0,0" transform="translate(-85.704 -157.124)"/>
      <path id="Trazado_1045464" data-name="Trazado 1045464" d="M131.3,178.574a1.6,1.6,0,0,1-1.009-.429,2.9,2.9,0,0,1-.67-2.145h-1.716a4.5,4.5,0,0,0,1.2,3.385,3.288,3.288,0,0,0,2.2.9h.065Zm0,0" transform="translate(-114.18 -157.124)"/>
      <path id="Trazado_1045465" data-name="Trazado 1045465" d="M74.3,187.154v-1.716a9.568,9.568,0,0,1-6.129-2.525A9.378,9.378,0,0,1,65.716,176H64a11.026,11.026,0,0,0,2.954,8.127A11.247,11.247,0,0,0,74.3,187.154Zm0,0" transform="translate(-57.136 -157.124)"/>
    </g>
  </g>
</svg>
