<svg xmlns="http://www.w3.org/2000/svg" width="377.702" height="48.191" viewBox="0 0 377.702 48.191">
  <g id="Grupo_1206035" data-name="Grupo 1206035" transform="translate(21.492 -329.932)">
    <path id="Contenido" d="M14.238,0H12.8V-5.168a3.9,3.9,0,0,0-.461-2.162A1.75,1.75,0,0,0,10.784-8a1.921,1.921,0,0,0-1.569.844,3.228,3.228,0,0,0-.646,2.021V0H7.128V-5.344Q7.128-8,5.08-8a1.9,1.9,0,0,0-1.564.8A3.288,3.288,0,0,0,2.9-5.133V0H1.459V-9H2.9v1.424h.035A3.058,3.058,0,0,1,5.73-9.211,2.606,2.606,0,0,1,7.339-8.7a2.586,2.586,0,0,1,.94,1.349,3.212,3.212,0,0,1,2.988-1.863q2.971,0,2.971,3.665Zm2.98,5.241H17.2V6h-.841V-1.772H17.2V1.673h.021A1.988,1.988,0,0,1,19.033.627a1.924,1.924,0,0,1,1.582.7,2.911,2.911,0,0,1,.572,1.889,3.254,3.254,0,0,1-.641,2.11,2.134,2.134,0,0,1-1.753.792A1.727,1.727,0,0,1,17.218,5.241ZM17.2,3.124v.733a1.561,1.561,0,0,0,.423,1.1,1.509,1.509,0,0,0,2.271-.131,2.681,2.681,0,0,0,.433-1.625,2.117,2.117,0,0,0-.405-1.374,1.34,1.34,0,0,0-1.1-.5,1.49,1.49,0,0,0-1.179.51A1.873,1.873,0,0,0,17.2,3.124ZM36.912-6.539H28.651V-7.7h8.262Zm0,3.744H28.651v-1.16h8.262Z" transform="translate(-22.951 358.5)" fill="#212429"/>
    <path id="Contenido-2" data-name="Contenido" d="M10.3-6.539H2.039V-7.7H10.3Zm0,3.744H2.039v-1.16H10.3Z" transform="translate(89.049 358.5)" fill="#212429"/>
    <path id="Contenido-3" data-name="Contenido" d="M8.965-6.354a12.381,12.381,0,0,1-.286,2.8A6.533,6.533,0,0,1,7.853-1.49,3.718,3.718,0,0,1,6.526-.215,3.633,3.633,0,0,1,4.737.22,3.393,3.393,0,0,1,3.045-.2,3.546,3.546,0,0,1,1.793-1.415,6.17,6.17,0,0,1,1.02-3.379,12.146,12.146,0,0,1,.756-6.047a13.749,13.749,0,0,1,.277-2.918,6.674,6.674,0,0,1,.813-2.123,3.619,3.619,0,0,1,1.332-1.292A3.739,3.739,0,0,1,5-12.814Q8.965-12.814,8.965-6.354Zm-1.477.141q0-5.379-2.558-5.379-2.7,0-2.7,5.476,0,5.106,2.646,5.106Q7.488-1.011,7.488-6.214ZM11.665.193a.933.933,0,0,1-.69-.29.955.955,0,0,1-.286-.694.969.969,0,0,1,.286-.7.926.926,0,0,1,.69-.294.95.95,0,0,1,.7.294.962.962,0,0,1,.29.7.947.947,0,0,1-.29.694A.958.958,0,0,1,11.665.193ZM22.574-6.354a12.381,12.381,0,0,1-.286,2.8,6.533,6.533,0,0,1-.826,2.061A3.718,3.718,0,0,1,20.135-.215,3.633,3.633,0,0,1,18.346.22,3.393,3.393,0,0,1,16.654-.2,3.546,3.546,0,0,1,15.4-1.415a6.17,6.17,0,0,1-.773-1.964,12.146,12.146,0,0,1-.264-2.667,13.749,13.749,0,0,1,.277-2.918,6.674,6.674,0,0,1,.813-2.123,3.619,3.619,0,0,1,1.332-1.292,3.739,3.739,0,0,1,1.824-.435Q22.574-12.814,22.574-6.354ZM21.1-6.214q0-5.379-2.558-5.379-2.7,0-2.7,5.476,0,5.106,2.646,5.106Q21.1-1.011,21.1-6.214ZM29.677,0H28.236V-10.89a3.336,3.336,0,0,1-.488.382,7.951,7.951,0,0,1-.721.426q-.4.211-.844.4a6.132,6.132,0,0,1-.866.29v-1.459a8.379,8.379,0,0,0,1.006-.356q.532-.224,1.046-.5t.971-.58a7.71,7.71,0,0,0,.791-.593h.545ZM33.81-3.516a3.353,3.353,0,0,1,.158-1.006,3.645,3.645,0,0,1,.453-.945,3.746,3.746,0,0,1,.729-.8,3.478,3.478,0,0,1,.989-.571,3.737,3.737,0,0,1-1.3-1.173A2.775,2.775,0,0,1,34.355-9.6a3.06,3.06,0,0,1,.268-1.283,3.091,3.091,0,0,1,.743-1.02,3.433,3.433,0,0,1,1.125-.672,4.006,4.006,0,0,1,1.406-.242,3.967,3.967,0,0,1,1.415.246,3.494,3.494,0,0,1,1.125.677,3.038,3.038,0,0,1,.738,1.02A3.082,3.082,0,0,1,41.439-9.6a2.775,2.775,0,0,1-.483,1.586,3.783,3.783,0,0,1-1.283,1.173,3.446,3.446,0,0,1,.976.571,3.8,3.8,0,0,1,.725.8,3.645,3.645,0,0,1,.453.945,3.353,3.353,0,0,1,.158,1.006A3.743,3.743,0,0,1,41.685-2a3.378,3.378,0,0,1-.839,1.173,3.875,3.875,0,0,1-1.292.76A4.829,4.829,0,0,1,37.9.2,4.765,4.765,0,0,1,36.253-.07a3.934,3.934,0,0,1-1.292-.76A3.4,3.4,0,0,1,34.113-2,3.7,3.7,0,0,1,33.81-3.516Zm1.564-.123a2.977,2.977,0,0,0,.18,1.063,2.293,2.293,0,0,0,.51.809,2.225,2.225,0,0,0,.8.514,2.889,2.889,0,0,0,1.042.18,2.744,2.744,0,0,0,1.02-.185,2.376,2.376,0,0,0,.8-.519,2.332,2.332,0,0,0,.527-.809,2.828,2.828,0,0,0,.189-1.055,2.694,2.694,0,0,0-.18-.989,2.475,2.475,0,0,0-.514-.813,2.415,2.415,0,0,0-.8-.554,2.6,2.6,0,0,0-1.046-.2,2.63,2.63,0,0,0-1.006.189,2.408,2.408,0,0,0-.8.527,2.442,2.442,0,0,0-.532.809A2.69,2.69,0,0,0,35.374-3.639Zm.448-5.845a2.1,2.1,0,0,0,.163.831,2.093,2.093,0,0,0,.448.668,2.106,2.106,0,0,0,.664.448,2.024,2.024,0,0,0,.809.163,2.009,2.009,0,0,0,.813-.167,2.1,2.1,0,0,0,.664-.453,2.194,2.194,0,0,0,.448-.668A2.03,2.03,0,0,0,40-9.483a2.155,2.155,0,0,0-.163-.844A2.065,2.065,0,0,0,39.391-11a2.077,2.077,0,0,0-.664-.444,2.078,2.078,0,0,0-.822-.163,2.1,2.1,0,0,0-.848.167,2.049,2.049,0,0,0-.659.453,1.979,1.979,0,0,0-.426.672A2.272,2.272,0,0,0,35.823-9.483ZM56.586,0H54.565L50.592-4.324h-.035V0H49.115V-13.324h1.441v8.446h.035L54.371-9h1.89L52.086-4.658Zm7.49-.65A11.4,11.4,0,0,1,63.5,1.3a5.153,5.153,0,0,1-.954,1.547,4.062,4.062,0,0,1-1.463,1.02,5.478,5.478,0,0,1-2.118.365,4.973,4.973,0,0,1-1.5-.2A6.911,6.911,0,0,1,56.3,3.542L56.57,2.2a6.8,6.8,0,0,0,1.178.563,3.881,3.881,0,0,0,1.345.229,3.671,3.671,0,0,0,1.358-.229,2.727,2.727,0,0,0,.993-.672A3.713,3.713,0,0,0,62.138,1,8.253,8.253,0,0,0,62.6-.466l.308-1.406h-.035a8.822,8.822,0,0,1-.655.927,3.777,3.777,0,0,1-.672.65,2.625,2.625,0,0,1-.738.387,2.711,2.711,0,0,1-.853.127A2.713,2.713,0,0,1,58.855,0a2.233,2.233,0,0,1-.839-.637,2.981,2.981,0,0,1-.536-1.055,5.109,5.109,0,0,1-.189-1.459,6.934,6.934,0,0,1,.171-1.538,6.734,6.734,0,0,1,.5-1.433,6.031,6.031,0,0,1,.8-1.244,5.29,5.29,0,0,1,1.068-.98,5.034,5.034,0,0,1,1.314-.646A4.931,4.931,0,0,1,62.67-9.22a12.762,12.762,0,0,1,1.635.105q.817.105,1.5.237Zm.07-7.163a6.954,6.954,0,0,0-.725-.123,7.42,7.42,0,0,0-.91-.053A3.051,3.051,0,0,0,61-7.607,3.794,3.794,0,0,0,59.818-6.57a5.016,5.016,0,0,0-.773,1.525,6.022,6.022,0,0,0-.277,1.837,4.347,4.347,0,0,0,.083.879,2.118,2.118,0,0,0,.264.694,1.337,1.337,0,0,0,.466.457,1.363,1.363,0,0,0,.7.167,1.984,1.984,0,0,0,.892-.2,2.944,2.944,0,0,0,.751-.536,4.112,4.112,0,0,0,.611-.76,7.676,7.676,0,0,0,.475-.875,7.972,7.972,0,0,0,.347-.883q.141-.435.22-.787ZM76.664-6.539H68.4V-7.7h8.262Zm0,3.744H68.4v-1.16h8.262ZM85.042,0H83.6V-10.89a3.336,3.336,0,0,1-.488.382,7.951,7.951,0,0,1-.721.426q-.4.211-.844.4a6.132,6.132,0,0,1-.866.29v-1.459a8.379,8.379,0,0,0,1.006-.356q.532-.224,1.046-.5t.971-.58a7.71,7.71,0,0,0,.791-.593h.545Zm4.133-3.516a3.353,3.353,0,0,1,.158-1.006,3.645,3.645,0,0,1,.453-.945,3.746,3.746,0,0,1,.729-.8,3.478,3.478,0,0,1,.989-.571,3.737,3.737,0,0,1-1.3-1.173A2.775,2.775,0,0,1,89.719-9.6a3.06,3.06,0,0,1,.268-1.283,3.091,3.091,0,0,1,.743-1.02,3.433,3.433,0,0,1,1.125-.672,4.006,4.006,0,0,1,1.406-.242,3.967,3.967,0,0,1,1.415.246,3.494,3.494,0,0,1,1.125.677,3.038,3.038,0,0,1,.738,1.02A3.082,3.082,0,0,1,96.8-9.6a2.775,2.775,0,0,1-.483,1.586,3.783,3.783,0,0,1-1.283,1.173,3.446,3.446,0,0,1,.976.571,3.8,3.8,0,0,1,.725.8,3.645,3.645,0,0,1,.453.945,3.353,3.353,0,0,1,.158,1.006A3.743,3.743,0,0,1,97.049-2,3.378,3.378,0,0,1,96.21-.831a3.875,3.875,0,0,1-1.292.76A4.829,4.829,0,0,1,93.261.2,4.765,4.765,0,0,1,91.618-.07a3.934,3.934,0,0,1-1.292-.76A3.4,3.4,0,0,1,89.477-2,3.7,3.7,0,0,1,89.174-3.516Zm1.564-.123a2.977,2.977,0,0,0,.18,1.063,2.293,2.293,0,0,0,.51.809,2.225,2.225,0,0,0,.8.514,2.889,2.889,0,0,0,1.042.18,2.744,2.744,0,0,0,1.02-.185,2.376,2.376,0,0,0,.8-.519,2.332,2.332,0,0,0,.527-.809,2.828,2.828,0,0,0,.189-1.055,2.694,2.694,0,0,0-.18-.989,2.475,2.475,0,0,0-.514-.813,2.415,2.415,0,0,0-.8-.554,2.6,2.6,0,0,0-1.046-.2,2.63,2.63,0,0,0-1.006.189,2.408,2.408,0,0,0-.8.527,2.442,2.442,0,0,0-.532.809A2.69,2.69,0,0,0,90.739-3.639Zm.448-5.845a2.1,2.1,0,0,0,.163.831,2.093,2.093,0,0,0,.448.668,2.106,2.106,0,0,0,.664.448,2.024,2.024,0,0,0,.809.163,2.009,2.009,0,0,0,.813-.167,2.1,2.1,0,0,0,.664-.453,2.194,2.194,0,0,0,.448-.668,2.03,2.03,0,0,0,.167-.822,2.155,2.155,0,0,0-.163-.844A2.065,2.065,0,0,0,94.755-11a2.077,2.077,0,0,0-.664-.444,2.078,2.078,0,0,0-.822-.163,2.1,2.1,0,0,0-.848.167,2.049,2.049,0,0,0-.659.453,1.979,1.979,0,0,0-.426.672A2.272,2.272,0,0,0,91.187-9.483ZM112.161-.721q0,4.957-4.746,4.957A6.372,6.372,0,0,1,104.5,3.6V2.162a5.993,5.993,0,0,0,2.9.844q3.322,0,3.322-3.533v-.984h-.035A3.371,3.371,0,0,1,107.591.211a3.379,3.379,0,0,1-2.7-1.2,4.8,4.8,0,0,1-1.024-3.221,5.6,5.6,0,0,1,1.1-3.647,3.685,3.685,0,0,1,3.019-1.354,2.934,2.934,0,0,1,2.7,1.459h.035V-9h1.441ZM110.72-4.069V-5.4a2.575,2.575,0,0,0-.725-1.837A2.387,2.387,0,0,0,108.189-8a2.5,2.5,0,0,0-2.092.971,4.335,4.335,0,0,0-.756,2.72,3.721,3.721,0,0,0,.725,2.4,2.343,2.343,0,0,0,1.92.9,2.509,2.509,0,0,0,1.973-.861A3.21,3.21,0,0,0,110.72-4.069Z" transform="translate(244.049 358.5)" fill="#212429"/>
    <path id="Contenido-4" data-name="Contenido" d="M5.906-12.059a1.92,1.92,0,0,0-.958-.237q-1.512,0-1.512,1.907V-9H5.546v1.23H3.437V0H2V-7.77H.466V-9H2v-1.459A3.032,3.032,0,0,1,2.821-12.7a2.759,2.759,0,0,1,2.039-.822,2.824,2.824,0,0,1,1.046.158Zm1.442,17.3H7.327V6H6.487V-1.772h.841V1.673h.021A1.988,1.988,0,0,1,9.163.627a1.924,1.924,0,0,1,1.582.7,2.911,2.911,0,0,1,.572,1.889,3.254,3.254,0,0,1-.641,2.11,2.134,2.134,0,0,1-1.753.792A1.727,1.727,0,0,1,7.348,5.241ZM7.327,3.124v.733a1.561,1.561,0,0,0,.423,1.1,1.4,1.4,0,0,0,1.074.454,1.407,1.407,0,0,0,1.2-.584,2.681,2.681,0,0,0,.433-1.625,2.117,2.117,0,0,0-.405-1.374,1.34,1.34,0,0,0-1.1-.5,1.49,1.49,0,0,0-1.179.51A1.873,1.873,0,0,0,7.327,3.124Z" transform="translate(48.049 343.449)" fill="#212429"/>
    <path id="Contenido-5" data-name="Contenido" d="M8.376-3.568a3.674,3.674,0,0,1-.321,1.551,3.425,3.425,0,0,1-.905,1.2,4.178,4.178,0,0,1-1.4.769,5.67,5.67,0,0,1-1.8.272A5.236,5.236,0,0,1,1.081-.466V-2.013A4.592,4.592,0,0,0,4-1.011,3.965,3.965,0,0,0,5.19-1.178,2.67,2.67,0,0,0,6.1-1.661a2.147,2.147,0,0,0,.589-.765A2.388,2.388,0,0,0,6.9-3.437q0-2.47-3.516-2.47H2.338V-7.128h.993q3.111,0,3.111-2.32,0-2.145-2.373-2.145a4.041,4.041,0,0,0-2.5.9v-1.4a5.476,5.476,0,0,1,2.865-.721,4.4,4.4,0,0,1,1.433.22,3.283,3.283,0,0,1,1.1.615,2.726,2.726,0,0,1,.708.949,2.93,2.93,0,0,1,.25,1.222,3.076,3.076,0,0,1-2.514,3.2v.035a3.976,3.976,0,0,1,1.187.312,3.166,3.166,0,0,1,.94.628,2.8,2.8,0,0,1,.62.91A2.9,2.9,0,0,1,8.376-3.568ZM16.068,0H14.627V-10.89a3.336,3.336,0,0,1-.488.382,7.951,7.951,0,0,1-.721.426q-.4.211-.844.4a6.132,6.132,0,0,1-.866.29v-1.459a8.379,8.379,0,0,0,1.006-.356q.532-.224,1.046-.5t.971-.58a7.711,7.711,0,0,0,.791-.593h.545Zm5.3.193a.933.933,0,0,1-.69-.29.955.955,0,0,1-.286-.694.969.969,0,0,1,.286-.7.926.926,0,0,1,.69-.294.95.95,0,0,1,.7.294.962.962,0,0,1,.29.7.947.947,0,0,1-.29.694A.958.958,0,0,1,21.37.193ZM32.138-7.058A12.554,12.554,0,0,1,31.8-3.977a6.872,6.872,0,0,1-1,2.285A4.435,4.435,0,0,1,29.185-.268,4.663,4.663,0,0,1,27.023.22a5.179,5.179,0,0,1-2.2-.439V-1.6a4.479,4.479,0,0,0,2.232.589,3.242,3.242,0,0,0,1.525-.352,3.158,3.158,0,0,0,1.138-1.024,5.027,5.027,0,0,0,.712-1.657A9.354,9.354,0,0,0,30.679-6.3h-.035a2.879,2.879,0,0,1-2.812,1.626,3.782,3.782,0,0,1-1.485-.286,3.4,3.4,0,0,1-1.169-.809,3.7,3.7,0,0,1-.765-1.244A4.466,4.466,0,0,1,24.14-8.6a4.634,4.634,0,0,1,.3-1.705,3.974,3.974,0,0,1,.844-1.332,3.775,3.775,0,0,1,1.283-.866,4.2,4.2,0,0,1,1.622-.308,3.59,3.59,0,0,1,1.683.382,3.373,3.373,0,0,1,1.235,1.116,5.515,5.515,0,0,1,.765,1.806A10.312,10.312,0,0,1,32.138-7.058ZM30.583-8.35a4.388,4.388,0,0,0-.189-1.327,3.213,3.213,0,0,0-.523-1.024,2.346,2.346,0,0,0-.8-.659,2.2,2.2,0,0,0-1.006-.233,2.282,2.282,0,0,0-.967.207,2.324,2.324,0,0,0-.778.58,2.77,2.77,0,0,0-.519.888A3.225,3.225,0,0,0,25.617-8.8a3.686,3.686,0,0,0,.18,1.2,2.5,2.5,0,0,0,.514.892,2.22,2.22,0,0,0,.8.558,2.714,2.714,0,0,0,1.042.193,2.387,2.387,0,0,0,.945-.189,2.5,2.5,0,0,0,.773-.51,2.349,2.349,0,0,0,.519-.756A2.324,2.324,0,0,0,30.583-8.35ZM41.9-11.769q-.29.5-.7,1.248t-.866,1.679q-.457.932-.932,2t-.888,2.215Q38.1-3.48,37.787-2.307A17.229,17.229,0,0,0,37.334,0H35.787a17.526,17.526,0,0,1,.488-2.3q.33-1.173.747-2.3t.883-2.175q.466-1.046.905-1.925t.8-1.551q.365-.672.584-1.05H33.88v-1.3H41.9Z" transform="translate(127.049 343.449)" fill="#212429"/>
    <path id="Contenido-6" data-name="Contenido" d="M6.152-7.541a1.763,1.763,0,0,0-1.09-.29,1.839,1.839,0,0,0-1.542.87A4.023,4.023,0,0,0,2.9-4.588V0H1.459V-9H2.9v1.854h.035a3.143,3.143,0,0,1,.94-1.481,2.144,2.144,0,0,1,1.415-.532,2.353,2.353,0,0,1,.861.123ZM7.972,5.241H7.951V6H7.111V-1.772h.841V1.673h.021A1.988,1.988,0,0,1,9.787.627a1.924,1.924,0,0,1,1.582.7,2.911,2.911,0,0,1,.572,1.889,3.254,3.254,0,0,1-.641,2.11,2.134,2.134,0,0,1-1.753.792A1.727,1.727,0,0,1,7.972,5.241ZM7.951,3.124v.733a1.561,1.561,0,0,0,.423,1.1,1.509,1.509,0,0,0,2.271-.131,2.681,2.681,0,0,0,.433-1.625,2.117,2.117,0,0,0-.405-1.374,1.34,1.34,0,0,0-1.1-.5,1.49,1.49,0,0,0-1.179.51A1.873,1.873,0,0,0,7.951,3.124Zm11.033-6.71a2.177,2.177,0,0,1-1.573-.642,2.09,2.09,0,0,1-.659-1.556,2.152,2.152,0,0,1,.659-1.569,2.14,2.14,0,0,1,1.573-.664,2.09,2.09,0,0,1,1.556.659,2.177,2.177,0,0,1,.642,1.573,2.118,2.118,0,0,1-.642,1.556A2.118,2.118,0,0,1,18.984-3.586ZM34.843-1.477h-.035A2.888,2.888,0,0,1,32.127.2,3.187,3.187,0,0,1,29.535-.918,4.691,4.691,0,0,1,28.6-4.008,13.376,13.376,0,0,1,29.71-9h1.608a12.527,12.527,0,0,0-1.257,5.045A3.645,3.645,0,0,0,30.6-1.811a1.735,1.735,0,0,0,1.494.747q2.021,0,2.021-3.041V-6.592h1.441V-4.1q0,3.041,2.013,3.041a1.73,1.73,0,0,0,1.481-.747,3.622,3.622,0,0,0,.541-2.145A12.6,12.6,0,0,0,38.341-9h1.6a13.334,13.334,0,0,1,1.116,4.992,4.673,4.673,0,0,1-.936,3.094A3.226,3.226,0,0,1,37.506.2,2.852,2.852,0,0,1,34.843-1.477Zm11.219-9.947a1.52,1.52,0,0,0-.105-.59,1.168,1.168,0,0,0-.287-.418,1.176,1.176,0,0,0-.428-.249,1.676,1.676,0,0,0-.533-.082,1.764,1.764,0,0,0-.482.067,2.343,2.343,0,0,0-.459.185,2.822,2.822,0,0,0-.431.282,3.111,3.111,0,0,0-.387.364v-.9a2.514,2.514,0,0,1,.792-.525,2.789,2.789,0,0,1,1.069-.182,2.58,2.58,0,0,1,.836.131,1.916,1.916,0,0,1,.666.382,1.766,1.766,0,0,1,.443.62,2.092,2.092,0,0,1,.161.846,2.9,2.9,0,0,1-.1.79,2.442,2.442,0,0,1-.3.666,3.216,3.216,0,0,1-.51.6,7.226,7.226,0,0,1-.723.584q-.518.369-.854.631a3.773,3.773,0,0,0-.533.49,1.421,1.421,0,0,0-.277.456,1.6,1.6,0,0,0-.079.525H47.2V-6H42.664v-.364a3.033,3.033,0,0,1,.1-.831,2.157,2.157,0,0,1,.338-.682,3.784,3.784,0,0,1,.618-.646q.382-.323.936-.728a5.915,5.915,0,0,0,.669-.549,2.852,2.852,0,0,0,.433-.523,1.878,1.878,0,0,0,.233-.531A2.288,2.288,0,0,0,46.063-11.424Z" transform="translate(29.049 372)" fill="#212429"/>
    <path id="Contenido-7" data-name="Contenido" d="M8.965-6.354a12.381,12.381,0,0,1-.286,2.8A6.533,6.533,0,0,1,7.853-1.49,3.718,3.718,0,0,1,6.526-.215,3.633,3.633,0,0,1,4.737.22,3.393,3.393,0,0,1,3.045-.2,3.546,3.546,0,0,1,1.793-1.415,6.17,6.17,0,0,1,1.02-3.379,12.146,12.146,0,0,1,.756-6.047a13.749,13.749,0,0,1,.277-2.918,6.674,6.674,0,0,1,.813-2.123,3.619,3.619,0,0,1,1.332-1.292A3.739,3.739,0,0,1,5-12.814Q8.965-12.814,8.965-6.354Zm-1.477.141q0-5.379-2.558-5.379-2.7,0-2.7,5.476,0,5.106,2.646,5.106Q7.488-1.011,7.488-6.214ZM11.665.193a.933.933,0,0,1-.69-.29.955.955,0,0,1-.286-.694.969.969,0,0,1,.286-.7.926.926,0,0,1,.69-.294.95.95,0,0,1,.7.294.962.962,0,0,1,.29.7.947.947,0,0,1-.29.694A.958.958,0,0,1,11.665.193ZM22.574-6.354a12.381,12.381,0,0,1-.286,2.8,6.533,6.533,0,0,1-.826,2.061A3.718,3.718,0,0,1,20.135-.215,3.633,3.633,0,0,1,18.346.22,3.393,3.393,0,0,1,16.654-.2,3.546,3.546,0,0,1,15.4-1.415a6.17,6.17,0,0,1-.773-1.964,12.146,12.146,0,0,1-.264-2.667,13.749,13.749,0,0,1,.277-2.918,6.674,6.674,0,0,1,.813-2.123,3.619,3.619,0,0,1,1.332-1.292,3.739,3.739,0,0,1,1.824-.435Q22.574-12.814,22.574-6.354ZM21.1-6.214q0-5.379-2.558-5.379-2.7,0-2.7,5.476,0,5.106,2.646,5.106Q21.1-1.011,21.1-6.214ZM31.831-3.85a4.242,4.242,0,0,1-.316,1.67,3.651,3.651,0,0,1-.9,1.283A4.034,4.034,0,0,1,29.2-.07a5.517,5.517,0,0,1-1.837.29,5.074,5.074,0,0,1-2.61-.527V-1.837a4.8,4.8,0,0,0,2.628.826,3.556,3.556,0,0,0,1.235-.2,2.744,2.744,0,0,0,.936-.562,2.408,2.408,0,0,0,.593-.87,2.945,2.945,0,0,0,.207-1.116,2.391,2.391,0,0,0-.826-1.929,3.623,3.623,0,0,0-2.4-.7q-.255,0-.536.009t-.562.022q-.281.013-.549.031t-.488.044l.431-6.319h5.827v1.3H26.671l-.255,3.7q.281-.018.6-.031t.563-.013a5.656,5.656,0,0,1,1.793.264,3.8,3.8,0,0,1,1.34.751,3.151,3.151,0,0,1,.835,1.2A4.2,4.2,0,0,1,31.831-3.85Zm9.795.264a2.177,2.177,0,0,1-1.573-.642,2.09,2.09,0,0,1-.659-1.556,2.152,2.152,0,0,1,.659-1.569,2.14,2.14,0,0,1,1.573-.664,2.09,2.09,0,0,1,1.556.659,2.177,2.177,0,0,1,.642,1.573,2.118,2.118,0,0,1-.642,1.556A2.118,2.118,0,0,1,41.625-3.586ZM55.436,2.865H54.153a11.232,11.232,0,0,1-2.725-7.673,11.658,11.658,0,0,1,2.725-7.8h1.3a11.845,11.845,0,0,0-2.76,7.778A11.638,11.638,0,0,0,55.436,2.865ZM61.995,0H60.553V-10.89a3.336,3.336,0,0,1-.488.382,7.951,7.951,0,0,1-.721.426q-.4.211-.844.4a6.132,6.132,0,0,1-.866.29v-1.459a8.379,8.379,0,0,0,1.006-.356q.532-.224,1.046-.5t.971-.58a7.71,7.71,0,0,0,.791-.593h.545Zm4.133-3.516a3.353,3.353,0,0,1,.158-1.006,3.645,3.645,0,0,1,.453-.945,3.746,3.746,0,0,1,.729-.8,3.478,3.478,0,0,1,.989-.571,3.737,3.737,0,0,1-1.3-1.173A2.775,2.775,0,0,1,66.672-9.6a3.06,3.06,0,0,1,.268-1.283,3.091,3.091,0,0,1,.743-1.02,3.433,3.433,0,0,1,1.125-.672,4.006,4.006,0,0,1,1.406-.242,3.967,3.967,0,0,1,1.415.246,3.494,3.494,0,0,1,1.125.677,3.038,3.038,0,0,1,.738,1.02A3.082,3.082,0,0,1,73.756-9.6a2.775,2.775,0,0,1-.483,1.586A3.783,3.783,0,0,1,71.99-6.838a3.446,3.446,0,0,1,.976.571,3.8,3.8,0,0,1,.725.8,3.645,3.645,0,0,1,.453.945A3.353,3.353,0,0,1,74.3-3.516,3.743,3.743,0,0,1,74-2a3.378,3.378,0,0,1-.839,1.173,3.875,3.875,0,0,1-1.292.76A4.829,4.829,0,0,1,70.214.2,4.765,4.765,0,0,1,68.571-.07a3.934,3.934,0,0,1-1.292-.76A3.4,3.4,0,0,1,66.431-2,3.7,3.7,0,0,1,66.128-3.516Zm1.564-.123a2.977,2.977,0,0,0,.18,1.063,2.293,2.293,0,0,0,.51.809,2.225,2.225,0,0,0,.8.514,2.889,2.889,0,0,0,1.042.18,2.744,2.744,0,0,0,1.02-.185,2.376,2.376,0,0,0,.8-.519,2.332,2.332,0,0,0,.527-.809,2.828,2.828,0,0,0,.189-1.055,2.694,2.694,0,0,0-.18-.989,2.475,2.475,0,0,0-.514-.813,2.415,2.415,0,0,0-.8-.554,2.6,2.6,0,0,0-1.046-.2,2.63,2.63,0,0,0-1.006.189,2.408,2.408,0,0,0-.8.527,2.442,2.442,0,0,0-.532.809A2.69,2.69,0,0,0,67.692-3.639Zm.448-5.845a2.1,2.1,0,0,0,.163.831,2.093,2.093,0,0,0,.448.668,2.106,2.106,0,0,0,.664.448,2.024,2.024,0,0,0,.809.163,2.009,2.009,0,0,0,.813-.167,2.1,2.1,0,0,0,.664-.453,2.194,2.194,0,0,0,.448-.668,2.03,2.03,0,0,0,.167-.822,2.155,2.155,0,0,0-.163-.844A2.065,2.065,0,0,0,71.709-11a2.077,2.077,0,0,0-.664-.444,2.078,2.078,0,0,0-.822-.163,2.1,2.1,0,0,0-.848.167,2.049,2.049,0,0,0-.659.453,1.979,1.979,0,0,0-.426.672A2.272,2.272,0,0,0,68.14-9.483Zm7.692,5.968a3.353,3.353,0,0,1,.158-1.006,3.645,3.645,0,0,1,.453-.945,3.746,3.746,0,0,1,.729-.8,3.478,3.478,0,0,1,.989-.571,3.737,3.737,0,0,1-1.3-1.173A2.775,2.775,0,0,1,76.377-9.6a3.06,3.06,0,0,1,.268-1.283,3.091,3.091,0,0,1,.743-1.02,3.433,3.433,0,0,1,1.125-.672,4.006,4.006,0,0,1,1.406-.242,3.967,3.967,0,0,1,1.415.246,3.494,3.494,0,0,1,1.125.677,3.038,3.038,0,0,1,.738,1.02A3.082,3.082,0,0,1,83.461-9.6a2.775,2.775,0,0,1-.483,1.586,3.783,3.783,0,0,1-1.283,1.173,3.446,3.446,0,0,1,.976.571,3.8,3.8,0,0,1,.725.8,3.645,3.645,0,0,1,.453.945,3.353,3.353,0,0,1,.158,1.006A3.743,3.743,0,0,1,83.707-2a3.378,3.378,0,0,1-.839,1.173,3.875,3.875,0,0,1-1.292.76A4.829,4.829,0,0,1,79.919.2,4.765,4.765,0,0,1,78.276-.07a3.934,3.934,0,0,1-1.292-.76A3.4,3.4,0,0,1,76.136-2,3.7,3.7,0,0,1,75.832-3.516ZM77.4-3.639a2.977,2.977,0,0,0,.18,1.063,2.293,2.293,0,0,0,.51.809,2.225,2.225,0,0,0,.8.514,2.889,2.889,0,0,0,1.042.18,2.744,2.744,0,0,0,1.02-.185,2.376,2.376,0,0,0,.8-.519,2.332,2.332,0,0,0,.527-.809,2.828,2.828,0,0,0,.189-1.055,2.694,2.694,0,0,0-.18-.989,2.475,2.475,0,0,0-.514-.813,2.415,2.415,0,0,0-.8-.554,2.6,2.6,0,0,0-1.046-.2,2.63,2.63,0,0,0-1.006.189,2.408,2.408,0,0,0-.8.527,2.442,2.442,0,0,0-.532.809A2.69,2.69,0,0,0,77.4-3.639Zm.448-5.845a2.1,2.1,0,0,0,.163.831,2.093,2.093,0,0,0,.448.668,2.106,2.106,0,0,0,.664.448,2.024,2.024,0,0,0,.809.163,2.009,2.009,0,0,0,.813-.167,2.1,2.1,0,0,0,.664-.453,2.194,2.194,0,0,0,.448-.668,2.03,2.03,0,0,0,.167-.822,2.155,2.155,0,0,0-.163-.844A2.065,2.065,0,0,0,81.414-11a2.077,2.077,0,0,0-.664-.444,2.078,2.078,0,0,0-.822-.163,2.1,2.1,0,0,0-.848.167,2.049,2.049,0,0,0-.659.453,1.979,1.979,0,0,0-.426.672A2.272,2.272,0,0,0,77.845-9.483ZM86.706.193a.933.933,0,0,1-.69-.29.955.955,0,0,1-.286-.694.969.969,0,0,1,.286-.7.926.926,0,0,1,.69-.294.95.95,0,0,1,.7.294.962.962,0,0,1,.29.7.947.947,0,0,1-.29.694A.958.958,0,0,1,86.706.193ZM97.167-3.85a4.242,4.242,0,0,1-.316,1.67A3.651,3.651,0,0,1,95.95-.9a4.034,4.034,0,0,1-1.411.826A5.517,5.517,0,0,1,92.7.22a5.074,5.074,0,0,1-2.61-.527V-1.837a4.8,4.8,0,0,0,2.628.826,3.556,3.556,0,0,0,1.235-.2,2.744,2.744,0,0,0,.936-.562,2.408,2.408,0,0,0,.593-.87,2.945,2.945,0,0,0,.207-1.116,2.391,2.391,0,0,0-.826-1.929,3.623,3.623,0,0,0-2.4-.7q-.255,0-.536.009t-.562.022q-.281.013-.549.031t-.488.044L90.76-12.6h5.827v1.3H92.008l-.255,3.7q.281-.018.6-.031t.563-.013a5.656,5.656,0,0,1,1.793.264,3.8,3.8,0,0,1,1.34.751,3.151,3.151,0,0,1,.835,1.2A4.2,4.2,0,0,1,97.167-3.85ZM99.85,2.865H98.566a11.638,11.638,0,0,0,2.742-7.69,11.845,11.845,0,0,0-2.76-7.778h1.3a11.611,11.611,0,0,1,2.742,7.8A11.188,11.188,0,0,1,99.85,2.865Zm7.9-14.289a1.52,1.52,0,0,0-.105-.59,1.168,1.168,0,0,0-.287-.418,1.176,1.176,0,0,0-.428-.249,1.676,1.676,0,0,0-.533-.082,1.764,1.764,0,0,0-.482.067,2.343,2.343,0,0,0-.459.185,2.823,2.823,0,0,0-.431.282,3.111,3.111,0,0,0-.387.364v-.9a2.514,2.514,0,0,1,.792-.525,2.789,2.789,0,0,1,1.069-.182,2.58,2.58,0,0,1,.836.131,1.916,1.916,0,0,1,.666.382,1.766,1.766,0,0,1,.443.62,2.092,2.092,0,0,1,.161.846,2.9,2.9,0,0,1-.1.79,2.442,2.442,0,0,1-.3.666,3.216,3.216,0,0,1-.51.6,7.226,7.226,0,0,1-.723.584q-.518.369-.854.631a3.773,3.773,0,0,0-.533.49,1.421,1.421,0,0,0-.277.456,1.6,1.6,0,0,0-.079.525h3.66V-6h-4.537v-.364a3.033,3.033,0,0,1,.1-.831,2.157,2.157,0,0,1,.338-.682,3.784,3.784,0,0,1,.618-.646q.382-.323.936-.728a5.915,5.915,0,0,0,.669-.549,2.852,2.852,0,0,0,.433-.523,1.878,1.878,0,0,0,.233-.531A2.288,2.288,0,0,0,107.747-11.424Z" transform="translate(108.049 372)" fill="#212429"/>
    <path id="Trazado_1045198" data-name="Trazado 1045198" d="M170.794,81.725H121.811v-1h48.984Z" transform="translate(-92.762 272)" fill="#212429"/>
    <path id="Trazado_1045198-2" data-name="Trazado 1045198" d="M249.6,81.725H121.811v-1H249.6Z" transform="translate(-13.762 272)" fill="#212429"/>
  </g>
</svg>
